<svg width="42" height="28" viewBox="0 0 42 28" fill="none" xmlns="http://www.w3.org/2000/svg">
<path fill-rule="evenodd" clip-rule="evenodd" d="M9.56211 7.69725C9.88871 7.69728 10.0847 7.83441 10.15 8.10878L13.2467 19.8885C13.3251 20.1628 13.2467 20.3 13.0115 20.3H11.1303C10.9869 20.3 10.8887 20.2741 10.8363 20.2221C10.7841 20.1567 10.7449 20.0452 10.7187 19.8885L10.1691 17.7324H6.34785L5.79824 19.8885C5.7721 20.0452 5.72683 20.1567 5.66152 20.2221C5.60921 20.2741 5.51715 20.3 5.38672 20.3H3.50547C3.27041 20.2999 3.19198 20.1627 3.27031 19.8885L6.36699 8.10878C6.45843 7.83447 6.65453 7.69735 6.95488 7.69725H9.56211ZM6.81816 15.7336H9.71934L8.30703 10.0693H8.2291L6.81816 15.7336Z" fill="currentColor"/>
<path d="M21.7656 7.69725C22.04 7.69725 22.1771 7.83438 22.1771 8.10878V9.44178C22.1771 9.71604 22.04 9.85331 21.7656 9.85331H19.5316C19.3748 9.85331 19.2965 9.92559 19.2965 10.0693V19.8885C19.2965 20.1627 19.1591 20.2999 18.885 20.3H17.2375C16.9505 20.2998 16.8069 20.1626 16.8068 19.8885V10.0693C16.8068 9.92559 16.7346 9.85331 16.5908 9.85331H14.3568C14.0826 9.85327 13.9454 9.716 13.9453 9.44178V8.10878C13.9453 7.83442 14.0825 7.69729 14.3568 7.69725H21.7656Z" fill="currentColor"/>
<path d="M25.8494 7.69725C26.1238 7.69725 26.2609 7.83438 26.2609 8.10878V19.8885C26.2609 20.1628 26.1238 20.3 25.8494 20.3H24.1842C23.9098 20.3 23.7727 20.1628 23.7727 19.8885V8.10878C23.7727 7.83438 23.9098 7.69725 24.1842 7.69725H25.8494Z" fill="currentColor"/>
<path d="M33.7805 7.69725C34.8123 7.69738 35.616 7.97779 36.1908 8.53944C36.7657 9.1013 37.0535 9.89234 37.0535 10.9115V11.2834C37.0535 11.5576 36.916 11.6947 36.642 11.6949H34.9754C34.701 11.6949 34.5639 11.5578 34.5639 11.2834V11.1658C34.5638 10.6568 34.4656 10.3111 34.2699 10.1281C34.0739 9.94518 33.7139 9.85331 33.1912 9.85331H32.427C31.8919 9.85336 31.5265 9.95774 31.3305 10.1664C31.1476 10.3623 31.0557 10.7545 31.0557 11.3422V11.7154C31.0558 12.3293 31.5911 12.6821 32.6621 12.7736C33.7727 12.8651 34.7597 13.0867 35.6221 13.4394C36.0794 13.6354 36.459 13.9894 36.7596 14.499C37.0728 14.9953 37.2298 15.6352 37.2299 16.4185V17.0857C37.2299 18.1048 36.9421 18.896 36.3672 19.4578C35.7923 20.0195 34.995 20.3 33.976 20.3H31.8391C30.8201 20.2999 30.0227 20.0195 29.4479 19.4578C28.8729 18.896 28.5852 18.1048 28.5852 17.0857V16.6933C28.5852 16.4191 28.7237 16.2818 28.998 16.2818H30.6633C30.9376 16.2818 31.0747 16.4191 31.0748 16.6933V16.8506C31.0748 17.3467 31.173 17.6861 31.3687 17.8691C31.5647 18.0521 31.9248 18.1439 32.4475 18.1439H33.3676C33.8772 18.1439 34.2311 18.046 34.4271 17.85C34.636 17.6539 34.7402 17.2876 34.7402 16.7521V16.517C34.7402 16.1381 34.5835 15.8502 34.2699 15.6543C33.9694 15.4453 33.5897 15.3216 33.1324 15.2824C32.6753 15.2432 32.179 15.1709 31.6436 15.0664C31.1211 14.9488 30.631 14.8055 30.1738 14.6357C29.7165 14.4528 29.3308 14.1063 29.0172 13.5967C28.7167 13.0741 28.566 12.4078 28.566 11.5978V10.9115C28.566 9.89234 28.8538 9.1013 29.4287 8.53944C30.0036 7.97778 30.8009 7.69725 31.8199 7.69725H33.7805Z" fill="currentColor"/>
<path fill-rule="evenodd" clip-rule="evenodd" d="M42 25.2H0V2.79999H42V25.2ZM1.4 23.8H40.6V4.19999H1.4V23.8Z" fill="currentColor"/>
</svg>
