<svg width="36" height="36" viewBox="0 0 36 36" fill="none" xmlns="http://www.w3.org/2000/svg">
<path d="M29.5654 8.07324C29.5954 8.09832 33.3096 11.2167 33.3096 13.9775C33.3096 17.9581 33.2737 25.8672 33.2734 25.9287C33.2734 25.9287 32.8053 28.0527 29.5293 28.0527C26.2533 28.0527 25.6953 25.9287 25.6953 25.9287V14.1934C25.6953 11.2594 29.5654 8.07324 29.5654 8.07324ZM6.52539 7.94727C9.80123 7.94734 10.2695 10.0713 10.2695 10.0713C10.2697 10.1195 10.3057 18.0746 10.3057 22.0586C10.3057 24.8169 6.59805 27.9323 6.56152 27.9629C6.56152 27.9629 2.69141 24.7768 2.69141 21.8428V10.0713C2.69141 10.0713 3.24939 7.94727 6.52539 7.94727ZM24.5068 23.0674L20.3311 26.2715V24.0928H12.0869L20.3311 22.0049V19.8447L24.5068 23.0674ZM4.56348 19.377C4.56348 20.3102 6.67497 21.7978 6.6875 21.8066C6.71735 21.7866 8.64941 20.4849 8.64941 19.4668V15.5967H4.56348V19.377ZM29.6377 14.6973C29.6377 14.6973 27.5138 16.1909 27.5137 17.127V20.9609H27.5488L27.5674 20.9434H31.5996V17.0732C31.5996 16.0554 29.6685 14.7185 29.6377 14.6973ZM15.6152 12.7354L23.8232 14.8232H15.6152V17.001L11.457 13.7607L15.6152 10.5391V12.7354Z" fill="currentColor"/>
</svg>
