<svg width="48" height="24" viewBox="0 0 48 24" fill="none" xmlns="http://www.w3.org/2000/svg">
<path d="M5.27227 6.59768C5.50747 6.59768 5.625 6.71522 5.625 6.95042V15.3504C5.625 15.4736 5.69334 15.5356 5.82773 15.5356H9.37148C9.59546 15.5356 9.70778 15.6584 9.70781 15.9047V17.0473C9.70779 17.2824 9.59546 17.4 9.37148 17.4H3.84492C3.60975 17.4 3.49222 17.2824 3.49219 17.0473V6.95042C3.49219 6.71522 3.60972 6.59768 3.84492 6.59768H5.27227Z" fill="currentColor"/>
<path fill-rule="evenodd" clip-rule="evenodd" d="M15.525 6.59768C16.4095 6.59778 17.0931 6.83285 17.5746 7.30315C18.056 7.77354 18.2965 8.45171 18.2965 9.33635V14.6614C18.2965 15.546 18.0561 16.2242 17.5746 16.6946C17.0931 17.1649 16.4095 17.3999 15.525 17.4H13.643C12.7583 17.4 12.075 17.1649 11.5934 16.6946C11.1118 16.2242 10.8703 15.5462 10.8703 14.6614V9.33635C10.8703 8.45155 11.1118 7.77355 11.5934 7.30315C12.075 6.83281 12.7582 6.59768 13.643 6.59768H15.525ZM13.9793 8.44573C13.6209 8.44573 13.3679 8.52447 13.2223 8.68127C13.077 8.82696 13.0043 9.07916 13.0043 9.43713V14.5606C13.0043 14.9189 13.0767 15.1772 13.2223 15.334C13.3679 15.4796 13.6209 15.552 13.9793 15.552H15.1711C15.5295 15.552 15.7825 15.4796 15.9281 15.334C16.0849 15.1772 16.1625 14.9189 16.1625 14.5606V9.43713C16.1625 9.07911 16.0846 8.82694 15.9281 8.68127C15.7825 8.52447 15.5295 8.44573 15.1711 8.44573H13.9793Z" fill="currentColor"/>
<path d="M24.7441 6.59768C25.6173 6.59778 26.2947 6.83828 26.7762 7.31956C27.269 7.78996 27.5156 8.46275 27.5156 9.33635V10.125C27.5156 10.3713 27.3925 10.4952 27.1465 10.4953H25.7344C25.4994 10.4952 25.3816 10.3713 25.3816 10.125V9.43713C25.3816 9.07911 25.3037 8.82695 25.1473 8.68127C25.0017 8.52447 24.7486 8.44573 24.3902 8.44573H23.2488C22.9016 8.44573 22.6486 8.52447 22.4918 8.68127C22.3465 8.82696 22.2738 9.07916 22.2738 9.43713V14.5606C22.2738 14.9189 22.3462 15.1772 22.4918 15.334C22.6486 15.4796 22.9016 15.552 23.2488 15.552H24.3902C24.7486 15.552 25.0017 15.4796 25.1473 15.334C25.304 15.1772 25.3816 14.9189 25.3816 14.5606V13.8715C25.3818 13.6256 25.4996 13.5025 25.7344 13.5024H27.1465C27.3924 13.5025 27.5155 13.6256 27.5156 13.8715V14.6614C27.5156 15.535 27.269 16.213 26.7762 16.6946C26.2947 17.1647 25.6174 17.3999 24.7441 17.4H22.9125C22.0278 17.4 21.3445 17.1649 20.8629 16.6946C20.3813 16.2242 20.1398 15.5462 20.1398 14.6614V9.33635C20.1398 8.45155 20.3813 7.77355 20.8629 7.30315C21.3445 6.83281 22.0278 6.59768 22.9125 6.59768H24.7441Z" fill="currentColor"/>
<path fill-rule="evenodd" clip-rule="evenodd" d="M34.0523 6.59768C34.3323 6.59772 34.5003 6.71525 34.5563 6.95042L37.2105 17.0473C37.2777 17.2825 37.2106 17.4 37.009 17.4H35.3965C35.2736 17.4 35.1894 17.3778 35.1445 17.3332C35.0997 17.2772 35.0662 17.1816 35.0438 17.0473L34.5727 15.1992H31.2973L30.8262 17.0473C30.8038 17.1816 30.765 17.2772 30.709 17.3332C30.6641 17.3779 30.5852 17.4 30.4734 17.4H28.8609C28.6594 17.4 28.5922 17.2824 28.6594 17.0473L31.3137 6.95042C31.392 6.71529 31.5601 6.59775 31.8176 6.59768H34.0523ZM31.7004 13.486H34.1871L32.9766 8.63088H32.9098L31.7004 13.486Z" fill="currentColor"/>
<path d="M40.4801 6.59768C40.7153 6.59768 40.8328 6.71522 40.8328 6.95042V15.3504C40.8328 15.4736 40.9011 15.5356 41.0355 15.5356H44.5793C44.8033 15.5356 44.9156 15.6584 44.9156 15.9047V17.0473C44.9156 17.2824 44.8033 17.4 44.5793 17.4H39.0527C38.8176 17.4 38.7 17.2824 38.7 17.0473V6.95042C38.7 6.71522 38.8175 6.59768 39.0527 6.59768H40.4801Z" fill="currentColor"/>
<path fill-rule="evenodd" clip-rule="evenodd" d="M48 21.6H0V2.40002H48V21.6ZM1.2 20.4H46.8V3.60002H1.2V20.4Z" fill="currentColor"/>
</svg>
