<svg width="36" height="36" viewBox="0 0 36 36" fill="none" xmlns="http://www.w3.org/2000/svg">
<path d="M18 3.41504C26.0549 3.41514 32.5849 9.94508 32.585 18C32.5849 26.0549 26.0549 32.5849 18 32.585C9.94508 32.5849 3.41514 26.0549 3.41504 18C3.41514 9.94508 9.94508 3.41514 18 3.41504ZM18 4.68457C10.6465 4.68468 4.68468 10.6465 4.68457 18C4.68468 25.3535 10.6465 31.3143 18 31.3145C25.3535 31.3143 31.3143 25.3535 31.3145 18C31.3143 10.6465 25.3535 4.68468 18 4.68457ZM11.502 15.6602C6.74748 25.5281 16.4965 25.9534 16.5596 25.9561L16.2178 23.3281L20.8369 26.3477L16.1816 28.9619L16.4883 26.748C16.4883 26.748 3.38425 26.8738 10.6562 14.3818L11.502 15.6602ZM20.8438 26.3516L20.8369 26.3477L20.8623 26.334L20.8438 26.3516ZM19.3682 9.30566C19.3895 9.30547 32.4661 9.19019 25.2002 21.6719L24.3545 20.3936C29.0699 10.494 19.2598 10.1523 19.2598 10.1523L19.6025 12.7803L15.0117 9.71973H14.9941L19.6738 7.0918L19.3682 9.30566Z" fill="currentColor"/>
</svg>
