<svg width="36" height="36" viewBox="0 0 36 36" fill="none" xmlns="http://www.w3.org/2000/svg">
<path d="M24.1475 7.12549L19.7461 15.9253L21.7793 15.3345L22.1211 15.2349L22.2197 15.5767L22.8262 17.6704L26.6162 10.0962L32.6934 13.1353L22.7627 32.9927L16.6855 29.9536L19.6396 24.0435L17.9824 24.5298L17.6426 24.6294L17.542 24.2896L16.8076 21.8032L11.0967 33.2251L2.9248 28.7251L15.9746 2.62549L24.1475 7.12549ZM23.1182 18.6772L23.625 20.4263L27.1758 13.02L27.4951 13.1733L27.8154 13.3267L27.709 13.5464L30.0898 14.8032L29.9248 15.1177L29.7588 15.4312L27.4023 14.187L23.9219 21.4497L24.1816 22.3442L24.2803 22.6841L23.9404 22.7837L23.1758 23.0073L20.3818 28.8423L19.7412 28.5356L22.2607 23.2749L20.5713 23.77L17.6396 29.6362L22.4453 32.0396L31.7402 13.4526L26.9346 11.0493L23.1182 18.6772ZM4.63477 28.1851L10.5928 31.4614L16.291 20.0542L15.5439 17.522L15.4434 17.1802L15.7852 17.0806L18.1172 16.4009L22.4912 7.64697L16.5332 4.37158L4.63477 28.1851ZM20.9834 8.27002L20.6514 8.89697L17.3926 7.17139L6.89844 28.8804L6.5791 28.7251L6.25977 28.5708L16.7646 6.83838L16.4033 6.64697L16.7354 6.02002L20.9834 8.27002Z" fill="currentColor"/>
</svg>
