<svg width="36" height="36" viewBox="0 0 36 36" fill="none" xmlns="http://www.w3.org/2000/svg">
<path fill-rule="evenodd" clip-rule="evenodd" d="M17.8105 10.6289C17.9251 10.6289 18.0254 10.5859 18.1113 10.5C18.1973 10.4141 18.2402 10.2995 18.2402 10.1562V8.17969C18.2402 8.0651 18.1973 7.96484 18.1113 7.87891C18.0254 7.79297 17.9251 7.75 17.8105 7.75C17.696 7.75 17.5957 7.79297 17.5098 7.87891C17.4238 7.96484 17.3809 8.0651 17.3809 8.17969V10.1562C17.3809 10.2995 17.4238 10.4141 17.5098 10.5C17.5957 10.5859 17.696 10.6289 17.8105 10.6289ZM23.8906 13.1211C24.0195 13.1211 24.127 13.0781 24.2129 12.9922L25.5879 11.6172C25.7884 11.388 25.7884 11.1732 25.5879 10.9727C25.3874 10.7721 25.1725 10.7721 24.9434 10.9727L23.5684 12.3477C23.3392 12.5768 23.3392 12.7917 23.5684 12.9922C23.6543 13.0781 23.7617 13.1211 23.8906 13.1211ZM12.0527 12.9922C11.9668 13.0781 11.8594 13.1211 11.7305 13.1211C11.6016 13.1211 11.4941 13.0781 11.4082 12.9922L10.0332 11.6172C9.83268 11.388 9.83268 11.1732 10.0332 10.9727C10.2337 10.7721 10.4486 10.7721 10.6777 10.9727L12.0527 12.3477C12.2819 12.5768 12.2819 12.7917 12.0527 12.9922ZM17.8105 25.8828C18.6986 25.8828 19.5579 25.7253 20.3887 25.4102C20.6465 25.2956 20.7253 25.1022 20.625 24.8301C20.5247 24.5579 20.3314 24.4648 20.0449 24.5508C18.4694 25.181 16.8939 25.1523 15.3184 24.4648C13.7428 23.7773 12.64 22.6315 12.0098 21.0273C11.3796 19.4232 11.4082 17.8333 12.0957 16.2578C12.7832 14.6823 13.929 13.5794 15.5332 12.9492C17.1374 12.319 18.7272 12.3477 20.3027 13.0352C21.8783 13.7227 22.9811 14.8685 23.6113 16.4727C24.2415 18.0768 24.2129 19.6667 23.5254 21.2422C23.4108 21.5286 23.4896 21.7292 23.7617 21.8438C24.0339 21.9583 24.2272 21.8724 24.3418 21.5859C25.1152 19.7812 25.1439 17.9622 24.4277 16.1289C23.7116 14.2956 22.4512 12.9922 20.6465 12.2188C18.8418 11.4453 17.0228 11.4167 15.1895 12.1328C13.3561 12.849 12.0527 14.1094 11.2793 15.9141C10.5059 17.7188 10.4772 19.5378 11.1934 21.3711C11.9095 23.2044 13.1699 24.5078 14.9746 25.2812C15.8913 25.6823 16.8366 25.8828 17.8105 25.8828ZM28.6816 19.0508C28.5957 19.1367 28.4954 19.1797 28.3809 19.1797H26.4043C26.2611 19.1797 26.1465 19.1367 26.0605 19.0508C25.9746 18.9648 25.9316 18.8646 25.9316 18.75C25.9316 18.6354 25.9746 18.5352 26.0605 18.4492C26.1465 18.3633 26.2611 18.3203 26.4043 18.3203H28.3809C28.4954 18.3203 28.5957 18.3633 28.6816 18.4492C28.7676 18.5352 28.8105 18.6354 28.8105 18.75C28.8105 18.8646 28.7676 18.9648 28.6816 19.0508ZM9.2168 19.1797C9.36003 19.1797 9.47461 19.1367 9.56055 19.0508C9.64648 18.9648 9.68945 18.8646 9.68945 18.75C9.68945 18.6354 9.64648 18.5352 9.56055 18.4492C9.47461 18.3633 9.36003 18.3203 9.2168 18.3203H7.24023C7.12565 18.3203 7.02539 18.3633 6.93945 18.4492C6.85352 18.5352 6.81055 18.6354 6.81055 18.75C6.81055 18.8646 6.85352 18.9648 6.93945 19.0508C7.02539 19.1367 7.12565 19.1797 7.24023 19.1797H9.2168ZM10.6777 26.5273C10.5918 26.6133 10.4844 26.6562 10.3555 26.6562C10.2266 26.6562 10.1191 26.6133 10.0332 26.5273C9.83268 26.3268 9.83268 26.112 10.0332 25.8828L11.4082 24.5078C11.6374 24.2786 11.8594 24.2715 12.0742 24.4863C12.2891 24.7012 12.2819 24.9232 12.0527 25.1523L10.6777 26.5273ZM25.2656 26.6562C25.3945 26.6562 25.502 26.6133 25.5879 26.5273C25.7884 26.3268 25.7884 26.112 25.5879 25.8828L24.2129 24.5078C23.9837 24.2786 23.7617 24.2715 23.5469 24.4863C23.332 24.7012 23.3392 24.9232 23.5684 25.1523L24.9434 26.5273C25.0293 26.6133 25.1367 26.6562 25.2656 26.6562ZM18.1113 29.6211C18.0254 29.707 17.9251 29.75 17.8105 29.75C17.696 29.75 17.5957 29.707 17.5098 29.6211C17.4238 29.5352 17.3809 29.4349 17.3809 29.3203V27.3438C17.3809 27.2005 17.4238 27.0859 17.5098 27C17.5957 26.9141 17.696 26.8711 17.8105 26.8711C17.9251 26.8711 18.0254 26.9141 18.1113 27C18.1973 27.0859 18.2402 27.2005 18.2402 27.3438V29.3203C18.2402 29.4349 18.1973 29.5352 18.1113 29.6211Z" fill="currentColor"/>
</svg>
