<svg width="36" height="36" viewBox="0 0 36 36" fill="none" xmlns="http://www.w3.org/2000/svg">
<path fill-rule="evenodd" clip-rule="evenodd" d="M11.7695 10.6719C11.4258 11.0156 11.0176 11.1875 10.5449 11.1875C10.0723 11.1875 9.67122 11.0156 9.3418 10.6719C9.01237 10.3281 8.84766 9.91992 8.84766 9.44727C8.84766 8.97461 9.01237 8.57357 9.3418 8.24414C9.67122 7.91471 10.0723 7.75 10.5449 7.75C11.0176 7.75 11.4258 7.91471 11.7695 8.24414C12.1133 8.57357 12.2852 8.97461 12.2852 9.44727C12.2852 9.91992 12.1133 10.3281 11.7695 10.6719ZM10.0723 9.94141C10.2012 10.0846 10.3587 10.1562 10.5449 10.1562C10.7311 10.1562 10.8887 10.0846 11.0176 9.94141C11.1465 9.79818 11.2109 9.63346 11.2109 9.44727C11.2109 9.26107 11.1393 9.11068 10.9961 8.99609C10.8815 8.85286 10.7311 8.78125 10.5449 8.78125C10.3587 8.78125 10.2012 8.8457 10.0723 8.97461C9.94336 9.10352 9.87891 9.26107 9.87891 9.44727C9.87891 9.63346 9.94336 9.79818 10.0723 9.94141ZM12.1992 29.75C12.3424 29.75 12.4714 29.6999 12.5859 29.5996C12.7005 29.4993 12.7578 29.3776 12.7578 29.2344C12.7578 29.0911 12.7005 28.9694 12.5859 28.8691C12.4714 28.7689 12.3424 28.7188 12.1992 28.7188H11.082V15.3984L12.9297 16.1719C12.6432 16.9167 12.4355 17.6185 12.3066 18.2773C12.1777 18.9362 12.1634 19.5306 12.2637 20.0605C12.3639 20.5905 12.5859 20.9414 12.9297 21.1133L12.9727 21.1562H13.0156L13.0371 21.1777L13.0586 21.1992H13.1016L25.1328 23.9492H25.2617C25.3763 23.9492 25.4909 23.9062 25.6055 23.8203C26.2357 23.2474 26.7155 22.5456 27.0449 21.7148C27.3743 20.8841 27.5534 20.2897 27.582 19.9316C27.6107 19.5736 27.625 19.2799 27.625 19.0508C27.625 18.8503 27.5391 18.707 27.3672 18.6211L17.2695 11.9609C17.1836 11.9036 17.0833 11.8464 16.9688 11.7891C16.3672 11.5312 15.6654 11.8464 14.8633 12.7344C14.319 13.3646 13.8034 14.1953 13.3164 15.2266L11.082 14.2383V12.5195C11.082 12.3763 11.0319 12.2546 10.9316 12.1543C10.8314 12.054 10.7096 12.0039 10.5664 12.0039C10.4232 12.0039 10.3014 12.054 10.2012 12.1543C10.1009 12.2546 10.0508 12.3763 10.0508 12.5195V28.7188H8.89062C8.7474 28.7188 8.62565 28.7689 8.52539 28.8691C8.42513 28.9694 8.375 29.0911 8.375 29.2344C8.375 29.3776 8.42513 29.4993 8.52539 29.5996C8.62565 29.6999 8.7474 29.75 8.89062 29.75H12.1992ZM18.8164 21.4141L25.0898 22.832C26.0065 21.944 26.5078 20.7839 26.5938 19.3516L24.3594 17.8906C24.2161 18.5208 23.9727 19.2656 23.6289 20.125C23.5143 20.4115 23.3997 20.6836 23.2852 20.9414C23.1992 21.1419 23.0417 21.2422 22.8125 21.2422C22.7266 21.2422 22.6549 21.2279 22.5977 21.1992C22.2826 21.056 22.1966 20.8268 22.3398 20.5117C22.4544 20.2826 22.5547 20.0247 22.6406 19.7383C23.0417 18.7357 23.2995 17.9049 23.4141 17.2461L17.7852 13.5508C17.7852 13.694 17.7708 13.8372 17.7422 13.9805C17.6562 14.9544 17.3555 16.0573 16.8398 17.2891C16.5247 18.0052 16.181 18.6641 15.8086 19.2656C15.6081 19.5807 15.3646 19.638 15.0781 19.4375C14.7917 19.237 14.7344 18.9935 14.9062 18.707C15.2786 18.1628 15.6081 17.5469 15.8945 16.8594C16.2096 16.1432 16.4316 15.4629 16.5605 14.8184C16.6895 14.1738 16.7467 13.7012 16.7324 13.4004C16.7181 13.0996 16.668 12.8919 16.582 12.7773L16.5391 12.7344C16.4245 12.7344 16.2526 12.8346 16.0234 13.0352C15.7943 13.2357 15.4935 13.6081 15.1211 14.1523C14.7487 14.6966 14.4049 15.3411 14.0898 16.0859C13.7747 16.8307 13.5456 17.5254 13.4023 18.1699C13.2591 18.8145 13.2018 19.2943 13.2305 19.6094C13.2591 19.9245 13.3164 20.125 13.4023 20.2109L17.6562 21.1562C18.2865 20.4974 18.8594 19.5664 19.375 18.3633C19.6042 17.819 19.7904 17.3034 19.9336 16.8164C20.0195 16.4727 20.2344 16.3438 20.5781 16.4297C20.9219 16.5156 21.0508 16.7305 20.9648 17.0742C20.793 17.6185 20.5924 18.1771 20.3633 18.75C19.9049 19.8099 19.3893 20.6979 18.8164 21.4141Z" fill="currentColor"/>
</svg>
