<svg width="36" height="36" viewBox="0 0 36 36" fill="none" xmlns="http://www.w3.org/2000/svg">
<path fill-rule="evenodd" clip-rule="evenodd" d="M28.5703 16.3438C28.7135 16.3438 28.8281 16.3008 28.9141 16.2148C29 16.1289 29.043 16.0215 29.043 15.8926C29.043 15.7637 29 15.6491 28.9141 15.5488C28.8281 15.4486 28.7135 15.3984 28.5703 15.3984C28.3125 15.3984 28.069 15.3483 27.8398 15.248C27.6107 15.1478 27.4388 15.0332 27.3242 14.9043L26.8086 14.3242C26.5794 14.0091 26.3789 13.7728 26.207 13.6152C26.0352 13.4577 25.7845 13.3001 25.4551 13.1426C25.1257 12.985 24.7604 12.9062 24.3594 12.9062C23.9583 12.9062 23.5931 12.985 23.2637 13.1426C22.9342 13.3001 22.6836 13.4577 22.5117 13.6152C22.3398 13.7728 22.125 14.0091 21.8672 14.3242C21.6667 14.582 21.502 14.7754 21.373 14.9043C21.2441 15.0332 21.0723 15.1478 20.8574 15.248C20.6426 15.3483 20.4062 15.3984 20.1484 15.3984C19.8906 15.3984 19.6471 15.3483 19.418 15.248C19.1888 15.1478 19.0169 15.0332 18.9023 14.9043L18.3867 14.3242C18.1576 14.0091 17.957 13.7728 17.7852 13.6152C17.6133 13.4577 17.3626 13.3001 17.0332 13.1426C16.7038 12.985 16.3385 12.9062 15.9375 12.9062C15.5365 12.9062 15.1712 12.985 14.8418 13.1426C14.5124 13.3001 14.2617 13.4577 14.0898 13.6152C13.918 13.7728 13.7174 14.0091 13.4883 14.3242C13.2591 14.582 13.0801 14.7754 12.9512 14.9043C12.8223 15.0332 12.6504 15.1478 12.4355 15.248C12.2207 15.3483 11.9844 15.3984 11.7266 15.3984C11.4688 15.3984 11.2253 15.3483 10.9961 15.248C10.7669 15.1478 10.5951 15.0332 10.4805 14.9043L9.96484 14.3242C9.73568 14.0091 9.53516 13.7728 9.36328 13.6152C9.19141 13.4577 8.94076 13.3001 8.61133 13.1426C8.2819 12.985 7.91667 12.9062 7.51562 12.9062C7.3724 12.9062 7.25781 12.9492 7.17188 13.0352C7.08594 13.1211 7.04297 13.2285 7.04297 13.3574C7.04297 13.4863 7.08594 13.6009 7.17188 13.7012C7.25781 13.8014 7.3724 13.8516 7.51562 13.8516C7.77344 13.8516 8.01693 13.9017 8.24609 14.002C8.47526 14.1022 8.64714 14.2168 8.76172 14.3457L9.27734 14.9258C9.50651 15.2409 9.70703 15.4772 9.87891 15.6348C10.0508 15.7923 10.3014 15.9499 10.6309 16.1074C10.9603 16.265 11.3255 16.3438 11.7266 16.3438C12.1276 16.3438 12.4928 16.265 12.8223 16.1074C13.1517 15.9499 13.4023 15.7923 13.5742 15.6348C13.7461 15.4772 13.9466 15.2409 14.1758 14.9258L14.6914 14.3457C14.806 14.2168 14.9779 14.1022 15.207 14.002C15.4362 13.9017 15.6797 13.8516 15.9375 13.8516C16.1953 13.8516 16.4316 13.9017 16.6465 14.002C16.8613 14.1022 17.0332 14.2168 17.1621 14.3457C17.291 14.4746 17.4557 14.668 17.6562 14.9258C17.9141 15.2409 18.1289 15.4772 18.3008 15.6348C18.4727 15.7923 18.7233 15.9499 19.0527 16.1074C19.3822 16.265 19.7474 16.3438 20.1484 16.3438C20.5495 16.3438 20.9147 16.265 21.2441 16.1074C21.5736 15.9499 21.8242 15.7923 21.9961 15.6348C22.168 15.4772 22.3685 15.2409 22.5977 14.9258L23.1133 14.3457C23.2279 14.2168 23.3997 14.1022 23.6289 14.002C23.8581 13.9017 24.1016 13.8516 24.3594 13.8516C24.6172 13.8516 24.8535 13.9017 25.0684 14.002C25.2832 14.1022 25.4551 14.2168 25.584 14.3457C25.7129 14.4746 25.8919 14.668 26.1211 14.9258C26.3503 15.2409 26.5508 15.4772 26.7227 15.6348C26.8945 15.7923 27.1452 15.9499 27.4746 16.1074C27.804 16.265 28.1693 16.3438 28.5703 16.3438ZM28.5703 20.4688C28.7135 20.4688 28.8281 20.4258 28.9141 20.3398C29 20.2539 29.043 20.1465 29.043 20.0176C29.043 19.8887 29 19.7741 28.9141 19.6738C28.8281 19.5736 28.7135 19.5234 28.5703 19.5234C28.3125 19.5234 28.069 19.4733 27.8398 19.373C27.6107 19.2728 27.4388 19.1582 27.3242 19.0293L26.8086 18.4492C26.5794 18.1341 26.3789 17.8978 26.207 17.7402C26.0352 17.5827 25.7845 17.4251 25.4551 17.2676C25.1257 17.11 24.7604 17.0312 24.3594 17.0312C23.9583 17.0312 23.5931 17.11 23.2637 17.2676C22.9342 17.4251 22.6836 17.5827 22.5117 17.7402C22.3398 17.8978 22.125 18.1341 21.8672 18.4492C21.6667 18.707 21.502 18.9004 21.373 19.0293C21.2441 19.1582 21.0723 19.2728 20.8574 19.373C20.6426 19.4733 20.4062 19.5234 20.1484 19.5234C19.8906 19.5234 19.6471 19.4733 19.418 19.373C19.1888 19.2728 19.0169 19.1582 18.9023 19.0293L18.3867 18.4492C18.1576 18.1341 17.957 17.8978 17.7852 17.7402C17.6133 17.5827 17.3626 17.4251 17.0332 17.2676C16.7038 17.11 16.3385 17.0312 15.9375 17.0312C15.7943 17.0312 15.6797 17.0742 15.5938 17.1602C15.5078 17.2461 15.4648 17.3535 15.4648 17.4824C15.4648 17.6113 15.5078 17.7259 15.5938 17.8262C15.6797 17.9264 15.7943 17.9766 15.9375 17.9766C16.1953 17.9766 16.4316 18.0267 16.6465 18.127C16.8613 18.2272 17.0332 18.3418 17.1621 18.4707C17.291 18.5996 17.4557 18.793 17.6562 19.0508C17.9141 19.3659 18.1289 19.6022 18.3008 19.7598C18.4727 19.9173 18.7233 20.0749 19.0527 20.2324C19.3822 20.39 19.7474 20.4688 20.1484 20.4688C20.5495 20.4688 20.9147 20.39 21.2441 20.2324C21.5736 20.0749 21.8242 19.9173 21.9961 19.7598C22.168 19.6022 22.3685 19.3659 22.5977 19.0508L23.1133 18.4707C23.2279 18.3418 23.3997 18.2272 23.6289 18.127C23.8581 18.0267 24.1016 17.9766 24.3594 17.9766C24.6172 17.9766 24.8535 18.0267 25.0684 18.127C25.2832 18.2272 25.4551 18.3418 25.584 18.4707C25.7129 18.5996 25.8919 18.793 26.1211 19.0508C26.3503 19.3659 26.5508 19.6022 26.7227 19.7598C26.8945 19.9173 27.1452 20.0749 27.4746 20.2324C27.804 20.39 28.1693 20.4688 28.5703 20.4688ZM12.0703 20.3398C11.9844 20.4258 11.8698 20.4688 11.7266 20.4688C11.3255 20.4688 10.9603 20.39 10.6309 20.2324C10.3014 20.0749 10.0508 19.9173 9.87891 19.7598C9.70703 19.6022 9.50651 19.3659 9.27734 19.0508L8.76172 18.4707C8.64714 18.3418 8.47526 18.2272 8.24609 18.127C8.01693 18.0267 7.77344 17.9766 7.51562 17.9766C7.3724 17.9766 7.25781 17.9264 7.17188 17.8262C7.08594 17.7259 7.04297 17.6113 7.04297 17.4824C7.04297 17.3535 7.08594 17.2461 7.17188 17.1602C7.25781 17.0742 7.3724 17.0312 7.51562 17.0312C7.91667 17.0312 8.2819 17.11 8.61133 17.2676C8.94076 17.4251 9.19141 17.5827 9.36328 17.7402C9.53516 17.8978 9.73568 18.1341 9.96484 18.4492L10.4805 19.0293C10.5951 19.1582 10.7669 19.2728 10.9961 19.373C11.2253 19.4733 11.4688 19.5234 11.7266 19.5234C11.8698 19.5234 11.9844 19.5736 12.0703 19.6738C12.1562 19.7741 12.1992 19.8887 12.1992 20.0176C12.1992 20.1465 12.1562 20.2539 12.0703 20.3398ZM28.5703 24.5938C28.7135 24.5938 28.8281 24.5508 28.9141 24.4648C29 24.3789 29.043 24.2715 29.043 24.1426C29.043 24.0137 29 23.8991 28.9141 23.7988C28.8281 23.6986 28.7135 23.6484 28.5703 23.6484C28.3125 23.6484 28.069 23.5983 27.8398 23.498C27.6107 23.3978 27.4388 23.2832 27.3242 23.1543L26.8086 22.5742C26.5794 22.2591 26.3789 22.0228 26.207 21.8652C26.0352 21.7077 25.7845 21.5501 25.4551 21.3926C25.1257 21.235 24.7604 21.1562 24.3594 21.1562C24.2161 21.1562 24.1016 21.1992 24.0156 21.2852C23.9297 21.3711 23.8867 21.4785 23.8867 21.6074C23.8867 21.7363 23.9297 21.8509 24.0156 21.9512C24.1016 22.0514 24.2161 22.1016 24.3594 22.1016C24.6172 22.1016 24.8535 22.1517 25.0684 22.252C25.2832 22.3522 25.4551 22.4668 25.584 22.5957C25.7129 22.7246 25.8919 22.918 26.1211 23.1758C26.3503 23.4909 26.5508 23.7272 26.7227 23.8848C26.8945 24.0423 27.1452 24.1999 27.4746 24.3574C27.804 24.515 28.1693 24.5938 28.5703 24.5938ZM20.4707 24.4648C20.3704 24.5508 20.263 24.5938 20.1484 24.5938C19.7474 24.5938 19.3822 24.515 19.0527 24.3574C18.7233 24.1999 18.4727 24.0423 18.3008 23.8848C18.1289 23.7272 17.9141 23.4909 17.6562 23.1758C17.4557 22.918 17.291 22.7246 17.1621 22.5957C17.0332 22.4668 16.8613 22.3522 16.6465 22.252C16.4316 22.1517 16.1953 22.1016 15.9375 22.1016C15.6797 22.1016 15.4362 22.1517 15.207 22.252C14.9779 22.3522 14.806 22.4668 14.6914 22.5957L14.1758 23.1758C13.9466 23.4909 13.7461 23.7272 13.5742 23.8848C13.4023 24.0423 13.1517 24.1999 12.8223 24.3574C12.4928 24.515 12.1276 24.5938 11.7266 24.5938C11.3255 24.5938 10.9603 24.515 10.6309 24.3574C10.3014 24.1999 10.0508 24.0423 9.87891 23.8848C9.70703 23.7272 9.50651 23.4909 9.27734 23.1758L8.76172 22.5957C8.64714 22.4668 8.47526 22.3522 8.24609 22.252C8.01693 22.1517 7.77344 22.1016 7.51562 22.1016C7.3724 22.1016 7.25781 22.0514 7.17188 21.9512C7.08594 21.8509 7.04297 21.7363 7.04297 21.6074C7.04297 21.4785 7.08594 21.3711 7.17188 21.2852C7.25781 21.1992 7.3724 21.1562 7.51562 21.1562C7.91667 21.1562 8.2819 21.235 8.61133 21.3926C8.94076 21.5501 9.19141 21.7077 9.36328 21.8652C9.53516 22.0228 9.73568 22.2591 9.96484 22.5742L10.4805 23.1543C10.5951 23.2832 10.7669 23.3978 10.9961 23.498C11.2253 23.5983 11.4688 23.6484 11.7266 23.6484C11.9844 23.6484 12.2207 23.5983 12.4355 23.498C12.6504 23.3978 12.8223 23.2832 12.9512 23.1543C13.0801 23.0254 13.2591 22.832 13.4883 22.5742C13.7174 22.2591 13.918 22.0228 14.0898 21.8652C14.2617 21.7077 14.5124 21.5501 14.8418 21.3926C15.1712 21.235 15.5365 21.1562 15.9375 21.1562C16.3385 21.1562 16.7038 21.235 17.0332 21.3926C17.3626 21.5501 17.6133 21.7077 17.7852 21.8652C17.957 22.0228 18.1576 22.2591 18.3867 22.5742L18.9023 23.1543C19.0169 23.2832 19.1888 23.3978 19.418 23.498C19.6471 23.5983 19.8906 23.6484 20.1484 23.6484C20.263 23.6484 20.3704 23.6986 20.4707 23.7988C20.571 23.8991 20.6211 24.0137 20.6211 24.1426C20.6211 24.2715 20.571 24.3789 20.4707 24.4648Z" fill="currentColor"/>
</svg>
