<svg width="36" height="36" viewBox="0 0 36 36" fill="none" xmlns="http://www.w3.org/2000/svg">
<path fill-rule="evenodd" clip-rule="evenodd" d="M21.9381 22.7343L24.2762 19.6957L25 23.3633L24.1761 22.8192C23.0523 24.8787 20.9182 26.2657 18.4543 26.5526C18.2108 26.8259 17.8422 27 17.4294 27C17.0072 27 16.6318 26.8171 16.3887 26.5332C13.9912 26.2067 11.9236 24.8349 10.8239 22.8192L10 23.3633L10.7238 19.6957L13.0617 22.7343L12.3077 22.6053C13.1824 23.9455 14.613 24.876 16.2653 25.1883C16.3743 25.0045 16.532 24.8487 16.7236 24.7372V18.3913H14.1638C14.0077 18.6823 13.6839 18.8828 13.3085 18.8828C12.7809 18.8828 12.353 18.4874 12.353 18C12.353 17.5126 12.7809 17.1173 13.3085 17.1173C13.6839 17.1173 14.0077 17.3178 14.1638 17.6087H16.7236V14.4758C15.4057 14.181 14.4226 13.085 14.4226 11.7781C14.4226 10.2464 15.7716 9 17.4294 9C19.0872 9 20.4362 10.2464 20.4362 11.7781C20.4362 13.085 19.4531 14.181 18.1353 14.4758V17.6087H20.7067C20.8628 17.3178 21.1867 17.1173 21.5621 17.1173C22.0896 17.1173 22.5175 17.5126 22.5175 18C22.5175 18.4874 22.0896 18.8828 21.5621 18.8828C21.1867 18.8828 20.8628 18.6823 20.7067 18.3913H18.1353V24.7372C18.3342 24.8532 18.496 25.0173 18.6052 25.2106C20.312 24.9232 21.7949 23.9802 22.6921 22.6053L21.9381 22.7343ZM17.4294 9.65217C16.1604 9.65217 15.1285 10.6057 15.1285 11.7781C15.1285 12.7231 15.799 13.5248 16.7236 13.8008C16.7479 13.8081 16.7728 13.8143 16.7977 13.8204C16.8063 13.8226 16.8148 13.8247 16.8234 13.8269C16.8564 13.8352 16.8894 13.8434 16.9229 13.8505C16.9542 13.857 16.9857 13.8626 17.0175 13.8681C17.0584 13.8749 17.0996 13.8807 17.1413 13.8856C17.1476 13.8863 17.1539 13.8871 17.1603 13.8878C17.1798 13.8902 17.1993 13.8925 17.2191 13.8942C17.2885 13.9 17.3584 13.9041 17.4294 13.9041C17.5003 13.9041 17.5703 13.9 17.6396 13.8942C17.6628 13.8922 17.6855 13.8894 17.7083 13.8867C17.7113 13.8863 17.7144 13.8859 17.7174 13.8856C17.759 13.8807 17.8004 13.875 17.8414 13.8681C17.873 13.8626 17.9046 13.857 17.9358 13.8505C17.9694 13.8434 18.0023 13.8352 18.0355 13.8269C18.0439 13.8247 18.0523 13.8226 18.0608 13.8205C18.0857 13.8143 18.1107 13.8081 18.1353 13.8008C19.0597 13.5248 19.7304 12.7231 19.7304 11.7781C19.7304 10.6057 18.6984 9.65217 17.4294 9.65217Z" fill="currentColor"/>
<path d="M24.2762 19.6957L24.5215 19.6473L24.4146 19.1058L24.0781 19.5432L24.2762 19.6957ZM21.9381 22.7343L21.74 22.5818L21.3501 23.0885L21.9803 22.9807L21.9381 22.7343ZM25 23.3633L24.8622 23.572L25.361 23.9014L25.2453 23.3149L25 23.3633ZM24.1761 22.8192L24.3139 22.6106L24.087 22.4607L23.9567 22.6994L24.1761 22.8192ZM18.4543 26.5526L18.4254 26.3043L18.3309 26.3153L18.2677 26.3863L18.4543 26.5526ZM16.3887 26.5332L16.5786 26.3706L16.5167 26.2983L16.4224 26.2855L16.3887 26.5332ZM10.8239 22.8192L11.0433 22.6994L10.9131 22.4607L10.6861 22.6106L10.8239 22.8192ZM10 23.3633L9.75473 23.3149L9.639 23.9014L10.1378 23.572L10 23.3633ZM10.7238 19.6957L10.9219 19.5432L10.5854 19.1058L10.4785 19.6473L10.7238 19.6957ZM13.0617 22.7343L13.0196 22.9807L13.6497 23.0885L13.2599 22.5818L13.0617 22.7343ZM12.3077 22.6053L12.3499 22.3588L11.7853 22.2623L12.0984 22.7419L12.3077 22.6053ZM16.2653 25.1883L16.2189 25.4339L16.391 25.4664L16.4804 25.3158L16.2653 25.1883ZM16.7236 24.7372L16.8493 24.9533L16.9736 24.881V24.7372H16.7236ZM16.7236 18.3913H16.9736V18.1413H16.7236V18.3913ZM14.1638 18.3913V18.1413H14.0143L13.9435 18.2731L14.1638 18.3913ZM14.1638 17.6087L13.9436 17.7269L14.0143 17.8587H14.1638V17.6087ZM16.7236 17.6087V17.8587H16.9736V17.6087H16.7236ZM16.7236 14.4758H16.9736V14.2755L16.7781 14.2318L16.7236 14.4758ZM18.1353 14.4758L18.0807 14.2318L17.8853 14.2755V14.4758H18.1353ZM18.1353 17.6087H17.8853V17.8587H18.1353V17.6087ZM20.7067 17.6087V17.8587H20.8562L20.927 17.7269L20.7067 17.6087ZM20.7067 18.3913L20.927 18.2731L20.8563 18.1413H20.7067V18.3913ZM18.1353 18.3913V18.1413H17.8853V18.3913H18.1353ZM18.1353 24.7372H17.8853V24.8809L18.0094 24.9532L18.1353 24.7372ZM18.6052 25.2106L18.3876 25.3336L18.4739 25.4862L18.6467 25.4571L18.6052 25.2106ZM22.6921 22.6053L22.9015 22.7419L23.2145 22.2623L22.65 22.3588L22.6921 22.6053ZM16.7236 13.8008L16.7951 13.5612L16.7951 13.5612L16.7236 13.8008ZM16.7977 13.8204L16.7374 14.0631L16.7374 14.0631L16.7977 13.8204ZM16.8234 13.8269L16.7617 14.0691L16.7621 14.0692L16.8234 13.8269ZM16.9229 13.8505L16.8714 14.0951L16.872 14.0952L16.9229 13.8505ZM17.0175 13.8681L16.975 14.1145L16.9766 14.1147L17.0175 13.8681ZM17.1413 13.8856L17.1701 13.6372L17.1701 13.6372L17.1413 13.8856ZM17.1603 13.8878L17.1305 14.136L17.1603 13.8878ZM17.2191 13.8942L17.1979 14.1433L17.198 14.1433L17.2191 13.8942ZM17.6396 13.8942L17.6186 13.6451L17.6185 13.6451L17.6396 13.8942ZM17.7083 13.8867L17.6781 13.6385L17.6781 13.6385L17.7083 13.8867ZM17.7174 13.8856L17.6886 13.6372L17.6873 13.6374L17.7174 13.8856ZM17.8414 13.8681L17.883 14.1146L17.884 14.1144L17.8414 13.8681ZM17.9358 13.8505L17.9869 14.0952L17.9871 14.0952L17.9358 13.8505ZM18.0355 13.8269L18.0965 14.0693L18.0971 14.0691L18.0355 13.8269ZM18.0608 13.8205L18.0004 13.5779L18.0004 13.5779L18.0608 13.8205ZM18.1353 13.8008L18.2065 14.0404L18.2068 14.0403L18.1353 13.8008ZM24.0781 19.5432L21.74 22.5818L22.1363 22.8867L24.4743 19.8481L24.0781 19.5432ZM25.2453 23.3149L24.5215 19.6473L24.0309 19.7441L24.7547 23.4117L25.2453 23.3149ZM24.0383 23.0278L24.8622 23.572L25.1378 23.1547L24.3139 22.6106L24.0383 23.0278ZM18.4832 26.8009C21.0217 26.5053 23.23 25.0749 24.3956 22.9389L23.9567 22.6994C22.8745 24.6826 20.8147 26.026 18.4254 26.3043L18.4832 26.8009ZM17.4294 27.25C17.9128 27.25 18.3495 27.0459 18.641 26.7189L18.2677 26.3863C18.0721 26.6058 17.7716 26.75 17.4294 26.75V27.25ZM16.1988 26.6958C16.4897 27.0355 16.9346 27.25 17.4294 27.25V26.75C17.0797 26.75 16.7739 26.5987 16.5786 26.3706L16.1988 26.6958ZM10.6044 22.9389C11.7449 25.0294 13.8846 26.4445 16.355 26.7809L16.4224 26.2855C14.0978 25.9689 12.1023 24.6404 11.0433 22.6994L10.6044 22.9389ZM10.1378 23.572L10.9617 23.0278L10.6861 22.6106L9.86222 23.1547L10.1378 23.572ZM10.4785 19.6473L9.75473 23.3149L10.2453 23.4117L10.9691 19.7441L10.4785 19.6473ZM13.2599 22.5818L10.9219 19.5432L10.5256 19.8481L12.8636 22.8867L13.2599 22.5818ZM12.2656 22.8517L13.0196 22.9807L13.1039 22.4878L12.3499 22.3588L12.2656 22.8517ZM16.3117 24.9426C14.7221 24.6422 13.3523 23.7483 12.5171 22.4686L12.0984 22.7419C13.0126 24.1427 14.504 25.1098 16.2189 25.4339L16.3117 24.9426ZM16.5978 24.5212C16.3704 24.6535 16.1816 24.8393 16.0503 25.0607L16.4804 25.3158C16.567 25.1696 16.6935 25.044 16.8493 24.9533L16.5978 24.5212ZM16.4736 18.3913V24.7372H16.9736V18.3913H16.4736ZM14.1638 18.6413H16.7236V18.1413H14.1638V18.6413ZM13.3085 19.1328C13.7726 19.1328 14.1829 18.8846 14.3841 18.5095L13.9435 18.2731C13.8325 18.4801 13.5951 18.6328 13.3085 18.6328V19.1328ZM12.103 18C12.103 18.6438 12.6618 19.1328 13.3085 19.1328V18.6328C12.9 18.6328 12.603 18.3311 12.603 18H12.103ZM13.3085 16.8673C12.6619 16.8673 12.103 17.3562 12.103 18H12.603C12.603 17.6689 12.9 17.3673 13.3085 17.3673V16.8673ZM14.3841 17.4905C14.1829 17.1156 13.7726 16.8673 13.3085 16.8673V17.3673C13.5951 17.3673 13.8325 17.5201 13.9436 17.7269L14.3841 17.4905ZM16.7236 17.3587H14.1638V17.8587H16.7236V17.3587ZM16.4736 14.4758V17.6087H16.9736V14.4758H16.4736ZM14.1726 11.7781C14.1726 13.2179 15.2532 14.4031 16.669 14.7198L16.7781 14.2318C15.5582 13.9589 14.6726 12.952 14.6726 11.7781H14.1726ZM17.4294 8.75C15.6526 8.75 14.1726 10.0901 14.1726 11.7781H14.6726C14.6726 10.4028 15.8907 9.25 17.4294 9.25V8.75ZM20.6862 11.7781C20.6862 10.0901 19.2063 8.75 17.4294 8.75V9.25C18.9681 9.25 20.1862 10.4028 20.1862 11.7781H20.6862ZM18.1898 14.7198C19.6056 14.4031 20.6862 13.2179 20.6862 11.7781H20.1862C20.1862 12.952 19.3006 13.9589 18.0807 14.2318L18.1898 14.7198ZM18.3853 17.6087V14.4758H17.8853V17.6087H18.3853ZM20.7067 17.3587H18.1353V17.8587H20.7067V17.3587ZM21.5621 16.8673C21.0979 16.8673 20.6877 17.1156 20.4864 17.4905L20.927 17.7269C21.038 17.5201 21.2754 17.3673 21.5621 17.3673V16.8673ZM22.7675 18C22.7675 17.3562 22.2086 16.8673 21.5621 16.8673V17.3673C21.9706 17.3673 22.2675 17.6689 22.2675 18H22.7675ZM21.5621 19.1328C22.2087 19.1328 22.7675 18.6438 22.7675 18H22.2675C22.2675 18.3311 21.9705 18.6328 21.5621 18.6328V19.1328ZM20.4864 18.5095C20.6876 18.8846 21.0979 19.1328 21.5621 19.1328V18.6328C21.2755 18.6328 21.038 18.4801 20.927 18.2731L20.4864 18.5095ZM18.1353 18.6413H20.7067V18.1413H18.1353V18.6413ZM18.3853 24.7372V18.3913H17.8853V24.7372H18.3853ZM18.8229 25.0875C18.6914 24.855 18.4977 24.6591 18.2612 24.5212L18.0094 24.9532C18.1706 25.0472 18.3005 25.1795 18.3876 25.3336L18.8229 25.0875ZM22.4828 22.4686C21.6261 23.7813 20.2062 24.6875 18.5637 24.964L18.6467 25.4571C20.4178 25.1589 21.9636 24.179 22.9015 22.7419L22.4828 22.4686ZM21.9803 22.9807L22.7343 22.8517L22.65 22.3588L21.896 22.4878L21.9803 22.9807ZM15.3785 11.7781C15.3785 10.762 16.2795 9.90217 17.4294 9.90217V9.40217C16.0413 9.40217 14.8785 10.4493 14.8785 11.7781H15.3785ZM16.7951 13.5612C15.9619 13.3125 15.3785 12.5981 15.3785 11.7781H14.8785C14.8785 12.8482 15.6362 13.7371 16.652 14.0403L16.7951 13.5612ZM16.8581 13.5778C16.8322 13.5714 16.813 13.5666 16.7951 13.5612L16.652 14.0403C16.6829 14.0496 16.7135 14.0571 16.7374 14.0631L16.8581 13.5778ZM16.885 13.5846C16.8757 13.5822 16.8665 13.5799 16.8581 13.5778L16.7374 14.0631C16.7461 14.0652 16.754 14.0672 16.7617 14.0691L16.885 13.5846ZM16.9744 13.6058C16.9463 13.5999 16.9176 13.5928 16.8846 13.5845L16.7621 14.0692C16.7952 14.0776 16.8326 14.0869 16.8714 14.0951L16.9744 13.6058ZM17.06 13.6217C17.0288 13.6163 17.0008 13.6113 16.9738 13.6057L16.872 14.0952C16.9077 14.1027 16.9427 14.1089 16.975 14.1144L17.06 13.6217ZM17.1701 13.6372C17.1327 13.6329 17.0955 13.6276 17.0583 13.6214L16.9766 14.1147C17.0213 14.1221 17.0666 14.1286 17.1125 14.1339L17.1701 13.6372ZM17.19 13.6396C17.1838 13.6388 17.177 13.638 17.1701 13.6372L17.1124 14.1339C17.1182 14.1346 17.1241 14.1353 17.1305 14.136L17.19 13.6396ZM17.2402 13.6451C17.2255 13.6438 17.2102 13.642 17.19 13.6396L17.1305 14.136C17.1493 14.1383 17.1732 14.1412 17.1979 14.1433L17.2402 13.6451ZM17.4294 13.6541C17.3677 13.6541 17.3053 13.6506 17.2401 13.6451L17.198 14.1433C17.2717 14.1495 17.3491 14.1541 17.4294 14.1541V13.6541ZM17.6185 13.6451C17.5535 13.6506 17.491 13.6541 17.4294 13.6541V14.1541C17.5096 14.1541 17.5871 14.1495 17.6607 14.1433L17.6185 13.6451ZM17.6781 13.6385C17.6546 13.6414 17.6364 13.6436 17.6186 13.6451L17.6607 14.1433C17.6892 14.1409 17.7165 14.1375 17.7386 14.1348L17.6781 13.6385ZM17.6873 13.6374C17.6842 13.6378 17.6811 13.6381 17.6781 13.6385L17.7385 14.1348C17.7416 14.1345 17.7445 14.1341 17.7475 14.1337L17.6873 13.6374ZM17.7997 13.6216C17.7636 13.6277 17.7266 13.6328 17.6886 13.6372L17.7462 14.1339C17.7915 14.1287 17.8372 14.1223 17.883 14.1146L17.7997 13.6216ZM17.8846 13.6058C17.858 13.6113 17.8301 13.6163 17.7987 13.6218L17.884 14.1144C17.9159 14.1089 17.9512 14.1027 17.9869 14.0952L17.8846 13.6058ZM17.9745 13.5844C17.9409 13.5929 17.9126 13.5999 17.8845 13.6058L17.9871 14.0952C18.0262 14.087 18.0637 14.0776 18.0965 14.0693L17.9745 13.5844ZM18.0004 13.5779C17.992 13.58 17.983 13.5823 17.9738 13.5846L18.0971 14.0691C18.1048 14.0672 18.1126 14.0652 18.1212 14.0631L18.0004 13.5779ZM18.064 13.5612C18.0457 13.5666 18.0263 13.5715 18.0004 13.5779L18.1212 14.0631C18.1452 14.0571 18.1757 14.0496 18.2065 14.0404L18.064 13.5612ZM19.4804 11.7781C19.4804 12.5981 18.8968 13.3125 18.0637 13.5612L18.2068 14.0403C19.2225 13.7371 19.9804 12.8482 19.9804 11.7781H19.4804ZM17.4294 9.90217C18.5793 9.90217 19.4804 10.762 19.4804 11.7781H19.9804C19.9804 10.4493 18.8175 9.40217 17.4294 9.40217V9.90217Z" fill="currentColor"/>
</svg>
