<svg width="36" height="36" viewBox="0 0 36 36" fill="none" xmlns="http://www.w3.org/2000/svg">
<path d="M3 33H14.5V35H1V21.5H3V33ZM35 35H21.5V33H33V21.5H35V35ZM17.8711 10.7422C18.3362 10.7422 18.7167 11.1141 18.7275 11.5791C18.7385 12.0595 18.3516 12.4551 17.8711 12.4551H13.3105L24.1963 23.3408V18.7803C24.1964 18.2996 24.5927 17.9136 25.0732 17.9248C25.538 17.9358 25.9091 18.3153 25.9092 18.7803V26.2568H18.4316C17.9667 26.2565 17.587 25.8858 17.5762 25.4209C17.565 24.9405 17.9512 24.5452 18.4316 24.5449H22.9922L12.1064 13.6592V18.2197C12.1063 18.7 11.7116 19.0859 11.2314 19.0752C10.7665 19.0644 10.3947 18.6847 10.3945 18.2197V10.7422H17.8711ZM14.5 3H3V14.5H1V1H14.5V3ZM35 14.5H33V3H21.5V1H35V14.5Z" fill="currentColor"/>
</svg>
