<svg width="36" height="36" viewBox="0 0 36 36" fill="none" xmlns="http://www.w3.org/2000/svg">
<path d="M17.252 14.498C17.4789 13.8474 18.4389 13.8503 18.6621 14.502L18.6982 14.6523L20.0938 24.1143L21.3262 18.0605L21.3672 17.9209C21.6073 17.3141 22.4944 17.3038 22.748 17.9053L22.792 18.0439L23.3545 20.5156H25.0068V21.5156H23.1543C22.8043 21.5155 22.5005 21.273 22.4229 20.9316L22.0742 19.3965L20.791 25.7109C20.6236 26.534 19.4361 26.5018 19.3135 25.6709L17.9502 16.4346L16.8008 23.8848C16.674 24.7033 15.5092 24.7421 15.3281 23.9336L14.0938 18.4209L13.4561 21.0234C13.3737 21.3586 13.0726 21.5945 12.7275 21.5947H11.1113V20.5947H12.5312L13.377 17.1484L13.4229 17.0137C13.6998 16.3837 14.6743 16.4385 14.8369 17.1631L16.0137 22.4229L17.2148 14.6475L17.252 14.498Z" fill="currentColor"/>
<path d="M18 5C23.7039 5 28.3934 8.9467 28.9453 14H29C29.5523 14 30 14.4477 30 15V25C30 25.5523 29.5523 26 29 26H27C26.4477 26 26 25.5523 26 25V15C26 14.4477 26.4477 14 27 14H27.3623C26.8173 9.73745 22.835 6.42871 18 6.42871C13.165 6.42871 9.1827 9.73745 8.6377 14H9C9.55223 14 9.99991 14.4478 10 15V25C10 25.5523 9.55228 26 9 26H7C6.44772 26 6 25.5523 6 25V15C6.00009 14.4478 6.44777 14 7 14H7.05469C7.6066 8.9467 12.2961 5 18 5Z" fill="currentColor"/>
<path d="M4.5 15C4.77614 15 5 15.2239 5 15.5V24.5C5 24.7761 4.77614 25 4.5 25C4.22386 25 4 24.7761 4 24.5V15.5C4 15.2239 4.22386 15 4.5 15Z" fill="currentColor"/>
<path d="M31.5 15C31.7761 15 32 15.2239 32 15.5V24.5C32 24.7761 31.7761 25 31.5 25C31.2239 25 31 24.7761 31 24.5V15.5C31 15.2239 31.2239 15 31.5 15Z" fill="currentColor"/>
<path fill-rule="evenodd" clip-rule="evenodd" d="M18 0C27.9411 0 36 8.05887 36 18C36 27.9411 27.9411 36 18 36C8.05887 36 0 27.9411 0 18C0 8.05887 8.05887 0 18 0ZM18 1C8.61116 1 1 8.61116 1 18C1 27.3888 8.61116 35 18 35C27.3888 35 35 27.3888 35 18C35 8.61116 27.3888 1 18 1Z" fill="currentColor"/>
</svg>
