<svg width="36" height="36" viewBox="0 0 36 36" fill="none" xmlns="http://www.w3.org/2000/svg">
<path d="M17.252 14.498C17.4789 13.8474 18.4389 13.8503 18.6621 14.502L18.6982 14.6523L20.0938 24.1143L21.3262 18.0605L21.3672 17.9209C21.6073 17.3141 22.4944 17.3038 22.748 17.9053L22.792 18.0439L23.3545 20.5156H25.0068V21.5156H23.1543C22.8043 21.5155 22.5005 21.273 22.4229 20.9316L22.0742 19.3965L20.791 25.7109C20.6236 26.534 19.4361 26.5018 19.3135 25.6709L17.9502 16.4346L16.8008 23.8848C16.674 24.7033 15.5092 24.7421 15.3281 23.9336L14.0938 18.4209L13.4561 21.0234C13.3737 21.3586 13.0726 21.5945 12.7275 21.5947H11.1113V20.5947H12.5312L13.377 17.1484L13.4229 17.0137C13.6998 16.3837 14.6743 16.4385 14.8369 17.1631L16.0137 22.4229L17.2148 14.6475L17.252 14.498Z" fill="currentColor"/>
<path d="M18 5C24.0751 5 29 9.47715 29 15C29.5523 15 30 15.4477 30 16C30.5523 16 31 16.4477 31 17V24C31 24.5523 30.5523 25 30 25C30 25.5523 29.5523 26 29 26H27C26.4477 26 26 25.5523 26 25V16C26 15.4477 26.4477 15 27 15H27.4287C27.4287 10.2661 23.2073 6.42871 18 6.42871C12.7927 6.42871 8.57129 10.2661 8.57129 15H9C9.55228 15 10 15.4477 10 16V25C10 25.5523 9.55228 26 9 26H7C6.48232 26 6.05621 25.6067 6.00488 25.1025L6 25C5.44772 25 5 24.5523 5 24V17C5 16.4477 5.44772 16 6 16L6.00488 15.8975C6.05621 15.3933 6.48232 15 7 15C7 9.47715 11.9249 5 18 5Z" fill="currentColor"/>
<path fill-rule="evenodd" clip-rule="evenodd" d="M18 0C27.9411 0 36 8.05887 36 18C36 27.9411 27.9411 36 18 36C8.05887 36 0 27.9411 0 18C0 8.05887 8.05887 0 18 0ZM18 1C8.61116 1 1 8.61116 1 18C1 27.3888 8.61116 35 18 35C27.3888 35 35 27.3888 35 18C35 8.61116 27.3888 1 18 1Z" fill="currentColor"/>
</svg>
