<svg width="36" height="36" viewBox="0 0 36 36" fill="none" xmlns="http://www.w3.org/2000/svg">
<path fill-rule="evenodd" clip-rule="evenodd" d="M35 18C35 27.3888 27.3888 35 18 35C8.61116 35 1 27.3888 1 18C1 8.61116 8.61116 1 18 1C27.3888 1 35 8.61116 35 18ZM36 18C36 27.9411 27.9411 36 18 36C8.05887 36 0 27.9411 0 18C0 8.05887 8.05887 0 18 0C27.9411 0 36 8.05887 36 18ZM28 10.8V21.6C28 22.59 27.19 23.4 26.2 23.4H15.4C14.41 23.4 13.6 22.59 13.6 21.6V10.8C13.6 9.81 14.41 9 15.4 9H26.2C27.19 9 28 9.81 28 10.8ZM18.1 18L19.927 20.439L22.6 17.1L26.2 21.6H15.4L18.1 18ZM10 25.2V12.6H11.8V25.2H24.4V27H11.8C10.81 27 10 26.19 10 25.2Z" fill="currentColor"/>
</svg>
