<svg width="36" height="36" viewBox="0 0 36 36" fill="none" xmlns="http://www.w3.org/2000/svg">
<path d="M34 34H21.5V33H33V21.5H34V34ZM29.959 25C30.2675 25 30.5201 25.2463 30.5273 25.5547C30.5348 25.8735 30.2778 26.1357 29.959 26.1357H26.9346L31 30.2012L30.2012 31L26.1357 26.9346V29.959C26.1357 30.2778 25.8735 30.5348 25.5547 30.5273C25.2463 30.5201 25 30.2675 25 29.959V25H29.959ZM16.25 12.8896H10.5V22.5H16.25V24H9V11.3896H16.25V12.8896ZM26.6973 24H19.4473V22.5H25.1973V12.8896H19.4473V11.3896H26.6973V24ZM14 2.5H2.5V14H1.5V1.5H14V2.5ZM8.86426 8.06543V5.04102C8.86426 4.72217 9.12655 4.46524 9.44531 4.47266C9.75367 4.47993 10 4.73255 10 5.04102V10H5.04102C4.73255 10 4.47993 9.75367 4.47266 9.44531C4.46524 9.12655 4.72217 8.86426 5.04102 8.86426H8.06543L4 4.79883L4.79883 4L8.86426 8.06543Z" fill="currentColor"/>
</svg>
