<svg width="36" height="36" viewBox="0 0 36 36" fill="none" xmlns="http://www.w3.org/2000/svg">
<path d="M18 2C26.8366 2 34 9.16344 34 18C34 26.8366 26.8366 34 18 34C9.16344 34 2 26.8366 2 18C2 9.16344 9.16344 2 18 2ZM18 3C9.71573 3 3 9.71573 3 18C3 26.2843 9.71573 33 18 33C26.2843 33 33 26.2843 33 18C33 9.71573 26.2843 3 18 3ZM18 4C25.732 4 32 10.268 32 18C32 25.732 25.732 32 18 32C10.2681 31.9999 4 25.7319 4 18C4 10.2681 10.2681 4.00009 18 4ZM21.5996 10.0352C19.6471 8.08284 16.4809 8.08286 14.5283 10.0352L12.9863 11.5771C12.5935 11.2466 12.0056 11.266 11.6357 11.6357C11.266 12.0056 11.2466 12.5935 11.5771 12.9863L10.2852 14.2783C8.33314 16.2308 8.3333 19.3961 10.2852 21.3486L11.2881 22.3516C11.4105 22.5399 11.5418 22.7245 11.6816 22.9043L11.7607 22.8252L13.1758 24.2393L13.0957 24.3184C13.2755 24.4582 13.4601 24.5895 13.6484 24.7119L14.5283 25.5918C16.4809 27.5442 19.647 27.5443 21.5996 25.5918L22.7803 24.4102C22.8213 24.3795 22.8638 24.3499 22.9043 24.3184L22.8887 24.3027L24.3027 22.8887L24.3184 22.9043C24.3499 22.8637 24.3795 22.8213 24.4102 22.7803L25.8418 21.3486C27.7941 19.396 27.7942 16.2309 25.8418 14.2783L24.4766 12.9131C24.7482 12.5232 24.712 11.9835 24.3643 11.6357C24.0165 11.2881 23.4768 11.251 23.0869 11.5225L21.5996 10.0352ZM21.4229 25.415C19.5679 27.2699 16.5601 27.2698 14.7051 25.415L14.4648 25.1758C16.7755 26.3147 19.5206 26.27 21.7969 25.041L21.4229 25.415ZM11.6357 22.9502C11.2457 23.3407 11.2455 23.9739 11.6357 24.3643C12.0263 24.7547 12.6603 24.7548 13.0508 24.3643L11.6357 22.9502ZM22.9502 24.3643C23.3407 24.7544 23.9738 24.7546 24.3643 24.3643C24.7546 23.9739 24.7544 23.3407 24.3643 22.9502L22.9502 24.3643ZM24.3125 13.1016L22.1719 15.2432C23.2755 16.9094 23.2755 19.0906 22.1719 20.7568L24.126 22.7119L22.7119 24.126L20.7578 22.1719C19.0915 23.2758 16.9096 23.2756 15.2432 22.1719L13.3525 24.0625L11.9375 22.6484L13.8291 20.7568C12.7251 19.0903 12.724 16.9086 13.8281 15.2422L11.752 13.166L13.166 11.751L15.2422 13.8281C16.9087 12.7241 19.0913 12.7241 20.7578 13.8281L22.8984 11.6875L24.3125 13.1016ZM25.665 14.4551C27.5198 16.31 27.5197 19.3169 25.665 21.1719L25.041 21.7969C26.5148 19.0671 26.285 15.6639 24.3535 13.1436L25.665 14.4551ZM11.3262 13.5908C9.74851 15.9733 9.58129 19.0122 10.8242 21.5342L10.4619 21.1719C8.60769 19.317 8.60752 16.3099 10.4619 14.4551L11.3262 13.5908ZM14.7051 10.2119C16.56 8.35725 19.5679 8.35723 21.4229 10.2119L22.8564 11.6455C20.1439 9.56717 16.4081 9.46064 13.5908 11.3262L14.7051 10.2119Z" fill="currentColor"/>
</svg>
