<svg width="36" height="36" viewBox="0 0 36 36" fill="none" xmlns="http://www.w3.org/2000/svg">
<path d="M32 0.000488281C34.2088 0.000731545 35.9988 1.79075 35.999 3.99951V31.9995C35.999 34.1394 34.3192 35.8872 32.2061 35.9946L32 35.9995H4L3.79395 35.9946C1.74883 35.8909 0.108651 34.2507 0.00488281 32.2056L0 31.9995V3.99951C0.00023346 1.7906 1.79104 0.000488297 4 0.000488281H32ZM4 0.999512C2.34331 0.999512 1.00023 2.34288 1 3.99951V31.9995C1 33.6563 2.34317 34.9995 4 34.9995H32C33.6566 34.9993 34.999 33.6562 34.999 31.9995V3.99951C34.9988 2.34303 33.6565 0.999755 32 0.999512H4ZM8.95801 3.79346C9.92275 3.79351 10.8744 4.01827 11.7373 4.44971L11.8975 4.52979C12.4988 4.83055 12.8787 5.44529 12.8789 6.11768V9.63916C12.8789 10.6039 12.6541 11.5556 12.2227 12.4185L11.2549 14.355C10.9932 14.878 10.4938 15.2331 9.92578 15.3169L9.32715 17.1118H8.87305C8.87377 17.1211 8.87539 17.1457 8.88477 17.1851C8.89656 17.2344 8.91689 17.2977 8.94629 17.3696C9.00548 17.5143 9.10031 17.6835 9.2373 17.8433C9.50319 18.1531 9.94122 18.4438 10.6592 18.4438C11.6439 18.4438 12.4494 17.9946 13.0605 16.936L13.459 16.2642C14.4029 14.7201 15.4502 13.3478 16.7725 12.3257C18.2961 11.148 20.1607 10.4527 22.5957 10.4526C28.2048 10.453 31.9695 14.1051 31.9697 19.8257L31.9746 21.0571C31.9776 21.4414 31.9815 21.8006 31.9854 22.1362C31.9931 22.8065 32.0011 23.3875 32 23.8862C31.9979 24.8646 31.9635 25.595 31.8027 26.1128C31.7185 26.3838 31.5928 26.6218 31.3994 26.812C31.2053 27.0029 30.9715 27.1185 30.7158 27.1899C30.6869 27.198 30.6608 27.2063 30.6367 27.2134V27.7671L29.749 28.2104V30.4302C29.7489 31.4106 28.9541 32.2063 27.9736 32.2065H5.77539C4.79494 32.2063 4.00017 31.4106 4 30.4302V21.5513C4.00022 20.5708 4.79497 19.7761 5.77539 19.7759H27.9736C28.954 19.7761 29.7488 20.5709 29.749 21.5513V25.5464L30.6367 25.9907V26.2739C30.6968 26.2446 30.7421 26.2139 30.7773 26.1792C30.8394 26.1181 30.9016 26.0213 30.9551 25.8491C31.0696 25.48 31.1101 24.885 31.1123 23.8843C31.1134 23.3934 31.1055 22.8204 31.0977 22.147C31.0898 21.4745 31.082 20.7046 31.082 19.8257C31.0818 14.7032 27.8296 11.3406 22.5957 11.3403C20.3489 11.3404 18.6771 11.9763 17.3154 13.0288C16.1132 13.9583 15.1334 15.2269 14.2178 16.7241L13.8281 17.3794C13.0759 18.6822 11.9945 19.3315 10.6592 19.3315C9.66139 19.3315 8.98408 18.9116 8.56348 18.4214C8.35742 18.1811 8.21596 17.9271 8.125 17.7046C8.03892 17.4939 7.98527 17.2799 7.98438 17.1118H7.55176L6.95312 15.3169C6.38512 15.2331 5.88568 14.878 5.62402 14.355L4.65625 12.4185C4.27876 11.6635 4.05969 10.8407 4.01074 10.0005L4 9.63916V6.11768C4.00016 5.4453 4.38008 4.83056 4.98145 4.52979L5.1416 4.44971C6.00449 4.01828 6.95617 3.79352 7.9209 3.79346H8.95801ZM5.77539 20.6636C5.28534 20.6638 4.88791 21.0612 4.8877 21.5513V30.4302L4.89258 30.522C4.93538 30.9393 5.26719 31.2714 5.68457 31.314L5.77539 31.3188H27.9736L28.0645 31.314C28.5118 31.2683 28.8612 30.8896 28.8613 30.4302V21.5513C28.8611 21.0612 28.4637 20.6638 27.9736 20.6636H5.77539ZM20.4258 22.4399C21.1612 22.4399 21.7576 23.0356 21.7578 23.771V28.2104C21.7576 28.9459 21.1612 29.5425 20.4258 29.5425H13.3232C12.5878 29.5425 11.9914 28.9459 11.9912 28.2104V23.771C11.9914 23.0356 12.5878 22.4399 13.3232 22.4399H20.4258ZM13.3232 23.3276C13.0782 23.3276 12.8791 23.526 12.8789 23.771V28.2104L12.8877 28.3003C12.9292 28.5025 13.1088 28.6548 13.3232 28.6548H20.4258L20.5156 28.646C20.7178 28.6046 20.87 28.4248 20.8701 28.2104V23.771C20.8699 23.5567 20.7177 23.3779 20.5156 23.3364L20.4258 23.3276H13.3232ZM9.77148 26.8794C10.0166 26.8795 10.2148 27.0786 10.2148 27.3237C10.2146 27.5687 10.0165 27.768 9.77148 27.7681H6.21973C5.97467 27.7681 5.77559 27.5687 5.77539 27.3237C5.77539 27.0785 5.97455 26.8794 6.21973 26.8794H9.77148ZM25.3096 24.2163C26.2902 24.2164 27.0849 25.0111 27.085 25.9917C27.0848 26.9723 26.2902 27.768 25.3096 27.7681C24.3289 27.7681 23.5334 26.9723 23.5332 25.9917C23.5333 25.011 24.3289 24.2163 25.3096 24.2163ZM9.77148 25.103C10.0166 25.1031 10.2148 25.3022 10.2148 25.5474C10.2146 25.7923 10.0164 25.9906 9.77148 25.9907H6.21973C5.97471 25.9907 5.77566 25.7923 5.77539 25.5474C5.77539 25.3022 5.97455 25.103 6.21973 25.103H9.77148ZM9.77148 23.3267C10.0166 23.3268 10.2148 23.5259 10.2148 23.771C10.2145 24.0158 10.0164 24.2143 9.77148 24.2144H6.21973C5.97475 24.2143 5.77573 24.0159 5.77539 23.771C5.77539 23.5258 5.97455 23.3267 6.21973 23.3267H9.77148ZM7.9209 4.68115C7.09408 4.68122 6.27861 4.87392 5.53906 5.24365L5.37891 5.32373L5.27148 5.38721C5.03371 5.55133 4.88784 5.82357 4.8877 6.11768V9.63916L4.89648 9.94873C4.93843 10.6687 5.12675 11.374 5.4502 12.021L6.41797 13.9575C6.54954 14.2206 6.80179 14.3994 7.08789 14.4399L7.21289 14.4478H9.66602C9.96029 14.4478 10.2333 14.3028 10.3975 14.0649L10.4609 13.9575L11.4287 12.021C11.7522 11.374 11.9405 10.6687 11.9824 9.94873L11.9912 9.63916V6.11768C11.9911 5.82357 11.8452 5.55133 11.6074 5.38721L11.5 5.32373L11.3398 5.24365C10.6928 4.92016 9.98763 4.7319 9.26758 4.68994L8.95801 4.68115H7.9209ZM10.2148 10.0083C10.46 10.0083 10.6592 10.2075 10.6592 10.4526C10.6592 10.6978 10.46 10.897 10.2148 10.897H6.66406C6.41888 10.897 6.21973 10.6978 6.21973 10.4526C6.21974 10.2075 6.41889 10.0083 6.66406 10.0083H10.2148ZM10.2148 8.23291C10.46 8.23291 10.6592 8.43206 10.6592 8.67725C10.659 8.92226 10.4599 9.12061 10.2148 9.12061H6.66406C6.419 9.12061 6.21993 8.92226 6.21973 8.67725C6.21973 8.43206 6.41888 8.23291 6.66406 8.23291H10.2148ZM10.2148 6.45752C10.46 6.45752 10.6591 6.65579 10.6592 6.90088C10.6592 7.14606 10.46 7.34521 10.2148 7.34521H6.66406C6.41888 7.34521 6.21973 7.14606 6.21973 6.90088C6.21984 6.65579 6.41895 6.45752 6.66406 6.45752H10.2148Z" fill="currentColor"/>
</svg>
