<svg width="36" height="36" viewBox="0 0 36 36" fill="none" xmlns="http://www.w3.org/2000/svg">
<path d="M18 2C26.8366 2 34 9.16344 34 18C34 26.8366 26.8366 34 18 34C9.16344 34 2 26.8366 2 18C2 9.16344 9.16344 2 18 2ZM18 3C9.71573 3 3 9.71573 3 18C3 26.2843 9.71573 33 18 33C26.2843 33 33 26.2843 33 18C33 9.71573 26.2843 3 18 3ZM18 4C25.732 4 32 10.268 32 18C32 25.732 25.732 32 18 32C10.268 32 4 25.732 4 18C4 10.268 10.268 4 18 4ZM24.1318 22.2061C22.256 22.2063 20.7356 23.7267 20.7354 25.6025C20.7354 27.4785 22.2559 28.9998 24.1318 29C26.008 29 27.5293 27.4787 27.5293 25.6025C27.5291 23.7266 26.0078 22.2061 24.1318 22.2061ZM26.3623 24.3535L23.9346 27.3027L22.2598 25.6211L22.916 24.9668L23.8691 25.9238L25.6475 23.7646L26.3623 24.3535ZM10.2969 8C9.95591 8 9.67994 8.27628 9.67969 8.61719V25.2939C9.67969 25.6351 9.95576 25.9121 10.2969 25.9121H19.5C19.5 23.3925 21.386 21.3138 23.8232 21.0098V11.9619C23.8232 11.7983 23.7582 11.6412 23.6426 11.5254L20.2988 8.18066C20.2072 8.08905 20.0891 8.02982 19.9629 8.00879V8H10.2969ZM19.0371 11.0879C19.0372 11.6847 19.5205 12.1687 20.1172 12.1689H22.8965V20.25C20.6954 20.8491 19.0105 22.6967 18.6475 24.9854H10.6055V8.92676H19.0371V11.0879ZM12.0879 20.3525C11.7469 20.3527 11.4707 20.6297 11.4707 20.9707C11.4708 21.3117 11.7469 21.5878 12.0879 21.5879C12.429 21.5879 12.706 21.3118 12.7061 20.9707C12.7061 20.6296 12.429 20.3525 12.0879 20.3525ZM14.5586 20.3525C14.2175 20.3526 13.9414 20.6296 13.9414 20.9707C13.9415 21.3117 14.2176 21.5878 14.5586 21.5879H18.8818C19.2229 21.5879 19.4999 21.3118 19.5 20.9707C19.5 20.6296 19.223 20.3525 18.8818 20.3525H14.5586ZM12.0879 17.8828C11.7469 17.8829 11.4707 18.159 11.4707 18.5C11.4707 18.841 11.7469 19.1171 12.0879 19.1172C12.429 19.1172 12.7061 18.8411 12.7061 18.5C12.7061 18.1589 12.429 17.8828 12.0879 17.8828ZM14.5586 17.8828C14.2175 17.8829 13.9414 18.1589 13.9414 18.5C13.9414 18.8411 14.2175 19.1171 14.5586 19.1172H18.8818C19.223 19.1172 19.5 18.8411 19.5 18.5C19.5 18.1589 19.223 17.8828 18.8818 17.8828H14.5586ZM12.0879 15.4121C11.7469 15.4122 11.4708 15.6883 11.4707 16.0293C11.4707 16.3703 11.7469 16.6473 12.0879 16.6475C12.429 16.6475 12.7061 16.3704 12.7061 16.0293C12.706 15.6882 12.429 15.4121 12.0879 15.4121ZM14.5586 15.4121C14.2176 15.4122 13.9415 15.6883 13.9414 16.0293C13.9414 16.3704 14.2175 16.6474 14.5586 16.6475H18.8818C19.223 16.6475 19.5 16.3704 19.5 16.0293C19.4999 15.6882 19.2229 15.4121 18.8818 15.4121H14.5586ZM12.0879 12.9414C11.747 12.9415 11.4708 13.2177 11.4707 13.5586C11.4707 13.8996 11.7469 14.1766 12.0879 14.1768C12.429 14.1768 12.7061 13.8997 12.7061 13.5586C12.7059 13.2176 12.4289 12.9414 12.0879 12.9414ZM14.5586 12.9414C14.2176 12.9415 13.9415 13.2176 13.9414 13.5586C13.9414 13.8997 14.2175 14.1767 14.5586 14.1768H18.8818C19.223 14.1768 19.5 13.8997 19.5 13.5586C19.4999 13.2176 19.2229 12.9414 18.8818 12.9414H14.5586ZM22.0498 11.2422H20.1172C20.0321 11.242 19.9629 11.173 19.9629 11.0879V9.15527L22.0498 11.2422Z" fill="currentColor"/>
</svg>
