<svg width="36" height="36" viewBox="0 0 36 36" fill="none" xmlns="http://www.w3.org/2000/svg">
<path d="M18 2C26.8366 2 34 9.16344 34 18C34 26.8366 26.8366 34 18 34C9.16344 34 2 26.8366 2 18C2 9.16344 9.16344 2 18 2ZM18 3C9.71573 3 3 9.71573 3 18C3 26.2843 9.71573 33 18 33C26.2843 33 33 26.2843 33 18C33 9.71573 26.2843 3 18 3ZM18 4C25.732 4 32 10.268 32 18C32 25.732 25.732 32 18 32C10.268 32 4 25.732 4 18C4 10.268 10.268 4 18 4ZM9.01367 23.3945V26.1211C9.01371 26.4427 9.27417 26.7029 9.5957 26.7031H10.1787C10.5004 26.7031 10.7617 26.4428 10.7617 26.1211V21.6465L9.01367 23.3945ZM12.5088 19.8984V26.1211C12.5088 26.4428 12.7701 26.7031 13.0918 26.7031H13.6738C13.9956 26.7031 14.2568 26.4428 14.2568 26.1211V18.1504L12.5088 19.8984ZM15.9639 26.1211C15.9639 26.4428 16.2251 26.7031 16.5469 26.7031H17.1299C17.4514 26.7029 17.7119 26.4427 17.7119 26.1211V21.3604L15.9639 19.6123V26.1211ZM19.46 19.7646V26.1211C19.46 26.4427 19.7205 26.7029 20.042 26.7031H20.625C20.9467 26.7031 21.208 26.4428 21.208 26.1211V18.0166L19.46 19.7646ZM22.9551 16.2695V26.1211C22.9551 26.4428 23.2164 26.7031 23.5381 26.7031H24.1201C24.4418 26.7031 24.7031 26.4428 24.7031 26.1211V14.5215L22.9551 16.2695ZM26.7451 9.34375L24.1914 9.70801L25.0352 10.5527L17.7881 17.7998L14.2344 14.248L8.9248 19.5576L8.93652 21.4814L14.3799 16.0391L17.7852 19.4443L18.0547 19.1738L18.0586 19.1777L25.8594 11.377L26.6631 12.1807L27.0283 9.62598C27.0516 9.46117 26.91 9.32021 26.7451 9.34375Z" fill="currentColor"/>
</svg>
