<svg width="36" height="36" viewBox="0 0 36 36" fill="none" xmlns="http://www.w3.org/2000/svg">
<path d="M18 1C27.3888 1 35 8.61116 35 18C35 27.3888 27.3888 35 18 35C8.61116 35 1 27.3888 1 18C1 8.61116 8.61116 1 18 1ZM18 3C9.71573 3 3 9.71573 3 18C3 26.2843 9.71573 33 18 33C26.2843 33 33 26.2843 33 18C33 9.71573 26.2843 3 18 3ZM18 28C18.8284 28 19.5 28.6716 19.5 29.5C19.5 30.3284 18.8284 31 18 31C17.1716 31 16.5 30.3284 16.5 29.5C16.5 28.6716 17.1716 28 18 28ZM9.25684 9.02734C9.84782 8.44718 10.7975 8.45609 11.3779 9.04688L17.2783 15.0527C17.5087 14.996 17.7492 14.9639 17.9971 14.9639C18.2647 14.9639 18.5236 15.0016 18.7705 15.0674L21.8867 11.9531C22.4725 11.3679 23.4222 11.3677 24.0078 11.9531C24.5936 12.5389 24.5935 13.4894 24.0078 14.0752L20.8926 17.1895C20.9585 17.4367 20.9971 17.6958 20.9971 17.9639C20.9971 19.6207 19.6539 20.9638 17.9971 20.9639C16.3402 20.9639 14.9971 19.6207 14.9971 17.9639C14.9971 17.6755 15.0393 17.3968 15.1152 17.1328L9.2373 11.1484C8.65719 10.5574 8.66599 9.60774 9.25684 9.02734ZM6.5 16.5C7.32843 16.5 8 17.1716 8 18C8 18.8284 7.32843 19.5 6.5 19.5C5.67157 19.5 5 18.8284 5 18C5 17.1716 5.67157 16.5 6.5 16.5ZM29.5 16.5C30.3284 16.5 31 17.1716 31 18C31 18.8284 30.3284 19.5 29.5 19.5C28.6716 19.5 28 18.8284 28 18C28 17.1716 28.6716 16.5 29.5 16.5ZM18 5C18.8284 5 19.5 5.67159 19.5 6.5C19.5 7.32843 18.8284 8 18 8C17.1716 8 16.5 7.32843 16.5 6.5C16.5 5.67159 17.1716 5 18 5Z" fill="currentColor"/>
</svg>
