<svg width="36" height="36" viewBox="0 0 36 36" fill="none" xmlns="http://www.w3.org/2000/svg">
<path d="M32 0C34.2091 0 36 1.79086 36 4V32C36 34.14 34.3194 35.8879 32.2061 35.9951L32 36H4L3.79395 35.9951C1.7488 35.8913 0.108652 34.2512 0.00488281 32.2061L0 32V4C0 1.79086 1.79086 1.61064e-08 4 0H32ZM4 1C2.34315 1 1 2.34315 1 4V17.4531H3.12598C3.4019 17.4533 3.62581 17.6772 3.62598 17.9531C3.62598 18.2292 3.40201 18.453 3.12598 18.4531H1V32C1 33.6569 2.34315 35 4 35H17.5762V32.9482C17.5762 32.6721 17.8 32.4482 18.0762 32.4482C18.3522 32.4484 18.5762 32.6722 18.5762 32.9482V35H32C33.6569 35 35 33.6569 35 32V18.4531H32.874C32.5981 18.4529 32.374 18.2291 32.374 17.9531C32.3742 17.6773 32.5982 17.4534 32.874 17.4531H35V4C35 2.34315 33.6569 1 32 1H18.5762V3.05176C18.5762 3.32782 18.3522 3.55163 18.0762 3.55176C17.8 3.55176 17.5762 3.3279 17.5762 3.05176V1H4ZM20.5186 10.2324H18.3857V12.2705H20.5186L18.3857 15.6084V17.6768H19.874L20.3096 27.4902C22.1159 27.748 22.9964 28.2343 23 28.2363V30.584H13V28.2363C13.0035 28.2344 13.8228 27.782 15.502 27.5186L15.9395 17.6768H17.6357V15.6084L15.502 12.2705H17.6357V10.2324H15.502L18.0107 6.30762L20.5186 10.2324ZM8.00684 27.2305C8.20211 27.0353 8.51864 27.0352 8.71387 27.2305C8.90895 27.4257 8.90898 27.7423 8.71387 27.9375L8.11328 28.5381C7.91807 28.7333 7.60152 28.7332 7.40625 28.5381C7.211 28.3428 7.21101 28.0263 7.40625 27.8311L8.00684 27.2305ZM27.3047 27.2129C27.5 27.018 27.8166 27.0177 28.0117 27.2129L28.6123 27.8135C28.8072 28.0087 28.8071 28.3253 28.6123 28.5205C28.4171 28.7157 28.1006 28.7155 27.9053 28.5205L27.3047 27.9199C27.1094 27.7247 27.1094 27.4082 27.3047 27.2129ZM16.25 27.4209C16.7695 27.3672 17.3525 27.333 18 27.333C18.5715 27.333 19.0927 27.3603 19.5645 27.4033L19.3828 22.334H16.4316L16.25 27.4209ZM27.8311 7.40625C28.0263 7.21099 28.3428 7.211 28.5381 7.40625C28.7332 7.60152 28.7333 7.91807 28.5381 8.11328L27.9375 8.71387C27.7423 8.90899 27.4257 8.90896 27.2305 8.71387C27.0352 8.51863 27.0353 8.2021 27.2305 8.00684L27.8311 7.40625ZM7.47949 7.3877C7.6747 7.19285 7.99136 7.19278 8.18652 7.3877L8.78711 7.98828C8.98218 8.18344 8.982 8.50005 8.78711 8.69531C8.59187 8.89055 8.27535 8.89049 8.08008 8.69531L7.47949 8.09473C7.28447 7.89945 7.28431 7.58288 7.47949 7.3877Z" fill="currentColor"/>
</svg>
