<svg width="36" height="36" viewBox="0 0 36 36" fill="none" xmlns="http://www.w3.org/2000/svg">
<path d="M24.8169 17.5572C25.2394 17.9798 25.2394 18.6649 24.8169 19.0874C24.3944 19.5099 23.7093 19.5099 23.2868 19.0874L24.8169 17.5572Z" fill="#000023"/>
<path fill-rule="evenodd" clip-rule="evenodd" d="M11.0456 5.31613C11.4458 4.91616 12.0812 4.895 12.5063 5.25262L14.1747 3.58426L14.3764 3.393C16.5 1.47399 19.7786 1.53769 21.8254 3.58426L23.4347 5.1936C23.8566 4.89962 24.4406 4.93992 24.8169 5.31613C25.1932 5.69242 25.2326 6.27572 24.9387 6.69759L26.4158 8.17468L26.607 8.37641C28.4643 10.4317 28.4643 13.5684 26.607 15.6237L26.4158 15.8254L24.867 17.3742C24.8338 17.4186 24.8017 17.4641 24.7676 17.5079L24.7504 17.4908L23.2203 19.0209L23.2375 19.0381C23.1935 19.0722 23.1481 19.1042 23.1037 19.1374L21.8254 20.4158L21.6236 20.6071C19.5684 22.4643 16.4316 22.4643 14.3764 20.6071L14.1747 20.4158L13.2228 19.4639C13.019 19.3315 12.8196 19.1894 12.6251 19.0381L12.711 18.9522L11.1809 17.422L11.095 17.5079C10.9435 17.3132 10.8009 17.1135 10.6683 16.9095L9.58425 15.8254C7.53769 13.7786 7.474 10.5 9.39298 8.37641L9.58425 8.17468L10.9821 6.77679C10.6245 6.35169 10.6455 5.71626 11.0456 5.31613ZM14.3659 20.2245C16.373 22.2316 19.627 22.2315 21.6341 20.2245L22.039 19.8196C19.5762 21.1494 16.6067 21.1976 14.1067 19.9653L14.3659 20.2245ZM13.4171 9.21769C12.2225 11.0207 12.2234 13.382 13.4178 15.1851L11.3721 17.2307L12.9023 18.7609L14.948 16.7152C16.751 17.9097 19.1116 17.9097 20.9146 16.7152L23.029 18.8296L24.5591 17.2995L22.4447 15.1851C23.6391 13.3821 23.6392 11.0214 22.4447 9.21843L24.7609 6.90231L23.2307 5.37217L20.9146 7.6883C19.1115 6.49385 16.7502 6.493 14.9472 7.68755L12.7006 5.4409L11.1704 6.97104L13.4171 9.21769ZM24.8072 6.94863C26.8959 9.67541 27.1434 13.3566 25.5491 16.3095L26.2245 15.6341C28.2316 13.6271 28.2316 10.373 26.2245 8.36595L24.8072 6.94863ZM13.1578 4.98365C16.2059 2.96301 20.2478 3.07672 23.1837 5.3251L21.6341 3.77553C19.627 1.76869 16.3729 1.76856 14.3659 3.77553L13.1578 4.98365ZM9.77551 8.36595C7.76858 10.3729 7.76869 13.6271 9.77551 15.6341L10.167 16.0256C8.82167 13.2958 9.00398 10.0066 10.7132 7.42829L9.77551 8.36595Z" fill="#000023"/>
<path d="M12.5758 19.0874C12.1533 19.5099 11.4682 19.5099 11.0456 19.0874C10.6232 18.6648 10.6231 17.9798 11.0456 17.5572L12.5758 19.0874Z" fill="#000023"/>
</svg>
