<svg width="36" height="36" viewBox="0 0 36 36" fill="none" xmlns="http://www.w3.org/2000/svg">
<path d="M31 12.7942V30.3343L30.9952 30.429C30.9479 30.8919 30.5564 31.253 30.0811 31.2532H9.86919L9.77446 31.2483C9.34257 31.2042 8.99926 30.8609 8.95513 30.429L8.95024 30.3343V16.094H9.86919V30.3343H30.0811V13.1683L29.7979 12.8782H24.1055L24.0137 12.8694C23.8345 12.8327 23.6932 12.6912 23.6563 12.512L23.6465 12.4192L23.6504 6.637C23.6504 6.62217 23.6511 6.60734 23.6524 6.59306L23.5108 6.44755H14.2637L13.7032 5.52861H23.8985L31 12.7942ZM14.1338 26.1595C14.4098 26.1596 14.6337 26.3835 14.6338 26.6595C14.6338 26.9355 14.4098 27.1594 14.1338 27.1595H13.2149C12.9391 27.1591 12.715 26.9353 12.7149 26.6595C12.715 26.3837 12.9392 26.1598 13.2149 26.1595H14.1338ZM26.0782 26.1595C26.354 26.1598 26.578 26.3836 26.5782 26.6595C26.5781 26.9354 26.354 27.1591 26.0782 27.1595H16.8907C16.6147 27.1593 16.3907 26.9354 16.3907 26.6595C16.3908 26.3836 16.6148 26.1597 16.8907 26.1595H26.0782ZM14.1338 22.4847C14.4098 22.4848 14.6337 22.7087 14.6338 22.9847C14.6337 23.2606 14.4098 23.4845 14.1338 23.4847H13.2149C12.9392 23.4843 12.715 23.2604 12.7149 22.9847C12.715 22.7089 12.9392 22.485 13.2149 22.4847H14.1338ZM26.0782 22.4847C26.354 22.485 26.578 22.7088 26.5782 22.9847C26.578 23.2605 26.354 23.4843 26.0782 23.4847H16.8907C16.6148 23.4845 16.3908 23.2606 16.3907 22.9847C16.3908 22.7088 16.6148 22.4848 16.8907 22.4847H26.0782ZM14.1338 18.8099C14.4098 18.81 14.6337 19.0339 14.6338 19.3099C14.6336 19.5857 14.4097 19.8097 14.1338 19.8099H13.2149C12.9392 19.8095 12.7151 19.5856 12.7149 19.3099C12.715 19.0341 12.9392 18.8102 13.2149 18.8099H14.1338ZM26.0782 18.8099C26.354 18.8102 26.578 19.034 26.5782 19.3099C26.5779 19.5856 26.3539 19.8095 26.0782 19.8099H16.8907C16.6148 19.8097 16.3909 19.5857 16.3907 19.3099C16.3908 19.034 16.6148 18.81 16.8907 18.8099H26.0782ZM14.1338 15.1341C14.4097 15.1342 14.6335 15.3583 14.6338 15.6341C14.6338 15.9101 14.4099 16.134 14.1338 16.1341H13.2149C12.9391 16.1337 12.7149 15.91 12.7149 15.6341C12.7153 15.3585 12.9393 15.1345 13.2149 15.1341H14.1338ZM26.0782 15.1341C26.3538 15.1344 26.5778 15.3584 26.5782 15.6341C26.5782 15.91 26.354 16.1338 26.0782 16.1341H16.8907C16.6147 16.1339 16.3907 15.9101 16.3907 15.6341C16.391 15.3584 16.6149 15.1343 16.8907 15.1341H26.0782ZM8.00884 3.25907C8.55488 2.576 9.6083 2.576 10.1543 3.25907L10.2627 3.41532L14.9649 11.2513C15.5152 12.1695 14.8538 13.3377 13.7833 13.3382H4.37993C3.30923 13.3378 2.64787 12.1696 3.19829 11.2513L7.89946 3.41532L8.00884 3.25907ZM9.47563 3.88896C9.29721 3.59159 8.86597 3.59159 8.68755 3.88896L3.98638 11.7239C3.81453 12.011 3.99766 12.3707 4.31548 12.4143L4.37993 12.4192H13.7833L13.8477 12.4143C14.1441 12.3734 14.323 12.0578 14.2061 11.7825L14.1768 11.7239L9.47563 3.88896ZM24.5655 11.9602H28.7823L24.5684 7.74443L24.5655 11.9602ZM9.69341 11.8294H8.46977V7.61064H9.69341V11.8294ZM9.0811 5.65849C9.30585 5.65849 9.48879 5.72154 9.62993 5.84696C9.77107 5.9672 9.84184 6.12425 9.84184 6.31767C9.84174 6.52135 9.77097 6.69161 9.62993 6.82743C9.49406 6.95786 9.31088 7.02275 9.0811 7.02275C8.85651 7.0227 8.67335 6.95797 8.53227 6.82743C8.39122 6.69682 8.32044 6.53437 8.32036 6.34111C8.32036 6.14777 8.39125 5.98544 8.53227 5.85478C8.67337 5.72413 8.85642 5.65853 9.0811 5.65849Z" fill="currentColor"/>
<path d="M32 35V36H4V35H32ZM35 32V4C35 2.34315 33.6569 1 32 1H4C2.34315 1 1 2.34315 1 4V32C1 33.6569 2.34315 35 4 35V36L3.79395 35.9951C1.7488 35.8913 0.108652 34.2512 0.00488281 32.2061L0 32V4C0 1.79086 1.79086 1.61064e-08 4 0H32C34.2091 0 36 1.79086 36 4V32C36 34.14 34.3194 35.8879 32.2061 35.9951L32 36V35C33.6569 35 35 33.6569 35 32Z" fill="currentColor"/>
</svg>
