<svg width="36" height="36" viewBox="0 0 36 36" fill="none" xmlns="http://www.w3.org/2000/svg">
<path d="M32 0C34.2091 0 36 1.79086 36 4V32C36 34.14 34.3194 35.8879 32.2061 35.9951L32 36H4L3.79395 35.9951C1.7488 35.8913 0.108652 34.2512 0.00488281 32.2061L0 32V4C0 1.79086 1.79086 1.61064e-08 4 0H32ZM4 1C2.34315 1 1 2.34315 1 4V32C1 33.6569 2.34315 35 4 35H32C33.6569 35 35 33.6569 35 32V4C35 2.34315 33.6569 1 32 1H4ZM6.39258 30.4766C6.5175 30.4766 6.63103 30.5125 6.71875 30.5957C6.80383 30.6766 6.84661 30.7799 6.84668 30.8965L6.83887 30.9824C6.82848 31.0372 6.8083 31.089 6.77832 31.1367L6.72559 31.2051C6.63931 31.3005 6.52349 31.3457 6.39258 31.3457C6.22915 31.3458 6.08167 31.3768 5.94922 31.4355C5.80893 31.4979 5.70206 31.5673 5.625 31.6406C5.53918 31.7223 5.41769 31.8442 5.2627 32.0098C5.1005 32.2218 4.954 32.3867 4.8252 32.499C4.69251 32.6145 4.50536 32.7242 4.27051 32.8311C4.08481 32.9155 3.88497 32.9682 3.67188 32.9893L3.4541 33C3.32922 33 3.21555 32.9639 3.12793 32.8809C3.06423 32.8203 3.02384 32.7468 3.00781 32.665L3 32.5791C3.00011 32.463 3.04215 32.3581 3.12109 32.2705C3.20683 32.1756 3.32238 32.1299 3.4541 32.1299L3.5752 32.124C3.69403 32.1128 3.80731 32.0848 3.91504 32.04C4.0652 31.9775 4.16772 31.9097 4.23145 31.8418L4.58398 31.4629C4.74577 31.2515 4.89322 31.0894 5.02148 30.9775C5.154 30.8621 5.34077 30.7506 5.57617 30.6436C5.82401 30.5309 6.09702 30.4766 6.39258 30.4766ZM23.7285 30.4766C24.0242 30.4766 24.2979 30.5308 24.5459 30.6436C24.7813 30.7506 24.9673 30.8623 25.0996 30.9775C25.2282 31.0897 25.3758 31.2527 25.5381 31.4648L25.8896 31.8418C25.9535 31.91 26.0561 31.9776 26.2061 32.04C26.3499 32.0999 26.5039 32.1299 26.668 32.1299C26.7873 32.13 26.8914 32.1819 26.9785 32.2646C27.0695 32.3512 27.121 32.4574 27.1211 32.5791L27.1113 32.6689C27.092 32.7536 27.0443 32.8275 26.9717 32.8867C26.9049 32.941 26.8303 32.9774 26.75 32.9922L26.668 33C26.3718 33 26.0985 32.9438 25.8506 32.8311C25.6158 32.7242 25.4286 32.6145 25.2959 32.499C25.1695 32.3888 25.015 32.226 24.834 32.0156L24.832 32.0137C24.694 31.8449 24.5817 31.7212 24.4971 31.6406C24.4199 31.5673 24.3123 31.4979 24.1719 31.4355C24.0726 31.3915 23.9651 31.363 23.8486 31.3516L23.7285 31.3457C23.5649 31.3457 23.4108 31.3765 23.2666 31.4365C23.1165 31.499 23.0139 31.5666 22.9502 31.6348L22.5977 32.0098C22.4358 32.2214 22.29 32.3866 22.1611 32.499C22.0285 32.6145 21.8411 32.7243 21.6064 32.8311C21.3586 32.9438 21.0852 33 20.7891 33C20.493 33 20.2195 32.9438 19.9717 32.8311C19.737 32.7243 19.5496 32.6145 19.417 32.499C19.2882 32.3867 19.1423 32.2223 18.9805 32.0107L18.6289 31.6348C18.5651 31.5666 18.4616 31.499 18.3115 31.4365C18.2123 31.3953 18.1082 31.3684 18 31.3555C17.8918 31.3684 17.7877 31.3953 17.6885 31.4365C17.5384 31.499 17.4349 31.5666 17.3711 31.6348L17.0186 32.0098C16.8568 32.2213 16.7118 32.3867 16.583 32.499C16.4504 32.6145 16.263 32.7243 16.0283 32.8311C15.8425 32.9156 15.6421 32.9683 15.4287 32.9893L15.2109 33C14.9148 33 14.6414 32.9438 14.3936 32.8311C14.1589 32.7243 13.9715 32.6145 13.8389 32.499C13.71 32.3866 13.5632 32.2224 13.4014 32.0107L13.0498 31.6348C12.9861 31.5666 12.8835 31.499 12.7334 31.4365C12.5892 31.3765 12.4351 31.3457 12.2715 31.3457C12.108 31.3457 11.9607 31.3768 11.8281 31.4355C11.6877 31.4979 11.5801 31.5673 11.5029 31.6406C11.4183 31.7212 11.306 31.8449 11.168 32.0137L11.166 32.0156C10.985 32.226 10.8305 32.3888 10.7041 32.499C10.5714 32.6145 10.3842 32.7242 10.1494 32.8311C9.90155 32.9438 9.6282 33 9.33203 33C9.21975 32.9999 9.1173 32.9591 9.02832 32.8867C8.9312 32.8075 8.87899 32.7016 8.87891 32.5791C8.87903 32.4574 8.93053 32.3512 9.02148 32.2646C9.10861 32.1819 9.21274 32.13 9.33203 32.1299C9.49609 32.1299 9.65014 32.0999 9.79395 32.04C9.94393 31.9776 10.0465 31.91 10.1104 31.8418L10.4619 31.4648C10.6242 31.2527 10.7718 31.0897 10.9004 30.9775C11.0327 30.8623 11.2187 30.7506 11.4541 30.6436C11.7021 30.5308 11.9758 30.4766 12.2715 30.4766C12.5673 30.4766 12.8408 30.5307 13.0889 30.6436C13.3243 30.7506 13.511 30.8621 13.6436 30.9775C13.7721 31.0897 13.9183 31.2533 14.0801 31.4648C14.2352 31.6306 14.3557 31.7544 14.4414 31.8359C14.5184 31.9092 14.6268 31.9785 14.7676 32.041C14.8997 32.0996 15.047 32.1299 15.2109 32.1299L15.332 32.124C15.4509 32.1128 15.5641 32.0848 15.6719 32.04C15.8225 31.9774 15.9256 31.9099 15.9893 31.8418L16.3408 31.4648C16.5026 31.2534 16.6488 31.0897 16.7773 30.9775C16.9099 30.8621 17.0976 30.7506 17.333 30.6436C17.412 30.6077 17.4935 30.5799 17.5742 30.5566C17.6535 30.5016 17.7473 30.4766 17.8496 30.4766L18 30.4824C18.0469 30.4792 18.098 30.4766 18.1504 30.4766C18.2524 30.4766 18.3444 30.5027 18.4229 30.5566C18.5043 30.58 18.587 30.6072 18.667 30.6436C18.9024 30.7506 19.0901 30.8621 19.2227 30.9775C19.3512 31.0897 19.4974 31.2534 19.6592 31.4648L20.0107 31.8418C20.0744 31.9099 20.1775 31.9774 20.3281 32.04C20.4719 32.0998 20.6253 32.1299 20.7891 32.1299C20.953 32.1299 21.1003 32.0996 21.2324 32.041C21.3732 31.9785 21.4816 31.9092 21.5586 31.8359C21.6443 31.7544 21.7648 31.6306 21.9199 31.4648C22.0817 31.2533 22.2279 31.0897 22.3564 30.9775C22.489 30.8621 22.6757 30.7506 22.9111 30.6436C23.1592 30.5307 23.4327 30.4766 23.7285 30.4766ZM29.6074 30.4766C29.903 30.4766 30.176 30.5309 30.4238 30.6436C30.6592 30.7506 30.846 30.8621 30.9785 30.9775C31.1067 31.0893 31.2534 31.2517 31.415 31.4629L31.7686 31.8418C31.8323 31.9099 31.9345 31.9774 32.085 32.04C32.2287 32.0998 32.3821 32.1298 32.5459 32.1299C32.6776 32.1299 32.7932 32.1756 32.8789 32.2705C32.9579 32.3581 32.9999 32.463 33 32.5791L32.9922 32.665C32.9762 32.7468 32.9358 32.8203 32.8721 32.8809C32.7845 32.9639 32.6708 33 32.5459 33C32.2499 33 31.9772 32.9437 31.7295 32.8311C31.4946 32.7242 31.3075 32.6145 31.1748 32.499C31.046 32.3867 30.8985 32.2228 30.7363 32.0107C30.5815 31.8454 30.4607 31.7222 30.375 31.6406C30.2979 31.5673 30.1911 31.4979 30.0508 31.4355C29.9516 31.3915 29.844 31.363 29.7275 31.3516L29.6074 31.3457C29.509 31.3457 29.419 31.3197 29.3438 31.2666L29.2744 31.2051C29.1954 31.1174 29.1534 31.0126 29.1533 30.8965C29.1534 30.7799 29.1962 30.6766 29.2812 30.5957C29.369 30.5125 29.4825 30.4766 29.6074 30.4766ZM12.2715 27.7373C12.3974 27.7373 12.5105 27.7757 12.5977 27.8584C12.6824 27.9392 12.7256 28.0426 12.7256 28.1592L12.7178 28.2441C12.7021 28.3263 12.6633 28.4014 12.6045 28.4668C12.5187 28.5618 12.4033 28.6084 12.2715 28.6084C12.1074 28.6084 11.9603 28.6386 11.8281 28.6973C11.6879 28.7595 11.5801 28.828 11.5029 28.9014C11.4184 28.9818 11.3064 29.1061 11.168 29.2754L11.166 29.2773C10.9849 29.4879 10.8306 29.6515 10.7041 29.7617C10.5714 29.8772 10.3842 29.987 10.1494 30.0938C9.90155 30.2065 9.6282 30.2627 9.33203 30.2627C9.03603 30.2627 8.76326 30.2063 8.51562 30.0938C8.28093 29.987 8.09359 29.8771 7.96094 29.7617C7.83213 29.6494 7.68466 29.4845 7.52246 29.2725L7.1709 28.8955C7.10713 28.8278 7.00413 28.7605 6.85449 28.6982C6.71065 28.6384 6.55668 28.6084 6.39258 28.6084C6.22896 28.6085 6.08228 28.6387 5.9502 28.6973C5.80966 28.7596 5.70199 28.8283 5.625 28.9014C5.53934 28.9828 5.41799 29.1055 5.2627 29.2715C5.10048 29.4836 4.95401 29.6494 4.8252 29.7617C4.69254 29.8771 4.50519 29.987 4.27051 30.0938C4.08488 30.1781 3.88492 30.2309 3.67188 30.252L3.4541 30.2627C3.32815 30.2627 3.21505 30.2243 3.12793 30.1416C3.04306 30.0607 3 29.9574 3 29.8408C3.00017 29.7246 3.04251 29.6205 3.12109 29.5332C3.20685 29.4382 3.32229 29.3916 3.4541 29.3916L3.5752 29.3867C3.6941 29.3755 3.80727 29.3466 3.91504 29.3018C4.06505 29.2393 4.1677 29.1723 4.23145 29.1045L4.58398 28.7256C4.74569 28.5143 4.89301 28.3503 5.02148 28.2383C5.15415 28.1229 5.34142 28.013 5.57617 27.9062C5.82381 27.7937 6.09661 27.7374 6.39258 27.7373C6.68871 27.7373 6.96214 27.7936 7.20996 27.9062C7.4447 28.013 7.63198 28.1229 7.76465 28.2383C7.82793 28.2934 7.89925 28.3626 7.97656 28.4434L8.22754 28.7227L8.22949 28.7246C8.36829 28.8943 8.4801 29.0184 8.56445 29.0986C8.64159 29.1718 8.74859 29.2405 8.88867 29.3027C9.02079 29.3613 9.16801 29.3916 9.33203 29.3916C9.49614 29.3916 9.65011 29.3616 9.79395 29.3018C9.94364 29.2394 10.0465 29.1726 10.1104 29.1045L10.4619 28.7275C10.6241 28.5155 10.7716 28.3505 10.9004 28.2383C11.0328 28.1231 11.2195 28.013 11.4541 27.9062C11.7019 27.7936 11.9754 27.7373 12.2715 27.7373ZM18.1504 27.7373C18.2531 27.7374 18.3437 27.7655 18.4209 27.8184C18.5034 27.842 18.5866 27.8697 18.667 27.9062C18.9019 28.0131 19.09 28.1227 19.2227 28.2383C19.3516 28.3507 19.4973 28.5159 19.6592 28.7275L20.0107 29.1045C20.0744 29.1725 20.1779 29.2392 20.3281 29.3018C20.4719 29.3615 20.6253 29.3916 20.7891 29.3916C20.9209 29.3916 21.0363 29.4382 21.1221 29.5332C21.2005 29.6204 21.243 29.7246 21.2432 29.8408C21.2432 29.9575 21.2 30.0608 21.1152 30.1416C21.0281 30.2244 20.9151 30.2627 20.7891 30.2627C20.493 30.2627 20.2195 30.2065 19.9717 30.0938C19.737 29.987 19.5496 29.8772 19.417 29.7617C19.2881 29.6493 19.1424 29.4841 18.9805 29.2725L18.6289 28.8955C18.5651 28.8273 18.4615 28.7607 18.3115 28.6982C18.2122 28.6569 18.1083 28.6291 18 28.6162C17.8917 28.6291 17.7878 28.6569 17.6885 28.6982C17.5385 28.7607 17.4349 28.8273 17.3711 28.8955L17.0186 29.2715C16.8567 29.4832 16.7119 29.6493 16.583 29.7617C16.4504 29.8772 16.263 29.987 16.0283 30.0938C15.8425 30.1783 15.6421 30.231 15.4287 30.252L15.2109 30.2627C15.0849 30.2627 14.9719 30.2244 14.8848 30.1416C14.8 30.0608 14.7568 29.9575 14.7568 29.8408C14.757 29.7246 14.7995 29.6204 14.8779 29.5332C14.9637 29.4382 15.0791 29.3916 15.2109 29.3916L15.332 29.3867C15.4509 29.3755 15.5641 29.3465 15.6719 29.3018C15.8221 29.2392 15.9256 29.1725 15.9893 29.1045L16.3408 28.7275C16.5027 28.5159 16.6484 28.3507 16.7773 28.2383C16.91 28.1227 17.0981 28.0131 17.333 27.9062C17.4124 27.8702 17.4944 27.8419 17.5762 27.8184C17.6543 27.7644 17.7466 27.7374 17.8496 27.7373L18 27.7441C18.045 27.7409 18.0975 27.7373 18.1504 27.7373ZM29.6074 27.7373C29.9034 27.7374 30.1762 27.7937 30.4238 27.9062C30.6586 28.013 30.8459 28.1229 30.9785 28.2383C31.1069 28.3502 31.2535 28.5145 31.415 28.7256L31.7686 29.1045C31.8323 29.1725 31.9346 29.2392 32.085 29.3018C32.2287 29.3615 32.3821 29.3916 32.5459 29.3916C32.6777 29.3916 32.7931 29.4382 32.8789 29.5332C32.9575 29.6205 32.9998 29.7246 33 29.8408C33 29.9574 32.9569 30.0607 32.8721 30.1416C32.7849 30.2243 32.6719 30.2627 32.5459 30.2627C32.2499 30.2626 31.9771 30.2063 31.7295 30.0938C31.4948 29.987 31.3075 29.8771 31.1748 29.7617C31.046 29.6494 30.8985 29.4846 30.7363 29.2725C30.5812 29.1067 30.4606 28.9828 30.375 28.9014C30.2979 28.8282 30.1909 28.7595 30.0508 28.6973C29.9518 28.6533 29.8443 28.6245 29.7275 28.6133L29.6074 28.6084C29.4433 28.6084 29.2894 28.6384 29.1455 28.6982C28.9955 28.7607 28.8928 28.8277 28.8291 28.8955L28.4775 29.2725L28.2461 29.5537C28.1732 29.6353 28.1035 29.7056 28.0391 29.7617C27.9064 29.8771 27.7191 29.987 27.4844 30.0938C27.2987 30.1781 27.0988 30.2309 26.8857 30.252L26.668 30.2627C26.3718 30.2627 26.0985 30.2065 25.8506 30.0938C25.6158 29.987 25.4286 29.8772 25.2959 29.7617C25.1694 29.6515 25.0151 29.4879 24.834 29.2773L24.832 29.2754C24.6936 29.1061 24.5816 28.9818 24.4971 28.9014C24.4199 28.828 24.3121 28.7595 24.1719 28.6973C24.0728 28.6533 23.9654 28.6245 23.8486 28.6133L23.7285 28.6084C23.5967 28.6084 23.4813 28.5618 23.3955 28.4668C23.3171 28.3796 23.2746 28.2754 23.2744 28.1592C23.2744 28.0426 23.3176 27.9392 23.4023 27.8584C23.4895 27.7757 23.6026 27.7373 23.7285 27.7373C24.0246 27.7373 24.2981 27.7936 24.5459 27.9062C24.7805 28.013 24.9672 28.1231 25.0996 28.2383C25.2284 28.3505 25.3759 28.5155 25.5381 28.7275L25.8896 29.1045C25.9535 29.1726 26.0564 29.2394 26.2061 29.3018C26.3499 29.3616 26.5039 29.3916 26.668 29.3916L26.7881 29.3867C26.9049 29.3755 27.0123 29.3467 27.1113 29.3027C27.2514 29.2405 27.3584 29.1718 27.4355 29.0986C27.5199 29.0184 27.6317 28.8943 27.7705 28.7246L27.7725 28.7227C27.9539 28.5117 28.109 28.3484 28.2354 28.2383C28.368 28.1229 28.5553 28.013 28.79 27.9062C29.0379 27.7936 29.3113 27.7373 29.6074 27.7373ZM29.8252 25.0107C30.0383 25.0318 30.2381 25.0845 30.4238 25.1689C30.6587 25.2758 30.8458 25.3855 30.9785 25.501C31.1073 25.6133 31.2548 25.7772 31.417 25.9893L31.7676 26.3652C31.8313 26.4333 31.9344 26.5008 32.085 26.5635C32.2291 26.6234 32.3825 26.6543 32.5459 26.6543C32.6768 26.6543 32.7926 26.6994 32.8789 26.7949L32.9316 26.8633C32.9768 26.9351 33 27.0164 33 27.1035C32.9999 27.2201 32.9571 27.3234 32.8721 27.4043C32.7843 27.4876 32.6708 27.5234 32.5459 27.5234C32.2504 27.5234 31.9773 27.469 31.7295 27.3564C31.4941 27.2494 31.3073 27.1379 31.1748 27.0225C31.0462 26.9103 30.8986 26.7473 30.7363 26.5352C30.5811 26.3693 30.4606 26.2455 30.375 26.1641C30.298 26.0909 30.1906 26.0215 30.0498 25.959C29.9509 25.9152 29.8438 25.8872 29.7275 25.876L29.6074 25.8701C29.4434 25.8701 29.2893 25.9002 29.1455 25.96C28.9953 26.0225 28.8928 26.0903 28.8291 26.1582L28.4775 26.5352L28.2461 26.8164C28.1732 26.8977 28.1034 26.9664 28.0391 27.0225C27.9066 27.1379 27.7197 27.2494 27.4844 27.3564C27.2987 27.4408 27.0986 27.4929 26.8857 27.5137L26.668 27.5234C26.3722 27.5234 26.0986 27.4692 25.8506 27.3564C25.6152 27.2494 25.4284 27.1379 25.2959 27.0225C25.1697 26.9124 25.0151 26.7505 24.834 26.54L24.832 26.5381C24.6937 26.3689 24.5816 26.2445 24.4971 26.1641C24.4199 26.0907 24.3122 26.0213 24.1719 25.959C24.0729 25.9151 23.9653 25.8871 23.8486 25.876L23.7285 25.8701C23.5645 25.8701 23.4104 25.9001 23.2666 25.96C23.1166 26.0224 23.014 26.09 22.9502 26.1582L22.5977 26.5342C22.4358 26.7458 22.2898 26.9102 22.1611 27.0225C22.0287 27.1378 21.8417 27.2494 21.6064 27.3564C21.3584 27.4692 21.0848 27.5234 20.7891 27.5234C20.4933 27.5234 20.2198 27.4693 19.9717 27.3564C19.7364 27.2494 19.5495 27.1379 19.417 27.0225C19.2884 26.9103 19.1423 26.7466 18.9805 26.5352L18.6289 26.1582C18.5651 26.09 18.4616 26.0225 18.3115 25.96C18.2123 25.9187 18.1082 25.8918 18 25.8789C17.8918 25.8918 17.7877 25.9187 17.6885 25.96C17.5384 26.0225 17.4349 26.09 17.3711 26.1582L17.0186 26.5342C16.8568 26.7457 16.7116 26.9103 16.583 27.0225C16.4505 27.1379 16.2636 27.2494 16.0283 27.3564C15.8423 27.441 15.6419 27.493 15.4287 27.5137L15.2109 27.5234C14.9152 27.5234 14.6416 27.4692 14.3936 27.3564C14.1583 27.2494 13.9713 27.1378 13.8389 27.0225C13.7102 26.9102 13.5633 26.7468 13.4014 26.5352L13.0498 26.1582C12.986 26.09 12.8834 26.0224 12.7334 25.96C12.5896 25.9001 12.4355 25.8701 12.2715 25.8701C12.1075 25.8701 11.9602 25.9004 11.8281 25.959C11.6878 26.0213 11.5801 26.0907 11.5029 26.1641C11.4184 26.2445 11.3063 26.3689 11.168 26.5381L11.166 26.54C10.9849 26.7505 10.8303 26.9124 10.7041 27.0225C10.5716 27.1379 10.3848 27.2494 10.1494 27.3564C9.90135 27.4692 9.6278 27.5234 9.33203 27.5234C9.03646 27.5234 8.76345 27.469 8.51562 27.3564C8.28025 27.2494 8.09345 27.1379 7.96094 27.0225C7.83233 26.9103 7.68476 26.7473 7.52246 26.5352L7.1709 26.1582C7.10715 26.0905 7.00428 26.0223 6.85449 25.96C6.71069 25.9002 6.55663 25.8701 6.39258 25.8701C6.22899 25.8702 6.08224 25.9005 5.9502 25.959C5.80944 26.0215 5.702 26.0909 5.625 26.1641C5.5393 26.2456 5.41809 26.3681 5.2627 26.5342C5.1004 26.7464 4.9538 26.9103 4.8252 27.0225C4.69269 27.1379 4.50585 27.2494 4.27051 27.3564C4.08481 27.4408 3.88468 27.4929 3.67188 27.5137L3.4541 27.5234C3.32919 27.5234 3.21566 27.4876 3.12793 27.4043C3.04285 27.3234 3.00007 27.2201 3 27.1035C3.00005 26.9874 3.04214 26.8826 3.12109 26.7949L3.19043 26.7334C3.26562 26.6803 3.35572 26.6543 3.4541 26.6543L3.5752 26.6484C3.69381 26.637 3.80703 26.6084 3.91504 26.5635C4.06558 26.5008 4.16875 26.4333 4.23242 26.3652L4.58301 25.9893C4.74522 25.7772 4.89267 25.6133 5.02148 25.501C5.15415 25.3855 5.3413 25.2758 5.57617 25.1689C5.82386 25.0563 6.09657 25.0001 6.39258 25C6.68876 25 6.96209 25.0562 7.20996 25.1689C7.44484 25.2758 7.63197 25.3855 7.76465 25.501C7.82793 25.5561 7.89925 25.6243 7.97656 25.7051L8.22754 25.9844L8.22949 25.9863C8.36793 26.1556 8.47998 26.279 8.56445 26.3594C8.64154 26.4327 8.74834 26.5021 8.88867 26.5645C9.02117 26.6232 9.16857 26.6543 9.33203 26.6543C9.49566 26.6543 9.6497 26.6235 9.79395 26.5635C9.94409 26.501 10.0466 26.4335 10.1104 26.3652L10.4619 25.9893C10.6241 25.7772 10.7716 25.6133 10.9004 25.501C11.0329 25.3857 11.2194 25.2757 11.4541 25.1689C11.7019 25.0562 11.9754 25 12.2715 25C12.5676 25 12.841 25.0562 13.0889 25.1689C13.3236 25.2757 13.5109 25.3855 13.6436 25.501C13.7724 25.6133 13.9183 25.7778 14.0801 25.9893C14.2348 26.1545 14.3556 26.2777 14.4414 26.3594C14.5184 26.4326 14.6268 26.502 14.7676 26.5645C14.9002 26.6232 15.0474 26.6543 15.2109 26.6543L15.332 26.6484C15.4506 26.6369 15.5638 26.6084 15.6719 26.5635C15.8224 26.5008 15.9256 26.4333 15.9893 26.3652L16.3408 25.9893C16.5026 25.7778 16.6485 25.6134 16.7773 25.501C16.91 25.3854 17.0981 25.2758 17.333 25.1689C17.4119 25.1331 17.4935 25.1047 17.5752 25.0811C17.654 25.0264 17.7469 25.0001 17.8496 25L18 25.0068C18.0469 25.0036 18.098 25 18.1504 25L18.2334 25.0059C18.3035 25.0162 18.3664 25.0421 18.4229 25.0811C18.5049 25.1047 18.5874 25.1327 18.667 25.1689C18.9019 25.2758 19.09 25.3854 19.2227 25.501C19.3515 25.6134 19.4974 25.7778 19.6592 25.9893L20.0107 26.3652C20.0744 26.4333 20.1776 26.5008 20.3281 26.5635C20.4724 26.6235 20.6257 26.6543 20.7891 26.6543C20.9526 26.6543 21.0998 26.6232 21.2324 26.5645C21.3732 26.502 21.4816 26.4326 21.5586 26.3594C21.6444 26.2777 21.7652 26.1545 21.9199 25.9893C22.0817 25.7778 22.2276 25.6133 22.3564 25.501C22.4891 25.3855 22.6764 25.2757 22.9111 25.1689C23.159 25.0562 23.4324 25 23.7285 25L23.9463 25.0107C24.1597 25.0317 24.3601 25.0844 24.5459 25.1689C24.7806 25.2757 24.9671 25.3857 25.0996 25.501C25.2284 25.6133 25.3759 25.7772 25.5381 25.9893L25.8896 26.3652C25.9534 26.4335 26.0559 26.501 26.2061 26.5635C26.3503 26.6235 26.5043 26.6543 26.668 26.6543L26.7881 26.6484C26.9046 26.637 27.0121 26.6085 27.1113 26.5645C27.2517 26.5021 27.3585 26.4327 27.4355 26.3594C27.52 26.279 27.6321 26.1556 27.7705 25.9863L27.7725 25.9844C27.9538 25.7736 28.109 25.6111 28.2354 25.501C28.368 25.3855 28.5552 25.2758 28.79 25.1689C29.0379 25.0562 29.3112 25 29.6074 25L29.8252 25.0107ZM10 19C11.1046 19 12 19.8954 12 21C12 22.1046 11.1046 23 10 23C8.89543 23 8 22.1046 8 21C8 19.8954 8.89543 19 10 19ZM26 19C27.1046 19 28 19.8954 28 21C28 22.1046 27.1046 23 26 23C24.8954 23 24 22.1046 24 21C24 19.8954 24.8954 19 26 19ZM18 12C19.1046 12 20 12.8954 20 14C20 15.1046 19.1046 16 18 16C16.8954 16 16 15.1046 16 14C16 12.8954 16.8954 12 18 12ZM18 6C19.1046 6 20 6.89543 20 8C20 9.10457 19.1046 10 18 10C16.8954 10 16 9.10457 16 8C16 6.89543 16.8954 6 18 6Z" fill="currentColor"/>
</svg>
