<svg width="36" height="36" viewBox="0 0 36 36" fill="none" xmlns="http://www.w3.org/2000/svg">
<path d="M18 2C26.8366 2 34 9.16344 34 18C34 23.2973 31.4249 27.9923 27.459 30.9043C27.4295 30.9259 27.3998 30.9473 27.3701 30.9688C24.7363 32.875 21.4998 34 18 34C9.16344 34 2 26.8366 2 18C2 9.16344 9.16344 2 18 2ZM23.1279 30.7061C19.8254 30.7061 17.9851 31.2446 15.3242 32.7617C16.1925 32.9181 17.0867 33 18 33C20.7863 33 23.3943 32.2386 25.6299 30.915C24.8517 30.7731 24.0362 30.7061 23.1279 30.7061ZM23.1279 27.7061C19.5878 27.7061 17.7278 28.3249 14.7363 30.1045L14.248 30.3994C13.3845 30.9225 12.6167 31.3508 11.8867 31.7002C12.5966 32.0174 13.3356 32.2803 14.0986 32.4854C17.3524 30.5208 19.3351 29.8232 23.1279 29.8232C24.4402 29.8233 25.5707 29.957 26.665 30.2441C27.2864 29.8036 27.8725 29.3169 28.4189 28.7891C26.7094 28.0336 25.1474 27.7061 23.1279 27.7061ZM18 3C9.71573 3 3 9.71573 3 18C3 23.6767 6.15408 28.6155 10.8047 31.1631C11.7027 30.7861 12.7329 30.3032 13.5479 29.8184L14.0361 29.5234C17.3272 27.53 19.3109 26.8232 23.1279 26.8232C25.3993 26.8233 27.1269 27.2199 29.0625 28.1289C31.5074 25.4601 33 21.9046 33 18C33 9.71573 26.2843 3 18 3ZM18 4C25.732 4 32 10.268 32 18C32 21.2322 30.9032 24.2075 29.0635 26.5771C26.8931 25.4741 25.0566 25 22.5693 25C18.7525 25.0001 16.7687 25.7077 13.4775 27.7012L12.9893 27.9951C11.9616 28.6066 10.8902 29.1511 10.0215 29.5039C6.38285 26.9756 4 22.7665 4 18C4 10.268 10.268 4 18 4ZM9.63086 19C8.17796 19.0002 7.0002 20.178 7 21.6309C7 23.0839 8.17784 24.2625 9.63086 24.2627C11.084 24.2627 12.2627 23.084 12.2627 21.6309C12.2625 20.1778 11.0839 19 9.63086 19ZM25.6309 19C24.178 19.0002 23.0002 20.178 23 21.6309C23 23.0839 24.1778 24.2625 25.6309 24.2627C27.084 24.2627 28.2627 23.084 28.2627 21.6309C28.2625 20.1778 27.0839 19 25.6309 19ZM17.6309 12C16.178 12.0002 15.0002 13.178 15 14.6309C15 16.0839 16.1778 17.2625 17.6309 17.2627C19.084 17.2627 20.2627 16.084 20.2627 14.6309C20.2625 13.1778 19.0839 12 17.6309 12ZM17.6309 6C16.178 6.0002 15.0002 7.17796 15 8.63086C15 10.0839 16.1778 11.2625 17.6309 11.2627C19.084 11.2627 20.2627 10.084 20.2627 8.63086C20.2625 7.17784 19.0839 6 17.6309 6Z" fill="currentColor"/>
</svg>
