<svg width="36" height="36" viewBox="0 0 36 36" fill="none" xmlns="http://www.w3.org/2000/svg">
<path d="M9.49976 3.3436C17.6306 -1.35062 28.0279 1.43557 32.7224 9.56625C37.2769 17.4548 34.7892 27.4749 27.2117 32.3524L28.0583 34.3416L22.3269 33.6405L25.7996 29.0282L26.4167 30.4813C32.8765 26.1115 34.9502 17.4255 30.99 10.5663C26.8477 3.39222 17.674 0.933986 10.4998 5.07602L9.49976 3.3436ZM9.66577 30.4735C10.208 30.8365 10.7762 31.1659 11.365 31.4569L10.4783 33.2498C9.81068 32.92 9.16776 32.5469 8.55347 32.1356L9.66577 30.4735ZM17.9998 27.9998C18.8281 27.9998 19.4997 28.6715 19.4998 29.4998C19.4998 30.3283 18.8282 30.9998 17.9998 30.9998C17.1714 30.9997 16.4998 30.3282 16.4998 29.4998C16.4999 28.6716 17.1715 28 17.9998 27.9998ZM6.72144 27.8895C7.15342 28.3817 7.61792 28.8462 8.11011 29.2782L7.44995 30.0291L6.79077 30.7811C6.23336 30.2919 5.70773 29.7662 5.21851 29.2088L5.97046 28.5497L6.72144 27.8895ZM4.54272 24.6346C4.83365 25.2234 5.16314 25.7916 5.52612 26.3338L3.86401 27.4461C3.45276 26.8318 3.07962 26.1889 2.74976 25.5213L4.54272 24.6346ZM3.28491 20.9286C3.41301 21.576 3.58323 22.2086 3.79175 22.8231L1.89819 23.4657C1.66161 22.7685 1.46828 22.0506 1.323 21.3163L2.30444 21.1229L3.28491 20.9286ZM9.25952 9.06332C9.85054 8.48315 10.8002 8.49198 11.3806 9.08286L17.282 15.0897C17.5122 15.0331 17.7521 14.9999 17.9998 14.9998C18.2675 14.9998 18.5262 15.0385 18.7732 15.1043L21.8894 11.9901C22.4752 11.4043 23.4247 11.4043 24.0105 11.9901C24.596 12.5759 24.5962 13.5255 24.0105 14.1112L20.8943 17.2245C20.9605 17.4721 20.9997 17.7313 20.9998 17.9998C20.9998 19.6567 19.6566 20.9998 17.9998 20.9998C16.3429 20.9998 14.9998 19.6567 14.9998 17.9998C14.9998 17.7114 15.0419 17.4328 15.1179 17.1688L9.23999 11.1854C8.65946 10.5944 8.66853 9.64386 9.25952 9.06332ZM6.49976 16.4998C7.32812 16.4998 7.99966 17.1715 7.99976 17.9998C7.99976 18.8283 7.32818 19.4998 6.49976 19.4998C5.67144 19.4997 4.99976 18.8282 4.99976 17.9998C4.99985 17.1716 5.6715 16.5 6.49976 16.4998ZM29.4998 16.4998C30.3281 16.4998 30.9997 17.1715 30.9998 17.9998C30.9998 18.8283 30.3282 19.4998 29.4998 19.4998C28.6714 19.4997 27.9998 18.8282 27.9998 17.9998C27.9999 17.1716 28.6715 16.5 29.4998 16.4998ZM3.03101 17.0164C3.01002 17.3412 2.99976 17.6695 2.99976 17.9998C2.99976 18.3302 3.01002 18.6585 3.03101 18.9832L1.03589 19.1122C1.01213 18.7445 0.999756 18.3732 0.999756 17.9998C0.99976 17.6265 1.01213 17.2552 1.03589 16.8875L3.03101 17.0164ZM3.79175 13.1766C3.58321 13.7911 3.41302 14.4236 3.28491 15.0711L2.30444 14.8768L1.323 14.6834C1.4683 13.949 1.66159 13.2312 1.89819 12.534L3.79175 13.1766ZM5.52612 9.66586C5.16309 10.2081 4.83368 10.7762 4.54272 11.3651L2.74976 10.4784C3.07965 9.81069 3.45271 9.16792 3.86401 8.55356L5.52612 9.66586ZM7.44995 5.97055L8.11011 6.72153C7.61785 7.15357 7.15348 7.61794 6.72144 8.1102L5.97046 7.45004L5.21851 6.79086C5.70779 6.23339 6.2333 5.70788 6.79077 5.2186L7.44995 5.97055ZM17.9998 4.99985C18.8281 4.99985 19.4997 5.6715 19.4998 6.49985C19.4998 7.32827 18.8282 7.99985 17.9998 7.99985C17.1714 7.99972 16.4998 7.32819 16.4998 6.49985C16.4999 5.67159 17.1715 4.99998 17.9998 4.99985Z" fill="currentColor"/>
</svg>
