<svg width="36" height="36" viewBox="0 0 36 36" fill="none" xmlns="http://www.w3.org/2000/svg">
<path d="M25.8682 13.469C26.1029 13.3013 26.4249 13.3275 26.6289 13.5315C26.8329 13.7355 26.8591 14.0575 26.6914 14.2922L21.3643 21.7502C21.297 21.8444 21.221 21.9287 21.1426 22.0081C21.1448 22.7787 20.8526 23.5499 20.2646 24.1379C19.0931 25.3095 17.194 25.3095 16.0225 24.1379C14.8509 22.9664 14.8509 21.0673 16.0225 19.8958C16.6103 19.308 17.381 19.0148 18.1514 19.0168C18.2308 18.9385 18.316 18.8634 18.4102 18.7961L25.8682 13.469Z" fill="currentColor"/>
<path d="M6.53711 13.634L5.8291 14.6643C4.20196 17.0352 3.25 19.905 3.25 23.0002H0.75C0.75 19.3842 1.86392 16.0242 3.76758 13.2502L4.47559 12.219L6.53711 13.634Z" fill="currentColor"/>
<path d="M32.2324 13.2502C34.1361 16.0242 35.25 19.3842 35.25 23.0002H32.75C32.75 20.0985 31.913 17.3955 30.4678 15.1155L30.1709 14.6643L29.4639 13.634L31.5244 12.219L32.2324 13.2502Z" fill="currentColor"/>
<path d="M18 5.75024C21.6161 5.75024 24.976 6.86409 27.75 8.76782L28.7812 9.47583L27.3662 11.5374L26.3359 10.8293C23.965 9.20213 21.0954 8.25024 18 8.25024C14.9046 8.25024 12.035 9.20213 9.66406 10.8293L8.63379 11.5364L7.21875 9.47583L8.25 8.76782C11.024 6.86409 14.3839 5.75024 18 5.75024Z" fill="currentColor"/>
</svg>
