<svg width="36" height="36" viewBox="0 0 36 36" fill="none" xmlns="http://www.w3.org/2000/svg">
<path d="M18 2C26.8366 2 34 9.16344 34 18C34 26.8366 26.8366 34 18 34C9.16344 34 2 26.8366 2 18C2 9.16344 9.16344 2 18 2ZM18 3C9.71573 3 3 9.71573 3 18C3 26.2843 9.71573 33 18 33C26.2843 33 33 26.2843 33 18C33 9.71573 26.2843 3 18 3ZM18 4C25.732 4 32 10.268 32 18C32 18.1746 31.9946 18.3484 31.9883 18.5215C31.9866 18.5661 31.9855 18.6107 31.9834 18.6553C31.9757 18.8224 31.9657 18.9888 31.9521 19.1543C31.9494 19.1879 31.9454 19.2214 31.9424 19.2549C31.9111 19.6074 31.8675 19.9562 31.8105 20.3008C31.8056 20.3308 31.8001 20.3607 31.7949 20.3906C30.6604 26.9836 24.9169 32 18 32C13.1112 32 8.80861 29.4936 6.30469 25.6963C6.29122 25.6759 6.27802 25.6553 6.26465 25.6348C5.90215 25.0787 5.57773 24.4957 5.2959 23.8887C5.2859 23.8671 5.27552 23.8458 5.26562 23.8242C5.09935 23.4613 4.94883 23.0898 4.81348 22.7109C4.80173 22.6781 4.78982 22.6453 4.77832 22.6123C4.7451 22.5171 4.71285 22.4214 4.68164 22.3252C4.67109 22.2927 4.66071 22.2601 4.65039 22.2275C4.61249 22.1077 4.57576 21.9874 4.54102 21.8662C4.51175 21.7642 4.48403 21.6616 4.45703 21.5586C4.44951 21.5299 4.44094 21.5014 4.43359 21.4727C4.42524 21.4399 4.41828 21.4068 4.41016 21.374C4.38624 21.2774 4.36272 21.1805 4.34082 21.083C4.33242 21.0457 4.32451 21.0082 4.31641 20.9707C4.29469 20.8702 4.27443 20.7693 4.25488 20.668C4.24873 20.6361 4.24227 20.6042 4.23633 20.5723C4.21856 20.4766 4.20233 20.3805 4.18652 20.2842C4.17963 20.2422 4.17156 20.2003 4.16504 20.1582C4.12554 19.9029 4.09289 19.6454 4.06738 19.3857C4.05982 19.3088 4.05416 19.2316 4.04785 19.1543C4.04361 19.1023 4.03883 19.0502 4.03516 18.998C4.03017 18.9272 4.02639 18.8563 4.02246 18.7852C4.01892 18.7211 4.01635 18.657 4.01367 18.5928C4.01081 18.5242 4.00773 18.4555 4.00586 18.3867C4.00237 18.2582 4 18.1293 4 18C4 10.268 10.268 4 18 4ZM18 11.6885C16.8955 11.6885 16.0001 12.584 16 13.6885C16 14.4594 16.4371 15.1271 17.0762 15.4609L12.209 28.4414C11.8324 28.649 11.4575 28.842 11.0977 29.0176C13.0979 30.2733 15.464 31 18 31C22.099 31 25.7521 29.1007 28.1348 26.1367C26.345 25.3474 24.6951 25 22.5693 25C22.5462 25 22.523 24.9999 22.5 25L18.9229 15.4609C19.5624 15.1272 20 14.4597 20 13.6885C19.9999 12.584 19.1045 11.6885 18 11.6885ZM17.335 22.5303L13.7793 27.1016L16.0928 20.9336L17.335 22.5303ZM19.4297 25.2246C18.0193 25.4611 16.8008 25.8991 15.4385 26.5957L17.9678 23.3447L19.4297 25.2246ZM21.4404 25.0254C21.1447 25.0384 20.8598 25.0546 20.584 25.0791L18.6016 22.5303L19.8857 20.8789L21.4404 25.0254ZM19.4736 19.7803L17.9678 21.7168L16.5049 19.835L18 15.8486L19.4736 19.7803ZM11.3379 8C9.83071 9.51095 9 11.5192 9 13.6533C9.00007 15.7941 9.83461 17.8063 11.3496 19.3184L11.9814 18.6855C10.6353 17.3423 9.8946 15.5549 9.89453 13.6533C9.89453 11.7576 10.632 9.97404 11.9707 8.63184L11.3379 8ZM24.0186 8.63281C25.3647 9.97609 26.1054 11.7634 26.1055 13.665C26.1055 15.5608 25.368 17.3443 24.0293 18.6865L24.6621 19.3184C26.1693 17.8074 27 15.7992 27 13.665C26.9999 11.5242 26.1654 9.51204 24.6504 8L24.0186 8.63281ZM22.4492 10.1318C23.3955 11.0758 23.9169 12.3322 23.917 13.6689C23.917 15.0001 23.3997 16.2525 22.46 17.1953L23.0938 17.8262C24.2012 16.7149 24.8115 15.2381 24.8115 13.6689C24.8115 12.0932 24.1969 10.6119 23.0811 9.49902L22.4492 10.1318ZM12.9062 9.49219C11.7988 10.6035 11.1885 12.0802 11.1885 13.6494C11.1885 15.2252 11.8031 16.7064 12.9189 17.8193L13.5508 17.1865C12.6045 16.2426 12.0831 14.9861 12.083 13.6494C12.083 12.3183 12.6003 11.0659 13.54 10.123L12.9062 9.49219ZM21 11.582C21.559 12.1388 21.8671 12.8798 21.8672 13.6689C21.8672 14.4526 21.5632 15.1905 21.0107 15.7461L21.6445 16.377C22.3649 15.6525 22.7607 14.6904 22.7607 13.6689C22.7606 12.6404 22.3596 11.674 21.6309 10.9482L21 11.582ZM14.3555 10.9414C13.6351 11.6658 13.2393 12.628 13.2393 13.6494C13.2394 14.678 13.6404 15.6444 14.3691 16.3701L15 15.7363C14.441 15.1796 14.1329 14.4386 14.1328 13.6494C14.1328 12.8658 14.4368 12.1279 14.9893 11.5723L14.3555 10.9414Z" fill="currentColor"/>
</svg>
