<svg width="36" height="36" viewBox="0 0 36 36" fill="none" xmlns="http://www.w3.org/2000/svg">
<path d="M29.583 29.6533L24.6904 28.625L22.333 33.0352L18.7793 25.416C21.6052 25.2297 24.1722 24.1029 26.1758 22.3477L29.583 29.6533ZM9.79102 22.415C11.8081 24.1532 14.3841 25.2599 17.2148 25.4229L13.667 33.0342L11.3096 28.625L6.41602 29.6533L9.79102 22.415ZM18 2C24.0751 2 29 6.92487 29 13C29 19.0751 24.0751 24 18 24C11.9249 24 7 19.0751 7 13C7 6.92487 11.9249 2 18 2ZM18 3.5C12.7533 3.5 8.5 7.75329 8.5 13C8.5 18.2467 12.7533 22.5 18 22.5C23.2467 22.5 27.5 18.2467 27.5 13C27.5 7.75329 23.2467 3.5 18 3.5ZM18 5C22.4183 5 26 8.58172 26 13C26 17.4183 22.4183 21 18 21C13.5817 21 10 17.4183 10 13C10 8.58172 13.5817 5 18 5ZM16.3418 10.7178L13.2451 11.4551L15.3164 13.8721L15.0615 17.0449L18 15.8213L20.9385 17.0449L20.6836 13.8721L22.7549 11.4551L19.6582 10.7178L18 8L16.3418 10.7178Z" fill="currentColor"/>
</svg>
