<svg width="36" height="36" viewBox="0 0 36 36" fill="none" xmlns="http://www.w3.org/2000/svg">
<path d="M18 0C27.9411 0 36 8.05887 36 18C36 27.9411 27.9411 36 18 36C8.05887 36 0 27.9411 0 18C0 8.05887 8.05887 0 18 0ZM18 1C8.61116 1 1 8.61116 1 18C1 27.3888 8.61116 35 18 35C27.3888 35 35 27.3888 35 18C35 8.61116 27.3888 1 18 1ZM26.4873 7.91992C26.9134 7.69897 27.3763 8.14722 27.1689 8.58008L17.0674 29.668C16.8557 30.1092 16.163 30.0238 16.0449 29.5488C15.5621 27.6068 14.5121 24.3119 12.623 22.4229C10.8637 20.6636 8.13075 19.878 6.34375 19.5371C5.84617 19.442 5.71137 18.6942 6.16113 18.4609L26.4873 7.91992ZM17.4375 15.75C15.8841 15.75 14.625 17.0095 14.625 18.5625C14.625 20.1155 15.8841 21.375 17.4375 21.375C18.9905 21.375 20.25 20.1155 20.25 18.5625C20.25 17.0095 18.9905 15.75 17.4375 15.75ZM17.4375 16.875C18.3696 16.875 19.125 17.6304 19.125 18.5625C19.125 19.4946 18.3696 20.25 17.4375 20.25C16.5054 20.25 15.75 19.4946 15.75 18.5625C15.75 17.6304 16.5054 16.875 17.4375 16.875Z" fill="currentColor"/>
</svg>
