<svg width="36" height="36" viewBox="0 0 36 36" fill="none" xmlns="http://www.w3.org/2000/svg">
<path fill-rule="evenodd" clip-rule="evenodd" d="M28.7256 10.2337C29.7955 9.86397 30.562 8.86626 30.562 7.6935C30.562 6.20592 29.3287 5 27.8074 5C26.286 5 25.0527 6.20592 25.0527 7.6935C25.0527 8.86626 25.8193 9.86397 26.8892 10.2337V18.7913C24.4272 18.871 22.7088 19.2904 22.6185 20.1879C20.5892 20.5099 19.5268 21.2555 19.5268 22.5C19.5268 23.4067 17.5661 23.9689 14.4 23.9988V19.91C16.454 19.493 18 17.6771 18 15.5C18 13.0147 15.9853 11 13.5 11C11.0147 11 9 13.0147 9 15.5C9 17.6771 10.546 19.493 12.6 19.91V24.0137C7.77675 24.1622 4 25.503 4 27.5C4 29.6197 8.25496 31 13.5 31C18.745 31 23 29.6197 23 27.5C23 26.1616 21.3037 25.118 18.7328 24.5305C19.9665 24.1304 20.6056 23.4653 20.6056 22.5C20.6056 21.8053 21.4568 21.3129 23.2662 21.1071C24.128 21.5564 25.7776 21.7492 27.8074 21.7492C30.8234 21.7492 33 21.3236 33 20.2632C33 19.3138 31.2553 18.8732 28.7256 18.7913V10.2337ZM12.6 25.2704V28.5C12.6 28.7761 12.8239 29 13.1 29H13.9C14.1761 29 14.4 28.7761 14.4 28.5V25.2704C18.5125 25.4139 21.7107 26.5173 21.7107 27.5C21.7107 28.5533 18.0363 29.7453 13.5 29.7453C8.96368 29.7453 5.28929 28.5533 5.28929 27.5C5.28929 26.5173 8.48747 25.4139 12.6 25.2704Z" fill="currentColor"/>
</svg>
