<svg width="36" height="36" viewBox="0 0 36 36" fill="none" xmlns="http://www.w3.org/2000/svg">
<path fill-rule="evenodd" clip-rule="evenodd" d="M19.3333 16.4986C21.6336 15.9066 23.3333 13.8185 23.3333 11.3333C23.3333 8.38781 20.9455 6 18 6C15.0545 6 12.6667 8.38781 12.6667 11.3333C12.6667 13.8185 14.3664 15.9066 16.6667 16.4986V21.3854C12.9117 21.6824 10 23.2245 10 25.3333C10 27.686 13.624 29.3333 18 29.3333C22.376 29.3333 26 27.686 26 25.3333C26 23.2245 23.0883 21.6824 19.3333 21.3854V16.4986ZM16.6667 22.7247V25.5C16.6667 25.7761 16.8905 26 17.1667 26H18.8333C19.1095 26 19.3333 25.7761 19.3333 25.5V22.7247C22.4029 22.9952 24.6667 24.1675 24.6667 25.3333C24.6667 26.6625 21.7242 28 18 28C14.2758 28 11.3333 26.6625 11.3333 25.3333C11.3333 24.1675 13.5971 22.9952 16.6667 22.7247Z" fill="currentColor"/>
</svg>
