<svg width="36" height="36" viewBox="0 0 36 36" fill="none" xmlns="http://www.w3.org/2000/svg">
<g clip-path="url(#clip0_0_1462)">
<rect x="1" y="1" width="34" height="34" fill="currentColor"/>
</g>
<rect x="0.5" y="0.5" width="35" height="35" rx="17.5" stroke="#262EBC" stroke-linejoin="bevel" fill="currentColor"/>
<path d="M18 0C27.9411 0 36 8.05887 36 18C36 27.9411 27.9411 36 18 36C8.05887 36 0 27.9411 0 18C0 8.05887 8.05887 0 18 0ZM18 1C8.61116 1 1 8.61116 1 18C1 27.3888 8.61116 35 18 35C27.3888 35 35 27.3888 35 18C35 8.61116 27.3888 1 18 1ZM18.666 6.01367L18.6172 9.53223C22.8736 9.8547 26.264 13.3259 26.4551 17.6172L30 17.667L29.9863 18.666L26.4404 18.6172C26.1329 22.8783 22.6699 26.2788 18.3818 26.4844L18.333 30L17.334 29.9863L17.3828 26.4727C13.0978 26.1782 9.67645 22.6935 9.48438 18.3818L6 18.333L6.01367 17.334L9.5 17.3818C9.80992 13.1014 13.3028 9.69057 17.6182 9.51367L17.667 6L18.666 6.01367ZM21.9248 18.5547C21.6758 20.3442 20.2452 21.7533 18.4443 21.9668L18.3955 25.4824C22.1307 25.2722 25.142 22.3144 25.4395 18.6025L21.9248 18.5547ZM10.4844 18.3955C10.681 22.1546 13.6607 25.1872 17.3965 25.4717L17.4453 21.959C15.6314 21.7205 14.2 20.2695 13.998 18.4443L10.4844 18.3955ZM18.5547 14.0498C20.3396 14.3123 21.7411 15.7499 21.9414 17.5547L25.4551 17.6035C25.2592 13.8648 22.3109 10.8455 18.6035 10.5332L18.5547 14.0498ZM17.6045 10.5137C13.8417 10.6956 10.8001 13.6653 10.501 17.3965L14.0156 17.4443C14.2676 15.6352 15.7269 14.2126 17.5557 14.0244L17.6045 10.5137Z" fill="currentColor"/>
<defs>
<clipPath id="clip0_0_1462">
<rect x="1" y="1" width="34" height="34" rx="17" fill="currentColor"/>
</clipPath>
</defs>
</svg>
