<svg width="36" height="36" viewBox="0 0 36 36" fill="none" xmlns="http://www.w3.org/2000/svg">
<path d="M18 0C27.9411 0 36 8.05887 36 18C36 27.9411 27.9411 36 18 36C8.05887 36 0 27.9411 0 18C0 8.05887 8.05887 0 18 0ZM18 1C8.61116 1 1 8.61116 1 18C1 27.3888 8.61116 35 18 35C27.3888 35 35 27.3888 35 18C35 8.61116 27.3888 1 18 1ZM28.625 26.4658L21.7129 28.6611L15.374 25.6416L8.5 28.917V9.53516L15.374 7.35059L21.75 9.37598L28.625 7.19141V26.4658ZM23.9893 17.6904C23.5471 17.3779 22.9586 17.414 22.0859 17.9473V27.4932L27.625 25.7334V22.5693C26.5829 22.6114 26.0711 21.8867 25.3564 20.1094L25.1953 19.7061C24.7282 18.546 24.4125 17.9897 23.9893 17.6904ZM21.0859 18.7061C20.8592 18.9131 20.6046 19.1649 20.292 19.4854L20.291 19.4863C20.1715 19.6091 20.1708 19.6097 20.0498 19.7344C18.172 21.6693 17.0357 22.4388 15.6875 22.0273V24.6826L21.0859 27.2549V18.7061ZM14.6875 21.5479C12.8194 20.5009 11.7419 20.9143 10.7773 22.374C10.536 22.7392 10.3007 23.564 10.1055 24.6699C9.99876 25.2744 9.90956 25.9246 9.83789 26.5752C9.81056 26.8233 9.78955 27.0362 9.77441 27.2021L14.6875 24.8613V21.5479ZM14.0869 14.5801C13.3504 14.5297 12.5064 15.0248 11.4502 16.0176C11.2815 16.1762 10.887 16.5674 10.6172 16.835L10.3506 17.0986C9.98218 17.4512 9.74621 17.64 9.5 17.7041V22.7627C9.62942 22.3547 9.77295 22.0247 9.93457 21.7803C11.0865 20.0371 12.5735 19.3874 14.6875 20.373V14.7607C14.4912 14.6523 14.292 14.5941 14.0869 14.5801ZM22.0859 10.3184V16.7627C23.0559 16.3103 23.8775 16.3352 24.5654 16.8213C25.2123 17.2785 25.592 17.9501 26.1367 19.3027L26.2988 19.7061C26.8496 21.0758 27.1798 21.5368 27.625 21.5146V8.55859L22.0859 10.3184ZM16.1865 8.65723C16.3916 8.94117 16.6249 9.25222 16.8652 9.55762C17.6119 10.5066 18.3024 11.2539 18.8076 11.6172C19.5505 12.1513 19.6609 12.2348 19.8955 12.4551C20.3925 12.9217 20.6181 13.4121 20.6182 14.1025C20.6182 16.0286 17.9318 16.9197 15.6875 15.501V20.9004C16.714 21.3431 17.577 20.7947 19.3291 18.9893C19.4502 18.8645 19.4502 18.8637 19.5713 18.7393L19.5723 18.7383C20.2161 18.0782 20.6391 17.6845 21.0859 17.3613V10.2139L16.1865 8.65723ZM9.5 10.2666V16.5234C9.54766 16.4807 9.60137 16.4313 9.65918 16.376C9.6838 16.3524 9.77428 16.2628 9.89453 16.1436L10.7656 15.2891C12.0125 14.1171 13.0522 13.5076 14.1553 13.583C14.3364 13.5954 14.514 13.6279 14.6875 13.6807V8.61816L9.5 10.2666ZM15.6875 14.251L15.7061 14.2676C17.4617 15.8218 19.6182 15.2445 19.6182 14.1025C19.6181 13.6968 19.5122 13.4664 19.2109 13.1836C19.0236 13.0078 18.9161 12.9266 18.2236 12.4287C17.5567 11.9491 16.4454 10.6788 15.6875 9.67383V14.251Z" fill="currentColor"/>
</svg>
