<svg width="36" height="36" viewBox="0 0 36 36" fill="none" xmlns="http://www.w3.org/2000/svg">
<path fill-rule="evenodd" clip-rule="evenodd" d="M8.5844 2.76923C8.26988 2.76923 7.95232 2.85147 7.6637 3.0251L5.08512 4.57407C4.27561 5.05004 3.68161 5.82224 3.42725 6.72618C2.49894 10.1097 3.19727 15.9484 11.7973 24.55C18.6382 31.3909 23.7314 33.2308 27.2314 33.2308H27.2695C28.063 33.2308 28.852 33.1257 29.6173 32.9193C30.5228 32.6657 31.2935 32.071 31.7695 31.2607L33.32 28.6836C33.8142 27.8627 33.5743 26.7996 32.7777 26.2688L26.6123 22.1573C26.3069 21.9554 25.962 21.858 25.62 21.858C25.0839 21.858 24.5562 22.0979 24.202 22.5487L22.4063 24.8584C22.2563 25.0557 22.0278 25.1615 21.7948 25.1615C21.6676 25.1615 21.5397 25.1303 21.4217 25.0648L21.0805 24.8767C19.9481 24.2599 18.5385 23.4907 15.7002 20.6502C12.8604 17.8104 12.0905 16.3993 11.4729 15.2691L11.2863 14.928C11.0982 14.5936 11.1843 14.1725 11.4889 13.9402L13.7964 12.1445C14.5351 11.5658 14.7056 10.5171 14.1886 9.73426L10.077 3.56884C9.7328 3.05176 9.16545 2.76923 8.5844 2.76923ZM8.5844 4.2923C8.62857 4.2923 8.73671 4.30449 8.80981 4.41339L12.9176 10.5742C12.9968 10.6938 12.9709 10.8568 12.8612 10.9421L10.5644 12.7294C9.66121 13.4194 9.40077 14.6858 9.9506 15.6598L10.1364 15.9994C10.8012 17.2171 11.629 18.7326 14.6226 21.7277C17.6178 24.7236 19.134 25.5499 20.3448 26.2102L20.683 26.396C21.0219 26.5848 21.4064 26.6846 21.7948 26.6846C22.5069 26.6846 23.1892 26.3457 23.6088 25.7928L25.4015 23.4877C25.4769 23.3917 25.5789 23.381 25.62 23.381C25.6741 23.381 25.7259 23.397 25.767 23.4245L31.934 27.5375C32.0535 27.6167 32.0893 27.7751 32.0154 27.8985L30.4566 30.4885C30.1786 30.9622 29.7346 31.3049 29.2206 31.4488C28.5855 31.6209 27.929 31.7077 27.233 31.7077H27.2314C24.4381 31.7077 19.68 30.2791 12.8741 23.4732C4.79193 15.3887 4.07456 10.1234 4.89322 7.13818C5.04172 6.60967 5.38441 6.16569 5.87027 5.88011L8.44808 4.33114C8.49073 4.30525 8.53718 4.2923 8.5844 4.2923Z" fill="currentColor"/>
</svg>
