<svg width="36" height="36" viewBox="0 0 36 36" fill="none" xmlns="http://www.w3.org/2000/svg">
<path fill-rule="evenodd" clip-rule="evenodd" d="M35 18C35 27.3888 27.3888 35 18 35C8.61116 35 1 27.3888 1 18C1 8.61116 8.61116 1 18 1C27.3888 1 35 8.61116 35 18ZM36 18C36 27.9411 27.9411 36 18 36C8.05887 36 0 27.9411 0 18C0 8.05887 8.05887 0 18 0C27.9411 0 36 8.05887 36 18ZM25 14.99V12H28V10H25V7H23V10H20C20.01 10.01 20 12 20 12H23V14.99C23.01 15 25 14.99 25 14.99ZM22 16V13H19V10H11C9.9 10 9 10.9 9 12V24C9 25.1 9.9 26 11 26H23C24.1 26 25 25.1 25 24V16H22ZM14 20L11 24H23L19 19L16 23L14 20Z" fill="currentColor"/>
</svg>
