<svg width="36" height="36" viewBox="0 0 36 36" fill="none" xmlns="http://www.w3.org/2000/svg">
<path fill-rule="evenodd" clip-rule="evenodd" d="M35 18C35 27.3888 27.3888 35 18 35C8.61116 35 1 27.3888 1 18C1 8.61116 8.61116 1 18 1C27.3888 1 35 8.61116 35 18ZM36 18C36 27.9411 27.9411 36 18 36C8.05887 36 0 27.9411 0 18C0 8.05887 8.05887 0 18 0C27.9411 0 36 8.05887 36 18ZM18.5877 5.57068L19 20H21C21.5523 20 22 20.4477 22 21C25.3333 21 30 22.3684 30 22.3684V23C30 24 29 26 26 26C25.512 26 24.5476 26.0595 23.3248 26.135C19.5365 26.3689 13.2679 26.756 11 26C8.15927 25.0531 6.21518 23.2095 6.01676 22.4802C6.00019 22.4193 6.05118 22.3684 6.11432 22.3684H7L16 22L17 21L17.4133 5.57173C17.4218 5.25353 17.6822 5 18.0005 5C18.3184 5 18.5787 5.2529 18.5877 5.57068ZM20 19H30C30 19 26.6645 16.4639 24 13C21.3355 9.53611 20 7 20 7V19ZM16 6C16 6 14.8889 10 14.8889 15.1429C14.8889 18.7119 15.424 19.6665 15.7515 20.2507C15.8959 20.5084 16 20.694 16 21H6C6 21 6 18.0001 9.33333 12.2857C12.6667 6.5714 16 6 16 6Z" fill="currentColor"/>
</svg>
