<svg width="36" height="36" viewBox="0 0 36 36" fill="none" xmlns="http://www.w3.org/2000/svg">
<path fill-rule="evenodd" clip-rule="evenodd" d="M4.15368 1.65467V31.8074H31.9332L29.8847 28.2591H31.2638V13.2713H29.8847L31.9554 9.68447L34.0268 13.2713H32.6484V28.2591H34.0268L31.9777 31.8074H35.2937V34.6051H4.15368H2.96014H0.692139V1.38467H3.88299C4.03252 1.38467 4.15368 1.50514 4.15368 1.65467ZM9.4832 28.3337C10.2572 28.0063 10.989 27.6975 11.8523 27.6975C12.7163 27.6975 13.4467 28.007 14.2186 28.3344L14.2193 28.3347C15.0866 28.7022 15.9829 29.0821 17.1304 29.0821C18.2653 29.0821 19.1642 28.7088 20.0331 28.348L20.0374 28.3462C20.8384 28.0125 21.5958 27.6975 22.509 27.6975C23.4259 27.6975 24.1736 28.0138 24.9646 28.3485L24.9674 28.3496L24.9698 28.3507C25.8192 28.7103 26.6971 29.0821 27.8072 29.0821V27.6975C26.9778 27.6975 26.2634 27.3956 25.5074 27.0751C24.6641 26.7179 23.708 26.3129 22.509 26.3129C21.3196 26.3129 20.3974 26.6964 19.5057 27.0675C18.7269 27.3915 17.991 27.6975 17.1304 27.6975C16.2637 27.6975 15.5326 27.388 14.7593 27.0599L14.7564 27.0586L14.7564 27.0586C13.8912 26.6921 12.9961 26.3129 11.8523 26.3129C10.709 26.3129 9.81274 26.6913 8.94559 27.0574L8.94458 27.0578L8.9438 27.0581C8.16525 27.3869 7.42952 27.6975 6.55543 27.6975C6.26743 27.6975 5.99605 27.656 5.72951 27.5999V29.0163C5.99189 29.0579 6.26674 29.0821 6.55543 29.0821C7.70879 29.0821 8.61046 28.7018 9.48157 28.3344L9.4832 28.3337ZM19.5152 21.5323C20.4068 21.1613 21.3281 20.7779 22.518 20.7779C23.7157 20.7779 24.6714 21.1824 25.5149 21.5395L25.5164 21.5401L25.52 21.5416C26.2747 21.8609 26.9875 22.1625 27.8156 22.1625V23.5471C26.7051 23.5471 25.8259 23.1746 24.9764 22.8146L24.972 22.8128C24.1809 22.4784 23.4336 22.1625 22.518 22.1625C21.605 22.1625 20.8483 22.4774 20.0467 22.8111L20.0465 22.8112L20.0421 22.813C19.1733 23.1738 18.2744 23.5471 17.1395 23.5471C15.9913 23.5471 15.0949 23.1672 14.2277 22.7997L14.227 22.7994C13.455 22.472 12.7247 22.1625 11.8607 22.1625C10.9973 22.1625 10.2663 22.4713 9.49227 22.7987L9.49064 22.7994C8.61953 23.1668 7.71786 23.5471 6.5645 23.5471C6.27165 23.5471 5.99473 23.5222 5.72958 23.4793V22.0628C5.99888 22.1196 6.27304 22.1625 6.5645 22.1625C7.4379 22.1625 8.17246 21.8523 8.95034 21.5239L8.95296 21.5228L8.95397 21.5224C9.82112 21.1563 10.7174 20.7779 11.8607 20.7779C13.0064 20.7779 13.9023 21.1573 14.7683 21.5242C15.5417 21.853 16.2727 22.1625 17.1395 22.1625C18 22.1625 18.736 21.8565 19.5148 21.5325L19.5152 21.5323ZM25.5165 10.4608L25.515 10.4602C24.6715 10.1031 23.7158 9.6986 22.5181 9.6986C21.3282 9.6986 20.4068 10.082 19.5153 10.453L19.5149 10.4532C18.736 10.7772 18.0001 11.0832 17.1396 11.0832C16.2721 11.0832 15.5417 10.7738 14.7684 10.4456C13.9023 10.078 13.0065 9.6986 11.8607 9.6986C10.717 9.6986 9.82049 10.0773 8.95303 10.4442L8.9463 10.447C8.16995 10.7742 7.43644 11.0832 6.56457 11.0832C6.27311 11.0832 5.99895 11.041 5.72965 10.9842V12.4007C5.9948 12.4429 6.27172 12.4678 6.56457 12.4678C7.71865 12.4678 8.62072 12.0878 9.49234 11.7194L9.4975 11.7173C10.2696 11.3913 10.9993 11.0832 11.8607 11.0832C12.7224 11.0832 13.4513 11.3917 14.2209 11.7176L14.227 11.7201C15.0945 12.0884 15.991 12.4678 17.1396 12.4678C18.2744 12.4678 19.1733 12.0945 20.0422 11.7337L20.0466 11.7319L20.0468 11.7318C20.8484 11.3981 21.605 11.0832 22.5181 11.0832C23.4352 11.0832 24.1835 11.4002 24.976 11.7359L24.9765 11.7361L24.9795 11.7373C25.828 12.0963 26.7065 12.4678 27.8156 12.4678V11.0832C26.9863 11.0832 26.2725 10.7814 25.5165 10.4608ZM19.5152 15.9939C20.4068 15.6228 21.3281 15.2394 22.518 15.2394C23.7157 15.2394 24.6714 15.6439 25.515 16.001L25.5164 16.0016L25.52 16.0032C26.2747 16.3224 26.9875 16.624 27.8156 16.624V18.0086C26.7051 18.0086 25.8259 17.6362 24.9764 17.2762L24.972 17.2743C24.1809 16.9399 23.4336 16.624 22.518 16.624C21.605 16.624 20.8483 16.939 20.0467 17.2726L20.0465 17.2727L20.0421 17.2745C19.1732 17.6354 18.2744 18.0086 17.1395 18.0086C15.9913 18.0086 15.0949 17.6288 14.2277 17.2613L14.227 17.261C13.455 16.9335 12.7247 16.624 11.8607 16.624C10.9973 16.624 10.2663 16.9328 9.49227 17.2603L9.49063 17.261C8.61952 17.6284 7.71785 18.0086 6.5645 18.0086C6.27165 18.0086 5.99473 17.9837 5.72958 17.9408V16.5236C5.99888 16.5811 6.27304 16.624 6.5645 16.624C7.43791 16.624 8.17247 16.3139 8.95035 15.9854L8.95296 15.9843L8.95397 15.9839C9.82112 15.6178 10.7174 15.2394 11.8607 15.2394C13.0064 15.2394 13.9023 15.6188 14.7683 15.9857C15.5417 16.3146 16.2727 16.624 17.1395 16.624C18 16.624 18.736 16.318 19.5148 15.994L19.5152 15.9939Z" fill="currentColor"/>
</svg>
