<svg width="36" height="36" viewBox="0 0 36 36" fill="none" xmlns="http://www.w3.org/2000/svg">
<path d="M18 0C27.9411 0 36 8.05887 36 18C36 27.9411 27.9411 36 18 36C8.05887 36 0 27.9411 0 18C0 8.05887 8.05887 0 18 0ZM18 1C8.61116 1 1 8.61116 1 18C1 27.3888 8.61116 35 18 35C27.3888 35 35 27.3888 35 18C35 8.61116 27.3888 1 18 1ZM28.916 12.9082C29.434 12.7178 30.0092 12.9822 30.2002 13.5C31.8965 18.108 30.8953 23.4892 27.1924 27.1924C23.3905 30.994 17.8222 31.9446 13.1338 30.0547C12.7642 30.5979 12.394 31.1413 12.0244 31.6846L9.51465 26.4854L15.2725 26.9111C14.9447 27.3925 14.6167 27.8741 14.2891 28.3555C18.1696 29.7428 22.6725 28.884 25.7783 25.7783C28.9095 22.6469 29.7591 18.0948 28.3223 14.1914C28.1319 13.6733 28.398 13.099 28.916 12.9082ZM26.4854 9.51465L20.7275 9.08789C22.2345 6.87318 20.265 9.76607 21.71 7.64355C17.8302 6.25658 13.3278 7.11569 10.2217 10.2217C7.06867 13.3747 6.22853 17.9675 7.70703 21.8887C7.90161 22.4052 7.64033 22.9817 7.12402 23.1768C6.60738 23.3713 6.03077 23.1103 5.83594 22.5938C4.09055 17.9646 5.07899 12.5363 8.80762 8.80762C12.6091 5.00622 18.177 4.05326 22.8662 5.94336C23.1789 5.48405 23.5461 4.94524 23.9756 4.31445L26.4854 9.51465Z" fill="currentColor"/>
</svg>
