<svg width="36" height="36" viewBox="0 0 36 36" fill="none" xmlns="http://www.w3.org/2000/svg">
<path fill-rule="evenodd" clip-rule="evenodd" d="M25.7463 12.391C26.519 12.124 27.0726 11.4034 27.0726 10.5564C27.0726 9.48206 26.1819 8.61111 25.0831 8.61111C23.9844 8.61111 23.0937 9.48206 23.0937 10.5564C23.0937 11.4034 23.6473 12.124 24.42 12.391V18.5715C22.6419 18.6291 21.4008 18.932 21.3356 19.5802C19.87 19.8127 19.1027 20.3512 19.1027 21.25C19.1027 21.9048 17.6867 22.3109 15.4 22.3324V19.3794C16.8835 19.0783 18 17.7668 18 16.1944C18 14.3995 16.545 12.9444 14.75 12.9444C12.9551 12.9444 11.5 14.3995 11.5 16.1944C11.5 17.7668 12.6166 19.0783 14.1 19.3794V22.3433C10.6166 22.4505 7.88892 23.4188 7.88892 24.8611C7.88892 26.392 10.9619 27.3889 14.75 27.3889C18.5381 27.3889 21.6111 26.392 21.6111 24.8611C21.6111 23.8945 20.386 23.1408 18.5293 22.7165C19.4203 22.4275 19.8819 21.9471 19.8819 21.25C19.8819 20.7483 20.4966 20.3926 21.8034 20.244C22.4258 20.5685 23.6172 20.7078 25.0831 20.7078C27.2614 20.7078 28.8334 20.4004 28.8334 19.6345C28.8334 18.9488 27.5733 18.6306 25.7463 18.5715V12.391ZM14.1 23.2508V25.5833C14.1 25.7828 14.2617 25.9444 14.4611 25.9444H15.0389C15.2384 25.9444 15.4 25.7828 15.4 25.5833V23.2508C18.3702 23.3545 20.68 24.1514 20.68 24.8611C20.68 25.6218 18.0263 26.4827 14.75 26.4827C11.4738 26.4827 8.82007 25.6218 8.82007 24.8611C8.82007 24.1514 11.1299 23.3545 14.1 23.2508Z" fill="currentColor"/>
<path fill-rule="evenodd" clip-rule="evenodd" d="M18 35C27.3888 35 35 27.3888 35 18C35 8.61116 27.3888 1 18 1C8.61116 1 1 8.61116 1 18C1 27.3888 8.61116 35 18 35ZM18 36C27.9411 36 36 27.9411 36 18C36 8.05887 27.9411 0 18 0C8.05887 0 0 8.05887 0 18C0 27.9411 8.05887 36 18 36Z" fill="currentColor"/>
</svg>
