<svg width="36" height="36" viewBox="0 0 36 36" fill="none" xmlns="http://www.w3.org/2000/svg">
<path fill-rule="evenodd" clip-rule="evenodd" d="M18 35C27.3888 35 35 27.3888 35 18C35 8.61116 27.3888 1 18 1C8.61116 1 1 8.61116 1 18C1 27.3888 8.61116 35 18 35ZM18 36C27.9411 36 36 27.9411 36 18C36 8.05887 27.9411 0 18 0C8.05887 0 0 8.05887 0 18C0 27.9411 8.05887 36 18 36ZM20.25 16V10L18 7L15.75 10V12H11.25V26H24.75V16H20.25ZM12.75 24H14.25V22H12.75V24ZM14.25 20H12.75V18H14.25V20ZM12.75 16H14.25V14H12.75V16ZM17.25 24V22H18.75V24H17.25ZM17.25 18V20H18.75V18H17.25ZM17.25 16V14H18.75V16H17.25ZM17.25 10V12H18.75V10H17.25ZM23.25 24H21.75V22H23.25V24ZM21.75 20H23.25V18H21.75V20Z" fill="currentColor"/>
</svg>
