<svg width="38" height="38" viewBox="0 0 38 38" fill="none" xmlns="http://www.w3.org/2000/svg">
<path fill-rule="evenodd" clip-rule="evenodd" d="M36 19C36 28.3888 28.3888 36 19 36C9.61116 36 2 28.3888 2 19C2 9.61116 9.61116 2 19 2C28.3888 2 36 9.61116 36 19ZM37 19C37 28.9411 28.9411 37 19 37C9.05887 37 1 28.9411 1 19C1 9.05887 9.05887 1 19 1C28.9411 1 37 9.05887 37 19ZM26.2762 20.6957L23.9381 23.7343L24.6921 23.6053C23.7948 24.9802 22.312 25.9232 20.6052 26.2106C20.496 26.0173 20.3342 25.8532 20.1353 25.7372V19.3913H22.7067C22.8628 19.6823 23.1867 19.8828 23.5621 19.8828C24.0896 19.8828 24.5175 19.4874 24.5175 19C24.5175 18.5126 24.0896 18.1173 23.5621 18.1173C23.1867 18.1173 22.8628 18.3178 22.7067 18.6087H20.1353V15.4758C21.4531 15.181 22.4362 14.085 22.4362 12.7781C22.4362 11.2464 21.0872 10 19.4294 10C17.7716 10 16.4226 11.2464 16.4226 12.7781C16.4226 14.085 17.4057 15.181 18.7236 15.4758V18.6087H16.1638C16.0077 18.3178 15.6839 18.1173 15.3085 18.1173C14.7809 18.1173 14.353 18.5126 14.353 19C14.353 19.4874 14.7809 19.8828 15.3085 19.8828C15.6839 19.8828 16.0077 19.6823 16.1638 19.3913H18.7236V25.7372C18.532 25.8487 18.3743 26.0045 18.2653 26.1883C16.613 25.876 15.1824 24.9455 14.3077 23.6053L15.0617 23.7343L12.7238 20.6957L12 24.3633L12.8239 23.8192C13.9236 25.8349 15.9912 27.2067 18.3887 27.5332C18.6318 27.8171 19.0072 28 19.4294 28C19.8422 28 20.2108 27.8259 20.4543 27.5526C22.9182 27.2657 25.0523 25.8787 26.1761 23.8192L27 24.3633L26.2762 20.6957ZM17.1284 12.7781C17.1284 11.6056 18.1604 10.6522 19.4294 10.6522C20.6984 10.6522 21.7303 11.6056 21.7303 12.7781C21.7303 13.7231 21.0596 14.5248 20.1352 14.8008C20.1107 14.8081 20.0857 14.8143 20.0607 14.8205L20.0354 14.8269C20.0022 14.8352 19.9693 14.8434 19.9357 14.8505C19.9045 14.857 19.8729 14.8626 19.8413 14.8681C19.8004 14.875 19.759 14.8807 19.7174 14.8856L19.7083 14.8867C19.6855 14.8894 19.6628 14.8922 19.6396 14.8942C19.5703 14.9 19.5002 14.9041 19.4294 14.9041C19.3584 14.9041 19.2885 14.9 19.219 14.8942C19.1993 14.8925 19.1797 14.8902 19.1602 14.8878L19.1412 14.8856C19.0996 14.8807 19.0584 14.8749 19.0174 14.8681C18.9857 14.8626 18.9542 14.857 18.9228 14.8505C18.8894 14.8434 18.8564 14.8352 18.8233 14.8269L18.7977 14.8204C18.7728 14.8143 18.7479 14.8081 18.7235 14.8008C17.799 14.5248 17.1284 13.7231 17.1284 12.7781Z" fill="currentColor"/>
<path d="M23.9381 23.7343L23.74 23.5818L23.3501 24.0885L23.9803 23.9807L23.9381 23.7343ZM26.2762 20.6957L26.5215 20.6473L26.4146 20.1058L26.0781 20.5432L26.2762 20.6957ZM24.6921 23.6053L24.9015 23.7419L25.2145 23.2623L24.65 23.3588L24.6921 23.6053ZM20.6052 26.2106L20.3876 26.3336L20.4739 26.4862L20.6467 26.4571L20.6052 26.2106ZM20.1353 25.7372H19.8853V25.8809L20.0094 25.9532L20.1353 25.7372ZM20.1353 19.3913V19.1413H19.8853V19.3913H20.1353ZM22.7067 19.3913L22.927 19.2731L22.8563 19.1413H22.7067V19.3913ZM22.7067 18.6087V18.8587H22.8562L22.927 18.7269L22.7067 18.6087ZM20.1353 18.6087H19.8853V18.8587H20.1353V18.6087ZM20.1353 15.4758L20.0807 15.2318L19.8853 15.2755V15.4758H20.1353ZM18.7236 15.4758H18.9736V15.2755L18.7781 15.2318L18.7236 15.4758ZM18.7236 18.6087V18.8587H18.9736V18.6087H18.7236ZM16.1638 18.6087L15.9436 18.7269L16.0143 18.8587H16.1638V18.6087ZM16.1638 19.3913V19.1413H16.0143L15.9435 19.2731L16.1638 19.3913ZM18.7236 19.3913H18.9736V19.1413H18.7236V19.3913ZM18.7236 25.7372L18.8493 25.9533L18.9736 25.881V25.7372H18.7236ZM18.2653 26.1883L18.2189 26.4339L18.391 26.4664L18.4803 26.3158L18.2653 26.1883ZM14.3077 23.6053L14.3499 23.3588L13.7853 23.2623L14.0984 23.7419L14.3077 23.6053ZM15.0617 23.7343L15.0196 23.9807L15.6497 24.0885L15.2599 23.5818L15.0617 23.7343ZM12.7238 20.6957L12.9219 20.5432L12.5854 20.1058L12.4785 20.6473L12.7238 20.6957ZM12 24.3633L11.7547 24.3149L11.639 24.9014L12.1378 24.572L12 24.3633ZM12.8239 23.8192L13.0433 23.6994L12.9131 23.4607L12.6861 23.6106L12.8239 23.8192ZM18.3887 27.5332L18.5786 27.3706L18.5167 27.2983L18.4224 27.2855L18.3887 27.5332ZM20.4543 27.5526L20.4254 27.3043L20.3309 27.3153L20.2677 27.3863L20.4543 27.5526ZM26.1761 23.8192L26.3139 23.6106L26.087 23.4607L25.9567 23.6994L26.1761 23.8192ZM27 24.3633L26.8622 24.572L27.361 24.9014L27.2453 24.3149L27 24.3633ZM20.1352 14.8008L20.2065 15.0404L20.2067 15.0403L20.1352 14.8008ZM20.0607 14.8205L20.0003 14.5779L19.9999 14.578L20.0607 14.8205ZM20.0354 14.8269L19.9746 14.5844L19.9744 14.5844L20.0354 14.8269ZM19.9357 14.8505L19.9869 15.0952L19.987 15.0952L19.9357 14.8505ZM19.8413 14.8681L19.8829 15.1146L19.884 15.1144L19.8413 14.8681ZM19.7174 14.8856L19.6886 14.6372L19.6872 14.6374L19.7174 14.8856ZM19.7083 14.8867L19.6781 14.6385L19.678 14.6385L19.7083 14.8867ZM19.6396 14.8942L19.6185 14.6451L19.6185 14.6451L19.6396 14.8942ZM19.219 14.8942L19.1979 15.1433L19.198 15.1433L19.219 14.8942ZM19.1602 14.8878L19.19 14.6396L19.1897 14.6396L19.1602 14.8878ZM19.1412 14.8856L19.1707 14.6373L19.17 14.6372L19.1412 14.8856ZM19.0174 14.8681L18.9749 15.1145L18.9766 15.1147L19.0174 14.8681ZM18.9228 14.8505L18.8713 15.0951L18.8719 15.0952L18.9228 14.8505ZM18.8233 14.8269L18.8846 14.5845L18.8841 14.5844L18.8233 14.8269ZM18.7977 14.8204L18.8585 14.5779L18.858 14.5778L18.7977 14.8204ZM18.7235 14.8008L18.7951 14.5612L18.795 14.5612L18.7235 14.8008ZM19 36.25C28.5269 36.25 36.25 28.5269 36.25 19H35.75C35.75 28.2508 28.2508 35.75 19 35.75V36.25ZM1.75 19C1.75 28.5269 9.47309 36.25 19 36.25V35.75C9.74923 35.75 2.25 28.2508 2.25 19H1.75ZM19 1.75C9.47309 1.75 1.75 9.47309 1.75 19H2.25C2.25 9.74923 9.74923 2.25 19 2.25V1.75ZM36.25 19C36.25 9.47309 28.5269 1.75 19 1.75V2.25C28.2508 2.25 35.75 9.74923 35.75 19H36.25ZM19 37.25C29.0792 37.25 37.25 29.0792 37.25 19H36.75C36.75 28.8031 28.8031 36.75 19 36.75V37.25ZM0.75 19C0.75 29.0792 8.9208 37.25 19 37.25V36.75C9.19695 36.75 1.25 28.8031 1.25 19H0.75ZM19 0.75C8.9208 0.75 0.75 8.9208 0.75 19H1.25C1.25 9.19695 9.19695 1.25 19 1.25V0.75ZM37.25 19C37.25 8.9208 29.0792 0.75 19 0.75V1.25C28.8031 1.25 36.75 9.19695 36.75 19H37.25ZM24.1363 23.8867L26.4743 20.8481L26.0781 20.5432L23.74 23.5818L24.1363 23.8867ZM24.65 23.3588L23.896 23.4878L23.9803 23.9807L24.7343 23.8517L24.65 23.3588ZM20.6467 26.4571C22.4178 26.1589 23.9636 25.179 24.9015 23.7419L24.4828 23.4686C23.6261 24.7813 22.2062 25.6875 20.5637 25.964L20.6467 26.4571ZM20.0094 25.9532C20.1706 26.0472 20.3005 26.1795 20.3876 26.3336L20.8229 26.0875C20.6914 25.855 20.4977 25.6591 20.2612 25.5212L20.0094 25.9532ZM19.8853 19.3913V25.7372H20.3853V19.3913H19.8853ZM22.7067 19.1413H20.1353V19.6413H22.7067V19.1413ZM23.5621 19.6328C23.2755 19.6328 23.038 19.4801 22.927 19.2731L22.4864 19.5095C22.6876 19.8846 23.0979 20.1328 23.5621 20.1328V19.6328ZM24.2675 19C24.2675 19.3311 23.9705 19.6328 23.5621 19.6328V20.1328C24.2087 20.1328 24.7675 19.6438 24.7675 19H24.2675ZM23.5621 18.3673C23.9706 18.3673 24.2675 18.6689 24.2675 19H24.7675C24.7675 18.3562 24.2086 17.8673 23.5621 17.8673V18.3673ZM22.927 18.7269C23.038 18.5201 23.2754 18.3673 23.5621 18.3673V17.8673C23.0979 17.8673 22.6877 18.1156 22.4864 18.4905L22.927 18.7269ZM20.1353 18.8587H22.7067V18.3587H20.1353V18.8587ZM19.8853 15.4758V18.6087H20.3853V15.4758H19.8853ZM22.1862 12.7781C22.1862 13.952 21.3006 14.9589 20.0807 15.2318L20.1898 15.7198C21.6056 15.4031 22.6862 14.2179 22.6862 12.7781H22.1862ZM19.4294 10.25C20.9681 10.25 22.1862 11.4028 22.1862 12.7781H22.6862C22.6862 11.0901 21.2063 9.75 19.4294 9.75V10.25ZM16.6726 12.7781C16.6726 11.4028 17.8907 10.25 19.4294 10.25V9.75C17.6526 9.75 16.1726 11.0901 16.1726 12.7781H16.6726ZM18.7781 15.2318C17.5582 14.9589 16.6726 13.952 16.6726 12.7781H16.1726C16.1726 14.2179 17.2532 15.4031 18.669 15.7198L18.7781 15.2318ZM18.9736 18.6087V15.4758H18.4736V18.6087H18.9736ZM16.1638 18.8587H18.7236V18.3587H16.1638V18.8587ZM15.3085 18.3673C15.5951 18.3673 15.8325 18.5201 15.9436 18.7269L16.3841 18.4905C16.1829 18.1156 15.7726 17.8673 15.3085 17.8673V18.3673ZM14.603 19C14.603 18.6689 14.9 18.3673 15.3085 18.3673V17.8673C14.6619 17.8673 14.103 18.3562 14.103 19H14.603ZM15.3085 19.6328C14.9 19.6328 14.603 19.3311 14.603 19H14.103C14.103 19.6438 14.6618 20.1328 15.3085 20.1328V19.6328ZM15.9435 19.2731C15.8325 19.4801 15.5951 19.6328 15.3085 19.6328V20.1328C15.7726 20.1328 16.1829 19.8846 16.3841 19.5095L15.9435 19.2731ZM18.7236 19.1413H16.1638V19.6413H18.7236V19.1413ZM18.9736 25.7372V19.3913H18.4736V25.7372H18.9736ZM18.4803 26.3158C18.567 26.1696 18.6935 26.044 18.8493 25.9533L18.5978 25.5212C18.3704 25.6535 18.1816 25.8393 18.0503 26.0607L18.4803 26.3158ZM14.0984 23.7419C15.0126 25.1427 16.504 26.1098 18.2189 26.4339L18.3117 25.9426C16.7221 25.6422 15.3523 24.7483 14.5171 23.4686L14.0984 23.7419ZM15.1039 23.4878L14.3499 23.3588L14.2656 23.8517L15.0196 23.9807L15.1039 23.4878ZM12.5256 20.8481L14.8636 23.8867L15.2599 23.5818L12.9219 20.5432L12.5256 20.8481ZM12.2453 24.4117L12.9691 20.7441L12.4785 20.6473L11.7547 24.3149L12.2453 24.4117ZM12.6861 23.6106L11.8622 24.1547L12.1378 24.572L12.9617 24.0278L12.6861 23.6106ZM18.4224 27.2855C16.0978 26.9689 14.1023 25.6404 13.0433 23.6994L12.6044 23.9389C13.7449 26.0294 15.8846 27.4445 18.355 27.7809L18.4224 27.2855ZM19.4294 27.75C19.0798 27.75 18.7739 27.5987 18.5786 27.3706L18.1988 27.6958C18.4897 28.0355 18.9346 28.25 19.4294 28.25V27.75ZM20.2677 27.3863C20.0721 27.6058 19.7716 27.75 19.4294 27.75V28.25C19.9128 28.25 20.3495 28.0459 20.641 27.7189L20.2677 27.3863ZM25.9567 23.6994C24.8745 25.6826 22.8147 27.026 20.4254 27.3043L20.4832 27.8009C23.0217 27.5053 25.23 26.0749 26.3956 23.9389L25.9567 23.6994ZM27.1378 24.1547L26.3139 23.6106L26.0383 24.0278L26.8622 24.572L27.1378 24.1547ZM26.0309 20.7441L26.7547 24.4117L27.2453 24.3149L26.5215 20.6473L26.0309 20.7441ZM19.4294 10.4022C18.0413 10.4022 16.8784 11.4493 16.8784 12.7781H17.3784C17.3784 11.762 18.2795 10.9022 19.4294 10.9022V10.4022ZM21.9803 12.7781C21.9803 11.4493 20.8174 10.4022 19.4294 10.4022V10.9022C20.5793 10.9022 21.4803 11.762 21.4803 12.7781H21.9803ZM20.2067 15.0403C21.2224 14.7371 21.9803 13.8482 21.9803 12.7781H21.4803C21.4803 13.5981 20.8968 14.3125 20.0637 14.5612L20.2067 15.0403ZM20.1211 15.0631C20.1452 15.0571 20.1756 15.0496 20.2065 15.0404L20.064 14.5612C20.0457 14.5666 20.0262 14.5715 20.0003 14.5779L20.1211 15.0631ZM20.0962 15.0694L20.1216 15.063L19.9999 14.578L19.9746 14.5844L20.0962 15.0694ZM19.987 15.0952C20.0262 15.087 20.0636 15.0776 20.0964 15.0693L19.9744 14.5844C19.9409 14.5929 19.9125 14.5999 19.8845 14.6058L19.987 15.0952ZM19.884 15.1144C19.9158 15.1089 19.9511 15.1027 19.9869 15.0952L19.8846 14.6058C19.858 14.6113 19.83 14.6163 19.7986 14.6218L19.884 15.1144ZM19.7461 15.1339C19.7915 15.1286 19.8372 15.1223 19.8829 15.1146L19.7997 14.6216C19.7636 14.6277 19.7265 14.6328 19.6886 14.6372L19.7461 15.1339ZM19.7385 15.1348L19.7476 15.1337L19.6872 14.6374L19.6781 14.6385L19.7385 15.1348ZM19.6606 15.1433C19.6891 15.1409 19.7164 15.1375 19.7385 15.1348L19.678 14.6385C19.6545 14.6414 19.6364 14.6436 19.6185 14.6451L19.6606 15.1433ZM19.4294 15.1541C19.5096 15.1541 19.5871 15.1495 19.6607 15.1433L19.6185 14.6451C19.5535 14.6506 19.4909 14.6541 19.4294 14.6541V15.1541ZM19.198 15.1433C19.2717 15.1495 19.349 15.1541 19.4294 15.1541V14.6541C19.3677 14.6541 19.3053 14.6506 19.2401 14.6451L19.198 15.1433ZM19.1305 15.136C19.1493 15.1383 19.1731 15.1412 19.1979 15.1433L19.2402 14.6451C19.2255 14.6438 19.2102 14.642 19.19 14.6396L19.1305 15.136ZM19.1118 15.1338L19.1308 15.1361L19.1897 14.6396L19.1707 14.6373L19.1118 15.1338ZM18.9766 15.1147C19.0213 15.1221 19.0665 15.1286 19.1125 15.1339L19.17 14.6372C19.1327 14.6329 19.0955 14.6276 19.0583 14.6214L18.9766 15.1147ZM18.8719 15.0952C18.9076 15.1027 18.9426 15.1089 18.9749 15.1144L19.0599 14.6217C19.0287 14.6163 19.0007 14.6113 18.9738 14.6057L18.8719 15.0952ZM18.7621 15.0693C18.7952 15.0776 18.8325 15.0869 18.8713 15.0951L18.9743 14.6058C18.9463 14.5999 18.9175 14.5928 18.8846 14.5845L18.7621 15.0693ZM18.7369 15.0629L18.7625 15.0694L18.8841 14.5844L18.8585 14.5779L18.7369 15.0629ZM18.652 15.0403C18.6829 15.0495 18.7135 15.0571 18.7374 15.0631L18.858 14.5778C18.8321 14.5714 18.8129 14.5666 18.7951 14.5612L18.652 15.0403ZM16.8784 12.7781C16.8784 13.8482 17.6361 14.7371 18.652 15.0403L18.795 14.5612C17.9618 14.3125 17.3784 13.5981 17.3784 12.7781H16.8784Z" fill="currentColor"/>
</svg>
