<svg width="36" height="36" viewBox="0 0 36 36" fill="none" xmlns="http://www.w3.org/2000/svg">
<path d="M17.9868 10.1992C19.5069 10.1994 20.7388 11.431 20.7388 12.9512C20.7387 14.2303 19.8621 15.2963 18.6792 15.6045V29.5693H32.7339C33.764 29.5693 34.602 30.4074 34.6021 31.4375V35.1094H1.38525V31.4375C1.38533 30.4074 2.22263 29.5693 3.25342 29.5693H17.2944V15.6045C16.112 15.2957 15.234 14.2305 15.2339 12.9512C15.2339 11.4309 16.4672 10.1992 17.9868 10.1992ZM3.25342 30.9541C2.98624 30.9541 2.76912 31.171 2.76904 31.4375V33.7246H33.2183V31.4375C33.2182 31.171 33.0011 30.9541 32.7339 30.9541H3.25342ZM7.14111 2.36328C4.32205 5.18928 2.76904 8.94567 2.76904 12.9375C2.76911 16.9431 4.33031 20.7064 7.16455 23.5352L6.18701 24.5156C3.08969 21.4245 1.38435 17.3135 1.38428 12.9375C1.38428 8.57665 3.08154 4.47343 6.16162 1.38574L7.14111 2.36328ZM29.7993 1.38477C32.8966 4.47515 34.602 8.58665 34.6021 12.9619C34.6021 17.3234 32.9057 21.426 29.8257 24.5137L28.8452 23.5361C31.6643 20.7101 33.2173 16.9545 33.2173 12.9619C33.2172 8.95703 31.6567 5.19393 28.8218 2.36523L29.7993 1.38477ZM10.2417 5.46387C8.24999 7.46253 7.15285 10.1164 7.15283 12.9375C7.15283 15.7718 8.25785 18.4341 10.2642 20.4355L9.28662 21.416C7.01793 19.1529 5.76807 16.1422 5.76807 12.9375C5.76809 9.74744 7.00926 6.74598 9.26123 4.48633L10.2417 5.46387ZM26.6997 4.48438C28.9684 6.74614 30.2192 9.75751 30.2192 12.9629C30.2191 16.1529 28.9781 19.1545 26.7261 21.4141L25.7456 20.4365C27.7373 18.4379 28.8344 15.7839 28.8345 12.9629C28.8345 10.1279 27.7285 7.46561 25.7222 5.46484L26.6997 4.48438ZM13.2466 8.46777C12.0573 9.66333 11.4019 11.2505 11.4019 12.9375C11.4019 14.6364 12.0651 16.232 13.269 17.4297L12.2915 18.4121C10.8259 16.952 10.0181 15.0068 10.0181 12.9375C10.0181 10.8821 10.8155 8.94779 12.2651 7.49121L13.2466 8.46777ZM23.6948 7.48828C25.1618 8.94836 25.9692 10.8929 25.9692 12.9629C25.9692 15.0176 25.1708 16.9526 23.7212 18.4092L22.7397 17.4326C23.9298 16.2364 24.5854 14.6486 24.5854 12.9629C24.5854 11.264 23.9214 9.66838 22.7183 8.4707L23.6948 7.48828Z" fill="#000023"/>
<mask id="mask0_0_1631" style="mask-type:luminance" maskUnits="userSpaceOnUse" x="1" y="1" width="34" height="35">
<path d="M17.9868 10.1992C19.5069 10.1994 20.7388 11.431 20.7388 12.9512C20.7387 14.2303 19.8621 15.2963 18.6792 15.6045V29.5693H32.7339C33.764 29.5693 34.602 30.4074 34.6021 31.4375V35.1094H1.38525V31.4375C1.38533 30.4074 2.22263 29.5693 3.25342 29.5693H17.2944V15.6045C16.112 15.2957 15.234 14.2305 15.2339 12.9512C15.2339 11.4309 16.4672 10.1992 17.9868 10.1992ZM3.25342 30.9541C2.98624 30.9541 2.76912 31.171 2.76904 31.4375V33.7246H33.2183V31.4375C33.2182 31.171 33.0011 30.9541 32.7339 30.9541H3.25342ZM7.14111 2.36328C4.32205 5.18928 2.76904 8.94567 2.76904 12.9375C2.76911 16.9431 4.33031 20.7064 7.16455 23.5352L6.18701 24.5156C3.08969 21.4245 1.38435 17.3135 1.38428 12.9375C1.38428 8.57665 3.08154 4.47343 6.16162 1.38574L7.14111 2.36328ZM29.7993 1.38477C32.8966 4.47515 34.602 8.58665 34.6021 12.9619C34.6021 17.3234 32.9057 21.426 29.8257 24.5137L28.8452 23.5361C31.6643 20.7101 33.2173 16.9545 33.2173 12.9619C33.2172 8.95703 31.6567 5.19393 28.8218 2.36523L29.7993 1.38477ZM10.2417 5.46387C8.24999 7.46253 7.15285 10.1164 7.15283 12.9375C7.15283 15.7718 8.25785 18.4341 10.2642 20.4355L9.28662 21.416C7.01793 19.1529 5.76807 16.1422 5.76807 12.9375C5.76809 9.74744 7.00926 6.74598 9.26123 4.48633L10.2417 5.46387ZM26.6997 4.48438C28.9684 6.74614 30.2192 9.75751 30.2192 12.9629C30.2191 16.1529 28.9781 19.1545 26.7261 21.4141L25.7456 20.4365C27.7373 18.4379 28.8344 15.7839 28.8345 12.9629C28.8345 10.1279 27.7285 7.46561 25.7222 5.46484L26.6997 4.48438ZM13.2466 8.46777C12.0573 9.66333 11.4019 11.2505 11.4019 12.9375C11.4019 14.6364 12.0651 16.232 13.269 17.4297L12.2915 18.4121C10.8259 16.952 10.0181 15.0068 10.0181 12.9375C10.0181 10.8821 10.8155 8.94779 12.2651 7.49121L13.2466 8.46777ZM23.6948 7.48828C25.1618 8.94836 25.9692 10.8929 25.9692 12.9629C25.9692 15.0176 25.1708 16.9526 23.7212 18.4092L22.7397 17.4326C23.9298 16.2364 24.5854 14.6486 24.5854 12.9629C24.5854 11.264 23.9214 9.66838 22.7183 8.4707L23.6948 7.48828Z" fill="white"/>
</mask>
<g mask="url(#mask0_0_1631)">
<rect width="36" height="36" fill="#000023"/>
</g>
</svg>
