<svg width="36" height="36" viewBox="0 0 36 36" fill="none" xmlns="http://www.w3.org/2000/svg">
<path fill-rule="evenodd" clip-rule="evenodd" d="M18 35C27.3888 35 35 27.3888 35 18C35 8.61116 27.3888 1 18 1C8.61116 1 1 8.61116 1 18C1 27.3888 8.61116 35 18 35ZM18 36C27.9411 36 36 27.9411 36 18C36 8.05887 27.9411 0 18 0C8.05887 0 0 8.05887 0 18C0 27.9411 8.05887 36 18 36ZM20.3664 5V10.1548C20.3664 11.0998 21.1396 11.873 22.0847 11.873H26.3803V26.4782C26.3803 27.4232 25.6071 28.1964 24.6621 28.1964H22.9438V26.3923C23.4593 25.8768 23.8029 25.1895 23.8029 24.3304C23.8029 22.698 22.4283 21.3234 20.796 21.3234C19.1636 21.3234 17.789 22.698 17.789 24.3304C17.789 25.1035 18.1327 25.8767 18.6481 26.3923V28.1964H11.7751C10.8301 28.1964 10.0569 27.4232 10.0569 26.4782V6.71825C10.0569 5.77319 10.8301 5 11.7751 5H20.3664ZM18.6481 8.4365H12.6343V9.29563H18.6481V8.4365ZM12.6343 11.0139H18.6481V11.873H12.6343V11.0139ZM12.6343 19.6051H23.8029V18.746H12.6343V19.6051ZM23.8029 17.0278H12.6343V16.1686H23.8029V17.0278ZM12.6343 14.4504H23.8029V13.5913H12.6343V14.4504ZM19.5073 31.2893V27.0796C19.9368 27.2514 20.3664 27.3373 20.796 27.3373C21.2256 27.3373 21.6552 27.2514 22.0847 27.0796V31.2893L20.796 30.0005L19.5073 31.2893ZM22.9437 24.3303C22.9437 25.5165 21.9821 26.4781 20.7959 26.4781C19.6097 26.4781 18.6481 25.5165 18.6481 24.3303C18.6481 23.1441 19.6097 22.1825 20.7959 22.1825C21.9821 22.1825 22.9437 23.1441 22.9437 24.3303ZM26.3803 11.0139H22.0847C21.6551 11.0139 21.2255 10.6702 21.2255 10.1548V5L26.3803 11.0139Z" fill="currentColor"/>
</svg>
