<svg width="36" height="36" viewBox="0 0 36 36" fill="none" xmlns="http://www.w3.org/2000/svg">
<path fill-rule="evenodd" clip-rule="evenodd" d="M22.8542 29.0768H31.3897L32.9335 25.4726L2.96354 20.9117L3.65792 24.1538C4.26992 27.0068 6.83077 29.0768 9.74815 29.0768H12.5042H22.8542ZM34.0274 24.2389C34.2385 24.2708 34.4241 24.3989 34.5279 24.5865C34.6325 24.7734 34.6435 24.9984 34.5591 25.1957L32.4821 30.0419C32.3735 30.2966 32.1235 30.4614 31.8459 30.4614H22.8542H12.5042H9.74815C6.18277 30.4614 3.05146 27.931 2.30446 24.4446L1.40031 20.2222C1.35184 19.9999 1.41692 19.768 1.57338 19.6019C1.72846 19.4364 1.95484 19.3568 2.18123 19.3928L17.6252 21.7425V3.35547C17.4217 3.23501 17.2791 3.02247 17.2791 2.76909C17.2791 2.38694 17.5892 2.07678 17.9714 2.07678C18.3542 2.07678 18.6637 2.38694 18.6637 2.76909C18.6637 3.02247 18.5211 3.23501 18.3175 3.35547V21.8484L34.0274 24.2389ZM14.5383 18.568L5.28284 17.027C6.49299 11.5695 9.81399 6.89504 14.5383 3.97419V18.568ZM15.1171 20.0676C15.1551 20.0731 15.1925 20.0766 15.2306 20.0766C15.3933 20.0766 15.5525 20.0191 15.6785 19.9125C15.8336 19.7817 15.9229 19.5878 15.9229 19.3843V2.77373C15.9229 2.53004 15.7948 2.30365 15.5851 2.17904C15.3746 2.05304 15.1136 2.04819 14.9011 2.16519C9.05868 5.33319 5.00522 10.9097 3.77984 17.4652C3.74591 17.6473 3.78676 17.837 3.89338 17.9893C3.99999 18.1409 4.16407 18.2447 4.34684 18.2752L15.1171 20.0676ZM21.4614 18.9707L27.3031 19.9178C25.3723 13.5444 23.8001 10.7821 21.4614 7.60853V18.9707ZM28.2807 21.4699C28.244 21.4699 28.2066 21.4671 28.1692 21.4616L20.6584 20.2431C20.3226 20.1885 20.0768 19.8991 20.0768 19.5598V5.54268C20.0768 5.24637 20.2651 4.98261 20.5469 4.88707C20.8266 4.7943 21.1374 4.88568 21.3181 5.12176C24.5339 9.31437 26.4744 12.0995 28.9453 20.5845C29.0111 20.8122 28.9564 21.0587 28.7992 21.2359C28.6663 21.3861 28.4773 21.4699 28.2807 21.4699ZM31.0284 31.1579L34.6153 33.2286L31.0284 35.2993V33.9209H4.97137V35.2993L1.38452 33.2286L4.97137 31.1579V32.5363H31.0284V31.1579ZM11.331 24.9412L7.2402 24.2205L7.48043 22.8574L11.572 23.5781L11.331 24.9412Z" fill="currentColor"/>
</svg>
