<svg width="37" height="37" viewBox="0 0 37 37" fill="none" xmlns="http://www.w3.org/2000/svg">
<path fill-rule="evenodd" clip-rule="evenodd" d="M35.25 18.25C35.25 27.6388 27.6388 35.25 18.25 35.25C8.86116 35.25 1.25 27.6388 1.25 18.25C1.25 8.86116 8.86116 1.25 18.25 1.25C27.6388 1.25 35.25 8.86116 35.25 18.25ZM36.25 18.25C36.25 28.1911 28.1911 36.25 18.25 36.25C8.30887 36.25 0.25 28.1911 0.25 18.25C0.25 8.30887 8.30887 0.25 18.25 0.25C28.1911 0.25 36.25 8.30887 36.25 18.25ZM25.5262 19.9457L23.1881 22.9843L23.9421 22.8553C23.0448 24.2302 21.562 25.1732 19.8552 25.4606C19.746 25.2673 19.5842 25.1032 19.3853 24.9872V18.6413H21.9567C22.1128 18.9323 22.4367 19.1328 22.8121 19.1328C23.3396 19.1328 23.7675 18.7374 23.7675 18.25C23.7675 17.7626 23.3396 17.3673 22.8121 17.3673C22.4367 17.3673 22.1128 17.5678 21.9567 17.8587H19.3853V14.7258C20.7031 14.431 21.6862 13.335 21.6862 12.0281C21.6862 10.4964 20.3372 9.25 18.6794 9.25C17.0216 9.25 15.6726 10.4964 15.6726 12.0281C15.6726 13.335 16.6557 14.431 17.9736 14.7258V17.8587H15.4138C15.2577 17.5678 14.9339 17.3673 14.5585 17.3673C14.0309 17.3673 13.603 17.7626 13.603 18.25C13.603 18.7374 14.0309 19.1328 14.5585 19.1328C14.9339 19.1328 15.2577 18.9323 15.4138 18.6413H17.9736V24.9872C17.782 25.0987 17.6243 25.2545 17.5153 25.4383C15.863 25.126 14.4324 24.1955 13.5577 22.8553L14.3117 22.9843L11.9738 19.9457L11.25 23.6133L12.0739 23.0692C13.1736 25.0849 15.2412 26.4567 17.6387 26.7832C17.8818 27.0671 18.2572 27.25 18.6794 27.25C19.0922 27.25 19.4608 27.0759 19.7043 26.8026C22.1682 26.5157 24.3023 25.1287 25.4261 23.0692L26.25 23.6133L25.5262 19.9457ZM16.3784 12.0281C16.3784 10.8556 17.4104 9.90217 18.6794 9.90217C19.9484 9.90217 20.9803 10.8556 20.9803 12.0281C20.9803 12.9731 20.3096 13.7748 19.3852 14.0508C19.3607 14.0581 19.3357 14.0643 19.3107 14.0705L19.2854 14.0769C19.2522 14.0852 19.2193 14.0934 19.1857 14.1005C19.1545 14.107 19.1229 14.1126 19.0913 14.1181C19.0504 14.125 19.009 14.1307 18.9674 14.1356L18.9583 14.1367C18.9355 14.1394 18.9128 14.1422 18.8896 14.1442C18.8203 14.15 18.7502 14.1541 18.6794 14.1541C18.6084 14.1541 18.5385 14.15 18.469 14.1442C18.4493 14.1425 18.4297 14.1402 18.4102 14.1378L18.3912 14.1356C18.3496 14.1307 18.3084 14.1249 18.2674 14.1181C18.2357 14.1126 18.2042 14.107 18.1728 14.1005C18.1394 14.0934 18.1064 14.0852 18.0733 14.0769L18.0477 14.0704C18.0228 14.0643 17.9979 14.0581 17.9735 14.0508C17.049 13.7748 16.3784 12.9731 16.3784 12.0281Z" fill="currentColor"/>
<path d="M23.1881 22.9843L22.99 22.8318L22.6001 23.3385L23.2303 23.2307L23.1881 22.9843ZM25.5262 19.9457L25.7715 19.8973L25.6646 19.3558L25.3281 19.7932L25.5262 19.9457ZM23.9421 22.8553L24.1515 22.9919L24.4645 22.5123L23.9 22.6088L23.9421 22.8553ZM19.8552 25.4606L19.6376 25.5836L19.7239 25.7362L19.8967 25.7071L19.8552 25.4606ZM19.3853 24.9872H19.1353V25.1309L19.2594 25.2032L19.3853 24.9872ZM19.3853 18.6413V18.3913H19.1353V18.6413H19.3853ZM21.9567 18.6413L22.177 18.5231L22.1063 18.3913H21.9567V18.6413ZM21.9567 17.8587V18.1087H22.1062L22.177 17.9769L21.9567 17.8587ZM19.3853 17.8587H19.1353V18.1087H19.3853V17.8587ZM19.3853 14.7258L19.3307 14.4818L19.1353 14.5255V14.7258H19.3853ZM17.9736 14.7258H18.2236V14.5255L18.0281 14.4818L17.9736 14.7258ZM17.9736 17.8587V18.1087H18.2236V17.8587H17.9736ZM15.4138 17.8587L15.1936 17.9769L15.2643 18.1087H15.4138V17.8587ZM15.4138 18.6413V18.3913H15.2643L15.1935 18.5231L15.4138 18.6413ZM17.9736 18.6413H18.2236V18.3913H17.9736V18.6413ZM17.9736 24.9872L18.0993 25.2033L18.2236 25.131V24.9872H17.9736ZM17.5153 25.4383L17.4689 25.6839L17.641 25.7164L17.7303 25.5658L17.5153 25.4383ZM13.5577 22.8553L13.5999 22.6088L13.0353 22.5123L13.3484 22.9919L13.5577 22.8553ZM14.3117 22.9843L14.2696 23.2307L14.8997 23.3385L14.5099 22.8318L14.3117 22.9843ZM11.9738 19.9457L12.1719 19.7932L11.8354 19.3558L11.7285 19.8973L11.9738 19.9457ZM11.25 23.6133L11.0047 23.5649L10.889 24.1514L11.3878 23.822L11.25 23.6133ZM12.0739 23.0692L12.2933 22.9494L12.1631 22.7107L11.9361 22.8606L12.0739 23.0692ZM17.6387 26.7832L17.8286 26.6206L17.7667 26.5483L17.6724 26.5355L17.6387 26.7832ZM19.7043 26.8026L19.6754 26.5543L19.5809 26.5653L19.5177 26.6363L19.7043 26.8026ZM25.4261 23.0692L25.5639 22.8606L25.337 22.7107L25.2067 22.9494L25.4261 23.0692ZM26.25 23.6133L26.1122 23.822L26.611 24.1514L26.4953 23.5649L26.25 23.6133ZM19.3852 14.0508L19.4565 14.2904L19.4567 14.2903L19.3852 14.0508ZM19.3107 14.0705L19.2503 13.8279L19.2499 13.828L19.3107 14.0705ZM19.2854 14.0769L19.2246 13.8344L19.2244 13.8344L19.2854 14.0769ZM19.1857 14.1005L19.2369 14.3452L19.237 14.3452L19.1857 14.1005ZM19.0913 14.1181L19.1329 14.3646L19.134 14.3644L19.0913 14.1181ZM18.9674 14.1356L18.9386 13.8872L18.9372 13.8874L18.9674 14.1356ZM18.9583 14.1367L18.9281 13.8885L18.928 13.8885L18.9583 14.1367ZM18.8896 14.1442L18.8685 13.8951L18.8685 13.8951L18.8896 14.1442ZM18.469 14.1442L18.4479 14.3933L18.448 14.3933L18.469 14.1442ZM18.4102 14.1378L18.44 13.8896L18.4397 13.8896L18.4102 14.1378ZM18.3912 14.1356L18.4207 13.8873L18.42 13.8872L18.3912 14.1356ZM18.2674 14.1181L18.2249 14.3645L18.2266 14.3647L18.2674 14.1181ZM18.1728 14.1005L18.1213 14.3451L18.1219 14.3452L18.1728 14.1005ZM18.0733 14.0769L18.1346 13.8345L18.1341 13.8344L18.0733 14.0769ZM18.0477 14.0704L18.1085 13.8279L18.108 13.8278L18.0477 14.0704ZM17.9735 14.0508L18.0451 13.8112L18.045 13.8112L17.9735 14.0508ZM18.25 35.5C27.7769 35.5 35.5 27.7769 35.5 18.25H35C35 27.5008 27.5008 35 18.25 35V35.5ZM1 18.25C1 27.7769 8.72309 35.5 18.25 35.5V35C8.99923 35 1.5 27.5008 1.5 18.25H1ZM18.25 1C8.72309 1 1 8.72309 1 18.25H1.5C1.5 8.99923 8.99923 1.5 18.25 1.5V1ZM35.5 18.25C35.5 8.72309 27.7769 1 18.25 1V1.5C27.5008 1.5 35 8.99923 35 18.25H35.5ZM18.25 36.5C28.3292 36.5 36.5 28.3292 36.5 18.25H36C36 28.0531 28.0531 36 18.25 36V36.5ZM0 18.25C0 28.3292 8.1708 36.5 18.25 36.5V36C8.44695 36 0.5 28.0531 0.5 18.25H0ZM18.25 0C8.1708 0 0 8.1708 0 18.25H0.5C0.5 8.44695 8.44695 0.5 18.25 0.5V0ZM36.5 18.25C36.5 8.1708 28.3292 0 18.25 0V0.5C28.0531 0.5 36 8.44695 36 18.25H36.5ZM23.3863 23.1367L25.7243 20.0981L25.3281 19.7932L22.99 22.8318L23.3863 23.1367ZM23.9 22.6088L23.146 22.7378L23.2303 23.2307L23.9843 23.1017L23.9 22.6088ZM19.8967 25.7071C21.6678 25.4089 23.2136 24.429 24.1515 22.9919L23.7328 22.7186C22.8761 24.0313 21.4562 24.9375 19.8137 25.214L19.8967 25.7071ZM19.2594 25.2032C19.4206 25.2972 19.5505 25.4295 19.6376 25.5836L20.0729 25.3375C19.9414 25.105 19.7477 24.9091 19.5112 24.7712L19.2594 25.2032ZM19.1353 18.6413V24.9872H19.6353V18.6413H19.1353ZM21.9567 18.3913H19.3853V18.8913H21.9567V18.3913ZM22.8121 18.8828C22.5255 18.8828 22.288 18.7301 22.177 18.5231L21.7364 18.7595C21.9376 19.1346 22.3479 19.3828 22.8121 19.3828V18.8828ZM23.5175 18.25C23.5175 18.5811 23.2205 18.8828 22.8121 18.8828V19.3828C23.4587 19.3828 24.0175 18.8938 24.0175 18.25H23.5175ZM22.8121 17.6173C23.2206 17.6173 23.5175 17.9189 23.5175 18.25H24.0175C24.0175 17.6062 23.4586 17.1173 22.8121 17.1173V17.6173ZM22.177 17.9769C22.288 17.7701 22.5254 17.6173 22.8121 17.6173V17.1173C22.3479 17.1173 21.9377 17.3656 21.7364 17.7405L22.177 17.9769ZM19.3853 18.1087H21.9567V17.6087H19.3853V18.1087ZM19.1353 14.7258V17.8587H19.6353V14.7258H19.1353ZM21.4362 12.0281C21.4362 13.202 20.5506 14.2089 19.3307 14.4818L19.4398 14.9698C20.8556 14.6531 21.9362 13.4679 21.9362 12.0281H21.4362ZM18.6794 9.5C20.2181 9.5 21.4362 10.6528 21.4362 12.0281H21.9362C21.9362 10.3401 20.4563 9 18.6794 9V9.5ZM15.9226 12.0281C15.9226 10.6528 17.1407 9.5 18.6794 9.5V9C16.9026 9 15.4226 10.3401 15.4226 12.0281H15.9226ZM18.0281 14.4818C16.8082 14.2089 15.9226 13.202 15.9226 12.0281H15.4226C15.4226 13.4679 16.5032 14.6531 17.919 14.9698L18.0281 14.4818ZM18.2236 17.8587V14.7258H17.7236V17.8587H18.2236ZM15.4138 18.1087H17.9736V17.6087H15.4138V18.1087ZM14.5585 17.6173C14.8451 17.6173 15.0825 17.7701 15.1936 17.9769L15.6341 17.7405C15.4329 17.3656 15.0226 17.1173 14.5585 17.1173V17.6173ZM13.853 18.25C13.853 17.9189 14.15 17.6173 14.5585 17.6173V17.1173C13.9119 17.1173 13.353 17.6062 13.353 18.25H13.853ZM14.5585 18.8828C14.15 18.8828 13.853 18.5811 13.853 18.25H13.353C13.353 18.8938 13.9118 19.3828 14.5585 19.3828V18.8828ZM15.1935 18.5231C15.0825 18.7301 14.8451 18.8828 14.5585 18.8828V19.3828C15.0226 19.3828 15.4329 19.1346 15.6341 18.7595L15.1935 18.5231ZM17.9736 18.3913H15.4138V18.8913H17.9736V18.3913ZM18.2236 24.9872V18.6413H17.7236V24.9872H18.2236ZM17.7303 25.5658C17.817 25.4196 17.9435 25.294 18.0993 25.2033L17.8478 24.7712C17.6204 24.9035 17.4316 25.0893 17.3003 25.3107L17.7303 25.5658ZM13.3484 22.9919C14.2626 24.3927 15.754 25.3598 17.4689 25.6839L17.5617 25.1926C15.9721 24.8922 14.6023 23.9983 13.7671 22.7186L13.3484 22.9919ZM14.3539 22.7378L13.5999 22.6088L13.5156 23.1017L14.2696 23.2307L14.3539 22.7378ZM11.7756 20.0981L14.1136 23.1367L14.5099 22.8318L12.1719 19.7932L11.7756 20.0981ZM11.4953 23.6617L12.2191 19.9941L11.7285 19.8973L11.0047 23.5649L11.4953 23.6617ZM11.9361 22.8606L11.1122 23.4047L11.3878 23.822L12.2117 23.2778L11.9361 22.8606ZM17.6724 26.5355C15.3478 26.2189 13.3523 24.8904 12.2933 22.9494L11.8544 23.1889C12.9949 25.2794 15.1346 26.6945 17.605 27.0309L17.6724 26.5355ZM18.6794 27C18.3298 27 18.0239 26.8487 17.8286 26.6206L17.4488 26.9458C17.7397 27.2855 18.1846 27.5 18.6794 27.5V27ZM19.5177 26.6363C19.3221 26.8558 19.0216 27 18.6794 27V27.5C19.1628 27.5 19.5995 27.2959 19.891 26.9689L19.5177 26.6363ZM25.2067 22.9494C24.1245 24.9326 22.0647 26.276 19.6754 26.5543L19.7332 27.0509C22.2717 26.7553 24.48 25.3249 25.6456 23.1889L25.2067 22.9494ZM26.3878 23.4047L25.5639 22.8606L25.2883 23.2778L26.1122 23.822L26.3878 23.4047ZM25.2809 19.9941L26.0047 23.6617L26.4953 23.5649L25.7715 19.8973L25.2809 19.9941ZM18.6794 9.65217C17.2913 9.65217 16.1284 10.6993 16.1284 12.0281H16.6284C16.6284 11.012 17.5295 10.1522 18.6794 10.1522V9.65217ZM21.2303 12.0281C21.2303 10.6993 20.0674 9.65217 18.6794 9.65217V10.1522C19.8293 10.1522 20.7303 11.012 20.7303 12.0281H21.2303ZM19.4567 14.2903C20.4724 13.9871 21.2303 13.0982 21.2303 12.0281H20.7303C20.7303 12.8481 20.1468 13.5625 19.3137 13.8112L19.4567 14.2903ZM19.3711 14.3131C19.3952 14.3071 19.4256 14.2996 19.4565 14.2904L19.314 13.8112C19.2957 13.8166 19.2762 13.8215 19.2503 13.8279L19.3711 14.3131ZM19.3462 14.3194L19.3716 14.313L19.2499 13.828L19.2246 13.8344L19.3462 14.3194ZM19.237 14.3452C19.2762 14.337 19.3136 14.3276 19.3464 14.3193L19.2244 13.8344C19.1909 13.8429 19.1625 13.8499 19.1345 13.8558L19.237 14.3452ZM19.134 14.3644C19.1658 14.3589 19.2011 14.3527 19.2369 14.3452L19.1346 13.8558C19.108 13.8613 19.08 13.8663 19.0486 13.8718L19.134 14.3644ZM18.9961 14.3839C19.0415 14.3786 19.0872 14.3723 19.1329 14.3646L19.0497 13.8716C19.0136 13.8777 18.9765 13.8828 18.9386 13.8872L18.9961 14.3839ZM18.9885 14.3848L18.9976 14.3837L18.9372 13.8874L18.9281 13.8885L18.9885 14.3848ZM18.9106 14.3933C18.9391 14.3909 18.9664 14.3875 18.9885 14.3848L18.928 13.8885C18.9045 13.8914 18.8864 13.8936 18.8685 13.8951L18.9106 14.3933ZM18.6794 14.4041C18.7596 14.4041 18.8371 14.3995 18.9107 14.3933L18.8685 13.8951C18.8035 13.9006 18.7409 13.9041 18.6794 13.9041V14.4041ZM18.448 14.3933C18.5217 14.3995 18.599 14.4041 18.6794 14.4041V13.9041C18.6177 13.9041 18.5553 13.9006 18.4901 13.8951L18.448 14.3933ZM18.3805 14.386C18.3993 14.3883 18.4231 14.3912 18.4479 14.3933L18.4902 13.8951C18.4755 13.8938 18.4602 13.892 18.44 13.8896L18.3805 14.386ZM18.3618 14.3838L18.3808 14.3861L18.4397 13.8896L18.4207 13.8873L18.3618 14.3838ZM18.2266 14.3647C18.2713 14.3721 18.3165 14.3786 18.3625 14.3839L18.42 13.8872C18.3827 13.8829 18.3455 13.8776 18.3083 13.8714L18.2266 14.3647ZM18.1219 14.3452C18.1576 14.3527 18.1926 14.3589 18.2249 14.3644L18.3099 13.8717C18.2787 13.8663 18.2507 13.8613 18.2238 13.8557L18.1219 14.3452ZM18.0121 14.3193C18.0452 14.3276 18.0825 14.3369 18.1213 14.3451L18.2243 13.8558C18.1963 13.8499 18.1675 13.8428 18.1346 13.8345L18.0121 14.3193ZM17.9869 14.3129L18.0125 14.3194L18.1341 13.8344L18.1085 13.8279L17.9869 14.3129ZM17.902 14.2903C17.9329 14.2995 17.9635 14.3071 17.9874 14.3131L18.108 13.8278C18.0821 13.8214 18.0629 13.8166 18.0451 13.8112L17.902 14.2903ZM16.1284 12.0281C16.1284 13.0982 16.8861 13.9871 17.902 14.2903L18.045 13.8112C17.2118 13.5625 16.6284 12.8481 16.6284 12.0281H16.1284Z" fill="currentColor"/>
</svg>
