<svg width="36" height="36" viewBox="0 0 36 36" fill="none" xmlns="http://www.w3.org/2000/svg">
<path fill-rule="evenodd" clip-rule="evenodd" d="M35 18C35 27.3888 27.3888 35 18 35C8.61116 35 1 27.3888 1 18C1 8.61116 8.61116 1 18 1C27.3888 1 35 8.61116 35 18ZM36 18C36 27.9411 27.9411 36 18 36C8.05887 36 0 27.9411 0 18C0 8.05887 8.05887 0 18 0C27.9411 0 36 8.05887 36 18ZM25.9263 23L27.0503 19.4466H9.94965L11.0754 23C9.26595 21.1977 6.35073 19.4977 4 18.5C6.35073 17.5023 9.26595 15.8023 11.0754 14L9.94965 17.5534H27.0503L25.9263 14C27.734 15.8023 30.6493 17.5023 33 18.5C30.6493 19.4977 27.734 21.1977 25.9263 23Z" fill="currentColor"/>
</svg>
