<svg width="36" height="36" viewBox="0 0 36 36" fill="none" xmlns="http://www.w3.org/2000/svg">
<path fill-rule="evenodd" clip-rule="evenodd" d="M35 18C35 27.3888 27.3888 35 18 35C8.61116 35 1 27.3888 1 18C1 8.61116 8.61116 1 18 1C27.3888 1 35 8.61116 35 18ZM36 18C36 27.9411 27.9411 36 18 36C8.05887 36 0 27.9411 0 18C0 8.05887 8.05887 0 18 0C27.9411 0 36 8.05887 36 18ZM31 17.2651L30.3469 18.7048C32.2481 19.4469 26.1871 23.0954 25.677 23.4025L25.677 23.4025L25.6763 23.4029L25.6762 23.403C25.6544 23.4161 25.643 23.4229 25.643 23.4231H4.86615C4.86615 23.4231 3.90687 23.2179 4.01475 22.903C4.01475 22.903 3.93172 22.3808 4.15965 22.2672C5.0486 22.1649 5.24849 22.1954 5.28022 22.2292C5.73289 21.0674 6.5092 19.4675 7.37224 19.4108C7.82332 19.3797 13.1057 19.3995 13.1057 19.3995C14.5996 19.5907 13.3828 16.2431 11.7927 16.3861C8.44892 16.5056 8.44892 15.5988 8.44892 15.5988H10.6679L8.44839 13.4231L9.07663 13.5586L11.8529 15.6004H22.0608L23.8789 17.2651H31ZM19.8757 17.7766H18.4611L15.9222 16.4043H20.1306L19.8757 17.7766ZM20.8789 16.3984L20.6277 17.8762H23.138L21.4183 16.3984H20.8789ZM25.3601 18.4884L25.3558 18.4885C25.3096 18.4896 25.2619 18.4906 25.2168 18.4927L24.2729 17.6277H25.7308L25.3601 18.4884ZM25.7541 18.4825C26.2448 18.475 26.7102 18.4697 27.1396 18.4724L27.4944 17.6491H26.1095L25.7541 18.4825ZM28.6309 18.4975C28.2998 18.4863 27.9312 18.4777 27.5309 18.474L27.8937 17.6272H29.0063L28.6309 18.4975ZM29.3945 17.6272L29.0143 18.5163C29.4167 18.5372 29.7499 18.5693 29.9947 18.6122L30.4405 17.6272H29.3945Z" fill="currentColor"/>
</svg>
