<svg width="36" height="36" viewBox="0 0 36 36" fill="none" xmlns="http://www.w3.org/2000/svg">
<path fill-rule="evenodd" clip-rule="evenodd" d="M9.49082 10.4905C6.63848 13.3429 6.63848 17.9683 9.49082 20.8198C12.156 23.4859 16.3688 23.6612 19.2376 21.3457L20.6217 22.7317C20.3551 23.0887 20.3843 23.5982 20.7094 23.9223L25.1705 28.3834C25.4956 28.7085 26.0041 28.7377 26.362 28.4702L26.3693 28.4756L26.4616 28.3834L27.3837 27.4603L27.476 27.37L27.4696 27.3617C27.7371 27.0038 27.7088 26.4953 27.3837 26.1693L22.9217 21.7082C22.5976 21.384 22.0899 21.3548 21.732 21.6223L20.3451 20.2373C22.6606 17.3694 22.4862 13.1557 19.821 10.4905C18.3948 9.06434 16.5249 8.35126 14.6559 8.35126C12.786 8.35126 10.917 9.06434 9.49082 10.4905ZM10.7819 19.5296C8.64261 17.3904 8.64261 13.9217 10.7819 11.7816C12.9211 9.6423 16.3898 9.6423 18.53 11.7816C20.6692 13.9217 20.6692 17.3904 18.53 19.5296C17.4599 20.5988 16.0574 21.1339 14.6559 21.1339C13.2535 21.1339 11.852 20.5988 10.7819 19.5296Z" fill="currentColor"/>
</svg>
