<svg width="36" height="36" viewBox="0 0 36 36" fill="none" xmlns="http://www.w3.org/2000/svg">
<path fill-rule="evenodd" clip-rule="evenodd" d="M35 18C35 27.3888 27.3888 35 18 35C8.61116 35 1 27.3888 1 18C1 8.61116 8.61116 1 18 1C27.3888 1 35 8.61116 35 18ZM36 18C36 27.9411 27.9411 36 18 36C8.05887 36 0 27.9411 0 18C0 8.05887 8.05887 0 18 0C27.9411 0 36 8.05887 36 18ZM19.5244 8.5C20.0982 8.5 20.6036 8.51165 21.0465 8.53537C22.0614 8.60075 22.736 8.64322 22.8265 8.64828L24.5528 8.64878L24.0601 9.41839C23.5313 10.2443 23.245 12.0548 23.2449 14.7929L23.2562 15.3803L23.3023 16.7139C23.3023 18.254 23.4925 19.8331 23.8732 21.4506C24.0095 22.0221 24.1406 22.3847 24.2256 22.492C24.2622 22.5381 24.3701 22.5773 24.5903 22.5773C24.8931 22.5773 25.262 22.4724 25.6937 22.2536L26.1759 22.0091L26.382 22.509C26.4583 22.6939 26.5 22.8605 26.5 23.02C26.5 23.446 26.2184 23.756 25.7725 23.9614L25.2135 24.234L21.8892 25.6779L21.7193 25.1544C21.167 23.4528 20.8038 21.6823 20.6296 19.8433L20.3461 20.0408H16.6738C16.1711 21.2246 15.5463 22.1885 14.7979 22.9278L16.9355 23.0309L14.7922 25.2901L8.75793 25.0787L11.3567 22.7373L12.5241 22.8072C12.922 22.4805 13.2709 22.0379 13.5699 21.475C13.9226 20.8109 14.4626 19.4893 15.1803 17.528L15.5249 16.5759C16.2424 14.6213 16.9289 13.1895 17.5954 12.2714C18.0234 11.6817 18.547 11.1589 19.1645 10.7031C18.4009 10.6183 17.6116 10.5758 16.7966 10.5758C13.6556 10.5758 12.2192 11.5439 12.2192 13.4979C12.2192 14.1933 12.382 14.8403 12.7093 15.4462L12.8901 15.7809L10.273 18.2944L10.0031 17.5911C9.6686 16.7194 9.50001 15.8694 9.50001 15.0429C9.50001 12.9852 10.4026 11.3083 12.1747 10.0573C13.6532 9.0074 16.0986 8.5 19.5244 8.5ZM20.3305 12.3264C19.4966 13.3541 18.7657 14.9082 18.1518 16.9906C17.9014 17.8504 17.757 18.339 17.7097 18.4843L17.7042 18.5H20.2794C20.206 17.3467 20.1692 16.3915 20.1692 15.6328C20.1692 15.1874 20.1762 14.8214 20.1908 14.5284L20.2734 13.1441C20.2905 12.8511 20.3095 12.5786 20.3305 12.3264Z" fill="currentColor"/>
</svg>
