<svg width="36" height="36" viewBox="0 0 36 36" fill="none" xmlns="http://www.w3.org/2000/svg">
<path fill-rule="evenodd" clip-rule="evenodd" d="M18.9629 16.9157C20.6242 16.4881 21.8518 14.98 21.8518 13.1852C21.8518 11.0579 20.1273 9.33334 17.9999 9.33334C15.8726 9.33334 14.1481 11.0579 14.1481 13.1852C14.1481 14.98 15.3757 16.4881 17.037 16.9157V20.445C14.325 20.6595 12.2222 21.7733 12.2222 23.2963C12.2222 24.9955 14.8395 26.1852 17.9999 26.1852C21.1604 26.1852 23.7777 24.9955 23.7777 23.2963C23.7777 21.7733 21.6748 20.6595 18.9629 20.445V16.9157ZM17.037 21.4123V23.4167C17.037 23.6161 17.1987 23.7778 17.3981 23.7778H18.6018C18.8012 23.7778 18.9629 23.6161 18.9629 23.4167V21.4123C21.1798 21.6077 22.8148 22.4543 22.8148 23.2963C22.8148 24.2563 20.6897 25.2222 17.9999 25.2222C15.3102 25.2222 13.1851 24.2563 13.1851 23.2963C13.1851 22.4543 14.8201 21.6077 17.037 21.4123Z" fill="currentColor"/>
<path fill-rule="evenodd" clip-rule="evenodd" d="M18 35C27.3888 35 35 27.3888 35 18C35 8.61116 27.3888 1 18 1C8.61116 1 1 8.61116 1 18C1 27.3888 8.61116 35 18 35ZM18 36C27.9411 36 36 27.9411 36 18C36 8.05887 27.9411 0 18 0C8.05887 0 0 8.05887 0 18C0 27.9411 8.05887 36 18 36Z" fill="currentColor"/>
</svg>
