<svg width="36" height="36" viewBox="0 0 36 36" fill="none" xmlns="http://www.w3.org/2000/svg">
<path d="M26.0928 22C26.6449 22.0001 27.0928 22.4478 27.0928 23V24.002C27.0928 24.5542 26.6449 25.0018 26.0928 25.002H10.0928C9.54049 25.002 9.09277 24.5542 9.09277 24.002V23C9.09277 22.4477 9.54049 22 10.0928 22H26.0928Z" fill="currentColor"/>
<path d="M10.0928 17C10.6449 17.0001 11.0928 17.4478 11.0928 18V19C11.0928 19.5522 10.6449 19.9999 10.0928 20H8.09277C7.54049 20 7.09277 19.5523 7.09277 19V18C7.09277 17.4477 7.54049 17 8.09277 17H10.0928Z" fill="currentColor"/>
<path d="M16.0928 17C16.6449 17.0001 17.0928 17.4478 17.0928 18V19C17.0928 19.5522 16.6449 19.9999 16.0928 20H14.0928C13.5405 20 13.0928 19.5523 13.0928 19V18C13.0928 17.4477 13.5405 17 14.0928 17H16.0928Z" fill="currentColor"/>
<path d="M22.0928 17C22.6449 17.0001 23.0928 17.4478 23.0928 18V19C23.0928 19.5522 22.6449 19.9999 22.0928 20H20.0928C19.5405 20 19.0928 19.5523 19.0928 19V18C19.0928 17.4477 19.5405 17 20.0928 17H22.0928Z" fill="currentColor"/>
<path d="M28.0928 17C28.6449 17.0001 29.0928 17.4478 29.0928 18V19C29.0928 19.5522 28.6449 19.9999 28.0928 20H26.0928C25.5405 20 25.0928 19.5523 25.0928 19V18C25.0928 17.4477 25.5405 17 26.0928 17H28.0928Z" fill="currentColor"/>
<path d="M7.09277 12C7.64495 12.0001 8.09277 12.4478 8.09277 13V14C8.09277 14.5522 7.64495 14.9999 7.09277 15H5.09277C4.54049 15 4.09277 14.5523 4.09277 14V13C4.09277 12.4477 4.54049 12 5.09277 12H7.09277Z" fill="currentColor"/>
<path d="M13.0928 12C13.6449 12.0001 14.0928 12.4478 14.0928 13V14C14.0928 14.5522 13.6449 14.9999 13.0928 15H11.0928C10.5405 15 10.0928 14.5523 10.0928 14V13C10.0928 12.4477 10.5405 12 11.0928 12H13.0928Z" fill="currentColor"/>
<path d="M19.0928 12C19.6449 12.0001 20.0928 12.4478 20.0928 13V14C20.0928 14.5522 19.6449 14.9999 19.0928 15H17.0928C16.5405 15 16.0928 14.5523 16.0928 14V13C16.0928 12.4477 16.5405 12 17.0928 12H19.0928Z" fill="currentColor"/>
<path d="M25.0928 12C25.6449 12.0001 26.0928 12.4478 26.0928 13V14C26.0928 14.5522 25.6449 14.9999 25.0928 15H23.0928C22.5405 15 22.0928 14.5523 22.0928 14V13C22.0928 12.4477 22.5405 12 23.0928 12H25.0928Z" fill="currentColor"/>
<path d="M31.0928 12C31.6449 12.0001 32.0928 12.4478 32.0928 13V14C32.0928 14.5522 31.6449 14.9999 31.0928 15H29.0928C28.5405 15 28.0928 14.5523 28.0928 14V13C28.0928 12.4477 28.5405 12 29.0928 12H31.0928Z" fill="currentColor"/>
<path fill-rule="evenodd" clip-rule="evenodd" d="M33.0928 8C34.1972 8.00013 35.0928 8.89551 35.0928 10V26C35.0928 27.1045 34.1972 27.9999 33.0928 28H3.09277C1.9882 28 1.09277 27.1046 1.09277 26V10C1.09277 8.89543 1.9882 8 3.09277 8H33.0928ZM3.09277 9C2.54049 9 2.09277 9.44772 2.09277 10V26L2.09766 26.1025C2.14557 26.573 2.51982 26.9472 2.99023 26.9951L3.09277 27H33.0928L33.1953 26.9951C33.6656 26.9471 34.04 26.5729 34.0879 26.1025L34.0928 26V10C34.0928 9.4478 33.6449 9.00013 33.0928 9H3.09277Z" fill="currentColor"/>
</svg>
