<svg width="36" height="36" viewBox="0 0 36 36" fill="none" xmlns="http://www.w3.org/2000/svg">
<path fill-rule="evenodd" clip-rule="evenodd" d="M30.3673 18C30.3673 16.64 30.1482 15.3066 29.7162 14.0318H32.4682C32.8211 15.3194 33.0001 16.6493 33.0001 18C33.0001 26.271 26.2712 33 18.0002 33C9.72917 33 3.00012 26.271 3.00012 18C3.00012 9.72898 9.72917 3 18.0002 3C19.351 3 20.6808 3.17907 21.9683 3.53201V6.28412C20.6936 5.852 19.3602 5.63306 18.0001 5.63306C11.1808 5.63306 5.63294 11.1807 5.63294 18C5.63294 24.8191 11.1809 30.3669 18.0002 30.3669C24.8194 30.3669 30.3673 24.8191 30.3673 18ZM23.5685 17.635C24.3712 17.1971 24.8529 16.4089 24.8529 15.5185C24.8529 13.84 23.437 12.7746 21.1893 12.7746C18.9707 12.7746 17.5402 13.8108 17.5402 15.4457C17.5402 16.336 18.0949 17.1533 18.956 17.635C17.7738 18.102 17.0148 19.0946 17.0148 20.2623C17.0148 22.0721 18.6495 23.2253 21.2039 23.2253C23.7581 23.2253 25.393 22.0575 25.393 20.2185C25.393 19.08 24.6923 18.102 23.5685 17.635ZM21.2039 21.3425C20.08 21.3425 19.4669 20.8608 19.4669 19.9996C19.4669 19.1531 20.0799 18.6713 21.2039 18.6713C22.3277 18.6713 22.9554 19.1532 22.9554 19.9996C22.9554 20.8755 22.3277 21.3425 21.2039 21.3425ZM19.7297 15.6645C19.7297 16.3945 20.2551 16.803 21.2039 16.803C22.1526 16.803 22.678 16.3944 22.678 15.6645C22.678 14.9057 22.1526 14.4823 21.2039 14.4823C20.255 14.4823 19.7297 14.9057 19.7297 15.6645ZM28.9678 7.02394V4.14777H26.8995V7.02394H24.0406V9.09197H26.8995V11.9681H28.9678V9.09197H31.8438V7.02394H28.9678ZM12.4902 14.9639V23.1087H15.0884V12.8767H10.6074V14.9639H12.4902Z" fill="currentColor"/>
</svg>
