<svg width="36" height="36" viewBox="0 0 36 36" fill="none" xmlns="http://www.w3.org/2000/svg">
<path fill-rule="evenodd" clip-rule="evenodd" d="M35 18C35 27.3888 27.3888 35 18 35C8.61116 35 1 27.3888 1 18C1 8.61116 8.61116 1 18 1C27.3888 1 35 8.61116 35 18ZM36 18C36 27.9411 27.9411 36 18 36C8.05887 36 0 27.9411 0 18C0 8.05887 8.05887 0 18 0C27.9411 0 36 8.05887 36 18ZM22.6518 20.3396L26.1216 22.6537C26.5703 22.952 26.7049 23.5507 26.427 24.0124L25.5546 25.4626C25.2867 25.9187 24.8526 26.2532 24.3433 26.3959C23.9057 26.5143 23.454 26.5733 23.0007 26.5713C21.0307 26.5713 18.1645 25.536 14.3145 21.686C9.47464 16.8453 9.08159 13.5595 9.60407 11.6557C9.74698 11.1465 10.0815 10.7124 10.5373 10.4443L11.9883 9.5727C12.4499 9.29519 13.0481 9.42985 13.3463 9.87841L15.6603 13.3484C15.9512 13.7889 15.8552 14.379 15.4397 14.7046L14.1411 15.7151C13.9697 15.846 13.921 16.0832 14.0268 16.271L14.1322 16.4633L14.1322 16.4633C14.4796 17.0995 14.913 17.8932 16.5107 19.4916C18.1085 21.0901 18.9015 21.5226 19.5389 21.87L19.7311 21.976C19.919 22.0804 20.1551 22.0307 20.285 21.8594L21.2957 20.5598C21.6213 20.1441 22.2115 20.0483 22.6518 20.3396Z" fill="currentColor"/>
</svg>
