<svg width="36" height="36" viewBox="0 0 36 36" fill="none" xmlns="http://www.w3.org/2000/svg">
<path fill-rule="evenodd" clip-rule="evenodd" d="M29 18C29 24.0751 24.0751 29 18 29C11.9249 29 7 24.0751 7 18C7 11.9249 11.9249 7 18 7C24.0751 7 29 11.9249 29 18ZM30 18C30 24.6274 24.6274 30 18 30C11.3726 30 6 24.6274 6 18C6 11.3726 11.3726 6 18 6C24.6274 6 30 11.3726 30 18ZM11.9333 18C11.9333 14.6495 14.6495 11.9333 18 11.9333C21.3505 11.9333 24.0667 14.6495 24.0667 18C24.0667 21.3505 21.3505 24.0667 18 24.0667C14.6495 24.0667 11.9333 21.3505 11.9333 18ZM18 11C14.134 11 11 14.134 11 18C11 21.866 14.134 25 18 25C21.866 25 25 21.866 25 18C25 14.134 21.866 11 18 11Z" fill="currentColor"/>
</svg>
