<svg width="36" height="36" viewBox="0 0 36 36" fill="none" xmlns="http://www.w3.org/2000/svg">
<path d="M10 17C10 20.7585 13.4677 24 18 24C22.5323 24 26 20.7585 26 17H28C28 21.7618 23.9628 25.5071 19 25.9551V30.4883H24V32.4932H12V30.4883H17V25.9551C12.0372 25.5071 8 21.7618 8 17H10ZM18 4C21.3137 4 24 6.68629 24 10V16C24 19.3137 21.3137 22 18 22C14.7898 22 12.1684 19.4789 12.0078 16.3086L12 16V10C12 6.68629 14.6863 4 18 4ZM18 6C15.7909 6 14 7.79086 14 10V16C14 18.2091 15.7909 20 18 20C20.2091 20 22 18.2091 22 16V10C22 7.79086 20.2091 6 18 6Z" fill="currentColor"/>
</svg>
