<svg width="36" height="36" viewBox="0 0 36 36" fill="none" xmlns="http://www.w3.org/2000/svg">
<path fill-rule="evenodd" clip-rule="evenodd" d="M13.8307 15.2349H12.4461V12.4705L6.92285 12.4712V8.30348C6.92285 7.54055 7.54385 6.91955 8.30677 6.91955H12.4468L12.4461 2.76848C12.4461 2.00555 13.0664 1.38455 13.83 1.38455H22.1391C22.9027 1.38455 23.523 2.00555 23.523 2.76848V6.94101L27.6928 6.94032C28.4564 6.94032 29.0767 7.56063 29.0767 8.32424V12.4712H22.8307V11.0866H27.6921V8.32424L23.5223 8.32494C22.7587 8.32494 22.1384 7.70394 22.1384 6.94101V2.76848L13.83 2.76917L13.8307 6.92094C13.8307 7.68386 13.2104 8.30417 12.4468 8.30417H8.30677L8.30747 11.0866H12.4468C13.2104 11.0866 13.8307 11.7069 13.8307 12.4705V15.2349ZM10.0708 27.4046C9.85824 26.8722 10.1165 26.2678 10.6489 26.0539L24.5248 20.4947C25.0537 20.2821 25.6609 20.5404 25.8755 21.0727C26.088 21.6051 25.8298 22.2095 25.2974 22.4227L11.4215 27.9827C11.2948 28.0332 11.1646 28.0567 11.0352 28.0567C10.6232 28.0567 10.2342 27.8103 10.0708 27.4046ZM10.6489 22.5924C10.1165 22.8063 9.85824 23.4107 10.0708 23.9431C10.2342 24.3487 10.6232 24.5952 11.0352 24.5952C11.1646 24.5952 11.2948 24.5717 11.4215 24.5211L25.2974 18.9612C25.8298 18.748 26.088 18.1436 25.8755 17.6112C25.6609 17.0788 25.0537 16.8206 24.5248 17.0331L10.6489 22.5924ZM10.0708 20.4815C9.85824 19.9491 10.1165 19.3447 10.6489 19.1308L24.5248 13.5716C25.0537 13.3584 25.6609 13.6173 25.8755 14.1497C26.088 14.6821 25.8298 15.2864 25.2974 15.4997L11.4215 21.0596C11.2948 21.1101 11.1646 21.1337 11.0352 21.1337C10.6232 21.1337 10.2342 20.8872 10.0708 20.4815ZM7.59224 34.6188H27.5937V30.4504C27.5937 29.6868 26.9727 29.0658 26.2091 29.0658H23.5229V26.3249H22.1383V30.4504H26.2091V33.2342H8.97686V30.4552H12.4516V29.0706H8.97686C8.21394 29.0706 7.59224 29.6923 7.59224 30.4552V34.6188Z" fill="currentColor"/>
</svg>
