<svg width="36" height="36" viewBox="0 0 36 36" fill="none" xmlns="http://www.w3.org/2000/svg">
<path fill-rule="evenodd" clip-rule="evenodd" d="M33 9C33.5523 9 34 9.44772 34 10V26C34 26.5523 33.5523 27 33 27H3C2.44772 27 2 26.5523 2 26V10C2 9.44772 2.44772 9 3 9H33ZM10 22C9.44772 22 9 22.4477 9 23V24.002C9 24.5542 9.44772 25.002 10 25.002H26C26.5523 25.002 27 24.5542 27 24.002V23C27 22.4477 26.5523 22 26 22H10ZM8 17C7.44772 17 7 17.4477 7 18V19C7 19.5523 7.44772 20 8 20H10C10.5523 20 11 19.5523 11 19V18C11 17.4477 10.5523 17 10 17H8ZM14 17C13.4477 17 13 17.4477 13 18V19C13 19.5523 13.4477 20 14 20H16C16.5523 20 17 19.5523 17 19V18C17 17.4477 16.5523 17 16 17H14ZM20 17C19.4477 17 19 17.4477 19 18V19C19 19.5523 19.4477 20 20 20H22C22.5523 20 23 19.5523 23 19V18C23 17.4477 22.5523 17 22 17H20ZM26 17C25.4477 17 25 17.4477 25 18V19C25 19.5523 25.4477 20 26 20H28C28.5523 20 29 19.5523 29 19V18C29 17.4477 28.5523 17 28 17H26ZM5 12C4.44772 12 4 12.4477 4 13V14C4 14.5523 4.44772 15 5 15H7C7.55228 15 8 14.5523 8 14V13C8 12.4477 7.55228 12 7 12H5ZM11 12C10.4477 12 10 12.4477 10 13V14C10 14.5523 10.4477 15 11 15H13C13.5523 15 14 14.5523 14 14V13C14 12.4477 13.5523 12 13 12H11ZM17 12C16.4477 12 16 12.4477 16 13V14C16 14.5523 16.4477 15 17 15H19C19.5523 15 20 14.5523 20 14V13C20 12.4477 19.5523 12 19 12H17ZM23 12C22.4477 12 22 12.4477 22 13V14C22 14.5523 22.4477 15 23 15H25C25.5523 15 26 14.5523 26 14V13C26 12.4477 25.5523 12 25 12H23ZM29 12C28.4477 12 28 12.4477 28 13V14C28 14.5523 28.4477 15 29 15H31C31.5523 15 32 14.5523 32 14V13C32 12.4477 31.5523 12 31 12H29Z" fill="currentColor"/>
</svg>
