<svg width="36" height="36" viewBox="0 0 36 36" fill="none" xmlns="http://www.w3.org/2000/svg">
<path fill-rule="evenodd" clip-rule="evenodd" d="M29.826 24.5141L28.8457 23.5365C31.6648 20.7105 33.2176 16.9548 33.2176 12.9622C33.2176 8.95721 31.6572 5.19383 28.8222 2.36506L29.7997 1.38475C32.8971 4.47521 34.6022 8.58683 34.6022 12.9622C34.6022 17.3238 32.9061 21.4264 29.826 24.5141ZM9.28669 21.4156C7.018 19.1524 5.76838 16.1423 5.76838 12.9376C5.76838 9.74741 7.009 6.74557 9.26108 4.48587L10.2414 5.46341C8.24962 7.4621 7.153 10.1164 7.153 12.9376C7.153 15.7719 8.25792 18.4338 10.2642 20.4353L9.28669 21.4156ZM33.2179 33.7243H2.76952V31.4376C2.76952 31.1711 2.98621 30.9537 3.25344 30.9537H32.734C33.0012 30.9537 33.2179 31.1711 33.2179 31.4376V33.7243ZM32.734 29.5691H18.6787V15.6045C19.8619 15.2965 20.7391 14.2303 20.7391 12.9509C20.7391 11.4306 19.5067 10.199 17.9864 10.199C16.4668 10.199 15.2338 11.4306 15.2338 12.9509C15.2338 14.2303 16.1117 15.2958 17.2941 15.6045V29.5691H3.25344C2.22259 29.5691 1.3849 30.4075 1.3849 31.4376V35.1089H34.6025V31.4376C34.6025 30.4075 33.7641 29.5691 32.734 29.5691ZM10.0176 12.9376C10.0176 15.0069 10.8256 16.9516 12.2912 18.4117L13.2687 17.43C12.0648 16.2323 11.4022 14.6366 11.4022 12.9376C11.4022 11.2505 12.0572 9.66302 13.2466 8.4674L12.2649 7.49125C10.8152 8.94787 10.0176 10.8822 10.0176 12.9376ZM25.7459 20.4366L26.7262 21.4142C28.9783 19.1545 30.2189 16.1526 30.2189 12.9625C30.2189 9.7571 28.9686 6.74626 26.6999 4.48449L25.7224 5.4648C27.7287 7.46557 28.8343 10.1275 28.8343 12.9625C28.8343 15.7836 27.7377 18.438 25.7459 20.4366ZM23.7217 18.409L22.74 17.4329C23.93 16.2366 24.585 14.6484 24.585 12.9626C24.585 11.2637 23.9217 9.66793 22.7185 8.47024L23.6947 7.48855C25.1617 8.94863 25.9696 10.8926 25.9696 12.9626C25.9696 15.0174 25.1713 16.9524 23.7217 18.409ZM1.38428 12.9372C1.38428 17.3133 3.08943 21.4242 6.18682 24.5154L7.16435 23.5351C4.33005 20.7063 2.76889 16.9429 2.76889 12.9372C2.76889 8.94537 4.32243 5.1896 7.14151 2.3636L6.1612 1.38607C3.08112 4.47376 1.38428 8.57637 1.38428 12.9372Z" fill="currentColor"/>
<mask id="mask0_0_1631" style="mask-type:luminance" maskUnits="userSpaceOnUse" x="1" y="1" width="34" height="35">
<path fill-rule="evenodd" clip-rule="evenodd" d="M29.826 24.5141L28.8457 23.5365C31.6648 20.7105 33.2176 16.9548 33.2176 12.9622C33.2176 8.95721 31.6572 5.19383 28.8222 2.36506L29.7997 1.38475C32.8971 4.47521 34.6022 8.58683 34.6022 12.9622C34.6022 17.3238 32.9061 21.4264 29.826 24.5141ZM9.28669 21.4156C7.018 19.1524 5.76838 16.1423 5.76838 12.9376C5.76838 9.74741 7.009 6.74557 9.26108 4.48587L10.2414 5.46341C8.24962 7.4621 7.153 10.1164 7.153 12.9376C7.153 15.7719 8.25792 18.4338 10.2642 20.4353L9.28669 21.4156ZM33.2179 33.7243H2.76952V31.4376C2.76952 31.1711 2.98621 30.9537 3.25344 30.9537H32.734C33.0012 30.9537 33.2179 31.1711 33.2179 31.4376V33.7243ZM32.734 29.5691H18.6787V15.6045C19.8619 15.2965 20.7391 14.2303 20.7391 12.9509C20.7391 11.4306 19.5067 10.199 17.9864 10.199C16.4668 10.199 15.2338 11.4306 15.2338 12.9509C15.2338 14.2303 16.1117 15.2958 17.2941 15.6045V29.5691H3.25344C2.22259 29.5691 1.3849 30.4075 1.3849 31.4376V35.1089H34.6025V31.4376C34.6025 30.4075 33.7641 29.5691 32.734 29.5691ZM10.0176 12.9376C10.0176 15.0069 10.8256 16.9516 12.2912 18.4117L13.2687 17.43C12.0648 16.2323 11.4022 14.6366 11.4022 12.9376C11.4022 11.2505 12.0572 9.66302 13.2466 8.4674L12.2649 7.49125C10.8152 8.94787 10.0176 10.8822 10.0176 12.9376ZM25.7459 20.4366L26.7262 21.4142C28.9783 19.1545 30.2189 16.1526 30.2189 12.9625C30.2189 9.7571 28.9686 6.74626 26.6999 4.48449L25.7224 5.4648C27.7287 7.46557 28.8343 10.1275 28.8343 12.9625C28.8343 15.7836 27.7377 18.438 25.7459 20.4366ZM23.7217 18.409L22.74 17.4329C23.93 16.2366 24.585 14.6484 24.585 12.9626C24.585 11.2637 23.9217 9.66793 22.7185 8.47024L23.6947 7.48855C25.1617 8.94863 25.9696 10.8926 25.9696 12.9626C25.9696 15.0174 25.1713 16.9524 23.7217 18.409ZM1.38428 12.9372C1.38428 17.3133 3.08943 21.4242 6.18682 24.5154L7.16435 23.5351C4.33005 20.7063 2.76889 16.9429 2.76889 12.9372C2.76889 8.94537 4.32243 5.1896 7.14151 2.3636L6.1612 1.38607C3.08112 4.47376 1.38428 8.57637 1.38428 12.9372Z" fill="currentColor"/>
</mask>
<g mask="url(#mask0_0_1631)">
<rect width="36" height="36" fill="currentColor"/>
</g>
</svg>
