<svg width="36" height="36" viewBox="0 0 36 36" fill="none" xmlns="http://www.w3.org/2000/svg">
<path fill-rule="evenodd" clip-rule="evenodd" d="M18 35C27.3888 35 35 27.3888 35 18C35 8.61116 27.3888 1 18 1C8.61116 1 1 8.61116 1 18C1 27.3888 8.61116 35 18 35ZM18 36C27.9411 36 36 27.9411 36 18C36 8.05887 27.9411 0 18 0C8.05887 0 0 8.05887 0 18C0 27.9411 8.05887 36 18 36ZM25 8.00002H24V6.96554C24 5.71693 22.8223 4.7408 21.5532 5.06161L10.8859 8.01155C9.83686 8.07207 9 8.93602 9 9.99999V27C9 28.103 9.897 29 11 29H25C26.103 29 27 28.103 27 27V9.99999C27 8.89697 26.103 8.00002 25 8.00002ZM21.81 6.02794C22.3935 5.87902 23 6.35166 23 6.96549V7.99997H14.6796L21.81 6.02794ZM15 26H20.5C20.7764 26 21 25.7764 21 25.5C21 25.2236 20.7764 25 20.5 25H15C14.7236 25 14.5 25.2236 14.5 25.5C14.5 25.7764 14.7236 26 15 26ZM22.5 24.0005H13C12.7237 24.0005 12.5 23.7768 12.5 23.5005C12.5 23.2241 12.7237 23.0004 13 23.0004H22.5C22.7764 23.0004 23 23.2241 23 23.5005C23 23.7768 22.7764 24.0005 22.5 24.0005ZM12.5 16.5C12.5 19.5327 14.9673 22 18 22C21.0327 22 23.5 19.5327 23.5 16.5C23.5 13.4673 21.0327 11 18 11C14.9673 11 12.5 13.4673 12.5 16.5ZM18 12C17.4271 12 16.6215 13.5491 16.52 16H19.48C19.3786 13.5491 18.5729 12 18 12ZM13.5505 16H15.5102C15.5656 14.638 15.8469 13.2835 16.3352 12.3277C14.8273 12.9316 13.7386 14.3283 13.5505 16ZM18 21C18.5729 21 19.3786 19.4509 19.48 17H16.52C16.6215 19.4509 17.4271 21 18 21ZM20.4897 16C20.4344 14.638 20.1531 13.2835 19.6648 12.3277C21.1727 12.9316 22.2614 14.3283 22.4495 16H20.4897ZM16.3352 20.6723C14.8273 20.0684 13.7386 18.6717 13.5505 17H15.5102C15.5656 18.362 15.8469 19.7165 16.3352 20.6723ZM19.6648 20.6723C21.1727 20.0684 22.2614 18.6717 22.4495 17H20.4897C20.4344 18.362 20.1531 19.7165 19.6648 20.6723Z" fill="currentColor"/>
</svg>
