<svg width="36" height="36" viewBox="0 0 36 36" fill="none" xmlns="http://www.w3.org/2000/svg">
<path fill-rule="evenodd" clip-rule="evenodd" d="M35 18C35 27.3888 27.3888 35 18 35C8.61116 35 1 27.3888 1 18C1 8.61116 8.61116 1 18 1C27.3888 1 35 8.61116 35 18ZM36 18C36 27.9411 27.9411 36 18 36C8.05887 36 0 27.9411 0 18C0 8.05887 8.05887 0 18 0C27.9411 0 36 8.05887 36 18ZM6 12.875C6 11.8395 6.59695 11 7.33333 11H28.6667C29.403 11 30 11.8395 30 12.875V24.125C30 25.1605 29.403 26 28.6667 26H7.33333C6.59695 26 6 25.1605 6 24.125V12.875ZM7.44 12C7.19699 12 7 12.291 7 12.65V24.35C7 24.709 7.19699 25 7.44 25H28.56C28.803 25 29 24.709 29 24.35V12.65C29 12.291 28.803 12 28.56 12H7.44ZM9 18H10V23H9V18ZM13 18H12V23H13V18ZM15 18H18V23H15V18ZM27 14H9V16H27V14ZM20 18H22V23H20V18ZM27 18H24V23H27V18Z" fill="currentColor"/>
</svg>
