<svg width="36" height="36" viewBox="0 0 36 36" fill="none" xmlns="http://www.w3.org/2000/svg">
<path fill-rule="evenodd" clip-rule="evenodd" d="M17.9997 13.1553C14.9144 13.1553 12.4139 15.5582 12.4139 18.5218C12.4139 21.4852 14.9144 23.8882 17.9997 23.8882C21.0857 23.8882 23.5863 21.4853 23.5863 18.5218C23.5863 15.5582 21.0857 13.1553 17.9997 13.1553ZM19.8364 20.205L20.8039 18.9971L21.1034 20.455L20.7625 20.2387C20.2974 21.0574 19.4143 21.6087 18.3948 21.7228C18.294 21.8314 18.1415 21.9007 17.9707 21.9007C17.796 21.9007 17.6407 21.828 17.5401 21.7151C16.548 21.5853 15.6924 21.04 15.2374 20.2387L14.8965 20.455L15.196 18.9971L16.1634 20.205L15.8514 20.1537C16.2133 20.6864 16.8053 21.0563 17.489 21.1805C17.5341 21.1074 17.5994 21.0455 17.6786 21.0012V18.4786H16.6194C16.5548 18.5942 16.4208 18.6739 16.2655 18.6739C16.0472 18.6739 15.8701 18.5168 15.8701 18.323C15.8701 18.1293 16.0472 17.9721 16.2655 17.9721C16.4208 17.9721 16.5548 18.0518 16.6194 18.1675H17.6786V16.9221C17.1333 16.8049 16.7265 16.3692 16.7265 15.8497C16.7265 15.2409 17.2847 14.7454 17.9707 14.7454C18.6567 14.7454 19.2149 15.2409 19.2149 15.8497C19.2149 16.3692 18.8081 16.8049 18.2628 16.9221V18.1675H19.3268C19.3914 18.0518 19.5254 17.9721 19.6808 17.9721C19.8991 17.9721 20.0761 18.1293 20.0761 18.323C20.0761 18.5168 19.8991 18.6739 19.6808 18.6739C19.5254 18.6739 19.3914 18.5942 19.3268 18.4786H18.2628V21.0012C18.3451 21.0473 18.412 21.1125 18.4573 21.1893C19.1635 21.0751 19.7771 20.7002 20.1484 20.1537L19.8364 20.205Z" fill="currentColor"/>
<path fill-rule="evenodd" clip-rule="evenodd" d="M0 17.045C0 12.0423 8.02891 6 18 6C27.9712 6 36 12.0423 36 17.045C36 19.562 34.1028 21.0009 31.3474 21.8301V25.1954C31.3468 27.7334 25.371 31.0435 18 31.0435C10.6297 31.0435 4.65385 27.7339 4.65324 25.1959V21.8301C1.89724 21.0009 0 19.5625 0 17.045ZM31.3035 19.0517L31.3232 19.6992C32.7427 19.1309 33.5173 18.3303 33.5173 17.2024C33.5173 13.7341 26.8542 8.38509 18.0001 8.38509C9.14589 8.38509 2.48283 13.734 2.48283 17.2024C2.48283 18.3302 3.25749 19.1308 4.67754 19.6996L4.67975 19.056C4.93642 18.4783 7.37825 17.9721 10.9128 17.6813C10.8991 17.8565 10.8853 18.0316 10.8853 18.2103C10.8853 19.0748 11.0588 19.8995 11.3621 20.6621C11.3711 20.6848 11.3794 20.7077 11.3877 20.7307C11.3992 20.7627 11.4108 20.7948 11.4243 20.826C11.7616 21.6142 12.2492 22.3263 12.8485 22.9354C14.1454 24.2536 15.9722 25.0807 17.9995 25.0807C20.0267 25.0807 21.8541 24.2536 23.1509 22.9354C23.7502 22.3263 24.2378 21.6142 24.5752 20.826C24.5888 20.7947 24.6004 20.7626 24.6119 20.7305C24.6202 20.7076 24.6285 20.6847 24.6375 20.6621C24.9406 19.8995 25.1141 19.0748 25.1141 18.2103C25.1141 18.0316 25.1004 17.8565 25.0867 17.6813C28.6218 17.9721 31.0468 18.4735 31.3035 19.0517Z" fill="currentColor"/>
</svg>
