<svg width="36" height="36" viewBox="0 0 36 36" fill="none" xmlns="http://www.w3.org/2000/svg">
<path fill-rule="evenodd" clip-rule="evenodd" d="M31.9875 1.38467L29.9168 4.97083H31.2952V28.2331H29.9168L31.9875 31.8192L34.0589 28.2331H32.6798V4.97083H34.0589L31.9875 1.38467ZM0.724743 34.6177H35.3256V31.8194H0.724743V34.6177ZM7.12409 23.5379C5.97555 23.5379 5.06309 23.164 4.18178 22.802C3.38909 22.4766 2.6414 22.1699 1.76563 22.1699C1.38417 22.1699 1.03317 22.2357 0.691858 22.3277V20.9071C1.02832 20.8372 1.37863 20.7853 1.76563 20.7853C2.91417 20.7853 3.82594 21.1591 4.70794 21.5212C5.49994 21.8466 6.24763 22.1533 7.12409 22.1533C7.99595 22.1533 8.72946 21.8442 9.50581 21.5171L9.51255 21.5143C10.38 21.1474 11.2766 20.7687 12.4202 20.7687C13.566 20.7687 14.4619 21.1487 15.3279 21.5164L15.329 21.5168C16.1019 21.8441 16.832 22.1533 17.6984 22.1533C18.5593 22.1533 19.2943 21.8475 20.0728 21.5237L20.0737 21.5233C20.9654 21.1522 21.8876 20.7687 23.0776 20.7687C24.2753 20.7687 25.231 21.1732 26.0745 21.5303L26.076 21.5309C26.832 21.8514 27.5458 22.1533 28.3752 22.1533V23.5379C27.266 23.5379 26.3876 23.1663 25.5391 22.8074L25.5391 22.8074L25.536 22.8061L25.5356 22.8059L25.5355 22.8059C24.743 22.4702 23.9947 22.1533 23.0776 22.1533C22.1665 22.1533 21.4104 22.4676 20.6113 22.7998L20.6061 22.802L20.6017 22.8038C19.7328 23.1646 18.834 23.5379 17.6984 23.5379C16.5506 23.5379 15.654 23.1585 14.7866 22.7902L14.7804 22.7876C14.0108 22.4618 13.282 22.1533 12.4202 22.1533C11.5589 22.1533 10.8291 22.4614 10.057 22.7873L10.0519 22.7895C9.18024 23.1578 8.27817 23.5379 7.12409 23.5379ZM23.0864 26.3149C21.8965 26.3149 20.9752 26.6983 20.0836 27.0693L20.0832 27.0695C19.3043 27.3935 18.5684 27.6995 17.7079 27.6995C16.8411 27.6995 16.11 27.39 15.3367 27.0612C14.4707 26.6943 13.5748 26.3149 12.429 26.3149C11.2858 26.3149 10.3895 26.6933 9.52235 27.0594L9.52134 27.0598L9.51872 27.0609C8.74084 27.3893 8.00628 27.6995 7.13288 27.6995C6.25711 27.6995 5.50873 27.3921 4.71673 27.0667L4.71379 27.0655C3.83271 26.7038 2.92238 26.3301 1.77511 26.3301C1.38811 26.3301 1.03365 26.3848 0.69165 26.4561V27.8753C1.03573 27.7812 1.39019 27.7147 1.77511 27.7147C2.64939 27.7147 3.3979 28.0222 4.18911 28.3473L4.19127 28.3482L4.195 28.3497C5.07515 28.7106 5.98596 29.0841 7.13288 29.0841C8.28623 29.0841 9.1879 28.7038 10.059 28.3364L10.0607 28.3357C10.8347 28.0083 11.5657 27.6995 12.429 27.6995C13.293 27.6995 14.0234 28.009 14.7953 28.3364L14.7961 28.3367C15.6633 28.7043 16.5597 29.0841 17.7079 29.0841C18.8427 29.0841 19.7416 28.7108 20.6105 28.35L20.6149 28.3482L20.6151 28.3481C21.4167 28.0144 22.1734 27.6995 23.0864 27.6995C24.002 27.6995 24.7493 28.0154 25.5403 28.3498L25.5448 28.3517C26.3943 28.7117 27.2735 29.0841 28.384 29.0841V27.6995C27.5559 27.6995 26.8431 27.3979 26.0884 27.0786L26.0848 27.0771L26.0833 27.0765C25.2398 26.7194 24.2841 26.3149 23.0864 26.3149ZM26.0833 4.91628L26.0848 4.9169C26.8408 5.23744 27.5546 5.53928 28.384 5.53928V6.9239C27.2748 6.9239 26.3964 6.55233 25.5478 6.19342L25.5448 6.19213L25.5443 6.19193C24.7518 5.85624 24.0035 5.53928 23.0864 5.53928C22.1734 5.53928 21.4167 5.85422 20.6151 6.18787L20.6149 6.18797L20.6105 6.18979C19.7416 6.55061 18.8428 6.9239 17.7079 6.9239C16.5593 6.9239 15.6628 6.54451 14.7953 6.17621L14.7892 6.17362C14.0196 5.8478 13.2908 5.53928 12.429 5.53928C11.5676 5.53928 10.8379 5.84737 10.0658 6.17333L10.0607 6.17551C9.18904 6.54382 8.28696 6.9239 7.13288 6.9239C5.98434 6.9239 5.07257 6.55005 4.19127 6.18797C3.39857 5.86259 2.65019 5.5559 1.77511 5.5559C1.39019 5.5559 1.03573 5.62236 0.69165 5.71582V4.29659C1.03296 4.22528 1.38811 4.17128 1.77511 4.17128C2.92365 4.17128 3.83473 4.54513 4.71673 4.9072C5.50873 5.23259 6.25711 5.53928 7.13288 5.53928C8.00474 5.53928 8.73825 5.23023 9.5146 4.90312L9.52134 4.90028C10.3888 4.53336 11.2853 4.15467 12.429 4.15467C13.5748 4.15467 14.4707 4.53405 15.3367 4.90167C16.11 5.22982 16.8404 5.53928 17.7079 5.53928C18.5684 5.53928 19.3043 5.23328 20.0832 4.90928L20.0836 4.90912C20.9752 4.53809 21.8965 4.15467 23.0864 4.15467C24.2841 4.15467 25.2398 4.5592 26.0833 4.91628ZM23.0864 15.2339C21.8965 15.2339 20.9752 15.6174 20.0836 15.9884L20.0832 15.9886C19.3043 16.3126 18.5684 16.6186 17.7079 16.6186C16.8411 16.6186 16.11 16.3091 15.3367 15.9803C14.4707 15.6133 13.5748 15.2339 12.429 15.2339C11.2858 15.2339 10.3895 15.6123 9.52235 15.9784L9.52134 15.9789L9.51872 15.98L9.51871 15.98C8.74084 16.3084 8.00628 16.6186 7.13288 16.6186C6.25711 16.6186 5.50873 16.3112 4.71673 15.9858L4.71379 15.9846C3.8327 15.6229 2.92237 15.2492 1.77511 15.2492C1.38811 15.2492 1.03365 15.3039 0.69165 15.3752V16.7944C1.03573 16.7003 1.39019 16.6338 1.77511 16.6338C2.6494 16.6338 3.39791 16.9413 4.18911 17.2664L4.19127 17.2673L4.19498 17.2688C5.07513 17.6297 5.98596 18.0032 7.13288 18.0032C8.28623 18.0032 9.1879 17.6229 10.059 17.2555L10.0607 17.2548C10.8347 16.9273 11.5657 16.6186 12.429 16.6186C13.293 16.6186 14.0234 16.928 14.7953 17.2555L14.7961 17.2558L14.7961 17.2558C15.6633 17.6233 16.5597 18.0032 17.7079 18.0032C18.8427 18.0032 19.7416 17.6299 20.6105 17.2691L20.6149 17.2673L20.6151 17.2672C21.4167 16.9335 22.1734 16.6186 23.0864 16.6186C24.002 16.6186 24.7493 16.9344 25.5403 17.2688L25.5448 17.2707C26.3943 17.6307 27.2735 18.0032 28.384 18.0032V16.6186C27.5559 16.6186 26.8431 16.317 26.0884 15.9977L26.0848 15.9962L26.0833 15.9956C25.2398 15.6385 24.2841 15.2339 23.0864 15.2339ZM20.0836 10.4499C20.9752 10.0789 21.8965 9.69548 23.0864 9.69548C24.2841 9.69548 25.2398 10.1 26.0833 10.4571L26.0848 10.4577L26.0884 10.4592C26.8431 10.7785 27.5559 11.0801 28.384 11.0801V12.4647C27.2735 12.4647 26.3943 12.0923 25.5448 11.7323L25.5403 11.7304C24.7493 11.396 24.002 11.0801 23.0864 11.0801C22.1734 11.0801 21.4167 11.395 20.6151 11.7287L20.6149 11.7288L20.6105 11.7306C19.7416 12.0914 18.8427 12.4647 17.7079 12.4647C16.5597 12.4647 15.6633 12.0849 14.7961 11.7173L14.7953 11.717C14.0234 11.3896 13.293 11.0801 12.429 11.0801C11.5657 11.0801 10.8347 11.3889 10.0607 11.7163L10.059 11.717C9.1879 12.0844 8.28623 12.4647 7.13288 12.4647C5.98596 12.4647 5.07513 12.0912 4.19498 11.7303L4.19127 11.7288L4.18911 11.7279C3.39791 11.4028 2.6494 11.0953 1.77511 11.0953C1.39019 11.0953 1.03573 11.1618 0.69165 11.2559V9.83671C1.03365 9.76541 1.38811 9.71071 1.77511 9.71071C2.92237 9.71071 3.8327 10.0844 4.71379 10.4461L4.71673 10.4473C5.50873 10.7727 6.25711 11.0801 7.13288 11.0801C8.00629 11.0801 8.74085 10.7699 9.51873 10.4415L9.52134 10.4404L9.52235 10.44C10.3895 10.0739 11.2858 9.69548 12.429 9.69548C13.5748 9.69548 14.4707 10.0749 15.3367 10.4418C16.11 10.7706 16.8411 11.0801 17.7079 11.0801C18.5684 11.0801 19.3043 10.7741 20.0832 10.4501L20.0836 10.4499Z" fill="currentColor"/>
</svg>
