<svg width="36" height="36" viewBox="0 0 36 36" fill="none">
<path fill-rule="evenodd" clip-rule="evenodd" d="M18 35C27.3888 35 35 27.3888 35 18C35 8.61116 27.3888 1 18 1C8.61116 1 1 8.61116 1 18C1 27.3888 8.61116 35 18 35ZM18 36C27.9411 36 36 27.9411 36 18C36 8.05887 27.9411 0 18 0C8.05887 0 0 8.05887 0 18C0 27.9411 8.05887 36 18 36ZM9.2 11C7.99 11 7.011 11.7875 7.011 12.75L7.01073 13.0056L7 13V15.2857L7.00834 15.29L7 23.25C7 24.2125 7.99 25 9.2 25H26.8C28.01 25 29 24.2125 29 23.25V15.2857L18 21L7.00834 15.29L7.01073 13.0056L18 18.7143L29 13V12.75C29 11.7875 28.01 11 26.8 11H9.2Z" fill="currentColor"/>
</svg>
