<svg width="36" height="36" viewBox="0 0 36 36" fill="none" xmlns="http://www.w3.org/2000/svg">
<path fill-rule="evenodd" clip-rule="evenodd" d="M14.931 18C14.931 16.1066 16.5286 14.5714 18.4998 14.5714C20.4713 14.5714 22.069 16.1066 22.069 18C22.069 19.8934 20.4713 21.4286 18.4998 21.4286C16.5286 21.4286 14.931 19.8933 14.931 18ZM19.6733 19.0754L20.2914 18.3037L20.4827 19.2351L20.2649 19.0969C19.9678 19.62 19.4036 19.9722 18.7523 20.0451C18.6879 20.1145 18.5904 20.1587 18.4813 20.1587C18.3697 20.1587 18.2704 20.1123 18.2062 20.0402C17.5724 19.9572 17.0257 19.6089 16.735 19.0969L16.5172 19.2351L16.7086 18.3037L17.3266 19.0754L17.1273 19.0426C17.3585 19.383 17.7368 19.6193 18.1736 19.6986C18.2024 19.6519 18.2441 19.6124 18.2947 19.584V17.9724H17.618C17.5767 18.0463 17.4911 18.0972 17.3919 18.0972C17.2524 18.0972 17.1393 17.9968 17.1393 17.873C17.1393 17.7492 17.2524 17.6488 17.3919 17.6488C17.4911 17.6488 17.5767 17.6998 17.618 17.7736H18.2947V16.978C17.9463 16.9031 17.6864 16.6247 17.6864 16.2929C17.6864 15.9039 18.043 15.5873 18.4813 15.5873C18.9196 15.5873 19.2762 15.9039 19.2762 16.2929C19.2762 16.6247 19.0163 16.9031 18.6679 16.978V17.7736H19.3477C19.389 17.6998 19.4746 17.6488 19.5738 17.6488C19.7133 17.6488 19.8264 17.7492 19.8264 17.873C19.8264 17.9968 19.7133 18.0972 19.5738 18.0972C19.4746 18.0972 19.389 18.0463 19.3477 17.9724H18.6679V19.584C18.7205 19.6135 18.7633 19.6552 18.7922 19.7043C19.2434 19.6313 19.6354 19.3918 19.8726 19.0426L19.6733 19.0754Z" fill="currentColor"/>
<path fill-rule="evenodd" clip-rule="evenodd" d="M7 17.0566C7 13.8604 12.1296 10 18.5 10C24.8705 10 30 13.8604 30 17.0566C30 18.6646 28.7879 19.5839 27.0275 20.1137V22.264C27.0271 23.8855 23.2092 26 18.5 26C13.7912 26 9.97329 23.8853 9.9729 22.2637V20.1137C8.21213 19.5839 7 18.6649 7 17.0566ZM26.9994 18.3386L27.012 18.7522C27.9189 18.3892 28.4138 17.8777 28.4138 17.1571C28.4138 14.9412 24.1568 11.5238 18.5 11.5238C12.8432 11.5238 8.58621 14.9412 8.58621 17.1571C8.58621 17.8777 9.08113 18.3891 9.98838 18.7525L9.9898 18.3413C10.1538 17.9722 11.7138 17.6488 13.972 17.463C13.9633 17.575 13.9545 17.6869 13.9545 17.801C13.9545 18.3533 14.0653 18.8802 14.2591 19.3675C14.2648 19.3818 14.27 19.3964 14.2753 19.411C14.2827 19.4315 14.2902 19.4522 14.2988 19.4721C14.5143 19.9757 14.8258 20.4307 15.2087 20.8198C16.0373 21.662 17.2044 22.1905 18.4996 22.1905C19.7948 22.1905 20.9623 21.662 21.7908 20.8198C22.1737 20.4307 22.4852 19.9758 22.7008 19.4721C22.7094 19.4522 22.7169 19.4317 22.7242 19.4112C22.7295 19.3965 22.7348 19.3819 22.7406 19.3675C22.9342 18.8802 23.0451 18.3533 23.0451 17.801C23.0451 17.6869 23.0363 17.575 23.0276 17.463C25.2861 17.6488 26.8354 17.9692 26.9994 18.3386Z" fill="currentColor"/>
<path fill-rule="evenodd" clip-rule="evenodd" d="M36 18C36 27.9411 27.9411 36 18 36C8.05887 36 0 27.9411 0 18C0 8.05887 8.05887 0 18 0C27.9411 0 36 8.05887 36 18ZM35 18C35 27.3888 27.3888 35 18 35C8.61116 35 1 27.3888 1 18C1 8.61116 8.61116 1 18 1C27.3888 1 35 8.61116 35 18Z" fill="currentColor"/>
</svg>
