<svg width="36" height="36" viewBox="0 0 36 36" fill="none" xmlns="http://www.w3.org/2000/svg">
<path fill-rule="evenodd" clip-rule="evenodd" d="M23.6 9.12H22.8V7.78286C22.8 6.79827 22.0836 6 21.2 6H14.8C13.9164 6 13.2 6.79827 13.2 7.78286V9.12H12.4C11.5164 9.12 10.8 9.91827 10.8 10.9029C10.8 11.3115 11.0471 11.6562 11.3839 11.7614C10.6813 12.0263 10.3 12.4978 10.3 13.2C10.3 14.625 11.1251 14.9 13.2 14.9V15.1C11.3592 15.1 10.3 15.6296 10.3 16.8C10.3 18.225 11.1251 18.5 13.2 18.5V18.7C11.3592 18.7 10.3 19.2296 10.3 20.4C10.3 21.825 11.1251 22.1 13.2 22.1V22.3C15.6222 22.3 17.3375 22.1034 19.1447 21.7114C19.3377 21.6695 19.5277 21.6266 19.7734 21.5699C20.0729 21.5005 20.2288 21.4643 20.3619 21.434C20.825 21.3286 21.1572 21.261 21.4885 21.2085C21.9429 21.1364 22.3651 21.1 22.8 21.1V20.9C24.3251 20.9 24.7 21.025 24.7 21.6C24.7 22.175 24.3251 22.3 22.8 22.3V22.1C22.4203 22.1 22.0498 22.132 21.645 22.1961C21.3399 22.2445 21.0272 22.3082 20.5839 22.4091C20.453 22.4389 20.2993 22.4745 19.9983 22.5443C19.7487 22.6019 19.5547 22.6457 19.3567 22.6886C17.482 23.0953 15.6961 23.3 13.2 23.3V23.5H9.19995C8.9055 23.5 8.4871 23.5418 8.05628 23.6711C7.24408 23.9147 6.69995 24.4045 6.69995 25.2C6.69995 25.9955 7.24408 26.4853 8.05628 26.7289C8.4871 26.8582 8.9055 26.9 9.19995 26.9C9.47609 26.9 9.69995 26.6761 9.69995 26.4C9.69995 26.1239 9.47609 25.9 9.19995 25.9C8.9944 25.9 8.6628 25.8668 8.34363 25.7711C7.90582 25.6397 7.69995 25.4545 7.69995 25.2C7.69995 24.9455 7.90582 24.7603 8.34363 24.6289C8.6628 24.5332 8.9944 24.5 9.19995 24.5H13.2V26.5714C13.2 26.7346 11.2 27.0171 11.2 27.0171C10.9788 27.0171 10.8 27.2168 10.8 27.4629V27.9086C10.8 28.4006 11.1584 28.8 11.6 28.8H24.4C24.8416 28.8 25.2 28.4006 25.2 27.9086V27.4629C25.2 27.2168 25.0208 27.0171 24.8 27.0171C24.8 27.0171 22.8 26.7346 22.8 26.5714V23.3C24.8748 23.3 25.7 23.025 25.7 21.6C25.7 20.175 24.8748 19.9 22.8 19.9V19.7C24.8748 19.7 25.7 19.425 25.7 18C25.7 16.5751 24.8748 16.3 22.8 16.3V16.1C24.8748 16.1 25.7 15.825 25.7 14.4C25.7 12.975 24.8748 12.7 22.8 12.7V11.7943H24.4C24.8416 11.7943 25.2 11.3949 25.2 10.9029C25.2 9.91827 24.4836 9.12 23.6 9.12ZM13.2 19.7V18.7C15.6222 18.7 17.3375 18.5034 19.1447 18.1114C19.3377 18.0695 19.5277 18.0266 19.7734 17.9699C20.0729 17.9005 20.2288 17.8643 20.3619 17.834C20.825 17.7286 21.1572 17.661 21.4885 17.6085C21.9429 17.5364 22.3651 17.5 22.8 17.5V17.3C24.3251 17.3 24.7 17.425 24.7 18C24.7 18.5751 24.3251 18.7 22.8 18.7V18.5C22.4203 18.5 22.0498 18.532 21.645 18.5961C21.3399 18.6445 21.0272 18.7082 20.5839 18.8091C20.453 18.8389 20.2993 18.8745 19.9983 18.9443C19.7487 19.0019 19.5547 19.0457 19.3567 19.0886C17.482 19.4953 15.6961 19.7 13.2 19.7ZM13.2 19.7V21.1C11.6748 21.1 11.3 20.975 11.3 20.4C11.3 19.9704 11.8407 19.7 13.2 19.7ZM13.2 16.1V15.1C15.6222 15.1 17.3375 14.9034 19.1447 14.5114C19.3377 14.4695 19.5277 14.4266 19.7734 14.3699C20.0729 14.3005 20.2288 14.2643 20.3619 14.234C20.825 14.1286 21.1572 14.061 21.4885 14.0085C21.9429 13.9364 22.3651 13.9 22.8 13.9V13.7C24.3251 13.7 24.7 13.825 24.7 14.4C24.7 14.975 24.3251 15.1 22.8 15.1V14.9C22.4203 14.9 22.0498 14.932 21.645 14.9961C21.3399 15.0445 21.0272 15.1082 20.5839 15.2091C20.453 15.2389 20.2993 15.2745 19.9983 15.3443C19.7487 15.4019 19.5547 15.4457 19.3567 15.4886C17.482 15.8953 15.6961 16.1 13.2 16.1ZM13.2 16.1V17.5C11.6748 17.5 11.3 17.375 11.3 16.8C11.3 16.3704 11.8407 16.1 13.2 16.1ZM11.3 13.2C11.3 12.7704 11.8407 12.5 13.2 12.5V13.9C11.6748 13.9 11.3 13.775 11.3 13.2Z" fill="currentColor"/>
<path fill-rule="evenodd" clip-rule="evenodd" d="M36 18C36 27.9411 27.9411 36 18 36C8.05887 36 0 27.9411 0 18C0 8.05887 8.05887 0 18 0C27.9411 0 36 8.05887 36 18ZM35 18C35 27.3888 27.3888 35 18 35C8.61116 35 1 27.3888 1 18C1 8.61116 8.61116 1 18 1C27.3888 1 35 8.61116 35 18Z" fill="currentColor"/>
</svg>
