<svg width="36" height="36" viewBox="0 0 36 36" fill="none" xmlns="http://www.w3.org/2000/svg">
<path fill-rule="evenodd" clip-rule="evenodd" d="M21.9128 7.30687C21.9128 7.61738 22.1636 7.86825 22.4741 7.86825C22.7835 7.86825 23.0355 7.61738 23.0355 7.30687V5.06138C23.0355 4.75087 22.7835 4.5 22.4741 4.5C22.1636 4.5 21.9128 4.75087 21.9128 5.06138V7.30687ZM16.4953 10.3445C16.3513 10.3445 16.2084 10.2894 16.0982 10.1802L14.5108 8.59174C14.2914 8.37236 14.2914 8.01799 14.5108 7.79749C14.7302 7.57924 15.0857 7.57924 15.3039 7.79749L16.8924 9.38599C17.1118 9.60536 17.1118 9.96086 16.8924 10.1802C16.7833 10.2894 16.6393 10.3445 16.4953 10.3445ZM15.7387 15.7605C15.7387 12.0468 18.7594 9.02621 22.4741 9.02621C26.1889 9.02621 29.2095 12.0468 29.2095 15.7605C29.2095 16.3635 29.1296 16.9608 28.9721 17.538C28.8911 17.8361 28.5874 18.0183 28.2836 17.9317C27.9844 17.8507 27.8078 17.5413 27.8888 17.2432C28.0204 16.7617 28.0868 16.2633 28.0868 15.7605C28.0868 12.6667 25.569 10.149 22.4741 10.149C19.3792 10.149 16.8604 12.6667 16.8604 15.7605C16.8604 16.1857 16.92 16.6053 17.0134 17.016C19.3444 17.4648 21.2816 19.1298 22.077 21.4046C22.1209 21.401 22.1642 21.3956 22.2075 21.3901C22.2742 21.3817 22.3407 21.3733 22.4089 21.372L22.4831 21.3708C24.9604 21.3708 26.9753 23.3868 26.9753 25.8641C26.9753 28.3425 24.9604 30.3573 22.4831 30.3573L8.99325 30.3753C6.51487 30.3753 4.5 28.3593 4.5 25.8821C4.5 23.4048 6.51487 21.3888 8.99325 21.3888C9.08333 21.3888 9.17111 21.4004 9.25895 21.4119L9.25904 21.4119L9.25914 21.412L9.25924 21.412L9.25935 21.412C9.30849 21.4184 9.35765 21.4249 9.40725 21.4293C10.3376 18.7361 12.8655 16.8832 15.7455 16.8832C15.7625 16.8832 15.779 16.8852 15.7953 16.8872C15.8113 16.8892 15.8272 16.8911 15.8434 16.8911C15.7804 16.5187 15.7387 16.1418 15.7387 15.7605ZM18.1384 24.7053C18.5265 23.2496 19.6076 22.1201 20.9711 21.633C20.151 19.4775 18.0877 18.006 15.7455 18.006C13.392 18.006 11.3209 19.4921 10.5097 21.6678C11.1229 21.8883 11.6887 22.227 12.1635 22.7006C12.384 22.92 12.384 23.2743 12.1657 23.4948C11.9475 23.7153 11.5886 23.7142 11.3726 23.496C10.7347 22.8615 9.89213 22.5116 8.99775 22.5116C7.13475 22.5116 5.62275 24.0236 5.62275 25.8821C5.62275 27.7406 7.13475 29.2526 8.99325 29.2526L22.4831 29.2346C24.3405 29.2346 25.8525 27.7237 25.8525 25.8641C25.8525 24.0191 24.3619 22.515 22.5225 22.4936L22.4809 22.4947C20.9554 22.4947 19.6155 23.5218 19.224 24.9945C19.1453 25.2926 18.8404 25.4703 18.5366 25.3927C18.2374 25.3128 18.0585 25.0057 18.1384 24.7053ZM11.7746 16.3222H14.0201C14.3295 16.3222 14.5815 16.0713 14.5815 15.7608C14.5815 15.4503 14.3295 15.1994 14.0201 15.1994H11.7746C11.4652 15.1994 11.2132 15.4503 11.2132 15.7608C11.2132 16.0713 11.4652 16.3222 11.7746 16.3222ZM30.0393 23.8879C29.8953 23.8879 29.7524 23.8328 29.6422 23.7237L28.0548 22.1352C27.8354 21.9158 27.8354 21.5614 28.0548 21.342C28.2753 21.1227 28.6297 21.1227 28.8479 21.342L30.4364 22.9294C30.6558 23.1488 30.6558 23.5043 30.4364 23.7237C30.3273 23.8328 30.1833 23.8879 30.0393 23.8879ZM30.927 16.3222H33.1725C33.483 16.3222 33.7339 16.0713 33.7339 15.7608C33.7339 15.4503 33.483 15.1994 33.1725 15.1994H30.927C30.6177 15.1994 30.3668 15.4503 30.3668 15.7608C30.3668 16.0713 30.6177 16.3222 30.927 16.3222ZM28.4517 10.3445C28.3077 10.3445 28.1648 10.2894 28.0546 10.1802C27.8352 9.96086 27.8352 9.60536 28.0546 9.38599L29.6431 7.79749C29.8613 7.57924 30.2168 7.57924 30.4362 7.79749C30.6556 8.01799 30.6556 8.37236 30.4362 8.59174L28.8488 10.1802C28.7397 10.2894 28.5957 10.3445 28.4517 10.3445Z" fill="currentColor"/>
</svg>
