<svg width="36" height="36" viewBox="0 0 36 36" fill="none" xmlns="http://www.w3.org/2000/svg">
<path fill-rule="evenodd" clip-rule="evenodd" d="M18.0033 13.5H9.56239C9.25189 13.5 8.99989 13.248 8.99989 12.9375C8.99989 12.627 9.25189 12.375 9.56239 12.375H18.0033C19.2441 12.375 20.2533 11.3659 20.2533 10.125C20.2533 8.88412 19.2441 7.875 18.0033 7.875C16.7275 7.875 15.7814 8.72887 15.7544 9.90562C15.7465 10.2161 15.4956 10.4569 15.1784 10.4546C14.8679 10.4467 14.6215 10.1891 14.6294 9.87863C14.6721 8.0955 16.1223 6.75 18.0033 6.75C19.864 6.75 21.3783 8.26425 21.3783 10.125C21.3783 11.9858 19.864 13.5 18.0033 13.5ZM26.4375 20.25H16.3125C16.002 20.25 15.75 19.998 15.75 19.6875C15.75 19.377 16.002 19.125 16.3125 19.125H26.4375C26.748 19.125 27 19.377 27 19.6875C27 19.998 26.748 20.25 26.4375 20.25ZM5.0625 16.875H27C29.4818 16.875 31.5 14.8568 31.5 12.375C31.5 9.89325 29.4818 7.875 27 7.875C24.4924 7.875 22.5596 9.66375 22.5011 12.0352C22.4932 12.3457 22.7396 12.6034 23.0501 12.6112C23.3674 12.618 23.6182 12.3728 23.6261 12.0623C23.6689 10.2881 25.0886 9 27 9C28.8608 9 30.375 10.5143 30.375 12.375C30.375 14.2358 28.8608 15.75 27 15.75H5.0625C4.752 15.75 4.5 16.002 4.5 16.3125C4.5 16.623 4.752 16.875 5.0625 16.875ZM25.8783 29.25C23.9973 29.25 22.5471 27.9045 22.5044 26.1214C22.4965 25.8109 22.7429 25.5532 23.0534 25.5454C23.3763 25.5532 23.6215 25.7839 23.6294 26.0944C23.6564 27.2711 24.6025 28.125 25.8783 28.125C27.1191 28.125 28.1283 27.1159 28.1283 25.875C28.1283 24.6341 27.1191 23.625 25.8783 23.625H14.0624C13.7519 23.625 13.4999 23.373 13.4999 23.0625C13.4999 22.752 13.7519 22.5 14.0624 22.5H25.8783C27.739 22.5 29.2533 24.0142 29.2533 25.875C29.2533 27.7358 27.739 29.25 25.8783 29.25ZM9.5625 20.25H12.9375C13.248 20.25 13.5 19.998 13.5 19.6875C13.5 19.377 13.248 19.125 12.9375 19.125H9.5625C9.252 19.125 9 19.377 9 19.6875C9 19.998 9.252 20.25 9.5625 20.25Z" fill="currentColor"/>
</svg>
