<svg width="36" height="36" viewBox="0 0 36 36" fill="none" xmlns="http://www.w3.org/2000/svg">
<path fill-rule="evenodd" clip-rule="evenodd" d="M27.735 4.46718H27.9375V4.45593C29.8636 4.45593 31.425 6.01734 31.425 7.94343C31.425 9.86953 29.8636 11.4309 27.9375 11.4309H21.39C21.3353 13.3068 19.8017 14.8007 17.925 14.8059H7.87875C5.95266 14.8059 4.39125 13.2445 4.39125 11.3184C4.39125 9.39234 5.95266 7.83093 7.87875 7.83093H8.0925C8.82956 5.80646 10.753 4.45823 12.9075 4.45593C13.895 4.4571 14.8608 4.74642 15.6863 5.28843C16.3676 4.74751 17.2256 4.4789 18.0938 4.53468C18.8171 2.50282 20.734 1.14035 22.8907 1.12525C25.0475 1.11015 26.9833 2.44564 27.735 4.46718ZM7.8225 13.6697H17.8687L17.8125 13.6584C19.0402 13.674 20.0752 12.7466 20.1939 11.5245C20.3126 10.3024 19.4754 9.19316 18.2676 8.97219C17.0599 8.75123 15.8842 9.49225 15.5625 10.6772C15.4852 10.9689 15.195 11.1509 14.8988 11.0934C14.6016 11.0112 14.426 10.7052 14.505 10.4072C14.7906 9.34872 15.5573 8.48617 16.575 8.07843C15.9546 6.57513 14.4888 5.59437 12.8625 5.59437C11.2362 5.59437 9.77043 6.57513 9.15 8.07843C9.57207 8.2511 9.95477 8.50751 10.275 8.83218C10.3815 8.9378 10.4414 9.08157 10.4414 9.23156C10.4414 9.38154 10.3815 9.52531 10.275 9.63093C10.1729 9.73969 10.0304 9.80139 9.88125 9.80139C9.73209 9.80139 9.58957 9.73969 9.4875 9.63093C9.04351 9.19339 8.44586 8.94705 7.8225 8.94468C6.97846 8.94468 6.19853 9.39497 5.77652 10.1259C5.3545 10.8569 5.3545 11.7575 5.77652 12.4884C6.19853 13.2194 6.97846 13.6697 7.8225 13.6697ZM21.1875 10.2947C21.0354 9.72515 20.7367 9.20541 20.3213 8.78718C19.667 8.13595 18.7806 7.77167 17.8575 7.77468H17.655C17.4087 7.10325 17.0256 6.4903 16.53 5.97468C17.4688 5.37338 18.6957 5.4845 19.5113 6.24468C19.7287 6.46214 20.0813 6.46214 20.2988 6.24468C20.5162 6.02722 20.5162 5.67464 20.2988 5.45718C19.9836 5.12914 19.5993 4.87548 19.1738 4.71468C19.7942 3.21138 21.26 2.23062 22.8863 2.23062C24.5125 2.23062 25.9783 3.21138 26.5988 4.71468C25.5914 5.13329 24.8379 5.99914 24.5625 7.05468C24.4835 7.35268 24.6591 7.65873 24.9563 7.74093C25.2571 7.82053 25.5665 7.64585 25.6538 7.34718C25.9581 6.15633 27.1247 5.3978 28.3367 5.60277C29.5486 5.80774 30.4009 6.90774 30.2967 8.13245C30.1925 9.35715 29.1666 10.2974 27.9375 10.2947H21.1875ZM4.3125 18.7322C4.62316 18.7322 4.875 18.4803 4.875 18.1697C4.875 17.859 4.62316 17.6072 4.3125 17.6072C4.00184 17.6072 3.75 17.859 3.75 18.1697C3.75 18.4803 4.00184 18.7322 4.3125 18.7322ZM9.375 18.1697C9.375 18.4803 9.12316 18.7322 8.8125 18.7322C8.50184 18.7322 8.25 18.4803 8.25 18.1697C8.25 17.859 8.50184 17.6072 8.8125 17.6072C9.12316 17.6072 9.375 17.859 9.375 18.1697ZM13.3125 18.7322C13.6232 18.7322 13.875 18.4803 13.875 18.1697C13.875 17.859 13.6232 17.6072 13.3125 17.6072C13.0018 17.6072 12.75 17.859 12.75 18.1697C12.75 18.4803 13.0018 18.7322 13.3125 18.7322ZM18.375 18.1697C18.375 18.4803 18.1232 18.7322 17.8125 18.7322C17.5018 18.7322 17.25 18.4803 17.25 18.1697C17.25 17.859 17.5018 17.6072 17.8125 17.6072C18.1232 17.6072 18.375 17.859 18.375 18.1697ZM22.3013 18.7322C22.6119 18.7322 22.8638 18.4803 22.8638 18.1697C22.8638 17.859 22.6119 17.6072 22.3013 17.6072C21.9906 17.6072 21.7388 17.859 21.7388 18.1697C21.7388 18.4803 21.9906 18.7322 22.3013 18.7322ZM27.2962 18.1697C27.2962 18.4803 27.0444 18.7322 26.7337 18.7322C26.4231 18.7322 26.1712 18.4803 26.1712 18.1697C26.1712 17.859 26.4231 17.6072 26.7337 17.6072C27.0444 17.6072 27.2962 17.859 27.2962 18.1697ZM31.3688 18.7322C31.6794 18.7322 31.9313 18.4803 31.9313 18.1697C31.9313 17.859 31.6794 17.6072 31.3688 17.6072C31.0581 17.6072 30.8063 17.859 30.8063 18.1697C30.8063 18.4803 31.0581 18.7322 31.3688 18.7322ZM4.875 22.6697C4.875 22.9803 4.62316 23.2322 4.3125 23.2322C4.00184 23.2322 3.75 22.9803 3.75 22.6697C3.75 22.359 4.00184 22.1072 4.3125 22.1072C4.62316 22.1072 4.875 22.359 4.875 22.6697ZM8.8125 23.2322C9.12316 23.2322 9.375 22.9803 9.375 22.6697C9.375 22.359 9.12316 22.1072 8.8125 22.1072C8.50184 22.1072 8.25 22.359 8.25 22.6697C8.25 22.9803 8.50184 23.2322 8.8125 23.2322ZM13.875 22.6697C13.875 22.9803 13.6232 23.2322 13.3125 23.2322C13.0018 23.2322 12.75 22.9803 12.75 22.6697C12.75 22.359 13.0018 22.1072 13.3125 22.1072C13.6232 22.1072 13.875 22.359 13.875 22.6697ZM17.8125 23.2322C18.1232 23.2322 18.375 22.9803 18.375 22.6697C18.375 22.359 18.1232 22.1072 17.8125 22.1072C17.5018 22.1072 17.25 22.359 17.25 22.6697C17.25 22.9803 17.5018 23.2322 17.8125 23.2322ZM22.8638 22.6697C22.8638 22.9803 22.6119 23.2322 22.3013 23.2322C21.9906 23.2322 21.7388 22.9803 21.7388 22.6697C21.7388 22.359 21.9906 22.1072 22.3013 22.1072C22.6119 22.1072 22.8638 22.359 22.8638 22.6697ZM26.7337 23.2322C27.0444 23.2322 27.2962 22.9803 27.2962 22.6697C27.2962 22.359 27.0444 22.1072 26.7337 22.1072C26.4231 22.1072 26.1712 22.359 26.1712 22.6697C26.1712 22.9803 26.4231 23.2322 26.7337 23.2322ZM31.9313 22.6697C31.9313 22.9803 31.6794 23.2322 31.3688 23.2322C31.0581 23.2322 30.8063 22.9803 30.8063 22.6697C30.8063 22.359 31.0581 22.1072 31.3688 22.1072C31.6794 22.1072 31.9313 22.359 31.9313 22.6697ZM4.3125 27.7322C4.62316 27.7322 4.875 27.4803 4.875 27.1697C4.875 26.859 4.62316 26.6072 4.3125 26.6072C4.00184 26.6072 3.75 26.859 3.75 27.1697C3.75 27.4803 4.00184 27.7322 4.3125 27.7322ZM9.375 27.1697C9.375 27.4803 9.12316 27.7322 8.8125 27.7322C8.50184 27.7322 8.25 27.4803 8.25 27.1697C8.25 26.859 8.50184 26.6072 8.8125 26.6072C9.12316 26.6072 9.375 26.859 9.375 27.1697ZM13.3125 27.7322C13.6232 27.7322 13.875 27.4803 13.875 27.1697C13.875 26.859 13.6232 26.6072 13.3125 26.6072C13.0018 26.6072 12.75 26.859 12.75 27.1697C12.75 27.4803 13.0018 27.7322 13.3125 27.7322ZM18.375 27.1697C18.375 27.4803 18.1232 27.7322 17.8125 27.7322C17.5018 27.7322 17.25 27.4803 17.25 27.1697C17.25 26.859 17.5018 26.6072 17.8125 26.6072C18.1232 26.6072 18.375 26.859 18.375 27.1697ZM22.3013 27.7322C22.6119 27.7322 22.8638 27.4803 22.8638 27.1697C22.8638 26.859 22.6119 26.6072 22.3013 26.6072C21.9906 26.6072 21.7388 26.859 21.7388 27.1697C21.7388 27.4803 21.9906 27.7322 22.3013 27.7322ZM27.2962 27.1697C27.2962 27.4803 27.0444 27.7322 26.7337 27.7322C26.4231 27.7322 26.1712 27.4803 26.1712 27.1697C26.1712 26.859 26.4231 26.6072 26.7337 26.6072C27.0444 26.6072 27.2962 26.859 27.2962 27.1697ZM31.3688 27.7322C31.6794 27.7322 31.9313 27.4803 31.9313 27.1697C31.9313 26.859 31.6794 26.6072 31.3688 26.6072C31.0581 26.6072 30.8063 26.859 30.8063 27.1697C30.8063 27.4803 31.0581 27.7322 31.3688 27.7322ZM4.875 31.6697C4.875 31.9803 4.62316 32.2322 4.3125 32.2322C4.00184 32.2322 3.75 31.9803 3.75 31.6697C3.75 31.359 4.00184 31.1072 4.3125 31.1072C4.62316 31.1072 4.875 31.359 4.875 31.6697ZM8.8125 32.2322C9.12316 32.2322 9.375 31.9803 9.375 31.6697C9.375 31.359 9.12316 31.1072 8.8125 31.1072C8.50184 31.1072 8.25 31.359 8.25 31.6697C8.25 31.9803 8.50184 32.2322 8.8125 32.2322ZM13.875 31.6697C13.875 31.9803 13.6232 32.2322 13.3125 32.2322C13.0018 32.2322 12.75 31.9803 12.75 31.6697C12.75 31.359 13.0018 31.1072 13.3125 31.1072C13.6232 31.1072 13.875 31.359 13.875 31.6697ZM17.8125 32.2322C18.1232 32.2322 18.375 31.9803 18.375 31.6697C18.375 31.359 18.1232 31.1072 17.8125 31.1072C17.5018 31.1072 17.25 31.359 17.25 31.6697C17.25 31.9803 17.5018 32.2322 17.8125 32.2322ZM22.8638 31.6697C22.8638 31.9803 22.6119 32.2322 22.3013 32.2322C21.9906 32.2322 21.7388 31.9803 21.7388 31.6697C21.7388 31.359 21.9906 31.1072 22.3013 31.1072C22.6119 31.1072 22.8638 31.359 22.8638 31.6697ZM26.7337 32.2322C27.0444 32.2322 27.2962 31.9803 27.2962 31.6697C27.2962 31.359 27.0444 31.1072 26.7337 31.1072C26.4231 31.1072 26.1712 31.359 26.1712 31.6697C26.1712 31.9803 26.4231 32.2322 26.7337 32.2322ZM31.9313 31.6697C31.9313 31.9803 31.6794 32.2322 31.3688 32.2322C31.0581 32.2322 30.8063 31.9803 30.8063 31.6697C30.8063 31.359 31.0581 31.1072 31.3688 31.1072C31.6794 31.1072 31.9313 31.359 31.9313 31.6697ZM4.3125 34.6509H31.3688C31.6794 34.6509 31.9313 34.3991 31.9313 34.0884C31.9313 33.7778 31.6794 33.5259 31.3688 33.5259H4.3125C4.00184 33.5259 3.75 33.7778 3.75 34.0884C3.75 34.3991 4.00184 34.6509 4.3125 34.6509Z" fill="currentColor"/>
</svg>
