<svg width="36" height="36" viewBox="0 0 36 36" fill="none" xmlns="http://www.w3.org/2000/svg">
<path fill-rule="evenodd" clip-rule="evenodd" d="M17.6749 28.3321C11.7764 28.3321 6.97731 23.5337 6.97731 17.6353C6.97731 11.7368 11.7764 6.93772 17.6749 6.93772C23.5733 6.93772 28.3724 11.7368 28.3724 17.6353H26.9878C26.9878 12.4997 22.8097 8.32233 17.6749 8.32233C12.54 8.32233 8.36193 12.4997 8.36193 17.6353C8.36193 22.7701 12.54 26.9475 17.6749 26.9475V28.3321ZM5.00223 18.3278H1V16.9432H5.00223H5.22585V18.3278H5.00223ZM34.3498 18.3278H30.1531V16.9432H34.3498V18.3278ZM16.9826 5.17254H18.3672V1H16.9826V5.17254ZM16.9826 34.3097H18.3672V30.0873H16.9826V34.3097ZM5.4082 6.36705L8.35882 9.31766L9.33774 8.33874L6.38712 5.38812L5.4082 6.36705ZM6.35964 29.9212L5.38072 28.9423L5.39627 28.9267L8.21018 26.1121L8.21052 26.1125L8.36872 25.9543L9.34764 26.9332L6.36939 29.9115L6.35964 29.9212ZM25.9948 8.32794L26.9737 9.30686L29.9416 6.33963L28.9627 5.36071L25.9948 8.32794ZM20.4789 25.787V22.0957H22.0048V25.7303C22.0048 26.9833 22.5503 27.5012 23.4731 27.5012C24.4057 27.5012 24.9422 26.9833 24.9422 25.7303V22.0957H26.4487V25.787C26.4487 27.7269 25.3375 28.8007 23.4641 28.8007C21.5894 28.8007 20.4789 27.7269 20.4789 25.787ZM31.4362 28.687L34.2899 22.0956H32.7737L30.7397 26.804L28.7341 22.0956H27.0864L29.9297 28.687H31.4362Z" fill="currentColor"/>
</svg>
