<svg width="36" height="36" viewBox="0 0 36 36" fill="none" xmlns="http://www.w3.org/2000/svg">
<path fill-rule="evenodd" clip-rule="evenodd" d="M14.182 6.75V7.3125H14.7445C15.055 7.3125 15.307 7.5645 15.307 7.875C15.307 8.1855 15.055 8.4375 14.7445 8.4375H14.182V9C14.182 9.3105 13.93 9.5625 13.6195 9.5625C13.309 9.5625 13.057 9.3105 13.057 9V8.4375H12.4945C12.184 8.4375 11.932 8.1855 11.932 7.875C11.932 7.5645 12.184 7.3125 12.4945 7.3125H13.057V6.75C13.057 6.4395 13.309 6.1875 13.6195 6.1875C13.93 6.1875 14.182 6.4395 14.182 6.75ZM22.446 21.4111L22.5191 21.41C24.201 21.41 25.6534 22.3482 26.4263 23.7185C28.7775 22.3685 30.3638 19.8046 30.3638 16.8785C30.3638 13.2459 27.9101 10.1285 24.5138 9.24086C24.9514 10.3209 25.1775 11.4796 25.1775 12.6384C25.1775 15.6646 23.6914 18.3421 21.4312 19.9846C21.4245 19.9891 21.4175 19.9931 21.4104 19.997C21.4034 20.0009 21.3964 20.0049 21.3896 20.0094C21.6788 20.456 21.933 20.9285 22.113 21.4449C22.1513 21.441 22.1889 21.4362 22.2263 21.4313C22.299 21.4219 22.371 21.4126 22.446 21.4111ZM5.625 25.9302C5.625 27.7932 7.13925 29.3086 9.00225 29.3086L22.5191 29.2906C24.3821 29.2906 25.8964 27.7752 25.8964 25.9134C25.8964 25.6929 25.8727 25.4791 25.8322 25.2699L25.83 25.2721C25.7951 25.1022 25.74 24.9346 25.6837 24.7771C25.6151 24.5859 25.5251 24.3946 25.4137 24.2259L25.4179 24.2235L25.4202 24.2222C25.4216 24.2214 25.4231 24.2207 25.425 24.2202C24.8456 23.228 23.7847 22.5496 22.5585 22.535L22.5169 22.5361C20.9891 22.5361 19.647 23.5655 19.2544 25.0415C19.1745 25.3396 18.8674 25.5185 18.5659 25.4397C18.2655 25.3599 18.0866 25.0516 18.1665 24.7512C18.5546 23.2932 19.6391 22.1604 21.0049 21.6732C20.8305 21.2142 20.5909 20.7957 20.313 20.4065C20.1791 20.2209 20.0362 20.0454 19.8844 19.8789C18.8494 18.7437 17.3801 18.0384 15.7691 18.0384C13.41 18.0384 11.3344 19.5279 10.5221 21.707C11.1352 21.9286 11.7034 22.2684 12.1792 22.7431C12.3997 22.9625 12.3997 23.318 12.1815 23.5385C11.9621 23.759 11.6032 23.7579 11.3861 23.5396C10.7471 22.904 9.90225 22.553 9.00787 22.553C7.13925 22.553 5.625 24.0684 5.625 25.9302ZM22.8926 8.19461C23.0513 7.80086 23.5901 7.91336 23.5901 7.91336C28.0901 8.46461 31.4888 12.3121 31.4888 16.8785C31.4888 20.2749 29.6111 23.2437 26.8582 24.7737C26.9539 25.1405 27.0214 25.5174 27.0214 25.9134C27.0214 28.3962 25.002 30.4156 22.5191 30.4156L9.00225 30.4336C6.51937 30.4336 4.5 28.4131 4.5 25.9302C4.5 23.4485 6.51937 21.428 9.00225 21.428C9.09233 21.428 9.18011 21.4395 9.26795 21.4511L9.26798 21.4511C9.31725 21.4576 9.36653 21.464 9.41625 21.4685C10.3489 18.7696 12.8824 16.9134 15.7691 16.9134C17.6974 16.9134 19.4569 17.7549 20.6978 19.1105L20.7013 19.1081C20.7042 19.1064 20.7071 19.1048 20.7101 19.1032L20.7101 19.1032C20.7143 19.1009 20.7186 19.0987 20.7225 19.0959C22.7362 17.6671 24.0525 15.3046 24.0525 12.6384C24.0525 11.2884 23.7026 9.93724 23.0276 8.75711C23.0276 8.75711 22.8139 8.37461 22.8926 8.19461ZM18.5733 11.8125V11.25C18.5733 10.9395 18.3213 10.6875 18.0108 10.6875C17.7003 10.6875 17.4483 10.9395 17.4483 11.25V11.8125H16.8858C16.5753 11.8125 16.3233 12.0645 16.3233 12.375C16.3233 12.6855 16.5753 12.9375 16.8858 12.9375H17.4483V13.5C17.4483 13.8105 17.7003 14.0625 18.0108 14.0625C18.3213 14.0625 18.5733 13.8105 18.5733 13.5V12.9375H19.1358C19.4463 12.9375 19.6983 12.6855 19.6983 12.375C19.6983 12.0645 19.4463 11.8125 19.1358 11.8125H18.5733ZM9.59411 15.7819V16.3444H10.1566C10.4671 16.3444 10.7191 16.5964 10.7191 16.9069C10.7191 17.2175 10.4671 17.4694 10.1566 17.4694H9.59411V18.0319C9.59411 18.3425 9.34211 18.5944 9.03161 18.5944C8.72111 18.5944 8.46911 18.3425 8.46911 18.0319V17.4694H7.90661C7.59611 17.4694 7.34411 17.2175 7.34411 16.9069C7.34411 16.5964 7.59611 16.3444 7.90661 16.3444H8.46911V15.7819C8.46911 15.4714 8.72111 15.2194 9.03161 15.2194C9.34211 15.2194 9.59411 15.4714 9.59411 15.7819Z" fill="currentColor"/>
</svg>
