<svg width="36" height="36" viewBox="0 0 36 36" fill="none" xmlns="http://www.w3.org/2000/svg">
<path fill-rule="evenodd" clip-rule="evenodd" d="M10.3902 9.9891C11.4797 6.73281 14.5442 4.49988 18.0115 4.49988C21.4671 4.49988 24.529 6.72369 25.6241 9.96655C25.8041 9.94804 25.9863 9.93858 26.1702 9.93858H26.1714C29.1121 9.93858 31.5005 12.3281 31.5005 15.2655C31.5005 18.2028 29.111 20.5923 26.1736 20.5923C25.7597 20.5923 24.3126 20.5943 22.4358 20.5968C21.1089 20.5985 19.5673 20.6006 18.0241 20.6025C14.2857 20.6081 10.5417 20.6137 9.82736 20.6137C6.88999 20.6137 4.50049 18.2231 4.50049 15.2868C4.50049 12.3495 6.88999 9.95995 9.82736 9.95995C10.0167 9.95995 10.2045 9.96975 10.3902 9.9891ZM24.5154 10.2023C23.5371 7.48111 20.939 5.62488 18.0115 5.62488C15.0718 5.62488 12.4698 7.4912 11.499 10.2262C12.2776 10.4827 12.9907 10.9196 13.5882 11.5158C13.8076 11.7352 13.8076 12.0907 13.5882 12.3112C13.3677 12.5317 13.0122 12.5306 12.7929 12.3123C12.0009 11.5203 10.949 11.085 9.83411 11.085C7.50986 11.085 5.62549 12.9693 5.62549 15.2868C5.62549 17.6032 7.50986 19.4887 9.82736 19.4887C10.5417 19.4887 14.2857 19.4831 18.023 19.4775C19.5659 19.4756 21.1075 19.4735 22.4344 19.4718H22.4344C24.3119 19.4693 25.7597 19.4673 26.1736 19.4673C28.4911 19.4673 30.3755 17.583 30.3755 15.2655C30.3755 12.9491 28.4911 11.0636 26.1736 11.0636C24.269 11.0636 22.5995 12.345 22.1112 14.1798C22.0325 14.4802 21.7265 14.658 21.4227 14.5792C21.1224 14.4993 20.9435 14.1911 21.0234 13.8907C21.4957 12.1178 22.837 10.7519 24.5154 10.2023ZM16.7085 21.75H20.2045C20.3561 21.75 20.4558 21.908 20.387 22.0423L18.6914 25.4146C18.6236 25.5489 18.7233 25.7069 18.8749 25.7069L21.17 25.7039C21.3296 25.7039 21.4273 25.8758 21.3455 26.0111L16.2537 34.4009C16.133 34.6004 15.8228 34.473 15.8797 34.2468L17.4825 27.9327C17.5155 27.8044 17.4177 27.6809 17.285 27.6809H14.8294C14.6908 27.6809 14.591 27.5447 14.6359 27.4133L16.515 21.8882C16.542 21.8053 16.6198 21.75 16.7085 21.75Z" fill="currentColor"/>
</svg>
