<svg width="36" height="36" viewBox="0 0 36 36" fill="none" xmlns="http://www.w3.org/2000/svg">
<path fill-rule="evenodd" clip-rule="evenodd" d="M34.6802 14.767C33.8338 13.9276 32.6889 13.4582 31.4968 13.4622H31.0918C30.1275 10.7849 27.5875 9 24.7418 9C21.8962 9 19.3562 10.7849 18.3919 13.4622C18.2608 13.4518 18.1292 13.4518 17.9982 13.4622C16.9083 13.4665 15.8571 13.8662 15.0397 14.5871C13.3136 13.3924 11.1257 13.0801 9.13424 13.7439C7.14274 14.4077 5.57991 15.9703 4.91575 17.9617H4.49954C2.01451 17.9617 0 19.9762 0 22.4613C0 24.9463 2.01451 26.9608 4.49954 26.9608H17.9982C20.4832 26.9608 22.4977 24.9463 22.4977 22.4613H31.4968C33.3178 22.4627 34.9601 21.3664 35.6572 19.6841C36.3542 18.0018 35.9686 16.0652 34.6802 14.7783V14.767ZM17.9982 25.8359H4.49954C2.97491 25.8321 1.64216 24.8066 1.24796 23.3338C0.853763 21.861 1.49604 20.3068 2.81495 19.542C4.13387 18.7771 5.8018 18.9916 6.8843 20.0653C6.98636 20.174 7.12886 20.2357 7.27801 20.2357C7.42715 20.2357 7.56965 20.174 7.67172 20.0653C7.77819 19.9596 7.83809 19.8159 7.83809 19.6659C7.83809 19.5159 7.77819 19.3722 7.67172 19.2666C7.20171 18.8063 6.63759 18.4532 6.01814 18.2317C6.85888 16.0699 8.94054 14.6459 11.2601 14.6459C13.5797 14.6459 15.6613 16.0699 16.5021 18.2317C15.0977 18.7313 14.032 19.894 13.6561 21.3364C13.5753 21.647 13.7617 21.9643 14.0723 22.045C14.3829 22.1258 14.7002 21.9395 14.781 21.6288C15.2158 19.9214 16.8911 18.8358 18.6272 19.1365C20.3633 19.4372 21.5758 21.0229 21.4111 22.7771C21.2464 24.5314 19.7599 25.8636 17.9982 25.8359ZM22.3627 21.3364H31.4968C33.2516 21.3348 34.7124 19.9886 34.8569 18.2397C35.0015 16.4909 33.7816 14.9231 32.0509 14.6334C30.3202 14.3437 28.6562 15.4287 28.2234 17.1293C28.1863 17.2741 28.0931 17.3982 27.9643 17.4742C27.8356 17.5502 27.6819 17.5718 27.5372 17.5343C27.2424 17.4422 27.07 17.1368 27.1435 16.8368C27.5238 15.3893 28.5989 14.2256 30.0119 13.7321C29.1712 11.5703 27.0895 10.1463 24.77 10.1463C22.4504 10.1463 20.3688 11.5703 19.528 13.7321C20.1523 13.9506 20.7207 14.3039 21.1928 14.767C21.4134 14.9876 21.4134 15.3452 21.1928 15.5657C20.9723 15.7863 20.6147 15.7863 20.3942 15.5657C19.161 14.387 17.2548 14.2774 15.8946 15.307C16.6591 16.0481 17.2407 16.957 17.5932 17.9617H17.9982C20.0529 17.9581 21.849 19.3469 22.3627 21.3364Z" fill="currentColor"/>
</svg>
