<svg width="36" height="36" viewBox="0 0 36 36" fill="none" xmlns="http://www.w3.org/2000/svg">
<path fill-rule="evenodd" clip-rule="evenodd" d="M9 8.25C9 10.4662 13.527 11.625 18 11.625C22.473 11.625 27 10.4662 27 8.25C27 6.9585 25.4486 5.919 22.6305 5.32275C22.3346 5.26425 22.0286 5.45213 21.9634 5.757C21.9004 6.06075 22.0939 6.36 22.3976 6.42412C24.7871 6.92925 25.875 7.72463 25.875 8.25C25.875 9.16687 22.8071 10.5 18 10.5C13.1929 10.5 10.125 9.16687 10.125 8.25C10.125 7.33313 13.1929 6 18 6C18.3105 6 18.5625 5.748 18.5625 5.4375C18.5625 5.127 18.3105 4.875 18 4.875C13.527 4.875 9 6.03375 9 8.25ZM18 15C14.0861 15 10.125 14.0066 10.125 12.1087C10.125 11.8331 10.2094 11.5654 10.3759 11.3145C10.548 11.0546 10.899 10.986 11.1555 11.1559C11.4142 11.3269 11.4851 11.6767 11.3141 11.9355C11.25 12.0311 11.25 12.0896 11.25 12.1087C11.25 12.7084 13.6328 13.875 18 13.875C22.3673 13.875 24.75 12.7084 24.75 12.1087C24.75 12.0896 24.75 12.0311 24.6859 11.9355C24.5149 11.6767 24.5857 11.3269 24.8445 11.1559C25.101 10.986 25.452 11.0546 25.6241 11.3145C25.7906 11.5654 25.875 11.8331 25.875 12.1087C25.875 14.0066 21.9139 15 18 15ZM11.1825 15.7279C11.1825 17.466 14.6126 18.375 18 18.375C21.3874 18.375 24.8175 17.466 24.8175 15.7279C24.8175 15.4174 24.5655 15.1654 24.255 15.1654C23.9434 15.1654 23.6925 15.4174 23.6925 15.7279C23.6925 16.2645 21.5314 17.25 18 17.25C14.4686 17.25 12.3075 16.2645 12.3075 15.7279C12.3075 15.4174 12.0566 15.1654 11.745 15.1654C11.4345 15.1654 11.1825 15.4174 11.1825 15.7279ZM20.2456 21.75C17.9922 21.75 15.407 21.2426 14.7117 20.1086C14.5497 19.8442 14.6319 19.4978 14.8962 19.3346C15.1606 19.1749 15.5082 19.2548 15.6702 19.5203C15.9436 19.9657 17.5872 20.625 20.2456 20.625C22.9242 20.625 24.5611 19.9624 24.8244 19.5146C24.9819 19.2458 25.3306 19.158 25.5939 19.3144C25.8616 19.473 25.9516 19.8173 25.7941 20.085C25.118 21.2348 22.5204 21.75 20.2456 21.75ZM20.25 25.125C18.6176 25.125 17.0978 24.8708 16.0819 24.4286C15.7961 24.3049 15.6668 23.9741 15.7905 23.6884C15.9143 23.4049 16.2461 23.2744 16.5296 23.397C18.2633 24.1519 22.2368 24.1519 23.9704 23.397C24.2539 23.2744 24.5857 23.4049 24.7095 23.6884C24.8333 23.9741 24.7039 24.3049 24.4181 24.4286C23.4023 24.8708 21.8824 25.125 20.25 25.125ZM20.2357 31.875C19.6035 31.875 18.9926 31.8323 18.4166 31.7501C18.1083 31.7062 17.8957 31.4205 17.9396 31.1134C17.9835 30.8051 18.2726 30.5914 18.5763 30.6364C19.6327 30.7894 20.868 30.7871 21.9221 30.633C22.2247 30.5858 22.5138 30.7995 22.56 31.1077C22.605 31.4149 22.3923 31.7006 22.0852 31.7456C21.5002 31.8311 20.8781 31.875 20.2357 31.875ZM17.2508 27.996C17.9854 28.3166 19.0789 28.5 20.25 28.5C21.4211 28.5 22.5146 28.3166 23.2493 27.996C23.535 27.8722 23.6644 27.5404 23.5406 27.2558C23.4169 26.9711 23.085 26.8406 22.8015 26.9644C21.6214 27.4785 18.8786 27.4785 17.6985 26.9644C17.4195 26.844 17.0831 26.97 16.9594 27.2558C16.8356 27.5404 16.965 27.8722 17.2508 27.996Z" fill="currentColor"/>
</svg>
