<svg width="36" height="36" viewBox="0 0 36 36" fill="none" xmlns="http://www.w3.org/2000/svg">
<path fill-rule="evenodd" clip-rule="evenodd" d="M26.6132 1.87307H21.0747V1.18076H26.6132V1.87307ZM23.844 4.6423H21.0747V3.94999H23.844V4.6423ZM21.0747 10.1808H23.844V9.48845H21.0747V10.1808ZM23.844 15.7165H21.0747V15.0241H23.844V15.7165ZM21.0747 21.2549H23.844V20.5626H21.0747V21.2549ZM26.6257 7.41153H21.0623V6.71922H26.6257V7.41153ZM21.0699 12.95H26.6229V12.2577H21.0699V12.95ZM26.6049 18.4829H21.0699V17.7906H26.6049V18.4829ZM21.0713 24.0269H26.6084V23.3346H21.0713V24.0269ZM16.1999 12.0703V26.0086C17.4011 26.3111 18.2942 27.3904 18.2942 28.685C18.2942 30.215 17.0542 31.4543 15.5249 31.4543C13.9956 31.4543 12.7557 30.215 12.7557 28.685C12.7557 27.4029 13.6322 26.3347 14.8153 26.0197V12.0703H16.1999ZM15.5816 2.38462C14.4677 2.38462 13.5615 3.29085 13.5615 4.40477V25.003L13.2506 25.2086C11.8404 26.1405 11.1509 27.7639 11.4513 29.4455C11.7462 31.1008 13.0506 32.4273 14.6955 32.7472C15.9444 32.9895 17.2148 32.6745 18.1764 31.8825C19.138 31.0891 19.6898 29.9205 19.6898 28.6757C19.6898 27.316 19.0203 26.0401 17.8995 25.2619L17.6018 25.0556V4.40477C17.6018 3.29085 16.6956 2.38462 15.5816 2.38462ZM15.5262 34.2121C15.1628 34.2121 14.7966 34.1768 14.431 34.1062C12.2288 33.6783 10.4835 31.9032 10.0882 29.6892C9.71779 27.6151 10.5333 25.5312 12.1769 24.2747V4.40477C12.1769 2.52723 13.7041 1 15.5816 1C17.4592 1 18.9864 2.52723 18.9864 4.40477V24.346C20.3004 25.3942 21.0744 26.9865 21.0744 28.6757C21.0744 30.3358 20.3392 31.8942 19.057 32.9507C18.0573 33.7745 16.8119 34.2121 15.5262 34.2121Z" fill="currentColor"/>
</svg>
