<svg width="36" height="36" viewBox="0 0 36 36" fill="none" xmlns="http://www.w3.org/2000/svg">
<path fill-rule="evenodd" clip-rule="evenodd" d="M24.495 10.0289C23.4631 7.40293 20.9302 5.66025 18.0938 5.6491C15.2283 5.66504 12.6751 7.44766 11.6682 10.1212C12.3779 10.3809 13.0356 10.7762 13.5866 11.3273C13.8071 11.5466 13.8071 11.9033 13.5877 12.1226C13.3684 12.3431 13.0129 12.342 12.7924 12.1238C11.9993 11.3317 10.9485 10.8964 9.83475 10.8964C7.5105 10.8964 5.625 12.7819 5.625 15.0983C5.625 17.4158 7.5105 19.3001 9.82687 19.3001C10.5401 19.3001 14.2864 19.2945 18.0248 19.2889C19.5673 19.287 21.1086 19.285 22.4353 19.2832H22.4357C24.3126 19.2807 25.7599 19.2788 26.1731 19.2788C28.4906 19.2788 30.375 17.3944 30.375 15.0769C30.375 12.774 28.5131 10.8986 26.2159 10.875H26.1709C24.2696 10.875 22.599 12.1575 22.1096 13.9924C22.0297 14.2939 21.7215 14.475 21.4211 14.3906C21.1219 14.3119 20.943 14.0036 21.0229 13.7032C21.4931 11.9381 22.8274 10.5836 24.4946 10.029C24.4948 10.029 24.4949 10.0289 24.495 10.0289ZM25.6276 9.79572C24.4904 6.62649 21.4821 4.5 18.0994 4.5C14.699 4.5 11.677 6.64873 10.5535 9.84539C10.5054 9.83886 10.457 9.83294 10.4085 9.82762C10.3496 9.82146 10.2911 9.81385 10.2325 9.80623L10.2325 9.80623L10.2325 9.80623C10.0986 9.7888 9.96463 9.77138 9.82687 9.77138C6.8895 9.77138 4.5 12.1609 4.5 15.0983C4.5 18.0356 6.8895 20.4251 9.82687 20.4251C10.0054 20.4251 10.3732 20.4248 10.883 20.4242C10.9708 21.378 11.7732 22.125 12.75 22.125C13.7286 22.125 14.5321 21.3753 14.6175 20.419L18.027 20.4139C19.5689 20.412 21.1096 20.41 22.4358 20.4082C24.3125 20.4057 25.7598 20.4038 26.1731 20.4038C29.1105 20.4038 31.5 18.0143 31.5 15.0769C31.5 12.1406 29.1105 9.75 26.1731 9.75L26.1 9.75112C25.9758 9.75278 25.8547 9.76783 25.734 9.78284C25.6985 9.78725 25.6631 9.79166 25.6276 9.79572ZM22.5 26.625C23.5355 26.625 24.375 25.7855 24.375 24.75C24.375 23.7145 23.5355 22.875 22.5 22.875C21.4645 22.875 20.625 23.7145 20.625 24.75C20.625 25.7855 21.4645 26.625 22.5 26.625ZM13.5 28.875C14.5355 28.875 15.375 28.0355 15.375 27C15.375 25.9645 14.5355 25.125 13.5 25.125C12.4645 25.125 11.625 25.9645 11.625 27C11.625 28.0355 12.4645 28.875 13.5 28.875ZM24.375 31.5C24.375 32.5355 23.5355 33.375 22.5 33.375C21.4645 33.375 20.625 32.5355 20.625 31.5C20.625 30.4645 21.4645 29.625 22.5 29.625C23.5355 29.625 24.375 30.4645 24.375 31.5Z" fill="currentColor"/>
</svg>
