<svg width="36" height="36" viewBox="0 0 36 36" fill="none" xmlns="http://www.w3.org/2000/svg">
<path fill-rule="evenodd" clip-rule="evenodd" d="M16.9567 8.15385H18.3413V4H16.9567V8.15385ZM17.631 15.0719C14.5723 15.0719 12.0835 17.56 12.0835 20.6193C12.0835 23.6779 14.5723 26.1661 17.631 26.1661C20.6896 26.1661 23.1784 23.6779 23.1784 20.6193C23.1784 17.56 20.6896 15.0719 17.631 15.0719ZM17.631 16.4565C19.926 16.4565 21.7938 18.3236 21.7938 20.6193C21.7938 22.9143 19.926 24.7815 17.631 24.7815C15.336 24.7815 13.4681 22.9143 13.4681 20.6193C13.4681 18.3236 15.336 16.4565 17.631 16.4565ZM10.8791 4.97761L11.9542 8.98953L13.2918 8.63092L12.2166 4.61899L10.8791 4.97761ZM7.33863 11.0918L5.44102 7.80472L6.64009 7.11241L8.53771 10.3995L7.33863 11.0918ZM1 11.8919L3.42515 14.317L4.40408 13.3381L1.97892 10.913L1 11.8919ZM31.8622 14.342L30.8833 13.3631L33.3036 10.9428L34.2825 11.9217L31.8622 14.342ZM26.755 10.4174L27.9541 11.1097L29.8656 7.79911L28.6658 7.1068L26.755 10.4174ZM23.3419 8.99867L22.0043 8.64005L23.0802 4.62813L24.417 4.98675L23.3419 8.99867ZM17.6479 30.2835C8.75932 30.2835 3.59608 22.3254 2.59155 20.6182C3.59124 18.9109 8.73231 10.9549 17.6479 10.9549C26.5648 10.9549 31.6795 18.9137 32.6716 20.6182C31.6747 22.3219 26.5378 30.2835 17.6479 30.2835ZM1.1827 20.9387C1.41047 21.3769 6.89008 31.6681 17.6479 31.6681C28.407 31.6681 33.8534 21.3755 34.0798 20.9373L34.2439 20.6202L34.0805 20.3025C33.8555 19.8642 28.4395 9.57031 17.6479 9.57031C6.85755 9.57031 1.40839 19.8628 1.18201 20.3011L1.01724 20.6202L1.1827 20.9387Z" fill="currentColor"/>
</svg>
