<svg width="36" height="36" viewBox="0 0 36 36" fill="none" xmlns="http://www.w3.org/2000/svg">
<path fill-rule="evenodd" clip-rule="evenodd" d="M24.4953 10.2169C23.5176 7.4946 20.9403 5.625 18.0109 5.625C15.0657 5.625 12.4794 7.51041 11.5141 10.2553C11.5142 10.2553 11.5143 10.2554 11.5144 10.2554C12.2828 10.513 12.996 10.9248 13.5866 11.5154C13.8071 11.7348 13.8071 12.0914 13.5877 12.3108C13.3684 12.5313 13.0129 12.5301 12.7924 12.3119C11.9993 11.5199 10.9485 11.0845 9.83475 11.0845C7.5105 11.0845 5.625 12.97 5.625 15.2864C5.625 17.6039 7.5105 19.4883 9.82687 19.4883C10.5401 19.4883 14.2864 19.4826 18.0248 19.477C19.5633 19.4752 21.1007 19.4731 22.4251 19.4713L22.4326 19.4713C24.311 19.4688 25.7597 19.4669 26.1731 19.4669C28.4906 19.4669 30.375 17.5825 30.375 15.265C30.375 12.9621 28.5131 11.0868 26.2159 11.0631H26.1709C24.2696 11.0631 22.599 12.3456 22.1096 14.1805C22.0297 14.482 21.7215 14.6631 21.4211 14.5788C21.1219 14.5 20.943 14.1918 21.0229 13.8914C21.4931 12.1263 22.8274 10.7718 24.4946 10.2171C24.4948 10.2171 24.4951 10.217 24.4953 10.2169ZM25.6035 9.98655C24.5089 6.73984 21.4691 4.5 18.0109 4.5C14.5392 4.5 11.4938 6.75224 10.4093 10.0159C10.409 10.0158 10.4088 10.0158 10.4085 10.0158C10.3496 10.0096 10.2911 10.002 10.2325 9.99437L10.2325 9.99436L10.2325 9.99436C10.0986 9.97694 9.96463 9.95951 9.82687 9.95951C6.8895 9.95951 4.5 12.349 4.5 15.2864C4.5 18.2238 6.8895 20.6133 9.82687 20.6133C10.5412 20.6133 14.2875 20.6076 18.027 20.602C19.5678 20.6002 21.1075 20.5981 22.4332 20.5963H22.4346L22.4426 20.5963C24.3161 20.5938 25.7603 20.5919 26.1731 20.5919C29.1105 20.5919 31.5 18.2024 31.5 15.265C31.5 12.3288 29.1105 9.93814 26.1731 9.93814L26.1 9.93926C25.9758 9.94092 25.8547 9.95597 25.734 9.97098C25.6906 9.97637 25.6473 9.98176 25.6039 9.98651C25.6038 9.98653 25.6036 9.98654 25.6035 9.98655ZM11.1752 20.6147V20.6125C12.2777 20.6113 13.8954 20.6091 15.6729 20.6057C15.6729 20.6076 15.6736 20.6094 15.6742 20.6111C15.6747 20.6125 15.6752 20.6137 15.6752 20.6147C15.6752 20.9263 15.4232 21.1772 15.1127 21.1772H14.7819L15.0159 21.4112C15.2353 21.6306 15.2353 21.9872 15.0159 22.2066C14.9057 22.3168 14.7617 22.3708 14.6177 22.3708C14.4737 22.3708 14.3297 22.3168 14.2206 22.2066L13.9877 21.9737V22.3022C13.9877 22.6138 13.7357 22.8647 13.4252 22.8647C13.1136 22.8647 12.8627 22.6138 12.8627 22.3022V21.9726L12.6287 22.2066C12.5184 22.3168 12.3744 22.3708 12.2304 22.3708C12.0876 22.3708 11.9436 22.3168 11.8333 22.2066C11.6139 21.9872 11.6139 21.6306 11.8333 21.4112L12.0662 21.1772H11.7377C11.4261 21.1772 11.1752 20.9263 11.1752 20.6147ZM20.8125 25.3125H21.1421L20.9093 25.5454C20.6899 25.7647 20.6899 26.1214 20.9093 26.3407C21.0195 26.451 21.1635 26.5061 21.3064 26.5061C21.4504 26.5061 21.5944 26.451 21.7046 26.3407L21.9375 26.1079V26.4375C21.9375 26.748 22.1895 27 22.5 27C22.8105 27 23.0625 26.748 23.0625 26.4375V26.1079L23.2954 26.3407C23.4056 26.451 23.5496 26.5061 23.6936 26.5061C23.8365 26.5061 23.9805 26.451 24.0907 26.3407C24.3101 26.1214 24.3101 25.7647 24.0907 25.5454L23.8579 25.3125H24.1875C24.498 25.3125 24.75 25.0605 24.75 24.75C24.75 24.4395 24.498 24.1875 24.1875 24.1875H23.8579L24.0907 23.9546C24.3101 23.7353 24.3101 23.3786 24.0907 23.1593C23.8714 22.9399 23.5147 22.9399 23.2954 23.1593L23.0625 23.3921V23.0625C23.0625 22.752 22.8105 22.5 22.5 22.5C22.1895 22.5 21.9375 22.752 21.9375 23.0625V23.3921L21.7046 23.1593C21.4853 22.9399 21.1286 22.9399 20.9093 23.1593C20.6899 23.3786 20.6899 23.7353 20.9093 23.9546L21.1421 24.1875H20.8125C20.502 24.1875 20.25 24.4395 20.25 24.75C20.25 25.0605 20.502 25.3125 20.8125 25.3125ZM14.7847 26.4366H15.1144C15.4249 26.4366 15.6769 26.6886 15.6769 26.9991C15.6769 27.3096 15.4249 27.5616 15.1144 27.5616H14.7847L15.0176 27.7944C15.237 28.0138 15.237 28.3704 15.0176 28.5898C14.9074 28.7001 14.7634 28.7552 14.6205 28.7552C14.4765 28.7552 14.3325 28.7001 14.2222 28.5898L13.9894 28.3569V28.6866C13.9894 28.9971 13.7374 29.2491 13.4269 29.2491C13.1164 29.2491 12.8644 28.9971 12.8644 28.6866V28.3569L12.6315 28.5898C12.5212 28.7001 12.3773 28.7552 12.2333 28.7552C12.0904 28.7552 11.9464 28.7001 11.8361 28.5898C11.6168 28.3704 11.6168 28.0138 11.8361 27.7944L12.069 27.5616H11.7394C11.4289 27.5616 11.1769 27.3096 11.1769 26.9991C11.1769 26.6886 11.4289 26.4366 11.7394 26.4366H12.069L11.8361 26.2026C11.6168 25.9832 11.6168 25.6277 11.8361 25.4072C12.0555 25.1878 12.4121 25.1878 12.6315 25.4072L12.8644 25.6401V25.3116C12.8644 25.0011 13.1164 24.7491 13.4269 24.7491C13.7374 24.7491 13.9894 25.0011 13.9894 25.3116V25.6401L14.2222 25.4072C14.4416 25.1878 14.7983 25.1878 15.0176 25.4072C15.237 25.6277 15.237 25.9832 15.0176 26.2026L14.7847 26.4366ZM23.8579 30.9375H24.1875C24.498 30.9375 24.75 31.1895 24.75 31.5C24.75 31.8105 24.498 32.0625 24.1875 32.0625H23.8579L24.0907 32.2954C24.3101 32.5147 24.3101 32.8714 24.0907 33.0907C23.9805 33.201 23.8365 33.2561 23.6936 33.2561C23.5496 33.2561 23.4056 33.201 23.2954 33.0907L23.0625 32.8579V33.1875C23.0625 33.498 22.8105 33.75 22.5 33.75C22.1895 33.75 21.9375 33.498 21.9375 33.1875V32.8579L21.7046 33.0907C21.5944 33.201 21.4504 33.2561 21.3064 33.2561C21.1635 33.2561 21.0195 33.201 20.9093 33.0907C20.6899 32.8714 20.6899 32.5147 20.9093 32.2954L21.1421 32.0625H20.8125C20.502 32.0625 20.25 31.8105 20.25 31.5C20.25 31.1895 20.502 30.9375 20.8125 30.9375H21.1421L20.9093 30.7046C20.6899 30.4853 20.6899 30.1286 20.9093 29.9093C21.1286 29.6899 21.4853 29.6899 21.7046 29.9093L21.9375 30.1421V29.8125C21.9375 29.502 22.1895 29.25 22.5 29.25C22.8105 29.25 23.0625 29.502 23.0625 29.8125V30.1421L23.2954 29.9093C23.5147 29.6899 23.8714 29.6899 24.0907 29.9093C24.3101 30.1286 24.3101 30.4853 24.0907 30.7046L23.8579 30.9375Z" fill="currentColor"/>
</svg>
