<svg width="36" height="36" viewBox="0 0 36 36" fill="none" xmlns="http://www.w3.org/2000/svg">
<path fill-rule="evenodd" clip-rule="evenodd" d="M24.4948 10.2169C23.5171 7.4946 20.9398 5.625 18.0104 5.625C15.0652 5.625 12.4789 7.51041 11.5136 10.2553C11.5137 10.2553 11.5138 10.2554 11.5139 10.2554C12.2823 10.513 12.9955 10.9248 13.5861 11.5154C13.8066 11.7348 13.8066 12.0914 13.5873 12.3108C13.3679 12.5313 13.0124 12.5301 12.7919 12.3119C11.9988 11.5199 10.948 11.0845 9.83426 11.0845C7.51001 11.0845 5.62451 12.97 5.62451 15.2864C5.62451 17.6039 7.51001 19.4883 9.82639 19.4883C10.5396 19.4883 14.2859 19.4826 18.0243 19.477C19.5628 19.4752 21.1002 19.4731 22.4246 19.4713L22.4321 19.4713C24.3105 19.4688 25.7592 19.4669 26.1726 19.4669C28.4901 19.4669 30.3745 17.5825 30.3745 15.265C30.3745 12.9621 28.5126 11.0868 26.2154 11.0631H26.1704C24.2691 11.0631 22.5985 12.3456 22.1091 14.1805C22.0293 14.482 21.721 14.6631 21.4206 14.5788C21.1214 14.5 20.9425 14.1918 21.0224 13.8914C21.4926 12.1263 22.8269 10.7718 24.4941 10.2171C24.4944 10.2171 24.4946 10.217 24.4948 10.2169ZM25.603 9.98655C24.5084 6.73984 21.4686 4.5 18.0104 4.5C14.5387 4.5 11.4933 6.75224 10.4088 10.0159C10.4085 10.0158 10.4083 10.0158 10.408 10.0158C10.3491 10.0096 10.2906 10.002 10.232 9.99437L10.232 9.99436L10.232 9.99436C10.0981 9.97694 9.96415 9.95951 9.82639 9.95951C6.88901 9.95951 4.49951 12.349 4.49951 15.2864C4.49951 18.2238 6.88901 20.6133 9.82639 20.6133C10.5408 20.6133 14.287 20.6076 18.0265 20.602C19.5674 20.6002 21.1071 20.5981 22.4327 20.5963H22.4341L22.4421 20.5963C24.3156 20.5938 25.7598 20.5919 26.1726 20.5919C29.11 20.5919 31.4995 18.2024 31.4995 15.265C31.4995 12.3288 29.11 9.93814 26.1726 9.93814L26.0995 9.93926C25.9754 9.94092 25.8542 9.95597 25.7335 9.97098C25.6901 9.97637 25.6468 9.98176 25.6034 9.98651C25.6033 9.98653 25.6031 9.98654 25.603 9.98655ZM21.861 20.6036C21.8616 20.6017 21.8622 20.5996 21.8622 20.5972C22.2526 20.5972 22.6261 20.5972 22.9827 20.5961C22.9827 20.5983 22.9833 20.6003 22.9838 20.6022L22.9843 20.6041C22.9845 20.6049 22.9847 20.6056 22.9848 20.6065C22.9849 20.6071 22.9849 20.6077 22.9849 20.6084V22.2959C22.9849 22.6075 22.7329 22.8584 22.4224 22.8584C22.1119 22.8584 21.8599 22.6075 21.8599 22.2959V20.6084C21.8599 20.6069 21.8604 20.6053 21.861 20.6036ZM11.1703 20.6125V20.6147C11.1703 20.9263 11.4212 21.1772 11.7328 21.1772H12.0624L11.8284 21.4112C11.6091 21.6306 11.6091 21.9872 11.8284 22.2066C11.9387 22.3168 12.0827 22.3708 12.2267 22.3708C12.3707 22.3708 12.5147 22.3168 12.6238 22.2066L12.8578 21.9737V22.3022C12.8578 22.6138 13.1087 22.8647 13.4203 22.8647C13.7308 22.8647 13.9828 22.6138 13.9828 22.3022V21.9737L14.2157 22.2066C14.3248 22.3168 14.4688 22.3708 14.6128 22.3708C14.7568 22.3708 14.9008 22.3168 15.0111 22.2066C15.2304 21.9872 15.2304 21.6306 15.0111 21.4112L14.7771 21.1772H15.1078C15.4183 21.1772 15.6703 20.9263 15.6703 20.6147C15.6703 20.6137 15.6699 20.6125 15.6694 20.6111C15.6689 20.6099 15.6684 20.6086 15.6682 20.6072L15.6681 20.6057C13.8906 20.6091 12.2717 20.6113 11.1703 20.6125ZM17.25 26.4375C17.25 26.748 17.502 27 17.8125 27C18.123 27 18.375 26.748 18.375 26.4375V23.0625C18.375 22.752 18.123 22.5 17.8125 22.5C17.502 22.5 17.25 22.752 17.25 23.0625V26.4375ZM21.75 33.1875C21.75 33.498 22.002 33.75 22.3125 33.75C22.623 33.75 22.875 33.498 22.875 33.1875V29.8125C22.875 29.502 22.623 29.25 22.3125 29.25C22.002 29.25 21.75 29.502 21.75 29.8125V33.1875ZM15.1875 28.6866H14.8578L15.0907 28.4526C15.3101 28.2332 15.3101 27.8777 15.0907 27.6572C14.8713 27.4378 14.5147 27.4378 14.2953 27.6572L14.0625 27.8901V27.5616C14.0625 27.2511 13.8105 26.9991 13.5 26.9991C13.1895 26.9991 12.9375 27.2511 12.9375 27.5616V27.8901L12.7046 27.6572C12.4852 27.4378 12.1286 27.4378 11.9092 27.6572C11.6898 27.8777 11.6898 28.2332 11.9092 28.4526L12.1421 28.6866H11.8125C11.502 28.6866 11.25 28.9386 11.25 29.2491C11.25 29.5596 11.502 29.8116 11.8125 29.8116H12.1421L11.9092 30.0444C11.6898 30.2638 11.6898 30.6204 11.9092 30.8398C12.0195 30.9501 12.1635 31.0052 12.3063 31.0052C12.4503 31.0052 12.5943 30.9501 12.7046 30.8398L12.9375 30.6069V30.9366C12.9375 31.2471 13.1895 31.4991 13.5 31.4991C13.8105 31.4991 14.0625 31.2471 14.0625 30.9366V30.6069L14.2953 30.8398C14.4056 30.9501 14.5496 31.0052 14.6936 31.0052C14.8365 31.0052 14.9805 30.9501 15.0907 30.8398C15.3101 30.6204 15.3101 30.2638 15.0907 30.0444L14.8578 29.8116H15.1875C15.498 29.8116 15.75 29.5596 15.75 29.2491C15.75 28.9386 15.498 28.6866 15.1875 28.6866ZM28.6875 24.1875C28.998 24.1875 29.25 24.4395 29.25 24.75C29.25 25.0605 28.998 25.3125 28.6875 25.3125H28.3578L28.5907 25.5454C28.8101 25.7647 28.8101 26.1214 28.5907 26.3407C28.4805 26.451 28.3365 26.5061 28.1936 26.5061C28.0496 26.5061 27.9056 26.451 27.7953 26.3407L27.5625 26.1079V26.4375C27.5625 26.748 27.3105 27 27 27C26.6895 27 26.4375 26.748 26.4375 26.4375V26.1079L26.2046 26.3407C26.0943 26.451 25.9503 26.5061 25.8063 26.5061C25.6635 26.5061 25.5195 26.451 25.4092 26.3407C25.1898 26.1214 25.1898 25.7647 25.4092 25.5454L25.6421 25.3125H25.3125C25.002 25.3125 24.75 25.0605 24.75 24.75C24.75 24.4395 25.002 24.1875 25.3125 24.1875H25.6421L25.4092 23.9546C25.1898 23.7353 25.1898 23.3786 25.4092 23.1593C25.6286 22.9399 25.9852 22.9399 26.2046 23.1593L26.4375 23.3921V23.0625C26.4375 22.752 26.6895 22.5 27 22.5C27.3105 22.5 27.5625 22.752 27.5625 23.0625V23.3921L27.7953 23.1593C28.0147 22.9399 28.3713 22.9399 28.5907 23.1593C28.8101 23.3786 28.8101 23.7353 28.5907 23.9546L28.3578 24.1875H28.6875Z" fill="currentColor"/>
</svg>
