<svg width="36" height="36" viewBox="0 0 36 36" fill="none" xmlns="http://www.w3.org/2000/svg">
<path fill-rule="evenodd" clip-rule="evenodd" d="M25.6031 9.98662C25.56 9.99134 25.517 9.99643 25.4741 10.0019C25.5171 9.99643 25.5602 9.99134 25.6034 9.98663C25.6468 9.98187 25.6901 9.97648 25.7335 9.97109C25.8542 9.95608 25.9754 9.94103 26.0995 9.93937L26.1726 9.93825C29.11 9.93825 31.4995 12.3289 31.4995 15.2651C31.4995 18.2025 29.11 20.592 26.1726 20.592C25.8007 20.592 24.5913 20.5936 22.9851 20.5957V22.3012C22.9851 22.6117 22.7331 22.8637 22.4226 22.8637C22.1121 22.8637 21.8601 22.6117 21.8601 22.3012V20.5972C20.673 20.5988 19.3502 20.6005 18.0265 20.6021C14.287 20.6078 10.5408 20.6134 9.82639 20.6134C6.88901 20.6134 4.49951 18.2239 4.49951 15.2865C4.49951 12.3491 6.88901 9.95963 9.82639 9.95963C9.96415 9.95963 10.0981 9.97705 10.232 9.99448L10.232 9.99448L10.232 9.99448C10.2906 10.0021 10.3491 10.0097 10.408 10.0159C10.7392 10.0521 11.0611 10.1166 11.375 10.2114C11.0616 10.1166 10.7391 10.0521 10.4088 10.0159C11.4933 6.75225 14.5387 4.5 18.0104 4.5C21.4687 4.5 24.5084 6.73987 25.6031 9.98662ZM11.5139 10.2555L11.5136 10.2554C12.4789 7.51045 15.0652 5.625 18.0104 5.625C20.9398 5.625 23.5172 7.49464 24.4948 10.217L24.4941 10.2172C22.8269 10.7719 21.4926 12.1264 21.0224 13.8915C20.9425 14.1919 21.1214 14.5001 21.4206 14.5789C21.721 14.6632 22.0293 14.4821 22.1091 14.1806C22.5985 12.3458 24.2691 11.0633 26.1704 11.0633H26.2154C28.5126 11.0869 30.3745 12.9623 30.3745 15.2651C30.3745 17.5826 28.4901 19.467 26.1726 19.467C25.7592 19.467 24.3105 19.4689 22.4321 19.4714L22.4246 19.4714L22.4017 19.4715L22.3518 19.4715C21.044 19.4733 19.5347 19.4753 18.0243 19.4771C14.2859 19.4828 10.5396 19.4884 9.82639 19.4884C7.51001 19.4884 5.62451 17.604 5.62451 15.2865C5.62451 12.9701 7.51001 11.0846 9.83426 11.0846C10.948 11.0846 11.9988 11.52 12.7919 12.312C13.0124 12.5303 13.3679 12.5314 13.5873 12.3109C13.8066 12.0915 13.8066 11.7349 13.5861 11.5155C12.9955 10.9249 12.2823 10.5131 11.5139 10.2555ZM8.36006 23.4262V26.8012C8.36006 27.1117 8.61206 27.3637 8.92256 27.3637C9.23306 27.3637 9.48506 27.1117 9.48506 26.8012V23.4262C9.48506 23.1157 9.23306 22.8637 8.92256 22.8637C8.61206 22.8637 8.36006 23.1157 8.36006 23.4262ZM26.3601 26.8012V23.4262C26.3601 23.1157 26.6121 22.8637 26.9226 22.8637C27.2331 22.8637 27.4851 23.1157 27.4851 23.4262V26.8012C27.4851 27.1117 27.2331 27.3637 26.9226 27.3637C26.6121 27.3637 26.3601 27.1117 26.3601 26.8012ZM12.8572 27.9367V31.3117C12.8572 31.6222 13.1092 31.8742 13.4197 31.8742C13.7302 31.8742 13.9822 31.6222 13.9822 31.3117V27.9367C13.9822 27.6262 13.7302 27.3742 13.4197 27.3742C13.1092 27.3742 12.8572 27.6262 12.8572 27.9367ZM21.8601 31.3117V27.9367C21.8601 27.6262 22.1121 27.3742 22.4226 27.3742C22.7331 27.3742 22.9851 27.6262 22.9851 27.9367V31.3117C22.9851 31.6222 22.7331 31.8742 22.4226 31.8742C22.1121 31.8742 21.8601 31.6222 21.8601 31.3117ZM17.3601 23.4262V26.8012C17.3601 27.1117 17.6121 27.3637 17.9226 27.3637C18.2331 27.3637 18.4851 27.1117 18.4851 26.8012V23.4262C18.4851 23.1157 18.2331 22.8637 17.9226 22.8637C17.6121 22.8637 17.3601 23.1157 17.3601 23.4262ZM13.4197 22.8638C13.1092 22.8638 12.8572 22.6118 12.8572 22.3013V20.6105C13.0311 20.6105 13.2093 20.6102 13.3919 20.6099C13.5838 20.6096 13.7805 20.6093 13.9822 20.6093V22.3013C13.9822 22.6118 13.7302 22.8638 13.4197 22.8638Z" fill="currentColor"/>
</svg>
