<svg width="36" height="36" viewBox="0 0 36 36" fill="none" xmlns="http://www.w3.org/2000/svg">
<path fill-rule="evenodd" clip-rule="evenodd" d="M25.5 8.625H26.0625C26.3732 8.625 26.625 8.87684 26.625 9.1875C26.625 9.49816 26.3732 9.75 26.0625 9.75H25.5V10.3125C25.5 10.6232 25.2482 10.875 24.9375 10.875C24.6268 10.875 24.375 10.6232 24.375 10.3125V9.75H23.8125C23.5018 9.75 23.25 9.49816 23.25 9.1875C23.25 8.87684 23.5018 8.625 23.8125 8.625H24.375V8.0625C24.375 7.75184 24.6268 7.5 24.9375 7.5C25.2482 7.5 25.5 7.75184 25.5 8.0625V8.625ZM13.89 8.79375H14.0475H14.0925C14.2891 8.7959 14.4715 8.8967 14.578 9.06203C14.6844 9.22736 14.7007 9.43512 14.6213 9.615C13.4573 12.4679 13.7832 15.7123 15.4913 18.2767C17.1994 20.8412 20.0676 22.3921 23.1488 22.4175C23.5312 22.4175 23.6438 22.5075 23.7338 22.6875C23.8238 22.8675 23.8238 23.07 23.565 23.4075C21.8136 25.709 19.0884 27.0612 16.1963 27.0638H15.7013C11.1095 26.8377 7.37517 23.2842 6.92163 18.7094C6.46809 14.1345 9.43202 9.91697 13.89 8.79375ZM12.7875 13.17C12.7876 12.1758 12.9316 11.1868 13.215 10.2338H13.17C9.84288 11.5645 7.7717 14.9085 8.0625 18.48C8.42871 22.5526 11.7205 25.7439 15.8025 25.9837H16.2413C18.4348 25.9899 20.5358 25.1 22.0575 23.52C16.782 22.9353 12.7896 18.4778 12.7875 13.17ZM8.0625 31.1138H7.5V30.5625C7.5 30.2518 7.24816 30 6.9375 30C6.62684 30 6.375 30.2518 6.375 30.5625V31.125H5.8125C5.50184 31.125 5.25 31.3768 5.25 31.6875C5.25 31.9982 5.50184 32.25 5.8125 32.25H6.375V32.8125C6.375 33.1232 6.62684 33.375 6.9375 33.375C7.24816 33.375 7.5 33.1232 7.5 32.8125V32.25H8.0625C8.37316 32.25 8.625 31.9982 8.625 31.6875C8.625 31.3768 8.37316 31.125 8.0625 31.125V31.1138ZM21.5625 13.1137H21V12.5625C21 12.2518 20.7482 12 20.4375 12C20.1268 12 19.875 12.2518 19.875 12.5625V13.125H19.3125C19.0018 13.125 18.75 13.3768 18.75 13.6875C18.75 13.9982 19.0018 14.25 19.3125 14.25H19.875V14.8125C19.875 15.1232 20.1268 15.375 20.4375 15.375C20.7482 15.375 21 15.1232 21 14.8125V14.25H21.5625C21.8732 14.25 22.125 13.9982 22.125 13.6875C22.125 13.3768 21.8732 13.125 21.5625 13.125V13.1137ZM30 17.625H30.5625C30.8732 17.625 31.125 17.8768 31.125 18.1875C31.125 18.4982 30.8732 18.75 30.5625 18.75H30V19.3125C30 19.6232 29.7482 19.875 29.4375 19.875C29.1268 19.875 28.875 19.6232 28.875 19.3125V18.75H28.3125C28.0018 18.75 27.75 18.4982 27.75 18.1875C27.75 17.8768 28.0018 17.625 28.3125 17.625H28.875V17.0625C28.875 16.7518 29.1268 16.5 29.4375 16.5C29.7482 16.5 30 16.7518 30 17.0625V17.625Z" fill="currentColor"/>
</svg>
