<svg width="36" height="36" viewBox="0 0 36 36" fill="none" xmlns="http://www.w3.org/2000/svg">
<path fill-rule="evenodd" clip-rule="evenodd" d="M21.9563 25.1036C21.9563 24.1842 21.6199 23.8215 21.1927 23.8215C20.7656 23.8215 20.4284 24.1842 20.4284 25.1036C20.4284 26.023 20.7656 26.3858 21.1927 26.3858C21.6199 26.3858 21.9563 26.023 21.9563 25.1036ZM18.8749 25.1036C18.8749 23.5369 19.8462 22.5919 21.1927 22.5919C22.5393 22.5919 23.523 23.5369 23.523 25.1036C23.523 26.6835 22.5393 27.6153 21.1927 27.6153C19.8462 27.6153 18.8749 26.6835 18.8749 25.1036ZM15.5608 20.8314C15.5608 19.912 15.2368 19.5492 14.7972 19.5492C14.3825 19.5492 14.0329 19.912 14.0329 20.8314C14.0329 21.7501 14.3825 22.1129 14.7972 22.1129C15.2368 22.1129 15.5608 21.7501 15.5608 20.8314ZM20.1563 18.436H22.0214L15.8329 27.499H13.9678L20.1563 18.436ZM12.4793 20.8314C12.4793 19.2647 13.4631 18.3197 14.7972 18.3197C16.143 18.3197 17.1275 19.2647 17.1275 20.8314C17.1275 22.4105 16.143 23.3431 14.7972 23.3431C13.4631 23.3431 12.4793 22.4105 12.4793 20.8314ZM18.0063 4.20085C15.9128 6.88908 8.38462 17.0307 8.38462 23.8575C8.38462 29.1627 12.7005 33.4785 18.0056 33.4785C23.3101 33.4785 27.6259 29.1627 27.6259 23.8575C27.6259 16.9898 20.1012 6.88146 18.0063 4.20085ZM18.0056 34.8632C11.9368 34.8632 7 29.9256 7 23.8575C7 15.4723 17.0433 3.16792 17.4705 2.64869L18.0042 2L18.5394 2.64731C18.9665 3.16515 29.0105 15.4273 29.0105 23.8575C29.0105 29.9256 24.0737 34.8632 18.0056 34.8632Z" fill="currentColor"/>
</svg>
