<svg width="36" height="36" viewBox="0 0 36 36" fill="none" xmlns="http://www.w3.org/2000/svg">
<path fill-rule="evenodd" clip-rule="evenodd" d="M17.4375 7.3125V2.8125C17.4375 2.502 17.6895 2.25 18 2.25C18.3105 2.25 18.5625 2.502 18.5625 2.8125V7.3125C18.5625 7.623 18.3105 7.875 18 7.875C17.6895 7.875 17.4375 7.623 17.4375 7.3125ZM9 18C9 13.0376 13.0376 9 18 9C22.9624 9 27 13.0376 27 18C27 18.8066 26.8931 19.6054 26.6828 20.3749C26.6006 20.6753 26.2868 20.8474 25.992 20.7698C25.6916 20.6876 25.5161 20.3783 25.5971 20.079C25.7816 19.4062 25.875 18.7065 25.875 18C25.875 13.6575 22.3425 10.125 18 10.125C13.6575 10.125 10.125 13.6575 10.125 18C10.125 22.3425 13.6575 25.875 18 25.875C18.7178 25.875 19.4299 25.7782 20.1173 25.587C20.4154 25.5049 20.727 25.6793 20.8102 25.9785C20.8935 26.2778 20.718 26.5883 20.4188 26.6715C19.6335 26.8897 18.8201 27 18 27C13.0376 27 9 22.9624 9 18ZM6.86329 7.65866L10.0448 10.8413C10.155 10.9504 10.299 11.0055 10.443 11.0055C10.587 11.0055 10.731 10.9504 10.8413 10.8413C11.0607 10.6208 11.0607 10.2653 10.8413 10.0448L7.65866 6.86329C7.43929 6.64391 7.08266 6.64391 6.86329 6.86329C6.64391 7.08266 6.64391 7.43929 6.86329 7.65866ZM2.8125 18.5625C2.502 18.5625 2.25 18.3105 2.25 18C2.25 17.6895 2.502 17.4375 2.8125 17.4375H7.3125C7.623 17.4375 7.875 17.6895 7.875 18C7.875 18.3105 7.623 18.5625 7.3125 18.5625H2.8125ZM6.86261 28.3409C6.64324 28.5614 6.64324 28.9169 6.86261 29.1374C6.97286 29.2465 7.11686 29.3016 7.26086 29.3016C7.40486 29.3016 7.54886 29.2465 7.65911 29.1374L10.8406 25.9548C11.06 25.7354 11.06 25.3788 10.8406 25.1594C10.6212 24.94 10.2646 24.94 10.0452 25.1594L6.86261 28.3409ZM17.4375 33.1875V28.6875C17.4375 28.377 17.6895 28.125 18 28.125C18.3105 28.125 18.5625 28.377 18.5625 28.6875V33.1875C18.5625 33.498 18.3105 33.75 18 33.75C17.6895 33.75 17.4375 33.498 17.4375 33.1875ZM25.1594 25.9548L28.3409 29.1374C28.4511 29.2465 28.5951 29.3016 28.7391 29.3016C28.8831 29.3016 29.0271 29.2465 29.1374 29.1374C29.3568 28.9169 29.3568 28.5614 29.1374 28.3409L25.9548 25.1594C25.7354 24.94 25.3788 24.94 25.1594 25.1594C24.94 25.3788 24.94 25.7354 25.1594 25.9548ZM28.6875 18.5625C28.377 18.5625 28.125 18.3105 28.125 18C28.125 17.6895 28.377 17.4375 28.6875 17.4375H33.1875C33.498 17.4375 33.75 17.6895 33.75 18C33.75 18.3105 33.498 18.5625 33.1875 18.5625H28.6875ZM25.1587 10.0448C24.9393 10.2653 24.9393 10.6208 25.1587 10.8413C25.269 10.9504 25.413 11.0055 25.557 11.0055C25.701 11.0055 25.845 10.9504 25.9552 10.8413L29.1367 7.65866C29.3561 7.43929 29.3561 7.08266 29.1367 6.86329C28.9173 6.64391 28.5607 6.64391 28.3413 6.86329L25.1587 10.0448Z" fill="currentColor"/>
</svg>
