<svg width="36" height="36" viewBox="0 0 36 36" fill="none" xmlns="http://www.w3.org/2000/svg">
<path d="M32.9902 16.0059C33.5574 16.0661 33.9999 16.5666 34 17.1748V28.3369L33.9941 28.457C33.9364 29.0494 33.4574 29.5117 32.875 29.5117H29.6289L29.5684 29.5186C29.5095 29.5322 29.456 29.5656 29.416 29.6143L26.8057 32.7939L26.748 32.8555C26.4667 33.1141 26.0187 33.0119 25.8662 32.6543L25.8379 32.5732L25.0586 29.7246C25.0284 29.6144 24.9396 29.534 24.834 29.5156L24.7881 29.5117H17.125L17.0098 29.5049C16.4805 29.4486 16.0597 29.0098 16.0059 28.457L16 28.3369V17.1748C16.0001 16.5666 16.4426 16.0661 17.0098 16.0059L17.125 16H32.875L32.9902 16.0059ZM17.4062 28.043H24.7881C25.4944 28.0431 26.1202 28.5019 26.3662 29.1826L26.4111 29.3213L26.7588 30.5938L28.3477 28.6582L28.4102 28.5879C28.7274 28.2414 29.1672 28.0431 29.6289 28.043H32.5938V17.4688H17.4062V28.043ZM25.0039 3.30762L25.1826 3.31641C26.0635 3.40775 26.75 4.153 26.75 5.05762V14.5H25.25V5.05762C25.25 4.93698 25.1645 4.83598 25.0508 4.8125L25.001 4.80762L3.00098 4.75293C2.86267 4.75259 2.75 4.86462 2.75 5.00293V23C2.75 23.1381 2.86193 23.25 3 23.25H14.5V24.75H3C2.0335 24.75 1.25 23.9665 1.25 23V5.00293C1.25 4.03489 2.03592 3.25077 3.00391 3.25293L25.0039 3.30762ZM30.0625 21.875C30.3731 21.875 30.6249 22.1376 30.625 22.4619C30.625 22.7864 30.3732 23.0498 30.0625 23.0498H19.9375C19.6268 23.0498 19.375 22.7864 19.375 22.4619C19.3751 22.1376 19.6269 21.875 19.9375 21.875H30.0625ZM14 21H5V19H14V21ZM30.0625 19.5244C30.3732 19.5244 30.625 19.7879 30.625 20.1123C30.625 20.4367 30.3731 20.6992 30.0625 20.6992H19.9375C19.6269 20.6992 19.375 20.4367 19.375 20.1123C19.375 19.7879 19.6268 19.5244 19.9375 19.5244H30.0625ZM14 18H5V16H14V18ZM22.1025 7.00489C22.6067 7.05622 23 7.48233 23 8V13L22.9951 13.1025C22.9472 13.573 22.573 13.9472 22.1025 13.9951L22 14H6L5.89746 13.9951C5.42703 13.9472 5.05278 13.573 5.00488 13.1025L5 13V8C5 7.48233 5.39333 7.05622 5.89746 7.00489L6 7H22L22.1025 7.00489ZM6.5 12.5H21.5V8.5H6.5V12.5Z" fill="currentColor"/>
</svg>
