<svg width="36" height="36" viewBox="0 0 36 36" fill="none" xmlns="http://www.w3.org/2000/svg">
<path fill-rule="evenodd" clip-rule="evenodd" d="M18 35C27.3888 35 35 27.3888 35 18C35 8.61116 27.3888 1 18 1C8.61116 1 1 8.61116 1 18C1 27.3888 8.61116 35 18 35ZM18 36C27.9411 36 36 27.9411 36 18C36 8.05887 27.9411 0 18 0C8.05887 0 0 8.05887 0 18C0 27.9411 8.05887 36 18 36ZM28.3726 16.5964H27.8723V16.4913V16.1243C27.8723 15.4564 27.8851 14.788 27.8723 14.1071C27.8723 14.0025 27.7472 13.8056 27.697 13.8056C27.1219 13.7793 26.5331 13.7793 25.9206 13.7793V16.1243V16.5696H23.229V17.0809C23.2545 17.5787 23.2673 18.0895 23.3043 18.5874C23.7676 18.6136 24.2308 18.6394 24.7179 18.6394C25.1072 18.6528 25.5066 18.6394 25.932 18.6394V21.391C26.5961 21.3777 27.2086 21.391 27.8723 21.391V18.6394H30.5V17.0809V16.5964H28.3726ZM20.8012 16.3475C19.137 16.3733 17.4724 16.3733 15.8082 16.3733C15.3331 16.3733 14.8447 16.3475 14.381 16.3733C14.2814 16.3733 14.1313 16.4913 14.1313 16.5567C14.1185 17.5658 14.1185 18.5745 14.1185 19.6222H18.1858C18.1488 19.8315 18.1114 19.9887 18.0484 20.133C17.4345 22.0719 15.5198 23.0284 13.4548 22.6749C10.902 22.2296 9.32546 19.7661 9.78829 17.0943C9.83895 16.7139 9.96356 16.3475 10.0886 16.0063C10.9394 14.0679 13.0294 12.8887 15.0948 13.3732C15.8329 13.5438 16.4719 13.8978 17.0091 14.4081C17.7599 13.6221 18.4738 12.8754 19.2493 12.0636C19.1991 12.0239 19.1119 11.9585 19.0622 11.893C17.2597 10.3077 15.1943 9.71811 12.8793 10.1242C9.53725 10.6875 7.13548 13.4391 6.62245 16.648C6.38464 18.0107 6.4846 19.4651 6.99809 20.8798C8.27475 24.2731 11.5401 26.3558 15.0446 25.9496C16.759 25.7533 18.2862 25.1111 19.4625 23.7881C21.2261 21.823 21.689 19.4651 21.4023 16.8582C21.3516 16.4258 21.1896 16.3475 20.8012 16.3475Z" fill="currentColor"/>
</svg>
