<svg width="36" height="36" viewBox="0 0 36 36" fill="none" xmlns="http://www.w3.org/2000/svg">
<path d="M23.957 2.07132L24.1455 2.0762C26.072 2.17862 27.6006 3.73075 27.6006 5.62796V18.251H30.3428C32.3626 18.251 34 19.8436 34 21.8076V30.4434C34 32.3461 32.4635 33.9008 30.5312 33.9961L30.3428 34H5.65723C3.63739 34 2 32.4075 2 30.4434V5.55667C2.0001 3.58727 3.64566 1.99243 5.6709 2.00003L23.957 2.07132ZM5.66406 3.77835C4.65143 3.7745 3.82823 4.57198 3.82812 5.55667V30.4434L3.83789 30.625C3.92515 31.462 4.60909 32.1269 5.46973 32.2119L5.65723 32.2217H25.9307C25.8294 31.9435 25.7715 31.645 25.7715 31.333V5.62796C25.7715 4.7099 25.056 3.95355 24.1367 3.8594L23.9502 3.84964L5.66406 3.77835ZM27.6006 31.333C27.6007 31.8239 28.0098 32.2217 28.5146 32.2217H30.3428L30.5303 32.2119C31.3909 32.1269 32.0748 31.462 32.1621 30.625L32.1719 30.4434V21.8076C32.1719 20.887 31.4523 20.1292 30.5303 20.0381L30.3428 20.0293H27.6006V31.333ZM23.0283 26.8867H6.57129V25.1094H23.0283V26.8867ZM23.0283 22.4414H6.57129V20.6641H23.0283V22.4414ZM23.1221 5.55374C23.583 5.59938 23.9433 5.97826 23.9434 6.4385V16.2188L23.9385 16.3096C23.8947 16.7278 23.5522 17.061 23.1221 17.1035L23.0283 17.1074H6.57129L6.47754 17.1035C6.04742 17.061 5.70493 16.7278 5.66113 16.3096L5.65723 16.2188V6.4385C5.65724 5.97826 6.01661 5.59938 6.47754 5.55374L6.57129 5.54983H23.0283L23.1221 5.55374ZM7.48535 15.3291H22.1143V7.32718H7.48535V15.3291Z" fill="currentColor"/>
</svg>
