<svg width="36" height="36" viewBox="0 0 36 36" fill="none" xmlns="http://www.w3.org/2000/svg">
<path d="M27 15C27.5523 15 28 15.4477 28 16C28 16.5523 27.5523 17 27 17H9C8.44772 17 8 16.5523 8 16C8 15.4477 8.44772 15 9 15H27Z" fill="currentColor"/>
<path d="M27 11C27.5523 11 28 11.4477 28 12C28 12.5523 27.5523 13 27 13H9C8.44772 13 8 12.5523 8 12C8 11.4477 8.44772 11 9 11H27Z" fill="currentColor"/>
<path fill-rule="evenodd" clip-rule="evenodd" d="M32.2041 5.01074C33.2128 5.113 34 5.96435 34 7V26L33.9893 26.2041C33.887 27.2128 33.0357 28 32 28H26.2295L26.1221 28.0117C26.0172 28.0349 25.9217 28.0918 25.8506 28.1748L21.21 33.5879L21.1074 33.6924C20.6071 34.1327 19.8101 33.9585 19.5391 33.3496L19.4893 33.2119L18.1035 28.3623C18.0498 28.1747 17.8929 28.0381 17.7051 28.0068L17.623 28H4L3.7959 27.9893C2.85435 27.8938 2.1062 27.1457 2.01074 26.2041L2 26V7C2 5.96435 2.78722 5.113 3.7959 5.01074L4 5H32L32.2041 5.01074ZM4.5 25.5H17.623C18.8787 25.5001 19.9913 26.2807 20.4287 27.4395L20.5078 27.6758L21.126 29.8428L23.9521 26.5479L24.0625 26.4268C24.6266 25.8369 25.4086 25.5001 26.2295 25.5H31.5V7.5H4.5V25.5Z" fill="currentColor"/>
</svg>
