<svg width="36" height="36" viewBox="0 0 36 36" fill="none" xmlns="http://www.w3.org/2000/svg">
<path d="M29.2292 18.4317C29.6621 18.4763 30 18.8464 30 19.2963V27.5515L29.9955 27.6403C29.9515 28.0784 29.5858 28.4203 29.1412 28.4203H26.6633L26.6171 28.4254C26.5721 28.4355 26.5313 28.4602 26.5008 28.4962L24.5081 30.8478L24.4642 30.8933C24.2494 31.0846 23.9074 31.009 23.791 30.7445L23.7694 30.6845L23.1745 28.5778C23.1514 28.4962 23.0837 28.4368 23.003 28.4232L22.968 28.4203H17.1183L17.0304 28.4153C16.6263 28.3736 16.3051 28.0491 16.264 27.6403L16.2595 27.5515V19.2963C16.2596 18.8464 16.5974 18.4763 17.0304 18.4317L17.1183 18.4274H29.1412L29.2292 18.4317ZM17.333 27.3341H22.968C23.5071 27.3341 23.9849 27.6735 24.1727 28.1769L24.207 28.2795L24.4724 29.2206L25.6852 27.7891L25.7329 27.7371C25.9751 27.4808 26.3109 27.3342 26.6633 27.3341H28.9265V19.5137H17.333V27.3341ZM23.1328 9.04045L23.2692 9.04695C23.9416 9.1145 24.4656 9.66567 24.4656 10.3347V17.318H23.3206V10.3347C23.3206 10.2455 23.2554 10.1708 23.1685 10.1534L23.1305 10.1498L6.33662 10.1094C6.23104 10.1091 6.14504 10.192 6.14504 10.2943V23.6044C6.14504 23.7065 6.23048 23.7893 6.33588 23.7893H15.1145V24.8987H6.33588C5.59809 24.8987 5 24.3192 5 23.6044V10.2943C5 9.57831 5.59994 8.9984 6.33886 9L23.1328 9.04045ZM26.9943 22.7724C27.2314 22.7724 27.4236 22.9666 27.4237 23.2065C27.4237 23.4464 27.2314 23.6413 26.9943 23.6413H19.2653C19.0281 23.6413 18.8359 23.4464 18.8359 23.2065C18.8359 22.9666 19.0282 22.7724 19.2653 22.7724H26.9943ZM14.7328 22.1253H7.8626V20.6461H14.7328V22.1253ZM26.9943 21.034C27.2314 21.034 27.4237 21.2288 27.4237 21.4688C27.4236 21.7087 27.2314 21.9028 26.9943 21.9028H19.2653C19.0281 21.9028 18.8359 21.7087 18.8359 21.4688C18.8359 21.2288 19.0281 21.034 19.2653 21.034H26.9943ZM14.7328 19.9066H7.8626V18.4274H14.7328V19.9066ZM20.918 11.7748C21.3028 11.8128 21.6031 12.128 21.6031 12.5108V16.2087L21.5993 16.2845C21.5628 16.6324 21.2771 16.9092 20.918 16.9446L20.8397 16.9483H8.62595L8.54768 16.9446C8.18858 16.9092 7.90289 16.6324 7.86632 16.2845L7.8626 16.2087V12.5108C7.8626 12.128 8.16285 11.8128 8.54768 11.7748L8.62595 11.7712H20.8397L20.918 11.7748ZM9.00763 15.8389H20.458V12.8806H9.00763V15.8389Z" fill="currentColor"/>
<path fill-rule="evenodd" clip-rule="evenodd" d="M18 35C27.3888 35 35 27.3888 35 18C35 8.61116 27.3888 1 18 1C8.61116 1 1 8.61116 1 18C1 27.3888 8.61116 35 18 35ZM18 36C27.9411 36 36 27.9411 36 18C36 8.05887 27.9411 0 18 0C8.05887 0 0 8.05887 0 18C0 27.9411 8.05887 36 18 36Z" fill="currentColor"/>
</svg>
