<svg width="36" height="36" viewBox="0 0 36 36" fill="none" xmlns="http://www.w3.org/2000/svg">
<path fill-rule="evenodd" clip-rule="evenodd" d="M35 18C35 27.3888 27.3888 35 18 35C8.61116 35 1 27.3888 1 18C1 8.61116 8.61116 1 18 1C27.3888 1 35 8.61116 35 18ZM36 18C36 27.9411 27.9411 36 18 36C8.05887 36 0 27.9411 0 18C0 8.05887 8.05887 0 18 0C27.9411 0 36 8.05887 36 18ZM21.3673 11.9867H22.9974H23V9.12721C22.7168 9.08746 21.75 9 20.6224 9C18.2704 9 16.6607 10.492 16.6607 13.2297V15.5883H14V18.7898H16.6607V27H19.8418V18.7871H22.4949L22.8929 15.5883H19.8418V13.5451C19.8418 12.6175 20.0893 11.9867 21.3673 11.9867Z" fill="currentColor"/>
</svg>
