<svg width="36" height="36" viewBox="0 0 36 36" fill="none" xmlns="http://www.w3.org/2000/svg">
<path d="M23.0957 6.04885L23.2246 6.05275C24.549 6.12317 25.5996 7.18983 25.5996 8.49416V17.1729H27.4854C28.8739 17.1729 29.9998 18.267 30 19.6172V25.5547C30 26.8628 28.9437 27.9315 27.6152 27.9971L27.4854 28H10.5137C9.12514 27.9999 8 26.905 8 25.5547V8.44533C8.00007 7.09142 9.13116 5.99488 10.5234 6.00002L23.0957 6.04885ZM10.5186 7.22267C9.82249 7.22017 9.25691 7.76844 9.25684 8.44533V25.5547L9.26367 25.6797C9.32368 26.2552 9.79389 26.7122 10.3857 26.7705L10.5137 26.7774H24.4521C24.3826 26.586 24.3428 26.3805 24.3428 26.166V8.49416C24.3428 7.86299 23.8507 7.34307 23.2188 7.27834L23.0908 7.2715L10.5186 7.22267ZM25.5996 26.166C25.5996 26.5036 25.8814 26.7773 26.2285 26.7774H27.4854L27.6143 26.7705C28.206 26.7121 28.6763 26.2552 28.7363 25.6797L28.7432 25.5547V19.6172C28.743 18.9844 28.2481 18.4639 27.6143 18.4014L27.4854 18.3945H25.5996V26.166ZM22.457 23.1094H11.1426V21.8877H22.457V23.1094ZM22.457 20.0537H11.1426V18.8311H22.457V20.0537ZM22.5215 8.44338C22.8384 8.47475 23.0859 8.73535 23.0859 9.05178V15.7754L23.083 15.8379C23.0529 16.1254 22.8172 16.3545 22.5215 16.3838L22.457 16.3867H11.1426L11.0781 16.3838C10.7825 16.3545 10.5477 16.1254 10.5176 15.8379L10.5137 15.7754V9.05178C10.5137 8.7354 10.7613 8.47482 11.0781 8.44338L11.1426 8.44045H22.457L22.5215 8.44338ZM11.7715 15.1641H21.8291V9.6631H11.7715V15.1641Z" fill="currentColor"/>
<path fill-rule="evenodd" clip-rule="evenodd" d="M18 35C27.3888 35 35 27.3888 35 18C35 8.61116 27.3888 1 18 1C8.61116 1 1 8.61116 1 18C1 27.3888 8.61116 35 18 35ZM18 36C27.9411 36 36 27.9411 36 18C36 8.05887 27.9411 0 18 0C8.05887 0 0 8.05887 0 18C0 27.9411 8.05887 36 18 36Z" fill="currentColor"/>
</svg>
