<svg width="36" height="36" viewBox="0 0 36 36" fill="none" xmlns="http://www.w3.org/2000/svg">
<path d="M13.2129 12.5732C13.7422 12.5732 14.1707 13.025 14.1709 13.5811C14.1709 14.1373 13.7423 14.5889 13.2129 14.5889H10.3408V29.7061H25.6592V14.5889H22.3086C21.7792 14.5889 21.3506 14.1373 21.3506 13.5811C21.3508 13.025 21.7793 12.5732 22.3086 12.5732H27.5732V31.7207H8.42676V12.5732H13.2129ZM23.9834 8.7666L22.2686 10.2002L19.0459 7.09277V21.1768C19.0457 21.7126 18.5774 22.1475 18 22.1475C17.4226 22.1475 16.9543 21.7126 16.9541 21.1768V7.0918L13.7314 10.2002L12.0166 8.7666L17.999 3L23.9834 8.7666Z" fill="currentColor"/>
</svg>
