<svg width="36" height="36" viewBox="0 0 36 36" fill="none" xmlns="http://www.w3.org/2000/svg">
<path fill-rule="evenodd" clip-rule="evenodd" d="M27.1947 10.8216C24.8003 8.39279 20.9276 8.39279 18.5331 10.8218L18 11.362L17.4667 10.8215C15.0724 8.39279 11.1997 8.39279 8.8052 10.8218C6.39827 13.2622 6.39827 17.2312 8.8052 19.6728L18 29L27.1948 19.6728C29.6018 17.2312 29.6018 13.2622 27.1947 10.8216ZM25.7313 12.267C27.4229 13.9439 27.4229 16.655 25.7313 18.3326L18 26L10.2687 18.3326C8.57711 16.655 8.57711 13.9439 10.2686 12.2672C11.9722 10.5776 14.7421 10.5776 16.4456 12.267L17.4775 13.2895L18 13.8072L19.5542 12.2673C21.2579 10.5776 24.0278 10.5776 25.7313 12.267Z" fill="currentColor"/>
</svg>
