<svg width="36" height="36" viewBox="0 0 36 36" fill="none" xmlns="http://www.w3.org/2000/svg">
<path d="M18.2515 8.55079C21.6255 5.15025 27.0826 5.14955 30.4565 8.54981C33.8483 11.9666 33.8479 17.5231 30.4565 20.9414L17.5005 34L4.54345 20.9414C1.15221 17.5232 1.15215 11.9674 4.54345 8.55079C7.9175 5.15026 13.3748 5.14975 16.7485 8.54981L17.5005 9.30665L18.2515 8.55079ZM28.394 10.5742C25.9936 8.20905 22.0907 8.20872 19.6899 10.5742L17.5005 12.7305L16.7642 12.0049L15.3101 10.5742C12.9097 8.20905 9.00652 8.20888 6.60595 10.5742C4.22252 12.9216 4.22241 16.7168 6.60595 19.0654L17.5005 29.7998L28.394 19.0654C30.7777 16.7168 30.7777 12.9218 28.394 10.5742Z" fill="currentColor"/>
</svg>
