<svg width="64" height="10" viewBox="0 0 64 10" fill="none" xmlns="http://www.w3.org/2000/svg">
<path d="M0 5.82324C2.68934 5.82324 4.04132 6.25396 5.90234 7.37695L6.41113 7.68457C8.03422 8.64431 9.1578 8.99999 11.2207 9C13.4728 9 14.6557 8.59576 16.6729 7.43945L16.9834 7.2627C18.8797 6.1951 20.0586 5.82327 22.3027 5.82324C24.2392 5.82324 25.5137 6.27074 27.4492 7.37988L28.126 7.76855L28.4863 7.96973C29.8005 8.68598 30.7695 9 32 9C33.2305 9 34.1995 8.68598 35.5137 7.96973L35.874 7.76855L36.5508 7.37988C38.4863 6.27074 39.7608 5.82324 41.6973 5.82324C43.9414 5.82327 45.1203 6.1951 47.0166 7.2627L47.3271 7.43945C49.3443 8.59576 50.5272 9 52.7793 9C54.8422 8.99999 55.9658 8.64431 57.5889 7.68457L58.0977 7.37695C59.9587 6.25396 61.3107 5.82324 64 5.82324V5.29395C61.3861 5.29395 59.9611 5.69747 58.1963 6.71289L57.6758 7.02246L57.5234 7.11523C55.8695 8.11511 54.8215 8.47069 52.7793 8.4707C50.7005 8.4707 49.5957 8.11858 47.7705 7.09082L47.4609 6.91406C45.3745 5.71803 44.117 5.29398 41.6973 5.29395C39.7408 5.29395 38.4196 5.73159 36.541 6.78516L35.4893 7.38574C34.1317 8.14757 33.1983 8.4707 32 8.4707C30.8017 8.4707 29.8683 8.14757 28.5107 7.38574L27.459 6.78516C25.5804 5.73159 24.2592 5.29395 22.3027 5.29395C19.883 5.29398 18.6255 5.71803 16.5391 6.91406L16.2295 7.09082C14.4043 8.11858 13.2995 8.4707 11.2207 8.4707C9.1785 8.47069 8.13051 8.11511 6.47656 7.11523L6.32422 7.02246L5.80371 6.71289C4.03886 5.69747 2.61388 5.29395 0 5.29395V5.82324Z" fill="#A68756"/>
<path d="M0 3.17676C2.68929 3.17676 4.04137 3.60655 5.90234 4.72949L6.41113 5.03711C8.03422 5.99685 9.1578 6.35253 11.2207 6.35254C13.4729 6.35254 14.6556 5.94837 16.6729 4.79199L16.9834 4.61523C18.8796 3.54771 20.0587 3.17679 22.3027 3.17676C24.2391 3.17676 25.5138 3.62335 27.4492 4.73242L28.126 5.12207L28.4863 5.32324C29.8005 6.03949 30.7695 6.35254 32 6.35254C33.2305 6.35254 34.1995 6.03949 35.5137 5.32324L35.874 5.12207L36.5508 4.73242C38.4862 3.62334 39.7609 3.17676 41.6973 3.17676C43.9413 3.17679 45.1204 3.54771 47.0166 4.61523L47.3271 4.79199C49.3444 5.94837 50.5271 6.35254 52.7793 6.35254C54.8422 6.35253 55.9658 5.99685 57.5889 5.03711L58.0977 4.72949C59.9586 3.60654 61.3107 3.17676 64 3.17676V2.64746C61.3861 2.64746 59.9611 3.05001 58.1963 4.06543L57.6758 4.37598L57.5234 4.46777C55.8695 5.46764 54.8215 5.82323 52.7793 5.82324C50.7005 5.82324 49.5957 5.47112 47.7705 4.44336L47.4609 4.26758C45.3744 3.07147 44.1171 2.6475 41.6973 2.64746C39.7409 2.64746 38.4195 3.08419 36.541 4.1377L35.4893 4.73828C34.1316 5.50017 33.1984 5.82324 32 5.82324C30.8016 5.82324 29.8684 5.50018 28.5107 4.73828L27.459 4.1377C25.5805 3.08419 24.2591 2.64746 22.3027 2.64746C19.8829 2.6475 18.6256 3.07147 16.5391 4.26758L16.2295 4.44336C14.4043 5.47112 13.2995 5.82324 11.2207 5.82324C9.1785 5.82323 8.13051 5.46764 6.47656 4.46777L6.32422 4.37598L5.80371 4.06543C4.03886 3.05001 2.61388 2.64746 0 2.64746V3.17676Z" fill="#A68756"/>
<path d="M0 0.529297C2.68934 0.529297 4.04132 0.960018 5.90234 2.08301L6.41113 2.38965C8.03422 3.34939 9.1578 3.70605 11.2207 3.70605C13.4728 3.70605 14.6558 3.30178 16.6729 2.14551L16.9834 1.96875C18.8798 0.901121 20.0586 0.529329 22.3027 0.529297C24.2392 0.529297 25.5137 0.976759 27.4492 2.08594L28.126 2.47461L28.4863 2.67578C29.8005 3.39203 30.7695 3.70605 32 3.70605C33.2305 3.70605 34.1995 3.39203 35.5137 2.67578L35.874 2.47461L36.5508 2.08594C38.4863 0.976759 39.7608 0.529297 41.6973 0.529297C43.9414 0.529329 45.1202 0.901121 47.0166 1.96875L47.3271 2.14551C49.3442 3.30178 50.5272 3.70605 52.7793 3.70605C54.8422 3.70605 55.9658 3.34939 57.5889 2.38965L58.0977 2.08301C59.9587 0.960018 61.3107 0.529297 64 0.529297V0C61.3861 0 59.9611 0.403523 58.1963 1.41895L57.6758 1.72852L57.5234 1.82129C55.8695 2.82116 54.8215 3.17675 52.7793 3.17676C50.7005 3.17676 49.5957 2.82463 47.7705 1.79688L47.4609 1.62012C45.3745 0.424048 44.1171 3.45317e-05 41.6973 0C39.7408 0 38.4196 0.437611 36.541 1.49121L35.4893 2.0918C34.1318 2.85359 33.1983 3.17676 32 3.17676C30.8017 3.17676 29.8682 2.85359 28.5107 2.0918L27.459 1.49121C25.5804 0.437611 24.2592 0 22.3027 0C19.8829 3.45317e-05 18.6255 0.424048 16.5391 1.62012L16.2295 1.79688C14.4043 2.82463 13.2995 3.17676 11.2207 3.17676C9.1785 3.17675 8.13051 2.82116 6.47656 1.82129L6.32422 1.72852L5.80371 1.41895C4.03886 0.403523 2.61388 0 0 0V0.529297Z" fill="#A68756"/>
</svg>
