<svg width="64" height="19" viewBox="0 0 64 19" fill="none" xmlns="http://www.w3.org/2000/svg">
<path d="M64 11.6475C58.6213 11.6475 55.9174 12.5079 52.1953 14.7539L51.1768 15.3682C47.9306 17.2876 45.6844 18 41.5586 18C37.0542 18 34.6879 17.1918 30.6533 14.8789L30.0342 14.5254C26.241 12.3899 23.8823 11.6475 19.3936 11.6475C15.5207 11.6475 12.9717 12.5414 9.10059 14.7598L7.74707 15.5381L7.02637 15.9404C4.39832 17.3727 2.46076 18 0 18V16.9414C2.39685 16.9414 4.26406 16.2954 6.97949 14.7715L9.08105 13.5693C12.8382 11.4622 15.4808 10.5879 19.3936 10.5879C24.2335 10.5879 26.7489 11.436 30.9219 13.8281L31.541 14.1816C35.1915 16.2372 37.4009 16.9414 41.5586 16.9414C45.643 16.9414 47.738 16.2302 51.0459 14.2305L51.3516 14.0449L52.3926 13.4258C55.9223 11.3949 58.7722 10.5879 64 10.5879V11.6475Z" fill="#A68756"/>
<path d="M64 6.35254C58.6213 6.35254 55.9174 7.21398 52.1953 9.45996L51.1768 10.0742C47.9306 11.9937 45.6844 12.706 41.5586 12.7061C37.0542 12.7061 34.6879 11.8978 30.6533 9.58496L30.0342 9.23145C26.241 7.09592 23.8823 6.35254 19.3936 6.35254C15.5207 6.3526 12.9717 7.24743 9.10059 9.46582L7.74707 10.2441L7.02637 10.6455C4.39815 12.0779 2.46086 12.7061 0 12.7061V11.6475C2.39685 11.6475 4.26406 11.0015 6.97949 9.47754L9.08105 8.27539C12.8382 6.16822 15.4808 5.294 19.3936 5.29395C24.2335 5.29395 26.7488 6.14198 30.9219 8.53418L31.541 8.8877C35.1915 10.9432 37.4009 11.6475 41.5586 11.6475C45.6429 11.6474 47.7381 10.9362 51.0459 8.93652L51.3516 8.75098L52.3926 8.13184C55.9223 6.10099 58.7722 5.29395 64 5.29395V6.35254Z" fill="#A68756"/>
<path d="M64 1.05859C58.6213 1.05859 55.9174 1.92004 52.1953 4.16602L51.1768 4.78027C47.9307 6.69969 45.6843 7.41209 41.5586 7.41211C37.0542 7.41211 34.6879 6.60387 30.6533 4.29102L30.0342 3.9375C26.241 1.80197 23.8823 1.05859 19.3936 1.05859C15.5207 1.05865 12.9717 1.95348 9.10059 4.17188L7.74707 4.94922L7.02637 5.35156C4.39818 6.78396 2.46084 7.41211 0 7.41211V6.35254C2.39683 6.35254 4.2641 5.70749 6.97949 4.18359L9.08105 2.98145C12.8382 0.874278 15.4808 5.73859e-05 19.3936 0C24.2336 0 26.7488 0.847998 30.9219 3.24023L31.541 3.59375C35.1915 5.64927 37.4009 6.35254 41.5586 6.35254C45.6429 6.35252 47.7381 5.64223 51.0459 3.64258L51.3516 3.45703L52.3926 2.83789C55.9223 0.807046 58.7722 0 64 0V1.05859Z" fill="#A68756"/>
</svg>
