<svg width="64" height="19" viewBox="0 0 64 19" fill="none" xmlns="http://www.w3.org/2000/svg">
<path d="M0 11.6475C5.37869 11.6475 8.08263 12.5079 11.8047 14.7539L12.8232 15.3682C16.0694 17.2876 18.3156 18 22.4414 18C26.9458 18 29.3121 17.1918 33.3467 14.8789L33.9658 14.5254C37.759 12.3899 40.1177 11.6475 44.6064 11.6475C48.4793 11.6475 51.0283 12.5414 54.8994 14.7598L56.2529 15.5381L56.9736 15.9404C59.6017 17.3727 61.5392 18 64 18V16.9414C61.6031 16.9414 59.7359 16.2954 57.0205 14.7715L54.9189 13.5693C51.1618 11.4622 48.5192 10.5879 44.6064 10.5879C39.7665 10.5879 37.2511 11.436 33.0781 13.8281L32.459 14.1816C28.8085 16.2372 26.5991 16.9414 22.4414 16.9414C18.357 16.9414 16.262 16.2302 12.9541 14.2305L12.6484 14.0449L11.6074 13.4258C8.07772 11.3949 5.22776 10.5879 0 10.5879V11.6475Z" fill="#A68756"/>
<path d="M0 6.35254C5.37869 6.35254 8.08263 7.21398 11.8047 9.45996L12.8232 10.0742C16.0694 11.9937 18.3156 12.706 22.4414 12.7061C26.9458 12.7061 29.3121 11.8978 33.3467 9.58496L33.9658 9.23145C37.759 7.09592 40.1177 6.35254 44.6064 6.35254C48.4793 6.3526 51.0283 7.24743 54.8994 9.46582L56.2529 10.2441L56.9736 10.6455C59.6019 12.0779 61.5391 12.7061 64 12.7061V11.6475C61.6031 11.6475 59.7359 11.0015 57.0205 9.47754L54.9189 8.27539C51.1618 6.16822 48.5192 5.294 44.6064 5.29395C39.7665 5.29395 37.2512 6.14198 33.0781 8.53418L32.459 8.8877C28.8085 10.9432 26.5991 11.6475 22.4414 11.6475C18.3571 11.6474 16.2619 10.9362 12.9541 8.93652L12.6484 8.75098L11.6074 8.13184C8.07772 6.10099 5.22776 5.29395 0 5.29395V6.35254Z" fill="#A68756"/>
<path d="M0 1.05859C5.37869 1.05859 8.08263 1.92004 11.8047 4.16602L12.8232 4.78027C16.0693 6.69969 18.3157 7.41209 22.4414 7.41211C26.9458 7.41211 29.3121 6.60387 33.3467 4.29102L33.9658 3.9375C37.759 1.80197 40.1177 1.05859 44.6064 1.05859C48.4793 1.05865 51.0283 1.95348 54.8994 4.17188L56.2529 4.94922L56.9736 5.35156C59.6018 6.78396 61.5392 7.41211 64 7.41211V6.35254C61.6032 6.35254 59.7359 5.70749 57.0205 4.18359L54.9189 2.98145C51.1618 0.874278 48.5192 5.73859e-05 44.6064 0C39.7664 0 37.2512 0.847998 33.0781 3.24023L32.459 3.59375C28.8085 5.64927 26.5991 6.35254 22.4414 6.35254C18.3571 6.35252 16.2619 5.64223 12.9541 3.64258L12.6484 3.45703L11.6074 2.83789C8.07772 0.807046 5.22776 0 0 0V1.05859Z" fill="#A68756"/>
</svg>
