<svg width="36" height="36" viewBox="0 0 36 36" fill="none" xmlns="http://www.w3.org/2000/svg">
<path fill-rule="evenodd" clip-rule="evenodd" d="M35 18C35 27.3888 27.3888 35 18 35C8.61116 35 1 27.3888 1 18C1 8.61116 8.61116 1 18 1C27.3888 1 35 8.61116 35 18ZM36 18C36 27.9411 27.9411 36 18 36C8.05887 36 0 27.9411 0 18C0 8.05887 8.05887 0 18 0C27.9411 0 36 8.05887 36 18ZM22.6484 18.8359C22.6484 19.3062 23.0297 19.6875 23.5 19.6875C23.9703 19.6875 24.3516 19.3062 24.3516 18.8359V11.0196L27.5761 14.2441C27.916 14.584 28.4691 14.5776 28.801 14.2299C29.1222 13.8934 29.116 13.362 28.7871 13.0331L24.2071 8.45312C23.8166 8.0626 23.1834 8.0626 22.7929 8.45312L18.2129 13.0331C17.884 13.362 17.8778 13.8934 18.199 14.2299C18.5309 14.5776 19.084 14.584 19.4239 14.2441L22.6484 11.0196V18.8359ZM11.6484 16.8047C11.6484 16.3344 12.0297 15.9531 12.5 15.9531C12.9703 15.9531 13.3516 16.3344 13.3516 16.8047V24.621L16.5761 21.3965C16.916 21.0566 17.4691 21.063 17.801 21.4108C18.1222 21.7472 18.116 22.2786 17.7871 22.6075L13.2071 27.1875C12.8166 27.578 12.1834 27.578 11.7929 27.1875L7.21293 22.6075C6.884 22.2786 6.87782 21.7472 7.19901 21.4108C7.53094 21.063 8.08402 21.0566 8.42394 21.3965L11.6484 24.621V16.8047Z" fill="currentColor"/>
</svg>
