<svg width="36" height="36" viewBox="0 0 36 36" fill="none" xmlns="http://www.w3.org/2000/svg">
<path fill-rule="evenodd" clip-rule="evenodd" d="M18 35C27.3888 35 35 27.3888 35 18C35 8.61116 27.3888 1 18 1C8.61116 1 1 8.61116 1 18C1 27.3888 8.61116 35 18 35ZM18 36C27.9411 36 36 27.9411 36 18C36 8.05887 27.9411 0 18 0C8.05887 0 0 8.05887 0 18C0 27.9411 8.05887 36 18 36ZM9 26H12.1707C12.5825 27.1652 13.6938 28 15 28C16.3062 28 17.4175 27.1652 17.8293 26H27.75C28.3023 26 28.75 25.5523 28.75 25C28.75 24.4477 28.3023 24 27.75 24H17.8293C17.4175 22.8348 16.3062 22 15 22C13.6938 22 12.5825 22.8348 12.1707 24H9C8.44771 24 8 24.4477 8 25C8 25.5523 8.44771 26 9 26ZM10.1707 12H9C8.44771 12 8 11.5523 8 11C8 10.4477 8.44771 10 9 10H10.1707C10.5825 8.83481 11.6938 8 13 8C14.3062 8 15.4175 8.83481 15.8293 10H27.75C28.3023 10 28.75 10.4477 28.75 11C28.75 11.5523 28.3023 12 27.75 12H15.8293C15.4175 13.1652 14.3062 14 13 14C11.6938 14 10.5825 13.1652 10.1707 12ZM26.8293 19H27.75C28.3023 19 28.75 18.5523 28.75 18C28.75 17.4477 28.3023 17 27.75 17H26.8293C26.4175 15.8348 25.3062 15 24 15C22.6938 15 21.5825 15.8348 21.1707 17H9C8.44771 17 8 17.4477 8 18C8 18.5523 8.44771 19 9 19H21.1707C21.5825 20.1652 22.6938 21 24 21C25.3062 21 26.4175 20.1652 26.8293 19Z" fill="currentColor"/>
</svg>
