<svg width="36" height="36" viewBox="0 0 36 36" fill="none" xmlns="http://www.w3.org/2000/svg">
<path d="M7.58398 2C8.67054 2.00006 9.74202 2.25335 10.7139 2.73926L10.8945 2.8291C11.5721 3.1679 12 3.86064 12 4.61816V8.58398C11.9999 9.67054 11.7467 10.742 11.2607 11.7139L10.1709 13.8945C9.87625 14.4838 9.31371 14.8832 8.67383 14.9775L8 17H7.48828C7.48912 17.0105 7.49142 17.0378 7.50195 17.082C7.51523 17.1377 7.53813 17.2089 7.57129 17.29C7.63796 17.453 7.74413 17.6433 7.89844 17.8232C8.19787 18.1723 8.69111 18.5 9.5 18.5C10.609 18.5 11.5158 17.9939 12.2041 16.8018L12.6533 16.0449C13.7164 14.3059 14.8956 12.7605 16.3848 11.6094C18.1008 10.2829 20.2008 9.50007 22.9434 9.5C29.2609 9.50027 34.5008 13.6136 34.501 20.0566L34.5068 21.4434C34.5102 21.8763 34.5142 22.281 34.5186 22.6592C34.5273 23.4142 34.5364 24.0682 34.5352 24.6299C34.5328 25.7319 34.4946 26.5545 34.3135 27.1377C34.2186 27.4429 34.0771 27.7105 33.8594 27.9248C33.6407 28.14 33.377 28.2701 33.0889 28.3506C32.7842 28.4356 32.4188 28.4696 32 28.4854V29L31 29.5V32C31 33.1046 30.1046 34 29 34H3C1.89543 34 1 33.1046 1 32V22C1 20.8954 1.89543 20 3 20H29C30.1046 20 31 20.8954 31 22V26.5L32 27V27.4854C32.3504 27.4716 32.6131 27.4452 32.8193 27.3877C32.9891 27.3403 33.0892 27.2798 33.1582 27.2119C33.2281 27.1431 33.2982 27.0348 33.3584 26.8408C33.4875 26.4252 33.5327 25.7553 33.5352 24.6279C33.5364 24.0749 33.5274 23.4296 33.5186 22.6709C33.5098 21.9136 33.501 21.0466 33.501 20.0566C33.5008 14.2872 28.8383 10.5003 22.9434 10.5C20.4127 10.5001 18.5297 11.2158 16.9961 12.4014C15.642 13.4482 14.5391 14.8771 13.5078 16.5635L13.0693 17.3018C12.2221 18.7691 11.0039 19.5 9.5 19.5C8.37611 19.5 7.61335 19.0268 7.13965 18.4746C6.90757 18.204 6.74795 17.9186 6.64551 17.668C6.54851 17.4307 6.48833 17.1894 6.4873 17H6L5.3252 14.9775C4.68571 14.8829 4.12361 14.4835 3.8291 13.8945L2.73926 11.7139C2.31403 10.8634 2.06679 9.93666 2.01172 8.99023L2 8.58398V4.61816C2 3.86064 2.42793 3.16789 3.10547 2.8291L3.28613 2.73926C4.25798 2.25335 5.32946 2.00006 6.41602 2H7.58398ZM3 21C2.44772 21 2 21.4477 2 22V32L2.00488 32.1025C2.05278 32.573 2.42703 32.9472 2.89746 32.9951L3 33H29L29.1025 32.9951C29.6067 32.9438 30 32.5177 30 32V22C30 21.4477 29.5523 21 29 21H3ZM20.5 23C21.3284 23 22 23.6716 22 24.5V29.5C22 30.3284 21.3284 31 20.5 31H12.5C11.6716 31 11 30.3284 11 29.5V24.5C11 23.6716 11.6716 23 12.5 23H20.5ZM12.5 24C12.2239 24 12 24.2239 12 24.5V29.5L12.0098 29.6006C12.0563 29.8286 12.2583 30 12.5 30H20.5L20.6006 29.9902C20.8286 29.9437 21 29.7417 21 29.5V24.5C21 24.2583 20.8286 24.0563 20.6006 24.0098L20.5 24H12.5ZM8.5 28.001C8.77614 28.001 9 28.2248 9 28.501C8.9999 28.777 8.77608 29.001 8.5 29.001H4.5C4.22392 29.001 4.0001 28.777 4 28.501C4 28.2248 4.22386 28.001 4.5 28.001H8.5ZM26 25.001C27.1046 25.001 28 25.8964 28 27.001C27.9999 28.1055 27.1045 29.001 26 29.001C24.8955 29.001 24.0001 28.1055 24 27.001C24 25.8964 24.8954 25.001 26 25.001ZM8.5 26C8.77614 26 9 26.2239 9 26.5C9 26.7761 8.77614 27 8.5 27H4.5C4.22386 27 4 26.7761 4 26.5C4 26.2239 4.22386 26 4.5 26H8.5ZM8.5 23.999C8.77608 23.999 8.9999 24.223 9 24.499C9 24.7752 8.77614 24.999 8.5 24.999H4.5C4.22386 24.999 4 24.7752 4 24.499C4.0001 24.223 4.22392 23.999 4.5 23.999H8.5ZM6.41602 3C5.48471 3.00006 4.56639 3.21731 3.7334 3.63379L3.55273 3.72363L3.43164 3.79492C3.16371 3.97986 3 4.28673 3 4.61816V8.58398L3.00977 8.93262C3.05702 9.74368 3.26938 10.5378 3.63379 11.2666L4.72363 13.4473C4.87182 13.7436 5.15532 13.9446 5.47754 13.9902L5.61816 14H8.38184C8.71327 14 9.02014 13.8363 9.20508 13.5684L9.27637 13.4473L10.3662 11.2666C10.7306 10.5378 10.943 9.74368 10.9902 8.93262L11 8.58398V4.61816C11 4.28673 10.8363 3.97986 10.5684 3.79492L10.4473 3.72363L10.2666 3.63379C9.53776 3.26938 8.74368 3.05702 7.93262 3.00977L7.58398 3H6.41602ZM9 9C9.27614 9 9.5 9.22386 9.5 9.5C9.5 9.77614 9.27614 10 9 10H5C4.72386 10 4.5 9.77614 4.5 9.5C4.5 9.22386 4.72386 9 5 9H9ZM9 7C9.27614 7 9.5 7.22386 9.5 7.5C9.5 7.77614 9.27614 8 9 8H5C4.72386 8 4.5 7.77614 4.5 7.5C4.5 7.22386 4.72386 7 5 7H9ZM9 5C9.27614 5 9.5 5.22386 9.5 5.5C9.5 5.77614 9.27614 6 9 6H5C4.72386 6 4.5 5.77614 4.5 5.5C4.5 5.22386 4.72386 5 5 5H9Z" fill="currentColor"/>
</svg>
