<svg width="36" height="36" viewBox="0 0 36 36" fill="none" xmlns="http://www.w3.org/2000/svg">
<path fill-rule="evenodd" clip-rule="evenodd" d="M35 18C35 27.3888 27.3888 35 18 35C8.61116 35 1 27.3888 1 18C1 8.61116 8.61116 1 18 1C27.3888 1 35 8.61116 35 18ZM36 18C36 27.9411 27.9411 36 18 36C8.05887 36 0 27.9411 0 18C0 8.05887 8.05887 0 18 0C27.9411 0 36 8.05887 36 18ZM24 19C24.5523 19 25 18.5523 25 18C25 17.4477 24.5523 17 24 17H19V12C19 11.4477 18.5523 11 18 11C17.4477 11 17 11.4477 17 12V17H12C11.4477 17 11 17.4477 11 18C11 18.5523 11.4477 19 12 19H17V24C17 24.5523 17.4477 25 18 25C18.5523 25 19 24.5523 19 24V19H24Z" fill="currentColor"/>
</svg>
