<svg width="36" height="36" viewBox="0 0 36 36" fill="none" xmlns="http://www.w3.org/2000/svg">
<path d="M28.7871 23.5C29.0633 23.5 29.2871 23.7239 29.2871 24C29.2871 24.1 29.2566 24.1924 29.2061 24.2705C29.6542 24.4166 30.0765 24.6193 30.4658 24.8691L30.7275 24.6084C31.0204 24.3156 31.4952 24.3155 31.7881 24.6084C32.0807 24.9013 32.0808 25.3761 31.7881 25.6689L31.6094 25.8467C32.4737 26.8182 33 28.0973 33 29.5C33 32.5376 30.5376 35 27.5 35C24.4624 35 22 32.5376 22 29.5C22 28.0023 22.5993 26.6452 23.5703 25.6533L23.4092 25.4922C23.1163 25.1993 23.1163 24.7245 23.4092 24.4316C23.7021 24.1388 24.1769 24.1388 24.4697 24.4316L24.7656 24.7275C25.1077 24.5311 25.4723 24.3689 25.8555 24.249C25.813 24.1755 25.7871 24.091 25.7871 24C25.7871 23.7239 26.011 23.5 26.2871 23.5H28.7871ZM27.5 25C25.0147 25 23 27.0147 23 29.5C23 31.9853 25.0147 34 27.5 34C29.9853 34 32 31.9853 32 29.5C32 27.0147 29.9853 25 27.5 25ZM24.6602 27.1387C24.8197 26.982 25.0756 26.9842 25.2324 27.1436L27.3506 29.2988C27.4128 29.2835 27.478 29.2754 27.5449 29.2754C27.6171 29.2754 27.6873 29.285 27.7539 29.3027L28.5957 28.4629C28.7538 28.305 29.0098 28.3051 29.168 28.4629C29.326 28.6211 29.3261 28.878 29.168 29.0361L28.3262 29.876C28.3441 29.9429 28.3555 30.0134 28.3555 30.0859C28.3551 30.533 27.9921 30.8955 27.5449 30.8955C27.0979 30.8953 26.7358 30.5329 26.7354 30.0859C26.7354 30.0083 26.7462 29.9324 26.7666 29.8613L24.6553 27.7109C24.4987 27.5515 24.501 27.2955 24.6602 27.1387ZM27 8.9082V21.8018C26.9921 21.8024 24.3285 22.0347 22.3154 24.0479L22.1211 24.249C20.1753 26.3497 20 29 20 29H4L3.89746 28.9951C3.42703 28.9472 3.05278 28.573 3.00488 28.1025L3 28V2C3 1.44772 3.44772 1 4 1H19.2705L27 8.9082ZM4 28H19.1465C19.2063 27.7178 19.2899 27.3834 19.4082 27.0156C19.753 25.9438 20.3993 24.55 21.6084 23.3408C22.7575 22.1917 24.0795 21.5626 25.0947 21.2207C25.4313 21.1074 25.7384 21.0246 26 20.9639V9.31543L25.6914 9H19.4961L19.3955 8.99023C19.2002 8.95027 19.0468 8.79587 19.0068 8.60059L18.9961 8.5L19 2.20605C19 2.18976 19.0015 2.17388 19.0029 2.1582L18.8486 2H4V28ZM8 22.25C8.41421 22.25 8.75 22.5858 8.75 23C8.75 23.4142 8.41421 23.75 8 23.75H7C6.58579 23.75 6.25 23.4142 6.25 23C6.25 22.5858 6.58579 22.25 7 22.25H8ZM19 22.25C19.4142 22.25 19.75 22.5858 19.75 23C19.75 23.4142 19.4142 23.75 19 23.75H11C10.5858 23.75 10.25 23.4142 10.25 23C10.25 22.5858 10.5858 22.25 11 22.25H19ZM8 18.25C8.41421 18.25 8.75 18.5858 8.75 19C8.75 19.4142 8.41421 19.75 8 19.75H7C6.58579 19.75 6.25 19.4142 6.25 19C6.25 18.5858 6.58579 18.25 7 18.25H8ZM19 18.25C19.4142 18.25 19.75 18.5858 19.75 19C19.75 19.4142 19.4142 19.75 19 19.75H11C10.5858 19.75 10.25 19.4142 10.25 19C10.25 18.5858 10.5858 18.25 11 18.25H19ZM8 14.25C8.41421 14.25 8.75 14.5858 8.75 15C8.75 15.4142 8.41421 15.75 8 15.75H7C6.58579 15.75 6.25 15.4142 6.25 15C6.25 14.5858 6.58579 14.25 7 14.25H8ZM19 14.25C19.4142 14.25 19.75 14.5858 19.75 15C19.75 15.4142 19.4142 15.75 19 15.75H11C10.5858 15.75 10.25 15.4142 10.25 15C10.25 14.5858 10.5858 14.25 11 14.25H19ZM8 10.25C8.41421 10.25 8.75 10.5858 8.75 11C8.75 11.4142 8.41421 11.75 8 11.75H7C6.58579 11.75 6.25 11.4142 6.25 11C6.25 10.5858 6.58579 10.25 7 10.25H8ZM19 10.25C19.4142 10.25 19.75 10.5858 19.75 11C19.75 11.4142 19.4142 11.75 19 11.75H11C10.5858 11.75 10.25 11.4142 10.25 11C10.25 10.5858 10.5858 10.25 11 10.25H19ZM19.9961 8H24.5859L19.999 3.41211L19.9961 8Z" fill="currentColor"/>
</svg>
