<svg width="36" height="36" viewBox="0 0 36 36" fill="none" xmlns="http://www.w3.org/2000/svg">
<path d="M18 0C27.9411 0 36 8.05887 36 18C36 27.9411 27.9411 36 18 36C8.05887 36 0 27.9411 0 18C0 8.05887 8.05887 0 18 0ZM18 1C8.61116 1 1 8.61116 1 18C1 27.3888 8.61116 35 18 35C27.3888 35 35 27.3888 35 18C35 8.61116 27.3888 1 18 1ZM18.9424 10.0576C19.5266 9.47387 20.4734 9.47387 21.0576 10.0576C21.6414 10.6414 21.6426 11.5883 21.0596 12.1729L15.2451 18L21.0596 23.8271C21.6426 24.4117 21.6414 25.3586 21.0576 25.9424C20.4734 26.5261 19.5266 26.5261 18.9424 25.9424L11 18L18.9424 10.0576Z" fill="currentColor"/>
</svg>
