<svg width="36" height="36" viewBox="0 0 36 36" fill="none" xmlns="http://www.w3.org/2000/svg">
<path fill-rule="evenodd" clip-rule="evenodd" d="M30.0416 30C26.9636 33.0886 22.705 35 18 35C13.295 35 9.03643 33.0886 5.95841 30H6.00971V6H5.95841C9.03643 2.91138 13.295 1 18 1C22.705 1 26.9636 2.91138 30.0416 6H29.9903V30H30.0416ZM31 28.955C33.4958 25.9963 35 22.1738 35 18C35 13.8262 33.4958 10.0037 31 7.04497V28.955ZM5 7.04497C2.50417 10.0037 1 13.8262 1 18C1 22.1738 2.50417 25.9963 5 28.955V7.04497ZM36 18C36 27.9411 27.9411 36 18 36C8.05887 36 0 27.9411 0 18C0 8.05887 8.05887 0 18 0C27.9411 0 36 8.05887 36 18ZM9 15C8.44772 15 8 15.4477 8 16C8 16.5523 8.44772 17 9 17H27C27.5523 17 28 16.5523 28 16C28 15.4477 27.5523 15 27 15H9ZM8 11C8 10.4477 8.44772 10 9 10H27C27.5523 10 28 10.4477 28 11C28 11.5523 27.5523 12 27 12H9C8.44772 12 8 11.5523 8 11ZM9 19C8.44772 19 8 19.4477 8 20C8 20.5523 8.44772 21 9 21H27C27.5523 21 28 20.5523 28 20C28 19.4477 27.5523 19 27 19H9ZM8 25C8 24.4477 8.44772 24 9 24H27C27.5523 24 28 24.4477 28 25C28 25.5523 27.5523 26 27 26H9C8.44772 26 8 25.5523 8 25Z" fill="currentColor"/>
</svg>
