<svg width="36" height="36" viewBox="0 0 36 36" fill="none" xmlns="http://www.w3.org/2000/svg">
<path d="M16.7891 7.44354C17.488 6.85227 18.5119 6.85233 19.2109 7.44354L31.875 18.1594V33.9807H22.5C21.7408 33.9807 21.1253 33.3648 21.125 32.6057V24.9807H14.875V32.6057C14.8747 33.3648 14.2592 33.9807 13.5 33.9807H4.125V18.1594L16.7891 7.44354ZM18.0811 8.77948C18.0344 8.74005 17.9655 8.74005 17.9189 8.77948L5.875 18.9709V32.2307H13.125V24.6057C13.125 23.8463 13.7406 23.2307 14.5 23.2307H21.5C22.2594 23.2307 22.875 23.8463 22.875 24.6057V32.2307H30.125V18.9709L18.0811 8.77948ZM16.8174 2.4201C17.5062 1.86042 18.4937 1.86047 19.1826 2.4201L34.5518 14.9084L33.4482 16.2658L18.0791 3.7785C18.0333 3.74127 17.9678 3.74145 17.9219 3.7785L2.55176 16.2658L1.44824 14.9084L16.8174 2.4201Z" fill="currentColor"/>
</svg>
