<svg width="36" height="36" viewBox="0 0 36 36" fill="none" xmlns="http://www.w3.org/2000/svg">
<path fill-rule="evenodd" clip-rule="evenodd" d="M12.3431 10.9289C11.9526 10.5384 11.3194 10.5384 10.9289 10.9289C10.5384 11.3195 10.5384 11.9526 10.9289 12.3431L16.5857 18L10.9289 23.6569C10.5384 24.0474 10.5384 24.6805 10.9289 25.0711C11.3194 25.4616 11.9526 25.4616 12.3431 25.0711L17.9999 19.4142L23.6568 25.0711C24.0473 25.4616 24.6805 25.4616 25.071 25.0711C25.4615 24.6805 25.4615 24.0474 25.071 23.6569L19.4142 18L25.071 12.3431C25.4615 11.9526 25.4615 11.3195 25.071 10.9289C24.6805 10.5384 24.0473 10.5384 23.6568 10.9289L17.9999 16.5858L12.3431 10.9289Z" fill="currentColor"/>
<mask id="mask0_0_1390" style="mask-type:luminance" maskUnits="userSpaceOnUse" x="10" y="10" width="16" height="16">
<path fill-rule="evenodd" clip-rule="evenodd" d="M12.3431 10.9289C11.9526 10.5384 11.3194 10.5384 10.9289 10.9289C10.5384 11.3195 10.5384 11.9526 10.9289 12.3431L16.5857 18L10.9289 23.6569C10.5384 24.0474 10.5384 24.6805 10.9289 25.0711C11.3194 25.4616 11.9526 25.4616 12.3431 25.0711L17.9999 19.4142L23.6568 25.0711C24.0473 25.4616 24.6805 25.4616 25.071 25.0711C25.4615 24.6805 25.4615 24.0474 25.071 23.6569L19.4142 18L25.071 12.3431C25.4615 11.9526 25.4615 11.3195 25.071 10.9289C24.6805 10.5384 24.0473 10.5384 23.6568 10.9289L17.9999 16.5858L12.3431 10.9289Z" fill="currentColor"/>
</mask>
<g mask="url(#mask0_0_1390)">
<rect width="36" height="36" fill="currentColor"/>
</g>
</svg>
