<svg width="36" height="36" viewBox="0 0 36 36" fill="none" xmlns="http://www.w3.org/2000/svg">
<path d="M2.75 31.0664C3.163 30.9816 3.69788 30.8784 4.32324 30.7764C5.8286 30.5308 7.87179 30.2832 10 30.2832C12.1277 30.2832 14.1704 30.5308 15.6758 30.7764C16.43 30.8994 17.0534 31.0225 17.4893 31.1152C17.7073 31.1616 17.8793 31.2011 17.9971 31.2285H18.0029C18.1207 31.2011 18.2927 31.1616 18.5107 31.1152C18.9466 31.0225 19.57 30.8994 20.3242 30.7764C21.8296 30.5308 23.8723 30.2832 26 30.2832C28.1282 30.2832 30.1714 30.5308 31.6768 30.7764C32.3021 30.8784 32.837 30.9816 33.25 31.0664V4.07422L34.75 5.07422V32.9619L33.8174 32.7275C33.8174 32.7275 33.8126 32.7263 33.8096 32.7256C33.8032 32.724 33.7928 32.7211 33.7793 32.7178C33.7521 32.7112 33.7108 32.7012 33.6562 32.6885C33.5473 32.6631 33.3855 32.6262 33.1777 32.582C32.7618 32.4935 32.1618 32.3755 31.4346 32.2568C29.9771 32.0191 28.0201 31.7832 26 31.7832C23.9801 31.7832 22.023 32.019 20.5654 32.2568C19.8385 32.3754 19.2393 32.4935 18.8232 32.582C18.6153 32.6263 18.4528 32.6631 18.3438 32.6885C18.2892 32.7012 18.2479 32.7112 18.2207 32.7178C18.2072 32.7211 18.1968 32.724 18.1904 32.7256C18.1874 32.7263 18.1836 32.7275 18.1836 32.7275L18 32.7734L17.8174 32.7275C17.8174 32.7275 17.8126 32.7263 17.8096 32.7256C17.8032 32.724 17.7928 32.7211 17.7793 32.7178C17.7521 32.7112 17.7108 32.7012 17.6562 32.6885C17.5472 32.6631 17.3847 32.6263 17.1768 32.582C16.7607 32.4935 16.1615 32.3754 15.4346 32.2568C13.977 32.019 12.0199 31.7832 10 31.7832C7.97986 31.7832 6.02291 32.0191 4.56543 32.2568C3.83824 32.3755 3.23824 32.4935 2.82227 32.582C2.61452 32.6262 2.45273 32.6631 2.34375 32.6885C2.28924 32.7012 2.24787 32.7112 2.2207 32.7178C2.20718 32.7211 2.19683 32.724 2.19043 32.7256C2.18744 32.7263 2.18359 32.7275 2.18359 32.7275L1.25 32.9619V5.07422L2.75 4.07422V31.0664Z" fill="currentColor"/>
<path d="M12.5 22.5C13.7107 22.5 14.8713 22.6722 15.7236 22.8428C16.1506 22.9282 16.5037 23.0146 16.751 23.0791C16.8745 23.1113 16.9728 23.138 17.04 23.1572C17.0732 23.1667 17.0992 23.1753 17.1172 23.1807C17.126 23.1833 17.1338 23.1851 17.1387 23.1865C17.1409 23.1872 17.1445 23.1885 17.1445 23.1885H17.1465L17.1475 23.1895C17.4109 23.271 17.5587 23.5508 17.4775 23.8145C17.3961 24.078 17.1162 24.2256 16.8525 24.1445L16.8486 24.1436C16.8453 24.1425 16.8398 24.1407 16.833 24.1387C16.8182 24.1343 16.7946 24.1277 16.7646 24.1191C16.7044 24.1019 16.6143 24.077 16.499 24.0469C16.2674 23.9864 15.9327 23.9053 15.5273 23.8242C14.7132 23.6613 13.6224 23.5 12.5 23.5C11.3825 23.5 10.2958 23.6779 9.4834 23.8584C9.07907 23.9483 8.74564 24.0385 8.51465 24.1055C8.39947 24.1389 8.30906 24.1665 8.24902 24.1855C8.21931 24.195 8.19631 24.2022 8.18164 24.207C8.17478 24.2093 8.16934 24.2117 8.16602 24.2129L8.16211 24.2139L8.06348 24.2373C7.83281 24.2669 7.60555 24.1309 7.52734 23.9023C7.43811 23.6412 7.57694 23.3571 7.83789 23.2676L7.84082 23.2666C7.84082 23.2666 7.84451 23.2654 7.84668 23.2646C7.85164 23.263 7.85934 23.2607 7.86816 23.2578C7.88628 23.2518 7.9128 23.2431 7.94629 23.2324C8.01371 23.211 8.11164 23.1804 8.23535 23.1445C8.48338 23.0726 8.83831 22.977 9.2666 22.8818C10.1206 22.6921 11.2845 22.5 12.5 22.5Z" fill="currentColor"/>
<path d="M12.5 19.5C13.7107 19.5 14.8713 19.6722 15.7236 19.8428C16.1506 19.9282 16.5037 20.0146 16.751 20.0791C16.8745 20.1113 16.9728 20.138 17.04 20.1572C17.0732 20.1667 17.0992 20.1753 17.1172 20.1807C17.126 20.1833 17.1338 20.1851 17.1387 20.1865C17.1409 20.1872 17.1445 20.1885 17.1445 20.1885H17.1465L17.1475 20.1895C17.4109 20.271 17.5587 20.5508 17.4775 20.8145C17.3961 21.078 17.1162 21.2256 16.8525 21.1445L16.8486 21.1436C16.8453 21.1425 16.8398 21.1407 16.833 21.1387C16.8182 21.1343 16.7946 21.1277 16.7646 21.1191C16.7044 21.1019 16.6143 21.077 16.499 21.0469C16.2674 20.9864 15.9327 20.9053 15.5273 20.8242C14.7132 20.6613 13.6224 20.5 12.5 20.5C11.3825 20.5 10.2958 20.6779 9.4834 20.8584C9.07907 20.9483 8.74564 21.0385 8.51465 21.1055C8.39947 21.1389 8.30906 21.1665 8.24902 21.1855C8.21931 21.195 8.19631 21.2022 8.18164 21.207C8.17478 21.2093 8.16934 21.2117 8.16602 21.2129L8.16211 21.2139L8.06348 21.2373C7.83281 21.2669 7.60555 21.1309 7.52734 20.9023C7.43811 20.6412 7.57694 20.3571 7.83789 20.2676L7.84082 20.2666C7.84082 20.2666 7.84451 20.2654 7.84668 20.2646C7.85164 20.263 7.85934 20.2607 7.86816 20.2578C7.88628 20.2518 7.9128 20.2431 7.94629 20.2324C8.01371 20.211 8.11164 20.1804 8.23535 20.1445C8.48338 20.0726 8.83831 19.977 9.2666 19.8818C10.1206 19.6921 11.2845 19.5 12.5 19.5Z" fill="currentColor"/>
<path d="M12.5 16.5C13.7107 16.5 14.8713 16.6722 15.7236 16.8428C16.1506 16.9282 16.5037 17.0146 16.751 17.0791C16.8745 17.1113 16.9728 17.138 17.04 17.1572C17.0732 17.1667 17.0992 17.1753 17.1172 17.1807C17.126 17.1833 17.1338 17.1851 17.1387 17.1865C17.1409 17.1872 17.1445 17.1885 17.1445 17.1885H17.1465L17.1475 17.1895C17.4109 17.271 17.5587 17.5508 17.4775 17.8145C17.3961 18.078 17.1162 18.2256 16.8525 18.1445L16.8486 18.1436C16.8453 18.1425 16.8398 18.1407 16.833 18.1387C16.8182 18.1343 16.7946 18.1277 16.7646 18.1191C16.7044 18.1019 16.6143 18.077 16.499 18.0469C16.2674 17.9864 15.9327 17.9053 15.5273 17.8242C14.7132 17.6613 13.6224 17.5 12.5 17.5C11.3825 17.5 10.2958 17.6779 9.4834 17.8584C9.07907 17.9483 8.74564 18.0385 8.51465 18.1055C8.39947 18.1389 8.30906 18.1665 8.24902 18.1855C8.21931 18.195 8.19631 18.2022 8.18164 18.207C8.17478 18.2093 8.16934 18.2117 8.16602 18.2129L8.16211 18.2139L8.06348 18.2373C7.83281 18.2669 7.60555 18.1309 7.52734 17.9023C7.43811 17.6412 7.57694 17.3571 7.83789 17.2676L7.84082 17.2666C7.84082 17.2666 7.84451 17.2654 7.84668 17.2646C7.85164 17.263 7.85934 17.2607 7.86816 17.2578C7.88628 17.2518 7.9128 17.2431 7.94629 17.2324C8.01371 17.211 8.11164 17.1804 8.23535 17.1445C8.48338 17.0726 8.83831 16.977 9.2666 16.8818C10.1206 16.6921 11.2845 16.5 12.5 16.5Z" fill="currentColor"/>
<path d="M12.5 13.5C13.7107 13.5 14.8713 13.6722 15.7236 13.8428C16.1506 13.9282 16.5037 14.0146 16.751 14.0791C16.8745 14.1113 16.9728 14.138 17.04 14.1572C17.0732 14.1667 17.0992 14.1753 17.1172 14.1807C17.126 14.1833 17.1338 14.1851 17.1387 14.1865C17.1409 14.1872 17.1445 14.1885 17.1445 14.1885H17.1465L17.1475 14.1895C17.4109 14.271 17.5587 14.5508 17.4775 14.8145C17.3961 15.078 17.1162 15.2256 16.8525 15.1445L16.8486 15.1436C16.8453 15.1425 16.8398 15.1407 16.833 15.1387C16.8182 15.1343 16.7946 15.1277 16.7646 15.1191C16.7044 15.1019 16.6143 15.077 16.499 15.0469C16.2674 14.9864 15.9327 14.9053 15.5273 14.8242C14.7132 14.6613 13.6224 14.5 12.5 14.5C11.3825 14.5 10.2958 14.6779 9.4834 14.8584C9.07907 14.9483 8.74564 15.0385 8.51465 15.1055C8.39947 15.1389 8.30906 15.1665 8.24902 15.1855C8.21931 15.195 8.19631 15.2022 8.18164 15.207C8.17478 15.2093 8.16934 15.2117 8.16602 15.2129L8.16211 15.2139L8.06348 15.2373C7.83281 15.2669 7.60555 15.1309 7.52734 14.9023C7.43811 14.6412 7.57694 14.3571 7.83789 14.2676L7.84082 14.2666C7.84082 14.2666 7.84451 14.2654 7.84668 14.2646C7.85164 14.263 7.85934 14.2607 7.86816 14.2578C7.88628 14.2518 7.9128 14.2431 7.94629 14.2324C8.01371 14.211 8.11164 14.1804 8.23535 14.1445C8.48338 14.0726 8.83831 13.977 9.2666 13.8818C10.1206 13.6921 11.2845 13.5 12.5 13.5Z" fill="currentColor"/>
<path d="M12.5 10.5C13.7107 10.5 14.8713 10.6722 15.7236 10.8428C16.1506 10.9282 16.5037 11.0146 16.751 11.0791C16.8745 11.1113 16.9728 11.138 17.04 11.1572C17.0732 11.1667 17.0992 11.1753 17.1172 11.1807C17.126 11.1833 17.1338 11.1851 17.1387 11.1865C17.1409 11.1872 17.1445 11.1885 17.1445 11.1885H17.1465L17.1475 11.1895C17.4109 11.271 17.5587 11.5508 17.4775 11.8145C17.3961 12.078 17.1162 12.2256 16.8525 12.1445L16.8486 12.1436C16.8453 12.1425 16.8398 12.1407 16.833 12.1387C16.8182 12.1343 16.7946 12.1277 16.7646 12.1191C16.7044 12.1019 16.6143 12.077 16.499 12.0469C16.2674 11.9864 15.9327 11.9053 15.5273 11.8242C14.7132 11.6613 13.6224 11.5 12.5 11.5C11.3825 11.5 10.2958 11.6779 9.4834 11.8584C9.07907 11.9483 8.74564 12.0385 8.51465 12.1055C8.39947 12.1389 8.30906 12.1665 8.24902 12.1855C8.21931 12.195 8.19631 12.2022 8.18164 12.207C8.17478 12.2093 8.16934 12.2117 8.16602 12.2129L8.16211 12.2139L8.06348 12.2373C7.83281 12.2669 7.60555 12.1309 7.52734 11.9023C7.43811 11.6412 7.57694 11.3571 7.83789 11.2676L7.84082 11.2666C7.84082 11.2666 7.84451 11.2654 7.84668 11.2646C7.85164 11.263 7.85934 11.2607 7.86816 11.2578C7.88628 11.2518 7.9128 11.2431 7.94629 11.2324C8.01371 11.211 8.11164 11.1804 8.23535 11.1445C8.48338 11.0726 8.83831 10.977 9.2666 10.8818C10.1206 10.6921 11.2845 10.5 12.5 10.5Z" fill="currentColor"/>
<path d="M12.5 7.5C13.7107 7.50002 14.8713 7.67224 15.7236 7.84277C16.1506 7.92822 16.5037 8.01457 16.751 8.0791C16.8745 8.11134 16.9728 8.13802 17.04 8.15723C17.0732 8.16672 17.0992 8.17532 17.1172 8.18066C17.126 8.18327 17.1338 8.18505 17.1387 8.18652C17.1409 8.1872 17.1445 8.18848 17.1445 8.18848H17.1465L17.1475 8.18945C17.4109 8.27096 17.5587 8.55078 17.4775 8.81445C17.3961 9.07798 17.1162 9.22556 16.8525 9.14453L16.8486 9.14355C16.8453 9.14254 16.8398 9.1407 16.833 9.13867C16.8182 9.13428 16.7946 9.12769 16.7646 9.11914C16.7044 9.10192 16.6143 9.07696 16.499 9.04688C16.2674 8.98644 15.9327 8.90535 15.5273 8.82422C14.7132 8.66132 13.6224 8.50003 12.5 8.5C11.3825 8.50002 10.2958 8.67788 9.4834 8.8584C9.07907 8.94826 8.74564 9.03852 8.51465 9.10547C8.39947 9.13886 8.30906 9.16649 8.24902 9.18555C8.21931 9.19498 8.19631 9.20219 8.18164 9.20703C8.17478 9.20931 8.16934 9.21175 8.16602 9.21289L8.16211 9.21387L8.06348 9.2373C7.83281 9.26693 7.60555 9.13095 7.52734 8.90234C7.43811 8.64124 7.57694 8.3571 7.83789 8.26758L7.84082 8.2666C7.84082 8.2666 7.84451 8.26538 7.84668 8.26465C7.85164 8.26299 7.85934 8.26072 7.86816 8.25781C7.88628 8.25183 7.9128 8.24306 7.94629 8.23242C8.01371 8.21102 8.11164 8.1804 8.23535 8.14453C8.48338 8.07264 8.83831 7.97702 9.2666 7.88184C10.1206 7.69207 11.2845 7.50002 12.5 7.5Z" fill="currentColor"/>
<path fill-rule="evenodd" clip-rule="evenodd" d="M25 2C28.6299 2 32 3.03711 32 3.03711V30C31.997 29.9992 29.0363 29.1797 25.6768 29.0771L25 29.0664C21.3701 29.0664 18 30 18 30C17.9977 29.9994 15.0367 29.1797 11.6768 29.0771L11 29.0664C7.37086 29.0664 4 30 4 30V3.03711C4 3.03711 7.37006 2 11 2C14.6229 2 17.9869 2.92998 18 2.93359C18.0127 2.93007 21.3769 2 25 2ZM11 3.5C9.31736 3.5 7.67165 3.74144 6.43262 3.98926C6.08364 4.05906 5.76998 4.12948 5.5 4.19336V28.1289C5.62002 28.1059 5.74423 28.0798 5.87305 28.0566C7.22153 27.8138 9.06598 27.5664 11 27.5664C12.934 27.5664 14.7785 27.8138 16.127 28.0566C16.8047 28.1787 17.3655 28.3009 17.7598 28.3936C17.8484 28.4144 17.9285 28.4346 18 28.4521C18.0715 28.4346 18.1516 28.4144 18.2402 28.3936C18.6345 28.3009 19.1953 28.1787 19.873 28.0566C21.2215 27.8138 23.066 27.5664 25 27.5664C26.934 27.5664 28.7785 27.8138 30.127 28.0566C30.2558 28.0798 30.38 28.1059 30.5 28.1289V4.19336C30.23 4.12948 29.9164 4.05906 29.5674 3.98926C28.8298 3.84173 27.9479 3.69791 27 3.60449V17L24 15L21 17V3.84277C20.7928 3.87591 20.5937 3.90925 20.4043 3.94336C19.7862 4.05468 19.2778 4.16561 18.9268 4.24805C18.7514 4.28924 18.6151 4.32359 18.5254 4.34668C18.481 4.35809 18.4478 4.36643 18.4268 4.37207C18.4166 4.3748 18.4087 4.37673 18.4043 4.37793C18.4021 4.37852 18.3994 4.37988 18.3994 4.37988L18.4004 4.37891L18 4.49023L17.5996 4.37891L17.5957 4.37793C17.5913 4.37673 17.5834 4.3748 17.5732 4.37207C17.5522 4.36643 17.519 4.35809 17.4746 4.34668C17.3849 4.32359 17.2486 4.28924 17.0732 4.24805C16.7222 4.16561 16.2138 4.05468 15.5957 3.94336C14.3517 3.71933 12.6958 3.5 11 3.5Z" fill="currentColor"/>
</svg>
