<svg width="36" height="36" viewBox="0 0 36 36" fill="none" xmlns="http://www.w3.org/2000/svg">
<path d="M18 0C27.9411 0 36 8.05887 36 18C36 27.9411 27.9411 36 18 36C8.05887 36 0 27.9411 0 18C0 8.05887 8.05887 0 18 0ZM18 1C8.61116 1 1 8.61116 1 18C1 27.3888 8.61116 35 18 35C27.3888 35 35 27.3888 35 18C35 8.61116 27.3888 1 18 1ZM14.0566 10.0576C14.6409 9.47346 15.5885 9.47363 16.1729 10.0576L24.1152 18L16.1729 25.9424C15.5885 26.5264 14.6409 26.5265 14.0566 25.9424C13.4728 25.3585 13.4726 24.4117 14.0557 23.8271L19.8701 18L14.0557 12.1729C13.4726 11.5883 13.4728 10.6415 14.0566 10.0576Z" fill="currentColor"/>
</svg>
