<svg width="36" height="36" viewBox="0 0 36 36" fill="none" xmlns="http://www.w3.org/2000/svg">
<path d="M26 18C26 18.6312 25.4883 19.1429 24.8571 19.1429H19.1429V24.8571C19.1429 25.4883 18.6312 26 18 26C17.3688 26 16.8571 25.4883 16.8571 24.8571V19.1429H11.1429C10.5117 19.1429 10 18.6312 10 18C10 17.3688 10.5117 16.8571 11.1429 16.8571H16.8571V11.1429C16.8571 10.5117 17.3688 10 18 10C18.6312 10 19.1429 10.5117 19.1429 11.1429V16.8571H24.8571C25.4883 16.8571 26 17.3688 26 18Z" fill="currentColor"/>
</svg>
