<svg width="36" height="36" viewBox="0 0 36 36" fill="none" xmlns="http://www.w3.org/2000/svg">
<path fill-rule="evenodd" clip-rule="evenodd" d="M27.5 24C30.5376 24 33 26.4624 33 29.5C33 32.5376 30.5376 35 27.5 35C24.4624 35 22 32.5376 22 29.5C22 26.4624 24.4624 24 27.5 24ZM27.0742 30.0195L25.5312 28.4707L24.4688 29.5293L27.1807 32.252L31.1113 27.4766L29.9531 26.5234L27.0742 30.0195Z" fill="currentColor"/>
<path d="M8 21C8.55228 21 9 21.4477 9 22C9 22.5523 8.55228 23 8 23H7C6.44772 23 6 22.5523 6 22C6 21.4477 6.44772 21 7 21H8Z" fill="currentColor"/>
<path d="M19 21C19.5523 21 20 21.4477 20 22C20 22.5523 19.5523 23 19 23H12C11.4477 23 11 22.5523 11 22C11 21.4477 11.4477 21 12 21H19Z" fill="currentColor"/>
<path d="M8 17C8.55228 17 9 17.4477 9 18C9 18.5523 8.55228 19 8 19H7C6.44772 19 6 18.5523 6 18C6 17.4477 6.44772 17 7 17H8Z" fill="currentColor"/>
<path d="M19 17C19.5523 17 20 17.4477 20 18C20 18.5523 19.5523 19 19 19H12C11.4477 19 11 18.5523 11 18C11 17.4477 11.4477 17 12 17H19Z" fill="currentColor"/>
<path d="M8 13C8.55228 13 9 13.4477 9 14C9 14.5523 8.55228 15 8 15H7C6.44772 15 6 14.5523 6 14C6 13.4477 6.44772 13 7 13H8Z" fill="currentColor"/>
<path d="M19 13C19.5523 13 20 13.4477 20 14C20 14.5523 19.5523 15 19 15H12C11.4477 15 11 14.5523 11 14C11 13.4477 11.4477 13 12 13H19Z" fill="currentColor"/>
<path d="M8 9C8.55228 9 9 9.44772 9 10C9 10.5523 8.55228 11 8 11H7C6.44772 11 6 10.5523 6 10C6 9.44772 6.44772 9 7 9H8Z" fill="currentColor"/>
<path d="M19 9C19.5523 9 20 9.44772 20 10C20 10.5523 19.5523 11 19 11H12C11.4477 11 11 10.5523 11 10C11 9.44772 11.4477 9 12 9H19Z" fill="currentColor"/>
<path fill-rule="evenodd" clip-rule="evenodd" d="M20.75 1.01465C20.9543 1.04871 21.1446 1.14463 21.293 1.29297L26.707 6.70703C26.8945 6.89453 27 7.1489 27 7.41406V22.0635C23.0538 22.5557 20 25.9205 20 30H4C3.44772 30 3 29.5523 3 29V2C3 1.44772 3.44772 1 4 1H20.75V1.01465ZM4.5 28.5H18.6201C19.208 24.7944 21.936 21.8037 25.5 20.834V7.75H21C20.0336 7.74999 19.2501 6.96639 19.25 6V2.5H4.5V28.5ZM20.75 6C20.7501 6.13797 20.862 6.24993 21 6.25H24.1289L20.75 2.87109V6Z" fill="currentColor"/>
</svg>
