<svg width="36" height="36" viewBox="0 0 36 36" fill="none" xmlns="http://www.w3.org/2000/svg">
<path d="M5.06934 31.0004C5.06914 31.5525 4.6215 32.0004 4.06934 32.0004H3.06934C2.51719 32.0003 2.06953 31.5525 2.06934 31.0004V26.3197L5.06934 23.3197V31.0004ZM11.0693 31.0004C11.0691 31.5525 10.6215 32.0004 10.0693 32.0004H9.06934C8.51719 32.0003 8.06953 31.5525 8.06934 31.0004V20.3197L11.0693 17.3197V31.0004ZM17 22.8285V31.0004C16.9998 31.5525 16.5522 32.0004 16 32.0004H15C14.4479 32.0003 14.0002 31.5525 14 31.0004V19.8285L17 22.8285ZM23 31.0004C22.9998 31.5525 22.5522 32.0004 22 32.0004H21C20.4479 32.0003 20.0002 31.5525 20 31.0004V20.0902L23 17.0902V31.0004ZM29 31.0004C28.9998 31.5525 28.5522 32.0004 28 32.0004H27C26.4479 32.0003 26.0002 31.5525 26 31.0004V14.0902L29 11.0902V31.0004ZM32.7412 2.16833C32.9062 2.14477 33.048 2.28655 33.0244 2.45154L32.3643 7.07166L30.9854 5.69275L17.5947 19.0824L17.5879 19.0756L17.125 19.5394L11.2803 13.6947L1.9375 23.0375L1.91699 19.7347L11.0312 10.6215L17.1309 16.7172L29.5703 4.27869L28.1211 2.82849L32.7412 2.16833Z" fill="currentColor"/>
</svg>
