<svg width="36" height="36" viewBox="0 0 36 36" fill="none" xmlns="http://www.w3.org/2000/svg">
<path fill-rule="evenodd" clip-rule="evenodd" d="M18 35C27.3888 35 35 27.3888 35 18C35 8.61116 27.3888 1 18 1C8.61116 1 1 8.61116 1 18C1 27.3888 8.61116 35 18 35ZM18 36C27.9411 36 36 27.9411 36 18C36 8.05887 27.9411 0 18 0C8.05887 0 0 8.05887 0 18C0 27.9411 8.05887 36 18 36ZM10.9289 25.0711C10.5384 24.6806 10.5384 24.0474 10.9289 23.6569L16.5857 18L10.9289 12.3432C10.5384 11.9526 10.5384 11.3195 10.9289 10.9289C11.3194 10.5384 11.9526 10.5384 12.3431 10.9289L17.9999 16.5858L23.6568 10.9289C24.0473 10.5384 24.6805 10.5384 25.071 10.9289C25.4615 11.3195 25.4615 11.9526 25.071 12.3432L19.4142 18L25.071 23.6569C25.4615 24.0474 25.4615 24.6806 25.071 25.0711C24.6805 25.4616 24.0473 25.4616 23.6568 25.0711L17.9999 19.4142L12.3431 25.0711C11.9526 25.4616 11.3194 25.4616 10.9289 25.0711Z" fill="currentColor"/>
</svg>
