<svg width="36" height="36" viewBox="0 0 36 36" fill="none" xmlns="http://www.w3.org/2000/svg">
<path fill-rule="evenodd" clip-rule="evenodd" d="M18 20.5714C12.1885 20.5714 7.27751 24.4272 5.68574 29.7201C2.78225 26.6703 1 22.5433 1 18C1 8.61116 8.61116 1 18 1C27.3888 1 35 8.61116 35 18C35 22.5433 33.2177 26.6704 30.3142 29.7201C28.7225 24.4272 23.8115 20.5714 18 20.5714ZM0 18C0 23.0355 2.06773 27.5881 5.40045 30.855C5.40044 30.855 5.40044 30.855 5.40044 30.855C8.64715 34.0376 13.0944 36 18 36C24.1644 36 29.6051 32.9012 32.8493 28.1764C33.5327 27.1811 34.1186 26.1138 34.5932 24.988C35.4992 22.8394 36 20.4782 36 18C36 8.05888 27.9411 7.62939e-06 18 7.62939e-06C16.7573 7.62939e-06 15.5441 0.125924 14.3724 0.365696C13.0398 0.638371 11.7609 1.05829 10.5534 1.60771C4.32816 4.44021 0 10.7147 0 18ZM18 18C20.8403 18 23.1428 15.6975 23.1428 12.8572C23.1428 10.0168 20.8403 7.71429 18 7.71429C15.1596 7.71429 12.8571 10.0168 12.8571 12.8572C12.8571 15.6975 15.1596 18 18 18Z" fill="currentColor"/>
</svg>
