<svg width="36" height="36" viewBox="0 0 36 36" fill="none" xmlns="http://www.w3.org/2000/svg">
<path d="M18 0C27.9411 0 36 8.05887 36 18C36 27.9411 27.9411 36 18 36C8.05887 36 0 27.9411 0 18C0 8.05887 8.05887 0 18 0ZM27 21.5C26.4477 21.5 26 21.9477 26 22.5V25.5H10V22.5C10 21.9477 9.55228 21.5 9 21.5C8.44772 21.5 8 21.9477 8 22.5V25.5C8 26.6046 8.89543 27.5 10 27.5H26C27.1046 27.5 28 26.6046 28 25.5V22.5C28 21.9477 27.5523 21.5 27 21.5ZM16.7275 18.9668L12.4316 15.0176L11 16.334L16.7275 21.5996L29 10.3164L27.5684 9L16.7275 18.9668Z" fill="currentColor"/>
</svg>
