<svg width="36" height="36" viewBox="0 0 36 36" fill="none" xmlns="http://www.w3.org/2000/svg">
<path d="M18 0C27.9411 0 36 8.05887 36 18C36 27.9411 27.9411 36 18 36C8.05887 36 0 27.9411 0 18C0 8.05887 8.05887 0 18 0ZM18 1C8.61116 1 1 8.61116 1 18C1 27.3888 8.61116 35 18 35C27.3888 35 35 27.3888 35 18C35 8.61116 27.3888 1 18 1ZM17.999 21.9814C19.1035 21.9815 19.9989 22.877 19.999 23.9814C19.9988 25.0858 19.1034 25.9814 17.999 25.9814C16.8947 25.9812 15.9992 25.0857 15.999 23.9814C15.9991 22.8771 16.8947 21.9816 17.999 21.9814ZM18.0137 17.9775C18.3996 17.9776 18.7815 18.0045 19.1582 18.0537C20.3217 19.1687 21.8686 19.8854 23.582 19.9863C23.7827 20.1533 23.9779 20.3294 24.165 20.5156L22.7549 21.9336C21.486 20.6708 19.8049 19.9777 18.0137 19.9775C16.2103 19.9775 14.5205 20.6797 13.248 21.957L12.5391 21.251L11.8311 20.5449C13.4787 18.8911 15.6785 17.9775 18.0137 17.9775ZM24.0234 7C27.3371 7.00007 30.0234 9.68633 30.0234 13C30.0234 16.3137 27.3371 18.9999 24.0234 19C20.7097 19 18.0234 16.3137 18.0234 13C18.0234 9.68629 20.7097 7 24.0234 7ZM17.042 13.7627C17.1172 14.4563 17.2929 15.1196 17.5557 15.7373C14.7892 15.8497 12.2107 16.9798 10.2432 18.9521L8.82715 17.54C11.0478 15.314 13.9371 13.9913 17.042 13.7627ZM24.3154 18.6582C24.2187 18.6631 24.1213 18.666 24.0234 18.666C24.0033 18.666 23.983 18.6643 23.9629 18.6641C23.983 18.6643 24.0033 18.667 24.0234 18.667C24.1214 18.667 24.2187 18.6634 24.3154 18.6582ZM23.623 18.6533C23.648 18.6551 23.6732 18.6539 23.6982 18.6553C23.6614 18.6532 23.6245 18.6522 23.5879 18.6494L23.623 18.6533ZM22.7051 18.5098C22.8009 18.5326 22.8975 18.5524 22.9951 18.5703C22.9574 18.5634 22.9193 18.5584 22.8818 18.5508C22.8225 18.5386 22.7637 18.5238 22.7051 18.5098ZM22.1074 18.335C22.1466 18.349 22.187 18.3598 22.2266 18.373C22.176 18.3561 22.1251 18.3405 22.0752 18.3223L22.1074 18.335ZM18.0303 9.34375C17.6515 9.96085 17.3666 10.6412 17.1934 11.3652C13.3924 11.5637 9.85287 13.1379 7.14355 15.8525L6.43652 15.1465L5.72754 14.4395C9.00626 11.1543 13.3732 9.34375 18.0146 9.34375C18.0199 9.34375 18.0251 9.34375 18.0303 9.34375ZM22.1377 10.6426C22.0075 10.5129 21.796 10.5126 21.666 10.6426C21.536 10.7726 21.5363 10.984 21.666 11.1143L23.5518 12.999L21.666 14.8857C21.5363 15.0157 21.5365 15.2263 21.666 15.3564C21.7962 15.4864 22.0076 15.4865 22.1377 15.3564L24.0225 13.4707L25.9092 15.3564C26.0394 15.4864 26.2498 15.4865 26.3799 15.3564C26.5099 15.2263 26.5098 15.0159 26.3799 14.8857L24.4941 12.999L26.3799 11.1143C26.5099 10.9842 26.5098 10.7727 26.3799 10.6426C26.2498 10.5132 26.0392 10.513 25.9092 10.6426L24.0225 12.5283L22.1377 10.6426ZM29.6895 13C29.6894 13.0979 29.6875 13.1953 29.6826 13.292C29.6878 13.1953 29.6904 13.0979 29.6904 13C29.6904 12.9631 29.6872 12.9264 29.6865 12.8896C29.6872 12.9264 29.6895 12.9631 29.6895 13ZM29.6455 12.3027C29.627 12.1528 29.6042 12.0045 29.5742 11.8584L29.624 12.1377C29.6324 12.1924 29.6387 12.2475 29.6455 12.3027ZM21.3525 17.9971C21.3818 18.0127 21.4109 18.0288 21.4404 18.0439C21.4109 18.0288 21.3818 18.0127 21.3525 17.9971ZM29.667 12.499C29.6629 12.4523 29.6586 12.4058 29.6533 12.3594C29.6586 12.4057 29.6629 12.4523 29.667 12.499Z" fill="currentColor"/>
</svg>
