<svg width="36" height="36" viewBox="0 0 36 36" fill="none" xmlns="http://www.w3.org/2000/svg">
<path d="M27 21C27.5523 21 28 21.4477 28 22V25C28 26.1046 27.1046 27 26 27H10C8.89543 27 8 26.1046 8 25V22C8 21.4477 8.44772 21 9 21C9.55228 21 10 21.4477 10 22V25H26V22C26 21.4477 26.4477 21 27 21Z" fill="currentColor"/>
<path d="M18.8516 17.8564L22.0762 14.6328C22.416 14.293 22.9688 14.2989 23.3008 14.6465C23.622 14.983 23.616 15.5148 23.2871 15.8438L18 21.1309L12.7129 15.8438C12.384 15.5148 12.378 14.983 12.6992 14.6465C13.0312 14.2989 13.584 14.293 13.9238 14.6328L17.1484 17.8564V8H18.8516V17.8564Z" fill="currentColor"/>
</svg>
