<svg width="36" height="36" viewBox="0 0 36 36" fill="none" xmlns="http://www.w3.org/2000/svg">
<path fill-rule="evenodd" clip-rule="evenodd" d="M18 13C20.7614 13 23 15.2386 23 18C23 20.7614 20.7614 23 18 23C15.2386 23 13 20.7614 13 18C13 15.2386 15.2386 13 18 13ZM18 14.5C16.067 14.5 14.5 16.067 14.5 18C14.5 19.933 16.067 21.5 18 21.5C19.933 21.5 21.5 19.933 21.5 18C21.5 16.067 19.933 14.5 18 14.5Z" fill="currentColor"/>
<path fill-rule="evenodd" clip-rule="evenodd" d="M20.0508 6.00879C20.2611 6.04804 20.4278 6.2193 20.4551 6.43848L20.6543 8.04004C20.6793 8.24 20.8225 8.40417 21.0146 8.46484C21.5686 8.63975 22.1018 8.86187 22.6094 9.12598C22.7657 9.20711 22.9511 9.20543 23.1016 9.12109L23.1641 9.08008L24.4395 8.08789C24.6385 7.93316 24.9223 7.95161 25.1006 8.12988L27.8701 10.8994C28.0485 11.0778 28.0661 11.3615 27.9111 11.5605L26.9189 12.835C26.7952 12.9941 26.78 13.2118 26.873 13.3906C27.1371 13.898 27.3593 14.4307 27.5342 14.9844C27.5949 15.1763 27.7592 15.3187 27.959 15.3438L29.5625 15.5449C29.8125 15.5764 30 15.789 30 16.041V19.959L29.9912 20.0508C29.9519 20.2611 29.7807 20.4278 29.5615 20.4551L27.959 20.6543C27.759 20.6793 27.5949 20.8225 27.5342 21.0146C27.3593 21.5685 27.1371 22.1009 26.873 22.6084C26.78 22.7872 26.7952 23.005 26.9189 23.1641L27.9111 24.4395C28.066 24.6385 28.0484 24.9223 27.8701 25.1006L25.1006 27.8701L25.0293 27.9297C24.8529 28.0507 24.6137 28.0467 24.4395 27.9111L23.1641 26.9189C23.005 26.7952 22.7872 26.78 22.6084 26.873C22.1009 27.1371 21.5685 27.3593 21.0146 27.5342C20.8225 27.5949 20.6793 27.759 20.6543 27.959L20.4551 29.5615L20.4346 29.6523C20.3788 29.827 20.2311 29.9576 20.0508 29.9912L19.959 30H16.041L15.9482 29.9912C15.7682 29.9574 15.6201 29.8269 15.5645 29.6523L15.5449 29.5625L15.3438 27.959C15.3219 27.7841 15.21 27.6363 15.0537 27.5615L14.9844 27.5342C14.4307 27.3593 13.898 27.1371 13.3906 26.873C13.2118 26.78 12.9941 26.7952 12.835 26.9189L11.5605 27.9111L11.4824 27.9619C11.2924 28.0599 11.0555 28.0262 10.8994 27.8701L8.12988 25.1006C7.95161 24.9223 7.93316 24.6385 8.08789 24.4395L9.08008 23.1641C9.18828 23.0249 9.21298 22.8412 9.15527 22.6777L9.12598 22.6094C8.86187 22.1018 8.63975 21.5686 8.46484 21.0146C8.41176 20.8465 8.2795 20.7157 8.11328 20.6689L8.04004 20.6543L6.43848 20.4551C6.2193 20.4278 6.04804 20.2611 6.00879 20.0508L6 19.959V16.041C6 15.789 6.18753 15.5764 6.4375 15.5449L8.04004 15.3438C8.2149 15.3218 8.36268 15.2101 8.4375 15.0537L8.46484 14.9844C8.59604 14.5691 8.75359 14.1652 8.93555 13.7754L9.12598 13.3906C9.20737 13.2342 9.20553 13.0481 9.12109 12.8975L9.08008 12.835L8.08887 11.5605C7.93404 11.3615 7.95157 11.0777 8.12988 10.8994L10.8994 8.12988C11.0777 7.95157 11.3615 7.93404 11.5605 8.08887L12.835 9.08008C12.9741 9.18829 13.1578 9.21296 13.3213 9.15527L13.3906 9.12598C13.7713 8.92788 14.1659 8.75304 14.5732 8.60449L14.9844 8.46484C15.1763 8.40409 15.3187 8.23979 15.3438 8.04004L15.5449 6.4375C15.5725 6.21888 15.7385 6.04821 15.9482 6.00879L16.041 6H19.959L20.0508 6.00879ZM16.832 8.22656C16.7306 9.03599 16.159 9.66697 15.4355 9.89551C14.9657 10.044 14.5137 10.2319 14.083 10.4561C13.4095 10.8066 12.5583 10.7648 11.9141 10.2637L11.3359 9.81445L9.81445 11.3359L10.2637 11.9141C10.7648 12.5583 10.8066 13.4095 10.4561 14.083C10.2319 14.5137 10.044 14.9657 9.89551 15.4355C9.66697 16.159 9.03599 16.7306 8.22656 16.832L7.5 16.9229V19.0752L8.22461 19.166C8.98416 19.2605 9.5869 19.7689 9.84766 20.4287L9.89551 20.5625L10.0137 20.9121C10.1398 21.258 10.2878 21.5937 10.4561 21.917C10.8063 22.5903 10.7654 23.4408 10.2646 24.085L9.81445 24.6631L11.335 26.1846L11.9141 25.7354L12.0371 25.6465C12.622 25.2581 13.3468 25.2181 13.9541 25.4814L14.083 25.543L14.4102 25.7041C14.7409 25.8585 15.0832 25.9922 15.4355 26.1035C16.159 26.3321 16.7307 26.963 16.832 27.7725L16.9229 28.5H19.0762L19.166 27.7744L19.1904 27.624C19.3391 26.8864 19.8838 26.3179 20.5625 26.1035C21.0327 25.9551 21.4852 25.7671 21.916 25.543L22.0449 25.4814C22.6523 25.218 23.377 25.258 23.9619 25.6465L24.085 25.7354L24.6631 26.1855L26.1855 24.6631L25.7354 24.085C25.2341 23.4407 25.1925 22.5895 25.543 21.916L25.7041 21.5889C25.8585 21.2579 25.9922 20.9152 26.1035 20.5625C26.3322 19.8384 26.9642 19.2668 27.7744 19.166L28.5 19.0752V16.9229L27.7725 16.832C26.963 16.7307 26.3321 16.159 26.1035 15.4355C25.955 14.9657 25.7671 14.5136 25.543 14.083C25.1924 13.4094 25.2341 12.5584 25.7354 11.9141L26.1846 11.335L24.6631 9.81445L24.085 10.2646C23.4408 10.7654 22.5903 10.8063 21.917 10.4561C21.4859 10.2318 21.0328 10.044 20.5625 9.89551C19.8385 9.66684 19.2668 9.03479 19.166 8.22461L19.0762 7.5H16.9229L16.832 8.22656Z" fill="currentColor"/>
<path fill-rule="evenodd" clip-rule="evenodd" d="M18 35C27.3888 35 35 27.3888 35 18C35 8.61116 27.3888 1 18 1C8.61116 1 1 8.61116 1 18C1 27.3888 8.61116 35 18 35ZM18 36C27.9411 36 36 27.9411 36 18C36 8.05887 27.9411 0 18 0C8.05887 0 0 8.05887 0 18C0 27.9411 8.05887 36 18 36Z" fill="currentColor"/>
</svg>
