<svg width="36" height="36" viewBox="0 0 36 36" fill="none" xmlns="http://www.w3.org/2000/svg">
<path fill-rule="evenodd" clip-rule="evenodd" d="M18 5C21.3137 5 24 7.68629 24 11V15H25C26.1046 15 27 15.8954 27 17V27C27 28.1046 26.1046 29 25 29H11C9.89543 29 9 28.1046 9 27V17C9 15.8954 9.89543 15 11 15H12V11C12 7.68629 14.6863 5 18 5ZM18 19C16.8954 19 16 19.8954 16 21C16 21.557 16.2283 22.0602 16.5957 22.4229L16.0967 25.418C16.0461 25.7225 16.2811 25.9998 16.5898 26H19.4102C19.7189 25.9998 19.9539 25.7225 19.9033 25.418L19.4033 22.4229C19.771 22.0602 20 21.5573 20 21C20 19.8954 19.1046 19 18 19ZM18 7C15.7909 7 14 8.79086 14 11V15H22V11C22 8.79086 20.2091 7 18 7Z" fill="currentColor"/>
<path fill-rule="evenodd" clip-rule="evenodd" d="M18 0C27.9411 0 36 8.05887 36 18C36 27.9411 27.9411 36 18 36C8.05887 36 0 27.9411 0 18C0 8.05887 8.05887 0 18 0ZM18 1C8.61116 1 1 8.61116 1 18C1 27.3888 8.61116 35 18 35C27.3888 35 35 27.3888 35 18C35 8.61116 27.3888 1 18 1Z" fill="currentColor"/>
</svg>
