<svg width="36" height="36" viewBox="0 0 36 36" fill="none" xmlns="http://www.w3.org/2000/svg">
<path d="M18 0C27.9411 0 36 8.05887 36 18C36 27.9411 27.9411 36 18 36C8.05887 36 0 27.9411 0 18C0 8.05887 8.05887 0 18 0ZM18 1C8.61116 1 1 8.61116 1 18C1 27.3888 8.61116 35 18 35C27.3888 35 35 27.3888 35 18C35 8.61116 27.3888 1 18 1ZM17.999 21.9814C19.1035 21.9815 19.9989 22.877 19.999 23.9814C19.9988 25.0858 19.1034 25.9814 17.999 25.9814C16.8947 25.9812 15.9992 25.0857 15.999 23.9814C15.9991 22.8771 16.8947 21.9816 17.999 21.9814ZM24.2637 9.29297C24.6542 8.9025 25.2872 8.90246 25.6777 9.29297C26.0682 9.68348 26.0682 10.3165 25.6777 10.707L12.9502 23.4346C12.5597 23.8251 11.9257 23.8251 11.5352 23.4346C11.1451 23.044 11.1448 22.4109 11.5352 22.0205L24.2637 9.29297ZM20.2402 18.2646C21.7103 18.6503 23.0607 19.4166 24.165 20.5156L22.7549 21.9336C21.6035 20.7876 20.1124 20.1126 18.5078 19.9971L20.2402 18.2646ZM15.3945 16.04C13.4599 16.5111 11.687 17.5048 10.2432 18.9521L8.82715 17.54C11.2049 15.1565 14.3493 13.8085 17.7041 13.7305L15.3945 16.04ZM23.5459 14.959C24.8751 15.5863 26.1004 16.4449 27.1709 17.5117L26.4648 18.2207L25.7588 18.9287C24.6749 17.8485 23.4049 17.0246 22.0225 16.4824L23.5459 14.959ZM18.0146 9.34375C19.2683 9.34382 20.5022 9.47625 21.7002 9.73438L19.9688 11.4658C19.3257 11.3846 18.6734 11.3438 18.0146 11.3438C13.9042 11.3438 10.0471 12.9433 7.14355 15.8525L6.43652 15.1465L5.72852 14.4395C9.00721 11.1544 13.3733 9.34375 18.0146 9.34375ZM26.7871 11.7178C28.043 12.4559 29.2139 13.3581 30.2715 14.4131L28.8594 15.8291C27.7957 14.768 26.6037 13.8823 25.3193 13.1855L26.7871 11.7178Z" fill="currentColor"/>
</svg>
