<svg width="36" height="36" viewBox="0 0 36 36" fill="none" xmlns="http://www.w3.org/2000/svg">
<path fill-rule="evenodd" clip-rule="evenodd" d="M18 11.3333C21.6819 11.3333 24.6667 14.3181 24.6667 18C24.6667 21.6819 21.6819 24.6667 18 24.6667C14.3181 24.6667 11.3333 21.6819 11.3333 18C11.3333 14.3181 14.3181 11.3333 18 11.3333ZM18 12.6667C15.0545 12.6667 12.6667 15.0545 12.6667 18C12.6667 20.9455 15.0545 23.3333 18 23.3333C20.9455 23.3333 23.3333 20.9455 23.3333 18C23.3333 15.0545 20.9455 12.6667 18 12.6667Z" fill="currentColor"/>
<path fill-rule="evenodd" clip-rule="evenodd" d="M20.7344 2.01172C21.0148 2.06406 21.2371 2.2924 21.2734 2.58464L21.5391 4.72005C21.5724 4.98666 21.7633 5.20556 22.0195 5.28646C22.7581 5.51966 23.4691 5.81583 24.1458 6.16797C24.3542 6.27615 24.6015 6.27391 24.8021 6.16146L24.8854 6.10677L26.5859 4.78385C26.8513 4.57755 27.2298 4.60215 27.4674 4.83984L31.1602 8.53255C31.398 8.77036 31.4214 9.14867 31.2148 9.41406L29.8919 11.1133C29.727 11.3254 29.7067 11.6158 29.8307 11.8542C30.1828 12.5306 30.479 13.2409 30.7122 13.9792C30.7932 14.235 31.0123 14.425 31.2786 14.4583L33.4167 14.7266C33.75 14.7686 34 15.052 34 15.388V20.612L33.9883 20.7344C33.9359 21.0148 33.7076 21.2371 33.4154 21.2734L31.2786 21.5391C31.012 21.5723 30.7931 21.7633 30.7122 22.0195C30.4791 22.758 30.1828 23.4679 29.8307 24.1445C29.7067 24.3829 29.727 24.6733 29.8919 24.8854L31.2148 26.5859C31.4213 26.8513 31.3979 27.2297 31.1602 27.4674L27.4674 31.1602L27.3724 31.2396C27.1372 31.4009 26.8183 31.3956 26.5859 31.2148L24.8854 29.8919C24.6733 29.727 24.3829 29.7067 24.1445 29.8307C23.4679 30.1828 22.758 30.4791 22.0195 30.7122C21.7633 30.7931 21.5724 31.012 21.5391 31.2786L21.2734 33.4154L21.2461 33.5365C21.1717 33.7694 20.9748 33.9434 20.7344 33.9883L20.612 34H15.388L15.2643 33.9883C15.0242 33.9432 14.8269 33.7692 14.7526 33.5365L14.7266 33.4167L14.4583 31.2786C14.4291 31.0455 14.2801 30.8485 14.0716 30.7487L13.9792 30.7122C13.2409 30.479 12.5306 30.1828 11.8542 29.8307C11.6158 29.7067 11.3254 29.727 11.1133 29.8919L9.41406 31.2148L9.3099 31.2826C9.05655 31.4132 8.74064 31.3682 8.53255 31.1602L4.83984 27.4674C4.60215 27.2298 4.57755 26.8513 4.78385 26.5859L6.10677 24.8854C6.25103 24.6999 6.28398 24.455 6.20703 24.237L6.16797 24.1458C5.81583 23.4691 5.51966 22.7581 5.28646 22.0195C5.21567 21.7953 5.03934 21.6209 4.81771 21.5586L4.72005 21.5391L2.58464 21.2734C2.2924 21.2371 2.06406 21.0148 2.01172 20.7344L2 20.612V15.388C2 15.052 2.25004 14.7686 2.58333 14.7266L4.72005 14.4583C4.9532 14.4291 5.15025 14.2801 5.25 14.0716L5.28646 13.9792C5.46139 13.4254 5.67145 12.887 5.91406 12.3672L6.16797 11.8542C6.27649 11.6456 6.27404 11.3974 6.16146 11.1966L6.10677 11.1133L4.78516 9.41406C4.57872 9.14867 4.6021 8.7703 4.83984 8.53255L8.53255 4.83984C8.7703 4.6021 9.14867 4.57872 9.41406 4.78516L11.1133 6.10677C11.2988 6.25105 11.5437 6.28394 11.7617 6.20703L11.8542 6.16797C12.3617 5.90384 12.8879 5.67072 13.431 5.47266L13.9792 5.28646C14.235 5.20545 14.425 4.98639 14.4583 4.72005L14.7266 2.58333C14.7633 2.29184 14.9846 2.06428 15.2643 2.01172L15.388 2H20.612L20.7344 2.01172ZM15.7813 4.88542C15.68 5.69373 15.1086 6.32848 14.3802 6.55859C13.7164 6.76833 13.0772 7.03361 12.4688 7.35026C11.7907 7.70304 10.9376 7.65924 10.2943 7.15885L9.05859 6.19792L6.19792 9.05859L7.15885 10.2943C7.65924 10.9376 7.70304 11.7907 7.35026 12.4688C7.03361 13.0772 6.76833 13.7164 6.55859 14.3802C6.32848 15.1086 5.69373 15.68 4.88542 15.7813L3.33333 15.9753V20.0221L4.88411 20.2161C5.64276 20.3105 6.24812 20.819 6.51042 21.4831L6.55859 21.6172L6.72526 22.1107C6.90339 22.5994 7.11259 23.0732 7.35026 23.5299C7.70299 24.2079 7.65892 25.0598 7.15885 25.7031L6.19792 26.9388L9.05859 29.8008L10.2943 28.8398C10.9376 28.3392 11.7905 28.2957 12.4688 28.6484C13.0771 28.9651 13.7164 29.2304 14.3802 29.4401C15.0632 29.6559 15.609 30.2269 15.7578 30.9635L15.7813 31.1133L15.9766 32.6667H20.0234L20.2161 31.1146L20.2396 30.9648C20.3879 30.2276 20.9337 29.656 21.6172 29.4401C22.2815 29.2304 22.9213 28.9652 23.5299 28.6484L23.6589 28.5872C24.27 28.3221 24.9962 28.3632 25.5807 28.7513L25.7044 28.8398L26.9401 29.8008L29.8008 26.9401L28.8398 25.7044C28.3394 25.0611 28.2957 24.2081 28.6484 23.5299L28.8763 23.0677C29.0945 22.6 29.2828 22.1155 29.4401 21.6172C29.6704 20.8882 30.3056 20.3168 31.1146 20.2161L32.6667 20.0221V15.9753L31.1133 15.7813C30.3049 15.68 29.6702 15.1087 29.4401 14.3802C29.2304 13.7164 28.9651 13.0771 28.6484 12.4688C28.2957 11.7905 28.3392 10.9376 28.8398 10.2943L29.8008 9.05859L26.9388 6.19792L25.7031 7.15885C25.0598 7.65892 24.2079 7.70299 23.5299 7.35026C22.9212 7.03349 22.2815 6.76833 21.6172 6.55859C20.8882 6.32831 20.3168 5.69313 20.2161 4.88411L20.0234 3.33333H15.9766L15.7813 4.88542Z" fill="currentColor"/>
</svg>
