<svg width="36" height="36" viewBox="0 0 36 36" fill="none" xmlns="http://www.w3.org/2000/svg">
<path d="M18 0C27.9411 0 36 8.05887 36 18C36 27.9411 27.9411 36 18 36C8.05887 36 0 27.9411 0 18C0 8.05887 8.05887 0 18 0ZM25.0703 10.9287C24.6798 10.5386 24.0466 10.5383 23.6562 10.9287L17.999 16.585L12.3428 10.9287C11.9523 10.5385 11.3191 10.5384 10.9287 10.9287C10.5384 11.3191 10.5385 11.9523 10.9287 12.3428L16.585 18L10.9287 23.6572C10.5385 24.0477 10.5384 24.6808 10.9287 25.0713C11.3192 25.4615 11.9523 25.4615 12.3428 25.0713L17.999 19.4141L23.6562 25.0713C24.0467 25.4618 24.6808 25.4617 25.0713 25.0713C25.4616 24.6809 25.4613 24.0478 25.0713 23.6572L19.4131 17.999L25.0703 12.3428C25.4608 11.9522 25.4608 11.3192 25.0703 10.9287Z" fill="currentColor"/>
</svg>
