<svg width="36" height="36" viewBox="0 0 36 36" fill="none" xmlns="http://www.w3.org/2000/svg">
<path d="M18 19C19.1046 19 20 19.8954 20 21C20 21.5573 19.771 22.0602 19.4033 22.4229L19.9033 25.418C19.9539 25.7225 19.7189 25.9998 19.4102 26H16.5898C16.2811 25.9998 16.0461 25.7225 16.0967 25.418L16.5957 22.4229C16.2283 22.0602 16 21.557 16 21C16 19.8954 16.8954 19 18 19Z" fill="currentColor"/>
<path d="M18 7C20.2091 7 22 8.79086 22 11V15H14V11C14 8.79086 15.7909 7 18 7Z" fill="currentColor"/>
<path fill-rule="evenodd" clip-rule="evenodd" d="M18 0C27.9411 0 36 8.05887 36 18C36 27.9411 27.9411 36 18 36C8.05887 36 0 27.9411 0 18C0 8.05887 8.05887 0 18 0ZM18 5C14.6863 5 12 7.68629 12 11V15H11C9.89543 15 9 15.8954 9 17V27C9 28.1046 9.89543 29 11 29H25C26.1046 29 27 28.1046 27 27V17C27 15.8954 26.1046 15 25 15H24V11C24 7.68629 21.3137 5 18 5Z" fill="currentColor"/>
</svg>
