<svg width="36" height="36" viewBox="0 0 36 36" fill="none" xmlns="http://www.w3.org/2000/svg">
<path fill-rule="evenodd" clip-rule="evenodd" d="M18 0C27.9411 0 36 8.05887 36 18C36 27.9411 27.9411 36 18 36C8.05887 36 0 27.9411 0 18C0 8.05887 8.05887 0 18 0ZM27 21.5C26.4477 21.5 26 21.9477 26 22.5V25.5H10V22.5C10 21.9477 9.55228 21.5 9 21.5C8.44772 21.5 8 21.9477 8 22.5V25.5C8 26.6046 8.89543 27.5 10 27.5H26C27.1046 27.5 28 26.6046 28 25.5V22.5C28 21.9477 27.5523 21.5 27 21.5ZM17.1484 18.3564L13.9238 15.1328C13.584 14.793 13.0312 14.7989 12.6992 15.1465C12.378 15.483 12.384 16.0148 12.7129 16.3438L18 21.6309L23.2871 16.3438C23.616 16.0148 23.622 15.483 23.3008 15.1465C22.9688 14.7989 22.416 14.793 22.0762 15.1328L18.8516 18.3564V8.5H17.1484V18.3564Z" fill="currentColor"/>
</svg>
