<svg width="36" height="36" viewBox="0 0 36 36" fill="none" xmlns="http://www.w3.org/2000/svg">
<path d="M18 0C27.9411 0 36 8.05887 36 18C36 27.9411 27.9411 36 18 36C8.05887 36 0 27.9411 0 18C0 8.05887 8.05887 0 18 0ZM18 1C8.61116 1 1 8.61116 1 18C1 27.3888 8.61116 35 18 35C27.3888 35 35 27.3888 35 18C35 8.61116 27.3888 1 18 1ZM17.8818 23.1523C18.4885 23.1523 18.9829 23.3513 19.3643 23.75C19.7456 24.1313 19.9365 24.5996 19.9365 25.1543C19.9365 25.7088 19.7455 26.1854 19.3643 26.584C18.9829 26.9826 18.4885 27.1816 17.8818 27.1816C17.2754 27.1815 16.7726 26.9826 16.374 26.584C15.9929 26.1854 15.8028 25.7088 15.8027 25.1543C15.8027 24.5997 15.9928 24.1313 16.374 23.75C16.7726 23.3514 17.2754 23.1524 17.8818 23.1523ZM17.5967 8.54004C18.8617 8.54008 19.9707 8.73109 20.9238 9.1123C21.877 9.47625 22.6228 10.0131 23.1602 10.7236C23.6975 11.417 23.9658 12.2671 23.9658 13.2725C23.9658 13.9656 23.8532 14.5719 23.6279 15.0918C23.4199 15.6118 23.1426 16.0711 22.7959 16.4697C22.4667 16.8509 22.1117 17.215 21.7305 17.5615C21.3492 17.8908 20.9852 18.2206 20.6387 18.5498C20.3093 18.8791 20.04 19.2349 19.832 19.6162C19.6242 19.9974 19.5205 20.448 19.5205 20.9678H16.2188C16.2188 20.3267 16.3224 19.7635 16.5303 19.2783C16.7383 18.793 17.0066 18.3589 17.3359 17.9775C17.6652 17.5963 18.0121 17.2414 18.376 16.9121C18.7573 16.5828 19.1131 16.2622 19.4424 15.9502C19.7717 15.6382 20.0401 15.3086 20.248 14.9619C20.456 14.6152 20.5605 14.2253 20.5605 13.792C20.5605 13.0642 20.2658 12.475 19.6768 12.0244C19.0875 11.5738 18.2984 11.3477 17.3105 11.3477C16.3572 11.3477 15.5251 11.5215 14.8145 11.8682C14.1212 12.2148 13.5402 12.7084 13.0723 13.3496L10.5508 11.7119C11.2787 10.7241 12.2317 9.95304 13.4102 9.39844C14.5888 8.82644 15.9847 8.54004 17.5967 8.54004Z" fill="currentColor"/>
</svg>
