<svg width="36" height="36" viewBox="0 0 36 36" fill="none" xmlns="http://www.w3.org/2000/svg">
<path fill-rule="evenodd" clip-rule="evenodd" d="M14.0001 6.94223C13.9999 7.4938 14.0001 8 14.0001 8L8.94292 8C8.42231 8 8 8.42162 8 8.94223V9.05777C8 9.57838 8.42231 10 8.94292 10H27.0578C27.5784 10 28 9.57838 28 9.05777V8.94223C28 8.42162 27.5784 8 27.0578 8L22.0001 8C22.0001 8 21.9998 7.49358 22 6.94223C22 6.42162 21.5784 6 21.0578 6H14.943C14.4224 6 14.0001 6.42162 14.0001 6.94223ZM15 14V26H13V14H15ZM19 26H17V14H19V26ZM21 14V26H23V14H21ZM9.00005 27V12H11.0001V27C11.0001 27.5523 11.4478 28 12.0001 28H24.0001C24.5523 28 25.0001 27.5523 25.0001 27V12H27.0001V27C27.0001 28.6569 25.6569 30 24.0001 30H12.0001C10.3432 30 9.00005 28.6569 9.00005 27Z" fill="currentColor"/>
</svg>
