<svg width="36" height="36" viewBox="0 0 36 36" fill="none" xmlns="http://www.w3.org/2000/svg">
<path d="M18 0C27.9411 0 36 8.05887 36 18C36 27.9411 27.9411 36 18 36C8.05887 36 0 27.9411 0 18C0 8.05887 8.05887 0 18 0ZM18 1C8.61116 1 1 8.61116 1 18C1 27.3888 8.61116 35 18 35C27.3888 35 35 27.3888 35 18C35 8.61116 27.3888 1 18 1ZM16.2002 7.82227C16.8905 6.62664 18.4195 6.21713 19.6152 6.90723L26.5439 10.9072C27.7394 11.5977 28.1493 13.1267 27.459 14.3223L19.459 28.1787C18.7686 29.374 17.2395 29.7837 16.0439 29.0938L9.11523 25.0938C7.91998 24.4034 7.51044 22.8742 8.2002 21.6787L16.2002 7.82227ZM28.5889 17.2002C28.8553 17.129 29.1295 17.2875 29.2012 17.5537C30.2359 21.4159 28.7909 25.3564 25.8447 27.6904C26.0544 28.1251 26.3114 28.6557 26.623 29.3018L22.1992 28.9746L24.6953 25.3076C25.6275 27.2389 24.3189 24.5268 25.3984 26.7646C27.924 24.6551 29.1428 21.1994 28.2354 17.8125C28.1644 17.5463 28.323 17.272 28.5889 17.2002ZM18.8652 8.20605C18.387 7.93024 17.7751 8.09411 17.499 8.57227L9.49902 22.4287L9.45215 22.5195C9.24488 22.9815 9.41751 23.535 9.86523 23.7939L16.7939 27.7939L16.8848 27.8418C17.316 28.0355 17.8278 27.8979 18.1045 27.5146L18.1602 27.4287L26.1602 13.5723C26.419 13.124 26.2908 12.5582 25.8799 12.2617L25.7939 12.2061L18.8652 8.20605ZM13.459 7.14648L10.9639 10.8135C10.0314 8.88179 11.3402 11.5951 10.2598 9.35547C7.73422 11.465 6.51634 14.9216 7.42383 18.3086C7.4947 18.5749 7.33649 18.8493 7.07031 18.9209C6.80393 18.992 6.52871 18.8336 6.45703 18.5674C5.42223 14.7053 6.86642 10.7628 9.8125 8.42871C9.60301 7.99444 9.34726 7.4643 9.03613 6.81934L13.459 7.14648ZM18.4199 10.4658C18.696 9.98799 19.308 9.82399 19.7861 10.0996L23.25 12.0996C23.7282 12.3757 23.8921 12.9876 23.6162 13.4658C23.34 13.9438 22.7281 14.1081 22.25 13.832L18.7861 11.832C18.3084 11.5558 18.1443 10.9438 18.4199 10.4658Z" fill="currentColor"/>
</svg>
