<svg width="36" height="36" viewBox="0 0 36 36" fill="none" xmlns="http://www.w3.org/2000/svg">
<path d="M27 21C27.5523 21 28 21.4477 28 22V25C28 26.1046 27.1046 27 26 27H10C8.89543 27 8 26.1046 8 25V22C8 21.4477 8.44771 21 9 21C9.55229 21 10 21.4477 10 22V25H26V22C26 21.4477 26.4477 21 27 21Z" fill="currentColor"/>
<path d="M29 10.3164L16.7275 21.5996L11 16.334L12.4316 15.0176L16.7275 18.9668L27.5684 9L29 10.3164Z" fill="currentColor"/>
<path fill-rule="evenodd" clip-rule="evenodd" d="M18 0C27.9411 0 36 8.05887 36 18C36 27.9411 27.9411 36 18 36C8.05887 36 0 27.9411 0 18C0 8.05887 8.05887 0 18 0ZM18 1C8.61116 1 1 8.61116 1 18C1 27.3888 8.61116 35 18 35C27.3888 35 35 27.3888 35 18C35 8.61116 27.3888 1 18 1Z" fill="currentColor"/>
</svg>
