<svg width="36" height="36" viewBox="0 0 36 36" fill="none" xmlns="http://www.w3.org/2000/svg">
<path d="M18 0C27.9411 0 36 8.05887 36 18C36 27.9411 27.9411 36 18 36C8.05887 36 0 27.9411 0 18C0 8.05887 8.05887 0 18 0ZM18 1C8.61116 1 1 8.61116 1 18C1 27.3888 8.61116 35 18 35C27.3888 35 35 27.3888 35 18C35 8.61116 27.3888 1 18 1ZM19.8623 27H16.1182V14.0879H19.8623V27ZM17.9902 8.1123C18.6782 8.1123 19.2389 8.30448 19.6709 8.68848C20.1026 9.05642 20.3183 9.53615 20.3184 10.1279C20.3184 10.7519 20.1029 11.2725 19.6709 11.6885C19.2549 12.0884 18.6942 12.2881 17.9902 12.2881C17.3025 12.288 16.7424 12.0883 16.3105 11.6885C15.8786 11.2885 15.6631 10.7921 15.6631 10.2002C15.6631 9.6082 15.8785 9.11191 16.3105 8.71191C16.7425 8.31199 17.3024 8.11238 17.9902 8.1123Z" fill="currentColor"/>
</svg>
