<svg width="36" height="36" viewBox="0 0 36 36" fill="none" xmlns="http://www.w3.org/2000/svg">
<path fill-rule="evenodd" clip-rule="evenodd" d="M14.5665 25.8894C19.8377 28.3873 25.433 26.993 28.4833 24.4563C30.0334 23.2019 31.2975 21.5853 32.1324 19.6919H8.72897C9.9322 22.4099 12.0091 24.5761 14.5665 25.8894ZM3.4612 32.8478H27.692V27.488C27.4275 27.6361 27.1582 27.776 26.8834 27.9075C21.3449 30.5881 15.7635 29.272 12.007 26.7783C10.0555 25.2757 9.64325 24.7896 9.05428 24.0952C8.97736 24.0045 8.89743 23.9102 8.81066 23.8097C8.63482 23.5896 8.45966 23.3687 8.29628 23.1382L8.30666 23.4629C8.30735 26.3858 6.21243 28.7999 3.4612 29.2921V32.8478ZM3.46674 4.11011V13.4563C3.46674 15.556 5.17535 17.264 7.27443 17.264H11.0821V4.11011H3.46674ZM13.159 17.615H33.632C33.9622 17.615 34.273 17.7728 34.469 18.0386C34.6649 18.3059 34.7217 18.6493 34.622 18.965C33.7144 21.8512 31.9954 24.2902 29.7689 26.086V34.6277H1.38428V27.3073H2.42274C4.52251 27.3073 6.23043 25.5986 6.23043 23.4996V19.219C3.55674 18.6652 1.38982 16.292 1.38982 13.4563V3.16511L2.42828 2.12664H4.49966V1.38449H10.0381V2.12664H12.1206L13.159 3.16511V17.615ZM34.6701 16.6196H15.228V15.235H34.6701V16.6196Z" fill="currentColor"/>
</svg>
