<svg width="36" height="36" viewBox="0 0 36 36" fill="none" xmlns="http://www.w3.org/2000/svg">
<path fill-rule="evenodd" clip-rule="evenodd" d="M29.8694 19.3477L9.18046 13.8244C6.51854 13.1148 4.686 10.6017 4.82239 7.85881L4.91031 6.37104L10.5478 8.56289L10.5488 8.56358L10.5498 8.56427L22.1813 13.0954C22.1986 13.1019 22.2164 13.1065 22.2342 13.1111C22.2448 13.1138 22.2554 13.1165 22.2658 13.1197L31.8376 16.8415L29.8694 19.3477ZM18.2712 4.87289C17.8938 6.46104 18.0759 8.08451 18.7094 9.50789L13.4174 7.44966L18.2712 4.87289ZM34.5217 16.107C34.4345 15.7892 34.2025 15.5324 33.8958 15.4126L22.9366 11.1514C20.7988 10.0327 19.7015 7.55351 20.3273 5.21143C20.5371 4.42566 20.9137 3.71881 21.4502 3.10889C21.7805 2.73227 21.7957 2.1722 21.4848 1.77897C21.1733 1.38643 20.6264 1.27081 20.1833 1.5062L10.8607 6.4562L4.33431 3.9182C4.02485 3.79774 3.67593 3.83235 3.39693 4.01235C3.11723 4.19097 2.94139 4.49351 2.92131 4.82512L2.74893 7.74597C2.56339 11.4699 5.04254 14.8705 8.64531 15.8314L29.9954 21.5305C30.084 21.5547 30.1733 21.5658 30.2626 21.5658C30.5762 21.5658 30.8795 21.4232 31.0795 21.1691L34.3362 17.0229C34.539 16.764 34.6082 16.424 34.5217 16.107ZM22.5563 21.7471C22.5569 21.7722 22.5586 21.7972 22.5603 21.8221V21.8221C22.5624 21.8534 22.5646 21.8847 22.5646 21.9167C22.5646 22.5848 22.4164 23.2175 22.1568 23.7894L34.6211 27.1069V24.9573L22.5563 21.7471ZM14.1244 19.5324L14.1113 19.5802C13.7658 20.1541 13.5422 20.8084 13.4792 21.5104L1.39706 18.3098L1.39359 16.1609L14.1244 19.5324ZM17.9595 31.1575C19.1752 31.1575 20.1452 31.5687 21.0015 31.9315C21.7742 32.2596 22.4415 32.5421 23.2384 32.5421C24.0297 32.5421 24.7012 32.2624 25.4801 31.9384C26.3607 31.5728 27.3576 31.1575 28.6169 31.1575C29.9074 31.1575 30.8157 31.586 31.6181 31.964C31.9469 32.1191 32.2432 32.2589 32.5437 32.3614V30.9248L3.46193 23.2202V32.3628C3.7707 32.2575 4.06909 32.1163 4.38824 31.964C5.16847 31.5936 6.05255 31.1727 7.30493 31.1727C8.52201 31.1727 9.50855 31.5777 10.3788 31.9356C11.1715 32.261 11.8562 32.5421 12.6634 32.5421C13.4672 32.5421 14.1387 32.2582 14.9169 31.9294C15.7746 31.568 16.7459 31.1575 17.9595 31.1575ZM34.6206 34.619H33.5822C32.3796 34.619 31.5045 34.2064 30.7326 33.8429C30.0396 33.5162 29.4422 33.2344 28.6169 33.2344C27.7723 33.2344 27.08 33.5224 26.2783 33.8554C25.4185 34.2133 24.4437 34.619 23.2384 34.619C22.0192 34.619 21.0479 34.2071 20.1909 33.8436C19.4189 33.5168 18.7529 33.2344 17.9595 33.2344C17.1662 33.2344 16.4988 33.5162 15.7248 33.8429C14.8635 34.2064 13.8874 34.619 12.6634 34.619C11.4463 34.619 10.4598 34.214 9.58955 33.8561C8.79755 33.5314 8.11216 33.2496 7.30493 33.2496C6.52124 33.2496 5.94593 33.5231 5.28062 33.8395C4.51216 34.205 3.64124 34.619 2.42347 34.619H1.38501V20.5215L34.6206 29.3263V34.619ZM18.0116 20.3131C17.1275 20.3131 16.4082 21.0324 16.4082 21.9165C16.4082 22.8012 17.1275 23.5205 18.0116 23.5205C18.8957 23.5205 19.615 22.8012 19.615 21.9165C19.615 21.0324 18.8957 20.3131 18.0116 20.3131ZM18.0116 24.9052C16.3639 24.9052 15.0236 23.5642 15.0236 21.9165C15.0236 20.2695 16.3639 18.9285 18.0116 18.9285C19.6593 18.9285 20.9996 20.2695 20.9996 21.9165C20.9996 23.5642 19.6593 24.9052 18.0116 24.9052ZM7.64458 10.0367L11.4855 11.5106L11.9819 10.2181L8.14096 8.74414L7.64458 10.0367Z" fill="currentColor"/>
</svg>
