<svg width="36" height="36" viewBox="0 0 36 36" fill="none" xmlns="http://www.w3.org/2000/svg">
<path fill-rule="evenodd" clip-rule="evenodd" d="M13.4999 4.84644H22.4999V3.46182H13.4999V4.84644ZM12.1153 6.23106H23.8846V2.07721H12.1153V6.23106ZM10.7307 28.3842H12.8076V22.8423H10.7307V28.3842ZM19.0384 28.3842H16.9615V22.8423H19.0384V28.3842ZM23.1923 28.3842H25.2692V22.8423H23.1923V28.3842ZM10.3639 15.9101L9.02224 15.5702L9.19185 14.8994C9.8897 12.1461 12.3723 10.2221 15.2309 10.2221C16.7962 10.2221 18.2472 10.803 19.357 11.7784L20.5824 8.40899C20.8448 7.69314 21.6375 7.32068 22.3561 7.58237L27.5622 9.47722C28.2788 9.73822 28.6505 10.5337 28.3895 11.2509L26.7315 15.8056L25.4306 15.3321L27.0887 10.7774L21.8825 8.88322L20.3996 12.9602C20.788 13.5362 21.085 14.1814 21.265 14.8834L21.4367 15.5543L20.095 15.8977L19.9233 15.2268C19.3778 13.0959 17.4483 11.6068 15.2309 11.6068C13.0072 11.6068 11.0763 13.1008 10.5349 15.2386L10.3639 15.9101ZM30.8387 21.5454L28.4627 31.0494C28.3471 31.5125 27.9331 31.8358 27.4554 31.8358H8.54434C8.06664 31.8358 7.65264 31.5125 7.53703 31.0494L5.16103 21.5454L3.14641 22.0501L5.52241 31.5534C5.86995 32.9429 7.11264 33.9128 8.54434 33.9128H27.4554C28.8878 33.9128 30.1305 32.9429 30.478 31.5534L32.8533 22.0501L30.8387 21.5454ZM9.68242 5.19232H7.70658L5.15265 14.1314L3.15534 13.5609L6.13919 3.11539H9.68242V5.19232ZM30.8475 14.1315L32.8448 13.5611L29.8603 3.11553H26.3399V5.19246H28.2936L30.8475 14.1315ZM3.01958 20.0769H32.9806C33.5012 20.0769 33.9228 19.6553 33.9228 19.1347V18.2499C33.9228 17.7293 33.5012 17.3077 32.9806 17.3077H3.01958C2.49897 17.3077 2.07666 17.7293 2.07666 18.2499V19.1347C2.07666 19.6553 2.49897 20.0769 3.01958 20.0769Z" fill="currentColor"/>
</svg>
