<svg width="36" height="36" viewBox="0 0 36 36" fill="none" xmlns="http://www.w3.org/2000/svg">
<path fill-rule="evenodd" clip-rule="evenodd" d="M26.502 3.49901C24.8249 3.56441 23.23 4.35973 22.1653 5.73239C20.8897 7.37718 20.6 9.59439 21.4101 11.5198C21.581 11.9262 21.4804 12.396 21.1584 12.6983L3.9657 28.8102C3.66825 29.0907 3.50088 29.4719 3.49455 29.8826C3.48823 30.2932 3.64434 30.6786 3.93476 30.969L5.03457 32.0688C5.31937 32.3536 5.69629 32.5097 6.09782 32.5097C6.10555 32.5097 6.11329 32.5097 6.12173 32.509C6.5324 32.5027 6.91354 32.3353 7.19552 32.0358L23.3088 14.8431C23.6118 14.5203 24.0823 14.4191 24.4887 14.5921C26.8958 15.6068 29.6939 14.8783 31.2944 12.8151V12.8158C32.0552 11.8348 32.468 10.6661 32.5018 9.46148L28.5821 12.5014C28.1623 12.8263 27.566 12.789 27.1904 12.4135L23.5668 8.78992C23.1913 8.41441 23.1534 7.81809 23.4789 7.39828L26.502 3.49901ZM6.09641 34.6193C5.13162 34.6193 4.22659 34.2445 3.54308 33.5603L2.44326 32.4612C1.74639 31.7636 1.37017 30.8368 1.38494 29.8509C1.39971 28.8643 1.80335 27.9494 2.52132 27.273L19.2084 11.6351C18.4405 9.18442 18.9095 6.48693 20.498 4.4399C22.4424 1.93227 25.6786 0.836675 28.7502 1.64888C29.0926 1.73959 29.3662 1.99556 29.4794 2.33099C29.5933 2.66571 29.5314 3.0356 29.3141 3.31477L25.7158 7.95592L28.0245 10.2638L32.6719 6.65921C32.9511 6.44333 33.3196 6.38074 33.6543 6.49325C33.9883 6.60577 34.245 6.87791 34.3371 7.21896C34.9869 9.63236 34.4862 12.1435 32.9624 14.1083V14.109C30.9315 16.7263 27.4865 17.7734 24.3713 16.7938L8.73273 33.4801C8.05484 34.2002 7.13927 34.6039 6.15337 34.6186C6.13368 34.6186 6.1154 34.6193 6.09641 34.6193ZM7.0643 27.7033C7.40887 27.3587 7.96792 27.3587 8.31249 27.7033C8.65706 28.0478 8.65706 28.6069 8.31249 28.9514C7.96792 29.2967 7.40887 29.2967 7.0643 28.9514C6.71973 28.6069 6.71973 28.0478 7.0643 27.7033Z" fill="currentColor"/>
</svg>
