<svg width="36" height="36" viewBox="0 0 36 36" fill="none" xmlns="http://www.w3.org/2000/svg">
<path fill-rule="evenodd" clip-rule="evenodd" d="M8.65358 17.4456H22.2235C23.561 17.4456 24.6487 18.5332 24.6487 19.8708V22.9841H28.1102V18.4841C28.1102 16.0028 26.0914 13.9841 23.6102 13.9841H4.15358V19.2394C5.33189 18.1303 6.91243 17.4456 8.65358 17.4456ZM30.1871 18.4841V25.061H28.0389V26.7918C28.0389 27.365 27.5744 27.8302 27.0004 27.8302C26.4272 27.8302 25.962 27.365 25.962 26.7918V25.061H22.5717V19.8708C22.5717 19.679 22.4153 19.5225 22.2235 19.5225H8.65358C6.17235 19.5225 4.15358 21.5413 4.15358 24.0225V35.3078H2.07666V1.38475H4.15358V11.9071H17.6543V7.40714L17.6544 7.40507L17.6549 7.40162L17.655 7.40021H12.0618V5.32329H25.2697V7.40021H19.7305C19.7305 7.40125 19.7307 7.40247 19.7309 7.40368L19.7311 7.40523L19.7312 7.40714V11.9071H23.6102C27.2365 11.9071 30.1871 14.8578 30.1871 18.4841ZM23.193 27.4841C23.193 26.9108 23.6582 26.4456 24.2315 26.4456C24.8047 26.4456 25.2699 26.9108 25.2699 27.4841V30.2533C25.2699 30.8265 24.8047 31.2917 24.2315 31.2917C23.6582 31.2917 23.193 30.8265 23.193 30.2533V27.4841ZM29.7699 26.4456C29.1967 26.4456 28.7315 26.9108 28.7315 27.4841V30.2533C28.7315 30.8265 29.1967 31.2917 29.7699 31.2917C30.3432 31.2917 30.8084 30.8265 30.8084 30.2533V27.4841C30.8084 26.9108 30.3432 26.4456 29.7699 26.4456ZM25.9622 31.7049C25.9622 31.1316 26.4275 30.6664 27.0007 30.6664C27.5739 30.6664 28.0392 31.1316 28.0392 31.7049V34.4741C28.0392 35.0473 27.5739 35.5125 27.0007 35.5125C26.4275 35.5125 25.9622 35.0473 25.9622 34.4741V31.7049ZM21.4622 30.5994C20.8883 30.5994 20.4238 31.0647 20.4238 31.6379V34.3884C20.4238 34.9617 20.8883 35.4269 21.4622 35.4269C22.0362 35.4269 22.5007 34.9617 22.5007 34.3884V31.6379C22.5007 31.0647 22.0362 30.5994 21.4622 30.5994ZM31.5007 31.6379C31.5007 31.0647 31.9659 30.5994 32.5392 30.5994C33.1124 30.5994 33.5776 31.0647 33.5776 31.6379V34.4071C33.5776 34.9804 33.1124 35.4456 32.5392 35.4456C31.9659 35.4456 31.5007 34.9804 31.5007 34.4071V31.6379Z" fill="currentColor"/>
</svg>
