<svg width="36" height="36" viewBox="0 0 36 36" fill="none" xmlns="http://www.w3.org/2000/svg">
<path fill-rule="evenodd" clip-rule="evenodd" d="M19.0359 28.921C19.1349 28.536 19.4457 28.2411 19.8348 28.1622C23.7048 27.3757 26.5945 24.1371 27.0126 20.272C24.2046 20.0733 21.2083 19.7091 18.7174 17.9998V23.1353C18.7174 23.5182 18.4073 23.8276 18.0251 23.8276C17.6423 23.8276 17.3328 23.5182 17.3328 23.1353V18.006C14.8412 19.7119 11.8442 20.076 9.03618 20.2726C9.45434 24.1281 12.3316 27.3674 16.185 28.1629C16.6059 28.2494 16.9181 28.5824 16.9943 28.986L17.6706 31.6126C17.8098 32.181 17.9386 32.4185 18.0036 32.5106C18.0708 32.4178 18.1989 32.1824 18.3436 31.6154L19.0359 28.921ZM13.1526 15.43C12.7982 15.7976 12.8016 16.4068 12.839 17.4515C12.8399 17.4808 12.8405 17.5117 12.8412 17.5431V17.5432C12.842 17.5872 12.843 17.6322 12.8446 17.6751C14.4473 17.3082 15.8187 16.7038 16.9866 15.637V14.5507C14.9395 14.622 13.6483 14.9163 13.1526 15.43ZM23.2098 17.4487C23.2472 16.4054 23.2513 15.7969 22.8969 15.4293C22.4012 14.9163 21.1107 14.622 19.0636 14.5507V15.6293C20.2301 16.6976 21.6023 17.3033 23.2043 17.6716C23.2051 17.6424 23.2057 17.6121 23.2063 17.5819L23.2063 17.5817L23.2063 17.5816L23.2063 17.5814C23.2072 17.536 23.2081 17.4906 23.2098 17.4487ZM25.2722 18.0206C26.1763 18.1286 27.1414 18.2006 28.1716 18.2663C28.731 18.3023 29.1616 18.7752 29.1429 19.336C29.1429 19.3477 29.1422 19.3595 29.1415 19.3713C29.1103 24.387 25.6876 28.77 20.8906 30.0466L20.3554 32.1305L20.355 32.1322C20.1974 32.7487 19.7183 34.6228 18.0064 34.6228C16.2721 34.6228 15.809 32.7411 15.6564 32.1208L15.656 32.1194L15.1223 30.0439C10.3398 28.7534 6.9288 24.3621 6.90734 19.3505C6.90734 19.3463 6.90734 19.3408 6.90664 19.3353C6.88934 18.7745 7.31857 18.3016 7.87795 18.2663C8.90811 18.2013 9.87249 18.13 10.7766 18.0226C10.7732 17.8551 10.7683 17.689 10.7628 17.5256C10.7192 16.2877 10.6742 15.0076 11.658 13.9872C12.5843 13.0283 14.2112 12.5624 16.9866 12.4738V2.42288C16.9866 1.84965 17.4519 1.38441 18.0251 1.38441C18.5983 1.38441 19.0636 1.84965 19.0636 2.42288V12.4738C21.839 12.5624 23.4653 13.0283 24.3909 13.9865C25.3746 15.0063 25.3296 16.2856 25.286 17.5228C25.2798 17.6862 25.2756 17.853 25.2722 18.0206ZM32.5431 23.5407V7.03122H34.62V34.6204H32.5431V31.9204L30.3775 34.6204H29.0968V32.9256L32.5431 28.6008V25.6176H28.1151C28.5831 24.9724 28.9818 24.2773 29.2996 23.5407H32.5431ZM24.633 22.6345H24.6177C23.4221 22.6082 22.1649 22.4587 21.0627 21.5531C20.7671 21.3108 20.7242 20.8747 20.9672 20.5791C21.2095 20.2848 21.645 20.2398 21.9413 20.4842C22.7568 21.1537 23.7254 21.2298 24.6482 21.2499C25.0304 21.2589 25.3336 21.5753 25.3253 21.9574C25.3163 22.3341 25.0082 22.6345 24.633 22.6345ZM7.91783 25.5957H3.46144V28.5886L6.94029 32.9266L6.94306 34.62H5.63737L3.46144 31.9082V34.62H1.38452V7.0315H3.46144V23.5188H6.74021C7.05521 24.2554 7.4526 24.9498 7.91783 25.5957Z" fill="currentColor"/>
</svg>
