<svg width="36" height="36" viewBox="0 0 36 36" fill="none" xmlns="http://www.w3.org/2000/svg">
<path fill-rule="evenodd" clip-rule="evenodd" d="M28.3121 28.3983C30.6223 28.3983 32.5019 26.5187 32.5019 24.2085V13.2001C32.5019 10.8899 30.6223 9.01025 28.3121 9.01025L7.65084 9.00609C5.3413 9.00609 3.46169 10.8857 3.46169 13.1959V24.2036C3.46169 26.5146 5.3413 28.3942 7.65084 28.3942L28.3121 28.3983ZM17.9925 6.22232C16.2611 6.22232 14.7975 5.05232 14.3503 3.4614H7.95407V6.92917L28.031 6.93332V3.4614H21.6348C21.1875 5.05232 19.724 6.22232 17.9925 6.22232ZM30.1079 1.38448V7.19848C32.6902 7.97317 34.5788 10.3686 34.5788 13.2001V24.2085C34.5788 27.6638 31.7674 30.4752 28.3121 30.4752L7.65084 30.4711C4.19553 30.4711 1.38477 27.6589 1.38477 24.2036V13.1959C1.38477 10.3568 3.28377 7.95586 5.87715 7.18878V1.38448H16.2895V2.51848C16.3303 3.42263 17.0787 4.1454 17.9925 4.1454C18.9112 4.1454 19.6631 3.41432 19.6963 2.50325L19.6956 1.38448H30.1079ZM20.4832 21.3899C20.558 21.1462 20.6106 20.8928 20.6106 20.6256C20.6106 19.6397 19.3935 18.172 18.6188 17.3378C18.6188 18.5068 18.2752 19.0417 18.1937 19.1684C18.1846 19.1826 18.1788 19.1917 18.1771 19.196C17.7977 18.8048 17.3373 18.4919 16.8223 18.2863C15.9652 18.7162 15.3746 19.6003 15.3746 20.6256C15.3746 20.8928 15.4266 21.1462 15.502 21.3899C15.2099 20.9316 15.0347 20.3916 15.0347 19.8093C15.0347 17.2734 17.0376 14.6523 17.9902 13.5488C18.9421 14.66 20.9505 17.3011 20.9505 19.8093C20.9505 20.3916 20.7753 20.9316 20.4832 21.3899ZM18.4845 12.032L17.995 11.5383L17.5028 12.0292C17.3463 12.1863 13.6501 15.922 13.6501 19.8093C13.6501 22.204 15.5976 24.1515 17.9923 24.1515C20.387 24.1515 22.3351 22.204 22.3351 19.8093C22.3351 15.965 18.6416 12.1905 18.4845 12.032ZM6.56925 34.6215H29.4154V32.5446H6.56925V34.6215Z" fill="currentColor"/>
</svg>
