<svg width="36" height="36" viewBox="0 0 36 36" fill="none" xmlns="http://www.w3.org/2000/svg">
<path fill-rule="evenodd" clip-rule="evenodd" d="M1.38501 13.143L3.24593 15.0018C7.19762 11.0411 12.4557 8.86106 18.0502 8.86106C23.6268 8.86106 28.8724 11.0301 32.8206 14.9679L34.6781 13.1063C30.2335 8.67276 24.3281 6.23099 18.0502 6.23099C11.7523 6.23099 5.83309 8.68591 1.38501 13.143ZM18.0619 25.6722C16.8607 25.6722 15.7738 26.1623 14.9908 26.9536L18.0446 30.0067L21.0976 26.9183C20.3174 26.1478 19.245 25.6722 18.0619 25.6722ZM7.65704 19.6168L5.79473 17.76C9.06866 14.4771 13.426 12.6694 18.0617 12.6694C22.678 12.6694 27.0216 14.4646 30.2907 17.7226L28.4346 19.5856C25.6612 16.8212 21.9774 15.2995 18.0617 15.2995C14.1294 15.2995 10.4339 16.833 7.65704 19.6168ZM10.0577 22.0247L11.9221 23.8808C13.5601 22.2359 15.7401 21.3297 18.0621 21.3297C20.3675 21.3297 22.5365 22.2241 24.1711 23.8497L26.0258 21.9853C23.8948 19.8661 21.0668 18.6996 18.0621 18.6996C15.0361 18.6996 12.1928 19.8807 10.0577 22.0247Z" fill="currentColor"/>
</svg>
