<svg width="36" height="36" viewBox="0 0 36 36" fill="none" xmlns="http://www.w3.org/2000/svg">
<path fill-rule="evenodd" clip-rule="evenodd" d="M25.3172 22.2607L27.7658 22.5806L29.7943 18.766L28.1598 16.9134L10.5966 7.57551L7.7533 12.9229L25.3172 22.2607ZM9.76169 4.84644L29.4301 15.3037L32.2333 18.478L28.8922 24.7627L24.6927 24.2151L13.9841 18.5216C13.685 18.7057 13.3458 18.8089 12.9948 18.8214L9.09777 21.7664C9.10018 21.7864 9.10289 21.8064 9.1056 21.8263C9.11379 21.8865 9.122 21.9469 9.122 22.0087C9.122 23.1234 8.21853 24.0275 7.10323 24.0275C6.3583 24.0275 5.71446 23.6191 5.36553 23.0181H3.40353V32.5173H1.38477V10.3877H3.40353V20.9994H5.36553C5.71446 20.3991 6.3583 19.99 7.10323 19.99C7.38292 19.99 7.64807 20.0467 7.88969 20.1492L11.1207 17.7074C10.9947 17.4527 10.9275 17.1744 10.9158 16.8898L5.02354 13.7571L9.76169 4.84644ZM11.8871 10.1646C11.7126 10.4928 11.3062 10.6174 10.9774 10.4429C10.6492 10.2685 10.5253 9.86068 10.6998 9.53322C10.8742 9.20507 11.2806 9.07976 11.6095 9.25422C11.9376 9.42868 12.0615 9.83645 11.8871 10.1646ZM10.3491 11.6329L24.6072 19.2144C24.9353 19.3882 25.06 19.7959 24.8848 20.1241C24.7643 20.3518 24.5317 20.4806 24.2908 20.4806C24.1842 20.4806 24.0755 20.4564 23.9751 20.4024L9.71703 12.8209C9.38957 12.6472 9.26496 12.2394 9.43942 11.9105C9.61388 11.5831 10.0217 11.4571 10.3491 11.6329ZM29.5064 25.039L32.8081 18.8304L34.5901 19.7781L31.2891 25.9867L29.5064 25.039Z" fill="currentColor"/>
</svg>
