<svg width="36" height="36" viewBox="0 0 36 36" fill="none" xmlns="http://www.w3.org/2000/svg">
<path fill-rule="evenodd" clip-rule="evenodd" d="M33.2307 11.7692H26.3076V2.76923H33.2307V11.7692ZM25.6153 1.38461H33.923C34.3058 1.38461 34.6153 1.69407 34.6153 2.07692V12.4615C34.6153 12.8444 34.3058 13.1538 33.923 13.1538H30.8076V33.2335H31.8405V34.6182H27.6922V33.2335H28.7307V13.1538H25.6153C25.2324 13.1538 24.923 12.8444 24.923 12.4615V2.07692C24.923 1.69407 25.2324 1.38461 25.6153 1.38461ZM29.8412 5.54178C30.483 5.54178 30.8042 5.88378 30.8042 6.46878C30.8042 7.04478 30.483 7.38678 29.8412 7.38678H28.98V5.54178H29.8412ZM29.9347 8.79078C31.4301 8.79078 32.3695 7.89978 32.3695 6.46878C32.3695 5.02878 31.4301 4.13778 29.9347 4.13778H27.4299V10.4378H28.98V8.79078H29.9347ZM22.8724 21.0005L21.9489 16.9615H7.12797L6.20444 21.0005L4.18013 20.538L5.28782 15.6918C5.39513 15.219 5.81536 14.8846 6.29998 14.8846H22.7769C23.2615 14.8846 23.6817 15.219 23.7891 15.6918L24.8967 20.538L22.8724 21.0005ZM3.46144 29.4231H25.6153V25.119C25.4159 24.6122 25.1784 24.1013 24.9957 23.7759C21.3112 24.8338 18.3426 25.2692 14.8845 25.2692C11.2284 25.2692 7.59798 24.7666 4.08244 23.7752C3.90037 24.1013 3.66152 24.6178 3.46144 25.128V29.4231ZM23.5384 32.5385H21.4614V31.5H23.5384V32.5385ZM7.61529 32.5385H5.53837V31.5H7.61529V32.5385ZM27.6257 24.5603C26.7168 22.1448 25.9704 21.3231 24.9687 21.6201C21.224 22.7368 18.3024 23.1923 14.8845 23.1923C11.2319 23.1923 7.6056 22.6627 4.10806 21.6201C3.10698 21.3231 2.35791 22.1469 1.45098 24.5714C1.40668 24.6884 1.38452 24.8116 1.38452 24.9362V30.4615C1.38452 31.0348 1.84975 31.5 2.42298 31.5H3.46144V33.5769C3.46144 34.1502 3.92668 34.6154 4.49991 34.6154H8.65375C9.22698 34.6154 9.69221 34.1502 9.69221 33.5769V31.5H19.3845V33.5769C19.3845 34.1502 19.8498 34.6154 20.423 34.6154H24.5768C25.1501 34.6154 25.6153 34.1502 25.6153 33.5769V31.5H26.6538C27.227 31.5 27.6922 31.0348 27.6922 30.4615V24.9258C27.6922 24.8005 27.6701 24.6773 27.6257 24.5603Z" fill="currentColor"/>
</svg>
