<svg width="36" height="36" viewBox="0 0 36 36" fill="none" xmlns="http://www.w3.org/2000/svg">
<path fill-rule="evenodd" clip-rule="evenodd" d="M15.2658 19.3481L10.5726 13.6677H8.51232L15.3966 22.3105L22.2477 13.6677H13.139L16.7909 18.0888L15.2658 19.3481ZM25.1381 13.2067C25.0979 13.2697 25.0529 13.3285 25.001 13.3804L16.388 24.2462V32.6363H23.6448V34.6163H7.15193V32.6363H14.4087V24.2476L1.38501 7.89321L2.93301 6.6609L6.93663 11.6884H8.93809L1.46739 2.64483L2.99255 1.38483L11.5045 11.6884H23.8165L27.8014 6.6609L29.3522 7.89044L25.1381 13.2067ZM22.9851 7.40001C22.9851 4.30817 25.501 1.79232 28.5928 1.79232C31.6847 1.79232 34.2005 4.30817 34.2005 7.40001C34.2005 10.4919 31.6847 13.0077 28.5928 13.0077H27.6028V11.0284H28.5928C30.5936 11.0284 32.2212 9.40009 32.2212 7.40001C32.2212 5.39993 30.5936 3.77163 28.5928 3.77163C26.5921 3.77163 24.9645 5.39993 24.9645 7.40001V8.38932H22.9851V7.40001Z" fill="currentColor"/>
</svg>
