<svg width="36" height="36" viewBox="0 0 36 36" fill="none" xmlns="http://www.w3.org/2000/svg">
<path fill-rule="evenodd" clip-rule="evenodd" d="M6.94184 4.19649H22.1304L22.1518 4.21726V33.2416H6.92246L6.94184 4.19649ZM31.1518 11.1196C31.1518 10.5152 31.2688 9.93434 31.4779 9.38811L32.1903 10.6924V14.1083C31.5312 13.2671 31.1518 12.2183 31.1518 11.1196ZM30.4595 30.158C32.5586 30.158 34.2672 28.4494 34.2672 26.3503V10.4273C34.2672 10.2535 34.2229 10.0825 34.1398 9.92949L29.4765 1.38434L27.6536 2.37988L30.6679 7.90311C30.0864 8.86888 29.7672 9.98349 29.7672 11.1196C29.7672 13.058 30.6783 14.8809 32.1903 16.0509V26.3503C32.1903 27.305 31.4142 28.0811 30.4595 28.0811C29.5048 28.0811 28.7288 27.305 28.7288 26.3503V15.9657C28.7288 15.3925 28.2635 14.9273 27.6903 14.9273H25.6134V13.1965H24.2288V4.21726C24.2288 3.05834 23.2893 2.11957 22.1304 2.11957H6.94184C5.78292 2.11957 4.84415 3.05834 4.84415 4.21726V33.2873H0.692383V35.3642H33.9232V33.2873H24.2288V18.735H25.6134V17.0042H26.6518V26.3503C26.6518 28.4494 28.3598 30.158 30.4595 30.158ZM10.3825 15.9675H18.6902V7.65976H10.3825V15.9675ZM8.99786 17.3521H20.0748V6.27515H8.99786V17.3521ZM14.0393 26.8587C15.6884 26.8587 16.767 25.8749 16.767 24.2847C16.767 22.6952 15.6884 21.7114 14.0393 21.7114H12.2843V26.8587H14.0393ZM10.3618 20.1336H14.1349C16.8508 20.1336 18.7124 21.7695 18.7124 24.2847C18.7124 26.7999 16.8508 28.4365 14.1349 28.4365H10.3618V20.1336ZM17.3076 11.1275H11.7692V9.73668H17.3076V11.1275Z" fill="currentColor"/>
</svg>
