<svg width="36" height="36" viewBox="0 0 36 36" fill="none" xmlns="http://www.w3.org/2000/svg">
<path fill-rule="evenodd" clip-rule="evenodd" d="M32.5385 7.6208H2.76931V3.83941C2.76931 3.63934 2.94377 3.46972 3.11546 3.46141L32.1495 3.46072C32.3641 3.46972 32.5385 3.63934 32.5385 3.83941V7.6208ZM32.1924 1.38449L3.07184 1.38518C1.73777 1.44057 0.692383 2.51918 0.692383 3.83941V9.69772H34.6155V3.83941C34.6155 2.51918 33.5701 1.44057 32.1924 1.38449ZM17.6539 11.7713C12.6832 11.7713 8.65392 15.8005 8.65392 20.7713C8.65392 25.742 12.6832 29.7713 17.6539 29.7713C22.2735 29.7713 26.0798 26.2913 26.5947 21.8097H28.7544V19.7328H26.5947C26.0798 15.2512 22.2735 11.7713 17.6539 11.7713ZM21.8244 19.7328H24.4993C23.9968 16.4062 21.1184 13.8482 17.6539 13.8482C13.8365 13.8482 10.7308 16.9539 10.7308 20.7713C10.7308 24.5886 13.8365 27.6943 17.6539 27.6943C21.1184 27.6943 23.9968 25.1363 24.4993 21.8097H21.8244V19.7328ZM2.76931 12.4636V32.8866H32.5385V12.431H34.6155V34.9636H0.692383V12.4636H2.76931ZM14.4598 16.986L15.4691 17.9338L14.9949 18.4385C14.3912 19.0802 14.0589 19.9207 14.0589 20.8041C14.0589 21.7539 14.4362 22.6394 15.1223 23.2971L15.6214 23.7768L14.6619 24.7758L14.1628 24.2961C13.2032 23.3739 12.6743 22.1333 12.6743 20.8041C12.6743 19.5669 13.1402 18.39 13.9862 17.49L14.4598 16.986ZM12.1155 6.23348H5.19238V4.84887H12.1155V6.23348ZM26.6992 5.54118C26.6992 5.92748 26.3856 6.24041 26 6.24041C25.6137 6.24041 25.3 5.92748 25.3 5.54118C25.3 5.15418 25.6137 4.84125 26 4.84125C26.3856 4.84125 26.6992 5.15418 26.6992 5.54118ZM28.7124 6.24041C29.098 6.24041 29.4117 5.92748 29.4117 5.54118C29.4117 5.15418 29.098 4.84125 28.7124 4.84125C28.3261 4.84125 28.0125 5.15418 28.0125 5.54118C28.0125 5.92748 28.3261 6.24041 28.7124 6.24041Z" fill="currentColor"/>
</svg>
