<svg width="36" height="36" viewBox="0 0 36 36" fill="none" xmlns="http://www.w3.org/2000/svg">
<path fill-rule="evenodd" clip-rule="evenodd" d="M6.94184 4.19643H22.1304L22.1518 4.2172V33.2415H6.92246L6.94184 4.19643ZM31.1518 11.1195C31.1518 10.5151 31.2688 9.93428 31.4779 9.38805L32.1903 10.6924V14.1082C31.5312 13.267 31.1518 12.2182 31.1518 11.1195ZM30.4595 30.158C32.5586 30.158 34.2672 28.4494 34.2672 26.3503V10.4272C34.2672 10.2534 34.2229 10.0824 34.1398 9.92943L29.4765 1.38428L27.6536 2.37982L30.6679 7.90305C30.0864 8.86882 29.7672 9.98343 29.7672 11.1195C29.7672 13.058 30.6783 14.8808 32.1903 16.0508V26.3503C32.1903 27.305 31.4142 28.081 30.4595 28.081C29.5048 28.081 28.7288 27.305 28.7288 26.3503V15.9657C28.7288 15.3924 28.2635 14.9272 27.6903 14.9272H25.6134V13.1964H24.2288V4.2172C24.2288 3.05828 23.2893 2.11951 22.1304 2.11951H6.94184C5.78292 2.11951 4.84415 3.05828 4.84415 4.2172V33.2872H0.692383V35.3641H33.9232V33.2872H24.2288V18.7349H25.6134V17.0041H26.6518V26.3503C26.6518 28.4494 28.3598 30.158 30.4595 30.158ZM10.3825 15.9675H18.6902V7.65977H10.3825V15.9675ZM8.99786 17.3521H20.0748V6.27515H8.99786V17.3521ZM11.7692 13.8995H17.3076V12.5087H11.7692V13.8995ZM11.7692 11.1275H17.3076V9.73669H11.7692V11.1275ZM16.1893 23.1774C16.1893 22.2657 15.5974 21.7319 14.4239 21.7319H12.8607V24.6105H14.4239C15.5974 24.6105 16.1893 24.0774 16.1893 23.1774ZM18.1326 23.1774C18.1326 25.0252 16.7466 26.1744 14.5312 26.1744H12.8607V28.4604H10.9416V20.1687H14.5312C16.7466 20.1687 18.1326 21.3165 18.1326 23.1774Z" fill="currentColor"/>
</svg>
