<svg width="36" height="36" viewBox="0 0 36 36" fill="none" xmlns="http://www.w3.org/2000/svg">
<path fill-rule="evenodd" clip-rule="evenodd" d="M26.3063 18V16.6154C30.1237 16.6154 33.2294 13.5097 33.2294 9.69231C33.2294 5.87492 30.1237 2.76923 26.3063 2.76923C23.4623 2.76923 20.9389 4.47507 19.879 7.11415L18.594 6.59769C19.8658 3.43107 22.8933 1.38461 26.3063 1.38461C30.8873 1.38461 34.614 5.11131 34.614 9.69231C34.614 14.2733 30.8873 18 26.3063 18ZM25.4079 11.4825H29.2322V13.2832H21.9602V11.4825H23.0782V9.83485H21.9602V8.49385H23.0782V8.42254C23.0782 6.18708 24.5369 4.8807 27.0909 4.8807C28.0559 4.8807 28.8798 5.06831 29.4911 5.41031L28.8092 7.19924C28.3266 6.91608 27.7499 6.81085 27.2086 6.81085C26.0669 6.81085 25.4079 7.31624 25.4079 8.37616V8.49385H28.0677V9.83485H25.4079V11.4825ZM24.7547 32.5668H8.60735C6.62459 32.5668 4.88412 31.1601 4.46874 29.2209L4.0942 27.4756L25.5384 30.7392L24.7547 32.5668ZM16.6139 9.88892V8.35961L18.3724 9.15992L16.6139 9.88892ZM27.929 29.4099C27.7725 29.1288 27.4956 28.9364 27.1778 28.8879L16.6139 27.2797V11.3878L20.3738 9.82938L20.3953 8.55969L16.2421 6.66969C16.1445 6.61777 16.0393 6.58107 15.9216 6.58107C15.5491 6.58107 15.2507 6.876 15.2355 7.24431L15.196 7.26923V10.9392L15.2293 10.9613V27.0699L2.92005 25.1965C2.58359 25.1474 2.24159 25.2623 2.00828 25.5115C1.77428 25.7601 1.67666 26.1076 1.74866 26.4406L2.4382 29.6564C3.05712 32.5461 5.6512 34.6438 8.60735 34.6438H25.4394C25.8548 34.6438 26.2307 34.3966 26.3941 34.0145L27.976 30.3238C28.1027 30.0282 28.0854 29.691 27.929 29.4099ZM3.66843 21.5041L11.074 22.7364V10.8627C7.37643 13.3653 4.74774 17.1343 3.66843 21.5041ZM12.1125 25.001C12.0557 25.001 11.999 24.9961 11.9422 24.9864L2.25266 23.374C1.97782 23.3283 1.73205 23.174 1.57282 22.9455C1.4122 22.717 1.35059 22.4332 1.40251 22.159C2.5282 16.1373 6.25074 11.015 11.6175 8.10519C11.9394 7.93142 12.3292 7.93834 12.6442 8.12596C12.9585 8.31288 13.151 8.65281 13.151 9.01834V23.9625C13.151 24.2671 13.0167 24.5572 12.784 24.7545C12.5957 24.9151 12.3569 25.001 12.1125 25.001ZM23.5912 24.7254L20.2764 24.1882V17.3787C21.5046 19.2264 22.4814 21.2154 23.5912 24.7254ZM24.901 27.0419C24.9564 27.0516 25.0118 27.0557 25.0672 27.0557C25.3621 27.0557 25.6466 26.9297 25.8453 26.7054C26.0814 26.4382 26.1638 26.0692 26.0641 25.7272C24.1229 19.0568 22.5949 16.8629 20.0618 13.5599C19.7904 13.2075 19.3266 13.0663 18.9043 13.2089C18.4826 13.3522 18.1995 13.7475 18.1995 14.1927V25.0716C18.1995 25.5811 18.5685 26.0159 19.0718 26.0969L24.901 27.0419ZM10.4664 30.903L5.98649 30.1138L6.22672 28.7506L10.7066 29.5392L10.4664 30.903Z" fill="currentColor"/>
</svg>
