<svg width="36" height="36" viewBox="0 0 36 36" fill="none" xmlns="http://www.w3.org/2000/svg">
<path fill-rule="evenodd" clip-rule="evenodd" d="M12.2655 9.2212L13.2139 9.64489L14.0613 7.74866L13.1128 7.32497L13.1123 7.32462C13.0986 7.31652 12.853 7.1709 12.8172 6.90128C12.847 6.7714 13.1008 6.4386 13.2597 6.23032L13.2707 6.21589L13.2729 6.21298C13.7274 5.61879 14.2917 4.88099 14.1935 3.95274C14.0578 2.66574 13.1551 1.97551 12.6435 1.77059L11.6791 1.38428L10.8732 3.29782L11.8376 3.68412C11.8965 3.71389 12.0924 3.83643 12.1277 4.15697C12.1131 4.31205 11.8058 4.71358 11.6216 4.95312L11.6214 4.95343C11.1943 5.51138 10.6628 6.20566 10.7521 7.05497C10.9127 8.57458 12.1277 9.15958 12.2655 9.2212ZM8.8647 13.9914V23.7509C8.8647 25.8361 10.5615 27.5336 12.6482 27.5336H23.4897C25.5763 27.5336 27.2739 25.8361 27.2739 23.7509V22.1226C27.2739 21.7563 27.4809 21.4206 27.8083 21.2572C28.1365 21.0931 28.529 21.1291 28.8218 21.3493C29.2061 21.6386 29.6651 21.8048 30.149 21.8304C30.8732 21.874 31.5765 21.5805 32.0681 21.0419C32.5672 20.4943 32.7819 19.7777 32.6725 19.0252C32.5368 18.0926 31.823 17.3041 30.8953 17.0632C30.1677 16.8749 29.4332 17.0258 28.8239 17.4848C28.5304 17.7056 28.1379 17.7416 27.809 17.5783C27.4815 17.4142 27.2739 17.0798 27.2739 16.7129V13.9914H8.8647ZM23.4897 29.4679H12.6482C9.4947 29.4679 6.9297 26.9029 6.9297 23.7509V13.0243C6.9297 12.4898 7.36308 12.0564 7.89754 12.0564H28.2403C28.7748 12.0564 29.2082 12.4898 29.2082 13.0243V15.1884C29.9122 15.0063 30.6579 15.0036 31.3813 15.1905H31.382C33.0532 15.6246 34.3416 17.0542 34.5867 18.7469C34.7785 20.0643 34.3804 21.3756 33.497 22.3448C32.6136 23.314 31.3495 23.827 30.0472 23.7626C29.762 23.7474 29.4802 23.7045 29.2082 23.6359V23.7509C29.2082 26.9029 26.6432 29.4679 23.4897 29.4679ZM29.4521 34.5991H6.56575C5.11537 34.5991 3.81037 33.7925 3.16029 32.4944L1.38452 28.9422L3.24268 28.0131L5.01844 31.5654C5.31337 32.1559 5.90668 32.5221 6.56575 32.5221H29.4521C30.1111 32.5221 30.7051 32.1559 30.9994 31.5654L32.7758 28.0131L34.6333 28.9422L32.8575 32.4944C32.2074 33.7925 30.9031 34.5991 29.4521 34.5991ZM18.7524 9.64489L17.8039 9.2212C17.6661 9.15958 16.4511 8.57458 16.2905 7.05497C16.2012 6.20566 16.7327 5.51138 17.1598 4.95343L17.1601 4.95312C17.3442 4.71358 17.6516 4.31205 17.6661 4.15697C17.6308 3.83643 17.4349 3.71389 17.3761 3.68412L16.4117 3.29782L17.2175 1.38428L18.1819 1.77059C18.6935 1.97551 19.5963 2.66574 19.732 3.95274C19.8301 4.88099 19.2658 5.61879 18.8114 6.21298L18.8091 6.21589L18.7981 6.23031C18.6393 6.43858 18.3854 6.77139 18.3557 6.90128C18.3915 7.1709 18.6371 7.31652 18.6507 7.32462L18.6513 7.32497L19.5998 7.74866L18.7524 9.64489ZM23.3424 9.2212L24.2908 9.64489L25.1382 7.74866L24.1898 7.32497C24.1897 7.32494 24.1895 7.32482 24.1892 7.32462C24.1755 7.3165 23.93 7.17088 23.8941 6.90128C23.9239 6.77139 24.1778 6.43858 24.3366 6.23031L24.3476 6.21589L24.3498 6.21299C24.8043 5.6188 25.3686 4.88099 25.2705 3.95274C25.1348 2.66574 24.232 1.97551 23.7204 1.77059L22.756 1.38428L21.9501 3.29782L22.9145 3.68412C22.9734 3.71389 23.1693 3.83643 23.2046 4.15697C23.1901 4.31205 22.8827 4.71358 22.6985 4.95312L22.6983 4.95342C22.2712 5.51137 21.7397 6.20566 21.829 7.05497C21.9896 8.57458 23.2046 9.15958 23.3424 9.2212Z" fill="currentColor"/>
</svg>
