<svg width="36" height="36" viewBox="0 0 36 36" fill="none" xmlns="http://www.w3.org/2000/svg">
<path fill-rule="evenodd" clip-rule="evenodd" d="M28.3596 16.7235L27.6998 16.9818V26.0718H24.1905V20.5174H22.1136V26.0718H18.6521V20.5174H16.5751V26.0718H13.1136V20.5174H11.0367V26.0718H7.60698V17.6464C8.3796 17.8728 9.19375 18.0001 10.0384 18.0001C11.3821 18.0001 12.6698 17.7004 13.8661 17.1091L12.9468 15.2468C12.0384 15.6961 11.0602 15.9232 10.0384 15.9232C6.41206 15.9232 3.46144 12.9726 3.46144 9.34629C3.46144 5.71929 6.41206 2.76937 10.0384 2.76937C11.3683 2.76937 12.6491 3.16398 13.7422 3.9096C14.4691 4.40667 15.0798 5.03114 15.5581 5.76844L17.2993 4.63652C17.0244 4.21352 16.7108 3.82375 16.3716 3.45891C16.7953 3.29898 17.2453 3.21037 17.7091 3.21037C18.7926 3.21037 19.8276 3.67352 20.5497 4.48144C20.9235 4.90098 21.2046 5.4036 21.3624 5.93806L23.3542 5.3496C23.2864 5.11975 23.2005 4.89544 23.1043 4.67529C23.9877 4.24744 24.9541 4.01967 25.9614 4.01967C29.5878 4.01967 32.5384 6.97029 32.5384 10.5966C32.5384 13.3243 30.8983 15.7287 28.3596 16.7235ZM7.60698 32.612V27.4564H27.6998V29.5208H17.6136V30.9054H27.6998V32.612H7.60698ZM25.9614 1.94275C24.536 1.94275 23.1694 2.28614 21.9378 2.93621C20.8314 1.79183 19.3063 1.13344 17.7091 1.13344C16.6049 1.13344 15.5422 1.44221 14.6214 2.01129C13.2479 1.15144 11.6722 0.692444 10.0384 0.692444C5.26698 0.692444 1.38452 4.57421 1.38452 9.34629C1.38452 12.4651 3.04883 15.1956 5.53006 16.7187V34.6889H29.7768V18.3678C32.7384 16.9201 34.6153 13.9425 34.6153 10.5966C34.6153 5.82521 30.7335 1.94275 25.9614 1.94275Z" fill="currentColor"/>
</svg>
