<svg width="36" height="36" viewBox="0 0 36 36" fill="none" xmlns="http://www.w3.org/2000/svg">
<path fill-rule="evenodd" clip-rule="evenodd" d="M6.23071 3.46146C6.23071 2.69715 6.85102 2.07684 7.61533 2.07684C8.37964 2.07684 8.99994 2.69715 8.99994 3.46146C8.99994 4.22577 8.37964 4.84607 7.61533 4.84607C6.85102 4.84607 6.23071 4.22577 6.23071 3.46146ZM11.7692 14.5384C11.7692 13.7741 12.3895 13.1538 13.1538 13.1538C13.9181 13.1538 14.5384 13.7741 14.5384 14.5384C14.5384 15.3027 13.9181 15.923 13.1538 15.923C12.3895 15.923 11.7692 15.3027 11.7692 14.5384ZM13.1538 2.07684C12.3895 2.07684 11.7692 2.69715 11.7692 3.46146C11.7692 4.22577 12.3895 4.84607 13.1538 4.84607C13.9181 4.84607 14.5384 4.22577 14.5384 3.46146C14.5384 2.69715 13.9181 2.07684 13.1538 2.07684ZM17.3076 3.46146C17.3076 2.69715 17.9279 2.07684 18.6923 2.07684C19.4573 2.07684 20.0769 2.69715 20.0769 3.46146C20.0769 4.22577 19.4573 4.84607 18.6923 4.84607C17.9279 4.84607 17.3076 4.22577 17.3076 3.46146ZM7.61533 7.6153C6.85102 7.6153 6.23071 8.23561 6.23071 8.99992C6.23071 9.76423 6.85102 10.3845 7.61533 10.3845C8.37964 10.3845 8.99994 9.76423 8.99994 8.99992C8.99994 8.23561 8.37964 7.6153 7.61533 7.6153ZM11.7692 8.99992C11.7692 8.23561 12.3895 7.6153 13.1538 7.6153C13.9181 7.6153 14.5384 8.23561 14.5384 8.99992C14.5384 9.76423 13.9181 10.3845 13.1538 10.3845C12.3895 10.3845 11.7692 9.76423 11.7692 8.99992ZM18.6923 7.6153C17.9279 7.6153 17.3076 8.23561 17.3076 8.99992C17.3076 9.76423 17.9279 10.3845 18.6923 10.3845C19.4573 10.3845 20.0769 9.76423 20.0769 8.99992C20.0769 8.23561 19.4573 7.6153 18.6923 7.6153ZM6.23071 14.5384C6.23071 13.7741 6.85102 13.1538 7.61533 13.1538C8.37964 13.1538 8.99994 13.7741 8.99994 14.5384C8.99994 15.3027 8.37964 15.923 7.61533 15.923C6.85102 15.923 6.23071 15.3027 6.23071 14.5384ZM25.0352 33.2326H18.0207C17.1671 31.0241 14.438 24.0629 13.043 21.6475C12.9475 21.482 13.0043 21.2695 13.1683 21.1746C13.277 21.1116 13.3795 21.1262 13.4321 21.1393C13.4847 21.1539 13.5796 21.1933 13.6426 21.3013L18.3461 29.447V14.5382C18.3461 14.3478 18.5019 14.192 18.6923 14.192C18.8826 14.192 19.0384 14.3478 19.0384 14.5382V21.4737H21.1153C21.1153 21.2826 21.2711 21.1276 21.4615 21.1276C21.6519 21.1276 21.8076 21.2826 21.8076 21.4737V22.8445H23.8846C23.8846 22.6541 24.0403 22.4983 24.2307 22.4983C24.4211 22.4983 24.5769 22.6541 24.5769 22.8445L24.5776 24.2277L26.6545 24.2291C26.6545 24.0387 26.8103 23.8836 26.9999 23.8836C27.1903 23.8836 27.3461 24.0394 27.3461 24.2298V29.4816L25.0352 33.2326ZM16.5925 35.3095H26.1955L29.423 30.0701V24.2298C29.423 22.8943 28.3361 21.8067 26.9999 21.8067C26.8109 21.8067 26.6261 21.8289 26.4489 21.8704C26.0729 21.0182 25.2207 20.4214 24.2307 20.4214C24.0396 20.4214 23.8527 20.4443 23.6741 20.4858C23.2954 19.6405 22.4459 19.0506 21.4615 19.0506C21.3438 19.0506 21.2282 19.0589 21.1153 19.0749V14.5382C21.1153 13.2027 20.0284 12.1151 18.6923 12.1151C17.3561 12.1151 16.2692 13.2027 16.2692 14.5382V21.6966L15.4419 20.2636C14.7738 19.106 13.2902 18.7079 12.1299 19.376C10.9744 20.0441 10.5763 21.5291 11.2444 22.6859C12.7596 25.3094 16.1485 34.1473 16.3304 34.6216C16.3345 34.6323 16.3369 34.6387 16.3377 34.6407L16.5925 35.3095Z" fill="currentColor"/>
</svg>
