<svg width="36" height="36" viewBox="0 0 36 36" fill="none" xmlns="http://www.w3.org/2000/svg">
<path fill-rule="evenodd" clip-rule="evenodd" d="M18.253 3.79079L11.9627 11.2878C10.8634 9.43102 11.0115 7.03564 12.4557 5.31387C13.8998 3.59349 16.2336 3.02995 18.253 3.79079ZM7.96535 32.948V6.59256V6.48041C8.02351 5.57764 8.77605 4.86179 9.69197 4.86179C9.86366 4.86179 10.0284 4.89433 10.1884 4.9421C8.69989 7.43856 8.84389 10.5934 10.5733 12.9438L10.223 13.3606L11.8139 14.6953L21.583 3.05349L19.9921 1.71872L19.6425 2.13479C16.966 0.810409 13.7489 1.26733 11.5432 3.28333C10.9817 2.96833 10.3538 2.78487 9.69197 2.78487C7.59289 2.78487 5.88428 4.49349 5.88428 6.59256L5.88843 32.948H3.5962V27.3964H1.38428V35.0249H34.6365V32.948H7.96535ZM16.7183 13.9286C17.304 14.4201 17.3809 15.2931 16.8893 15.8788C16.3978 16.4645 15.5241 16.5407 14.9384 16.0491C14.3527 15.5583 14.2766 14.6846 14.7681 14.0989C15.2596 13.5132 16.1326 13.4371 16.7183 13.9286ZM20.2786 9.68552C20.8643 10.1771 20.9411 11.0507 20.4496 11.6357C19.9581 12.2221 19.0844 12.2983 18.4987 11.8067C17.913 11.3152 17.8361 10.4422 18.3277 9.85652C18.8192 9.27013 19.6929 9.19398 20.2786 9.68552ZM23.8385 5.44312C24.4242 5.93466 24.5011 6.80836 24.0095 7.39336C23.518 7.97905 22.6443 8.0552 22.0586 7.56366C21.4729 7.07282 21.3967 6.19982 21.8883 5.61343C22.3798 5.02774 23.2528 4.95159 23.8385 5.44312ZM21.6805 14.4769C22.2661 14.9684 22.343 15.8421 21.8515 16.4271C21.3599 17.0135 20.4862 17.0897 19.9005 16.5981C19.3148 16.1066 19.2387 15.2336 19.7302 14.6479C20.2218 14.0615 21.0948 13.9854 21.6805 14.4769ZM18.1205 18.72C18.7062 19.2115 18.7831 20.0845 18.2915 20.6702C17.8 21.2559 16.9263 21.3321 16.3406 20.8405C15.7549 20.3497 15.6781 19.476 16.1696 18.8903C16.6612 18.3046 17.5348 18.2285 18.1205 18.72ZM25.2407 10.2345C25.8264 10.7261 25.9033 11.5997 25.4117 12.1847C24.9202 12.7704 24.0465 12.8466 23.4608 12.3551C22.8751 11.8642 22.7983 10.9912 23.2898 10.4048C23.7813 9.81913 24.655 9.74298 25.2407 10.2345ZM28.9716 7.94236C29.4632 7.35666 29.3863 6.48297 28.8006 5.99143C28.2149 5.49989 27.3419 5.57605 26.8504 6.16243C26.3582 6.74813 26.435 7.62112 27.0207 8.11266C27.6064 8.6042 28.4801 8.52805 28.9716 7.94236ZM33.7627 6.54036C34.3484 7.0319 34.4252 7.90559 33.9337 8.49059C33.4421 9.07698 32.5684 9.15313 31.9828 8.66159C31.3971 8.17006 31.3202 7.29706 31.8118 6.71067C32.304 6.12498 33.177 6.04882 33.7627 6.54036ZM30.2028 10.7828C30.7885 11.2744 30.8654 12.1481 30.3731 12.7337C29.8816 13.3194 29.0086 13.3956 28.4229 12.9041C27.8372 12.4125 27.7604 11.5395 28.2519 10.9538C28.7434 10.3674 29.6171 10.2913 30.2028 10.7828ZM26.8136 16.9761C27.3051 16.3911 27.2283 15.5174 26.6426 15.0259C26.0569 14.5344 25.1839 14.6105 24.6923 15.1962C24.2008 15.7826 24.277 16.6556 24.8626 17.1464C25.4483 17.638 26.322 17.5618 26.8136 16.9761ZM23.0827 19.2683C23.6683 19.7598 23.7452 20.6335 23.2537 21.2185C22.7621 21.8049 21.8884 21.8811 21.3027 21.3895C20.717 20.898 20.6402 20.025 21.1317 19.4393C21.6233 18.8529 22.497 18.7768 23.0827 19.2683ZM19.6934 25.4616C20.1849 24.8759 20.1081 24.0029 19.5224 23.5114C18.9367 23.0198 18.0637 23.096 17.5722 23.6817C17.0806 24.2674 17.1568 25.1411 17.7425 25.6319C18.3282 26.1235 19.2019 26.0473 19.6934 25.4616Z" fill="currentColor"/>
</svg>
