<svg width="36" height="36" viewBox="0 0 36 36" fill="none" xmlns="http://www.w3.org/2000/svg">
<path fill-rule="evenodd" clip-rule="evenodd" d="M29.0218 11.7603C27.7313 11.8413 26.5032 11.3747 25.608 10.5003C28.4887 10.123 30.7207 7.64038 30.7207 4.64407C30.7207 4.12346 30.6515 3.60561 30.5165 3.10507C32.187 3.83892 33.3099 5.56484 33.2151 7.48115C33.1036 9.73876 31.2607 11.6177 29.0218 11.7603ZM34.5983 7.55038C34.7506 4.46476 32.484 1.75922 29.4372 1.39022C29.1782 1.35769 28.9228 1.47607 28.7774 1.69276C28.6327 1.91015 28.6223 2.19053 28.7504 2.4183C29.1339 3.09538 29.3361 3.86592 29.3361 4.64407C29.3361 7.13638 27.3215 9.16484 24.8451 9.16484C24.6609 9.16484 24.4803 9.14961 24.303 9.12815C24.042 9.09907 23.7893 9.21469 23.6446 9.43207C23.6163 9.4743 23.5976 9.52138 23.5796 9.56845L17.9919 6.26546L1.38694 16.0803L2.42125 17.7771L17.9933 8.5923L33.5606 17.7765L34.5928 16.0789L29.5424 13.0937C32.2736 12.7053 34.4592 10.3528 34.5983 7.55038ZM7.95175 31.8768H28.0287V29.8172H7.95175V31.8768ZM7.95175 28.4326V26.2587C8.50906 25.0929 9.69083 24.2787 11.0671 24.2787H24.9133C26.2896 24.2787 27.4714 25.0929 28.0287 26.2587V28.4326H7.95175ZM7.95175 24.0337V19.0324C7.95175 18.6807 8.23768 18.3941 8.59006 18.3941H27.3904C27.7428 18.3941 28.0287 18.6807 28.0287 19.0324V24.0337C27.5274 23.6121 26.9411 23.2908 26.2979 23.0984V21.3891C26.2979 20.6912 25.7323 20.1249 25.0338 20.1249H20.639C19.9404 20.1249 19.3748 20.6912 19.3748 21.3891V22.8941H16.6056V21.3891C16.6056 20.6912 16.04 20.1249 15.3414 20.1249H10.9467C10.2481 20.1249 9.68252 20.6912 9.68252 21.3891V23.0984C9.03937 23.2908 8.45298 23.6121 7.95175 24.0337ZM27.3904 16.3172H8.59006C7.09329 16.3172 5.87483 17.5357 5.87483 19.0324V31.8761H1.38452V33.9531H34.5952V31.8761H30.1056V19.0324C30.1056 17.5357 28.8871 16.3172 27.3904 16.3172ZM11.0671 22.8941H15.221V21.5095H11.0671V22.8941ZM20.7594 22.8941H24.9133V21.5095H20.7594V22.8941ZM4.49021 8.6544H4.83637C5.02744 8.6544 5.18252 8.80948 5.18252 9.00056C5.18252 9.19163 5.02744 9.34671 4.83637 9.34671H4.49021V9.69286C4.49021 9.88394 4.33514 10.039 4.14406 10.039C3.95298 10.039 3.79791 9.88394 3.79791 9.69286V9.34671H3.45175C3.26068 9.34671 3.1056 9.19163 3.1056 9.00056C3.1056 8.80948 3.26068 8.6544 3.45175 8.6544H3.79791V8.30825C3.79791 8.11717 3.95298 7.96209 4.14406 7.96209C4.33514 7.96209 4.49021 8.11717 4.49021 8.30825V8.6544ZM10.3748 3.11594H10.0287V2.76979C10.0287 2.57871 9.8736 2.42363 9.68252 2.42363C9.49144 2.42363 9.33637 2.57871 9.33637 2.76979V3.11594H8.99021C8.79914 3.11594 8.64406 3.27102 8.64406 3.46209C8.64406 3.65317 8.79914 3.80825 8.99021 3.80825H9.33637V4.1544C9.33637 4.34548 9.49144 4.50056 9.68252 4.50056C9.8736 4.50056 10.0287 4.34548 10.0287 4.1544V3.80825H10.3748C10.5659 3.80825 10.721 3.65317 10.721 3.46209C10.721 3.27102 10.5659 3.11594 10.3748 3.11594ZM23.8748 5.88517H24.221C24.4121 5.88517 24.5671 6.04025 24.5671 6.23132C24.5671 6.4224 24.4121 6.57748 24.221 6.57748H23.8748V6.92363C23.8748 7.11471 23.7198 7.26979 23.5287 7.26979C23.3376 7.26979 23.1825 7.11471 23.1825 6.92363V6.57748H22.8364C22.6453 6.57748 22.4902 6.4224 22.4902 6.23132C22.4902 6.04025 22.6453 5.88517 22.8364 5.88517H23.1825V5.53902C23.1825 5.34794 23.3376 5.19286 23.5287 5.19286C23.7198 5.19286 23.8748 5.34794 23.8748 5.53902V5.88517Z" fill="currentColor"/>
</svg>
