<svg width="36" height="36" viewBox="0 0 36 36" fill="none" xmlns="http://www.w3.org/2000/svg">
<path fill-rule="evenodd" clip-rule="evenodd" d="M23.9801 27.693H32.9324V23.9538C32.625 21.7392 30.7218 20.0776 28.4801 20.0776C26.2114 20.0776 24.2875 21.7392 23.9801 23.9538V27.693ZM29.4708 18.0824C32.3314 18.5192 34.6327 20.8094 35.001 23.7558L35.0093 23.8853V29.7699H21.9032L21.9115 23.7565C22.2757 20.8392 24.5506 18.5635 27.3939 18.0948V7.96154C27.3939 5.48031 25.3751 3.46154 22.8939 3.46154C20.4127 3.46154 18.3939 5.48031 18.3939 7.96154V28.7308C18.3939 32.3571 15.4433 35.3077 11.817 35.3077C8.19066 35.3077 5.24004 32.3571 5.24004 28.7308V18.3468H6.27504H7.31696V28.7308C7.31696 31.212 9.33573 33.2308 11.817 33.2308C14.2982 33.2308 16.317 31.212 16.317 28.7308V7.96154C16.317 4.33523 19.2676 1.38461 22.8939 1.38461C26.5202 1.38461 29.4708 4.33523 29.4708 7.96154V18.0824ZM6.27483 16.2699C8.40437 16.2699 10.212 14.7288 10.5277 12.6664V9.34677H2.07668V12.6664C2.39237 14.7288 4.17645 16.2699 6.27483 16.2699ZM12.6046 7.26985V12.8083C12.2148 15.9299 9.50237 18.3468 6.27483 18.3468C3.04799 18.3468 0.390217 15.9299 -0.000244141 12.8083V7.26985H3.50629L2.46783 7.26154L2.51214 1.68431L4.58906 1.70024L4.54476 7.26985H9.04476L8.00629 7.26154L8.0506 1.68431L10.1275 1.70024L10.0832 7.26985H12.6046Z" fill="currentColor"/>
</svg>
