<svg width="36" height="36" viewBox="0 0 36 36" fill="none" xmlns="http://www.w3.org/2000/svg">
<path fill-rule="evenodd" clip-rule="evenodd" d="M24.1192 12.8766C24.1192 13.4298 23.6692 13.8798 23.116 13.8798C22.7103 13.8798 22.3621 13.6368 22.2043 13.2893C22.8564 13.0864 23.4559 12.7797 23.9883 12.39C24.0693 12.5346 24.1192 12.6994 24.1192 12.8766ZM25.2698 17.9672L24.7478 18.2656V29.94L23.1112 31.6236L21.4843 29.9676V29.4865L23.2614 27.7356L21.9121 26.36L23.2642 25.028L21.9121 23.658L23.2656 22.3156L21.4843 20.5308V18.2663L20.9623 17.9672C19.579 17.1745 18.7538 15.7663 18.7538 14.2003C18.7538 11.7953 20.7103 9.8388 23.116 9.8388C23.5404 9.8388 23.9496 9.90249 24.3373 10.016C24.0472 10.4681 23.683 10.8662 23.2559 11.1957C23.2095 11.1916 23.1638 11.1819 23.116 11.1819C22.5019 11.1819 21.9696 11.5128 21.6712 12.0023C21.6435 12.0099 21.6193 12.0237 21.5916 12.0306L21.6123 12.1116C21.4939 12.3422 21.4213 12.5997 21.4213 12.8766C21.4213 13.812 22.1814 14.5721 23.116 14.5721C24.0506 14.5721 24.8115 13.812 24.8115 12.8766C24.8115 12.5333 24.7076 12.2141 24.5311 11.9462C24.9493 11.5585 25.3086 11.1106 25.6035 10.6225C26.7333 11.4117 27.4769 12.7195 27.4769 14.2003C27.4769 15.7656 26.6516 17.1738 25.2698 17.9672ZM17.0521 18.3618H17.0396L16.4387 18.3604L10.6019 28.4695L8.34287 29.1099L7.76133 26.862L8.00225 26.4459L10.4163 25.8173L9.93656 23.9515L11.7726 23.4745L11.2873 21.6115L13.1302 21.1255L12.4801 18.6893L13.612 16.728L13.3102 16.208C12.5085 14.8303 12.4974 13.1986 13.2804 11.8423C14.3216 10.041 16.4609 9.2628 18.3689 9.86511C17.9971 10.2715 17.6745 10.7236 17.4156 11.2151C16.9434 11.3016 16.5107 11.5813 16.2525 12.0293C15.826 12.768 16.0254 13.6922 16.6769 14.2038C16.6783 15.6853 17.2099 17.0963 18.1252 18.2233C17.7763 18.3099 17.4176 18.3618 17.0521 18.3618ZM16.7246 12.759C16.7593 12.7825 16.7918 12.8074 16.8271 12.831C16.8029 12.9445 16.7849 13.0601 16.7662 13.1757C16.7239 13.0414 16.708 12.9002 16.7246 12.759ZM15.6827 7.47665C15.6827 4.88118 17.7949 2.76895 20.3911 2.76895C22.9866 2.76895 25.0988 4.88118 25.0988 7.47665C25.0988 7.67465 25.0739 7.8678 25.0503 8.06026C24.439 7.86711 23.7889 7.76188 23.116 7.76188C22.0893 7.76188 21.1222 8.00972 20.2603 8.43826C18.8251 7.61511 17.2044 7.41365 15.7014 7.73834C15.6966 7.65111 15.6827 7.56457 15.6827 7.47665ZM26.365 8.65149C26.4405 8.27003 26.4834 7.87749 26.4834 7.47665C26.4834 4.11757 23.7509 1.38434 20.3911 1.38434C17.032 1.38434 14.2981 4.11757 14.2981 7.47665C14.2981 7.71618 14.3203 7.95365 14.3479 8.18903C13.1849 8.72765 12.1699 9.61172 11.4818 10.8039C10.4419 12.6046 10.3589 14.813 11.2291 16.7023L10.2523 18.3943L10.5866 19.6488L8.75479 20.132L9.23871 21.9867L7.40895 22.463L7.88941 24.3288L6.63771 24.6542L5.53833 26.5594L6.86341 31.6873L11.9782 30.2383L17.6523 20.4117C18.2581 20.3563 18.8459 20.2075 19.4073 19.9894V21.3893L20.3246 22.3086L18.9795 23.6434L20.326 25.0073L18.9795 26.3337L20.3281 27.71L19.4073 28.617V30.8171L23.1195 34.5957L26.8247 30.7825V19.4349C28.5216 18.233 29.5538 16.2793 29.5538 14.2003C29.5538 11.8361 28.2689 9.77165 26.365 8.65149Z" fill="currentColor"/>
</svg>
