<svg width="36" height="36" viewBox="0 0 36 36" fill="none" xmlns="http://www.w3.org/2000/svg">
<path fill-rule="evenodd" clip-rule="evenodd" d="M20.5878 1.38461L17.9895 4.71115L15.4134 1.386L13.7713 2.65777L16.67 6.39969L1.38452 27.4078V34.1758H3.46144V33.3284H32.5384V34.1758H34.6153V27.4105L19.3008 6.40523L22.2244 2.66331L20.5878 1.38461ZM17.3055 8.96123V25.7061H12.4898L11.7975 26.3984V31.2445L11.8134 31.2515H3.46144V28.458H7.61252V27.0734H4.28114L17.3055 8.96123ZM18.6901 9.00831L31.7277 27.0734H28.3824V28.458H32.5384V31.2515H18.6901V9.00831ZM13.1821 27.09H16.1625L13.1821 29.7132V27.09ZM17.3055 27.9284V31.2515H13.529L17.3055 27.9284ZM29.0293 11.9663C27.7388 12.0473 26.5107 11.5806 25.6155 10.7063C28.4962 10.329 30.7282 7.84634 30.7282 4.85003C30.7282 4.32941 30.659 3.81157 30.524 3.31103C32.1945 4.04487 33.3174 5.7708 33.2226 7.68711C33.1111 9.94472 31.2682 11.8236 29.0293 11.9663ZM29.4447 1.59618C29.1857 1.56364 28.9303 1.68203 28.7849 1.89872C28.6402 2.11611 28.6298 2.39649 28.7579 2.62426C29.1414 3.30134 29.3436 4.07187 29.3436 4.85003C29.3436 7.34234 27.329 9.3708 24.8526 9.3708C24.6684 9.3708 24.4877 9.35557 24.3105 9.33411C24.0488 9.30503 23.7968 9.42064 23.6521 9.63803C23.5074 9.85472 23.4977 10.1344 23.6251 10.3622C24.6823 12.2363 26.6152 13.3606 28.7343 13.3606C28.8617 13.3606 28.9891 13.3564 29.1172 13.3481C32.0477 13.1619 34.459 10.7056 34.6058 7.75634C34.7581 4.67072 32.4915 1.96518 29.4447 1.59618ZM4.49762 8.86029H4.84378C5.03485 8.86029 5.18993 9.01537 5.18993 9.20644C5.18993 9.39752 5.03485 9.5526 4.84378 9.5526H4.49762V9.89875C4.49762 10.0898 4.34254 10.2449 4.15147 10.2449C3.96039 10.2449 3.80531 10.0898 3.80531 9.89875V9.5526H3.45916C3.26808 9.5526 3.11301 9.39752 3.11301 9.20644C3.11301 9.01537 3.26808 8.86029 3.45916 8.86029H3.80531V8.51414C3.80531 8.32306 3.96039 8.16798 4.15147 8.16798C4.34254 8.16798 4.49762 8.32306 4.49762 8.51414V8.86029ZM10.3822 3.32183H10.0361V2.97567C10.0361 2.7846 9.88101 2.62952 9.68993 2.62952C9.49885 2.62952 9.34378 2.7846 9.34378 2.97567V3.32183H8.99762C8.80654 3.32183 8.65147 3.47691 8.65147 3.66798C8.65147 3.85906 8.80654 4.01414 8.99762 4.01414H9.34378V4.36029C9.34378 4.55137 9.49885 4.70644 9.68993 4.70644C9.88101 4.70644 10.0361 4.55137 10.0361 4.36029V4.01414H10.3822C10.5733 4.01414 10.7284 3.85906 10.7284 3.66798C10.7284 3.47691 10.5733 3.32183 10.3822 3.32183ZM23.8822 6.09106H24.2284C24.4195 6.09106 24.5745 6.24614 24.5745 6.43721C24.5745 6.62829 24.4195 6.78337 24.2284 6.78337H23.8822V7.12952C23.8822 7.3206 23.7272 7.47567 23.5361 7.47567C23.345 7.47567 23.1899 7.3206 23.1899 7.12952V6.78337H22.8438C22.6527 6.78337 22.4976 6.62829 22.4976 6.43721C22.4976 6.24614 22.6527 6.09106 22.8438 6.09106H23.1899V5.74491C23.1899 5.55383 23.345 5.39875 23.5361 5.39875C23.7272 5.39875 23.8822 5.55383 23.8822 5.74491V6.09106Z" fill="currentColor"/>
</svg>
