<svg width="36" height="36" viewBox="0 0 36 36" fill="none" xmlns="http://www.w3.org/2000/svg">
<path fill-rule="evenodd" clip-rule="evenodd" d="M30.2236 31.6159C27.1408 34.687 22.1229 34.687 19.0415 31.6159C18.0404 30.6197 17.3495 28.6071 17.0372 25.786L17.9268 24.8998C18.3194 27.7521 19.0138 29.6906 19.9975 30.6709C22.5535 33.2158 26.7108 33.2158 29.2661 30.6709C30.5047 29.4372 31.1873 27.7957 31.1873 26.0511C31.1873 24.3058 30.5047 22.6657 29.2661 21.4327C28.0871 20.2593 26.5447 19.1128 24.7668 18.0875L25.5588 17.299C27.5285 17.9851 29.0183 19.2873 30.2236 20.4884C31.7162 21.9741 32.5387 23.9507 32.5387 26.0525C32.5387 28.1537 31.7162 30.1302 30.2236 31.6159ZM13.4988 26.0968C13.3389 25.9383 13.251 25.7264 13.251 25.5021C13.251 25.2771 13.3389 25.0646 13.4995 24.9061L23.4778 14.9694V14.9687C23.6398 14.8074 23.853 14.7243 24.0697 14.7243C24.2954 14.7243 24.5266 14.8136 24.7108 14.9971C24.8714 15.157 24.9593 15.3688 24.9593 15.5938C24.9593 15.8181 24.8714 16.0286 24.7128 16.1878L22.4767 18.415L19.0048 21.8724L15.5931 25.2695L14.7332 26.1259C14.4009 26.4582 13.8595 26.4575 13.4988 26.0968ZM11.0405 23.2992C11.0405 23.0749 11.1284 22.8631 11.2883 22.7045L14.9208 19.0865L15.5668 18.4441L21.2665 12.7664C21.4292 12.6051 21.6418 12.5221 21.8585 12.5221C22.0848 12.5221 22.3161 12.6127 22.5009 12.7962C22.6601 12.9554 22.7481 13.1673 22.7481 13.3916C22.7481 13.6159 22.6601 13.8277 22.5009 13.987C22.5009 13.987 22.5009 13.9877 22.5002 13.9877L12.522 23.9251C12.1904 24.2546 11.649 24.2553 11.2876 23.8953C11.1284 23.7361 11.0405 23.5242 11.0405 23.2992ZM14.9056 16.3637C12.9035 15.9344 10.3038 15.2089 9.64407 14.5526C9.18576 14.095 8.93307 13.4878 8.93238 12.8419C8.93238 12.1953 9.18507 11.5874 9.64476 11.1298C10.1197 10.6577 10.7428 10.4209 11.3672 10.4209C11.9903 10.4209 12.6141 10.6577 13.0897 11.1305C13.7474 11.7854 14.475 14.3712 14.9056 16.3637ZM7.71046 16.4793C6.7343 15.5073 6.19707 14.2154 6.19707 12.8426C6.19707 11.4677 6.7343 10.1758 7.71046 9.20382C9.72715 7.19613 13.008 7.19682 15.024 9.20313C15.8741 10.0505 16.5076 12.1932 16.8219 15.2394L16.2113 15.8472C15.8195 14.0631 15.0531 11.1312 14.0665 10.1495C12.5781 8.66659 10.1564 8.66659 8.66723 10.1495C7.94515 10.8681 7.54776 11.8249 7.54776 12.8426C7.54846 13.8596 7.94584 14.815 8.66723 15.5336C9.65238 16.5153 12.5919 17.2782 14.3829 17.6687L13.7771 18.2717C10.7158 17.9574 8.56199 17.3267 7.71046 16.4793ZM3.46176 12.8419C3.46176 10.7401 4.28284 8.76351 5.77615 7.27782C7.31584 5.74367 9.33807 4.96413 11.3686 4.96413C12.9914 4.96413 14.6204 5.46259 16.0112 6.47267C16.0085 6.49136 16.0078 6.50936 16.005 6.52874C15.9704 6.76413 15.9427 7.00021 15.9268 7.23974C15.9219 7.30413 15.9205 7.36851 15.9171 7.43221C15.9095 7.58382 15.8949 7.73475 15.8949 7.88774C15.8949 7.95005 15.9025 8.01167 15.9032 8.07467C15.9039 8.09198 15.9018 8.10928 15.9025 8.1259C13.3396 5.67859 9.25638 5.71044 6.73292 8.22282C5.49438 9.45651 4.81246 11.0973 4.81246 12.8426C4.81246 14.5865 5.49438 16.2266 6.73292 17.461C7.71669 18.4399 9.66069 19.1315 12.522 19.5213L11.6365 20.4026C8.80153 20.0917 6.77861 19.4036 5.77615 18.4053C4.28284 16.9189 3.46176 14.9431 3.46176 12.8419ZM19.5939 2.32298C19.7788 2.13882 19.9498 2.07651 20.0958 2.07651C20.3042 2.07651 20.4621 2.20251 20.5424 2.28213C20.7265 2.46767 20.937 2.88444 20.5507 3.26867C19.3121 4.50236 18.6302 6.14244 18.6302 7.88774C18.6302 9.39905 19.1418 10.8321 20.0841 11.9897L19.1294 12.9409L19.1107 12.9187C18.9238 12.6951 18.7514 12.4625 18.5915 12.223C18.5804 12.2064 18.57 12.1884 18.5582 12.1717C18.4115 11.9467 18.2765 11.7155 18.1539 11.4787C18.1442 11.4594 18.1332 11.4393 18.1228 11.4199C17.7399 10.6611 17.4858 9.84836 17.3661 9.01067C17.3605 8.97328 17.3557 8.9359 17.3508 8.89851C17.3176 8.64028 17.2961 8.38067 17.2892 8.11967C17.2885 8.10305 17.2871 8.08713 17.2871 8.06982C17.2754 7.48898 17.3259 6.9019 17.445 6.3169L17.4803 6.14451C17.805 4.70936 18.5243 3.38913 19.5939 2.32298ZM18.0625 13.825L18.1421 13.924L18.0722 13.9939C18.0639 13.9309 18.0549 13.8686 18.0459 13.8063C18.0508 13.8125 18.0577 13.8187 18.0625 13.825ZM19.7885 23.0465C20.1796 24.8306 20.9474 27.7618 21.9332 28.7449C22.6781 29.4857 23.655 29.8561 24.6325 29.8561C25.6101 29.8561 26.5876 29.4857 27.3318 28.7442C28.0539 28.0249 28.4513 27.0688 28.4513 26.0511C28.4506 25.0341 28.0532 24.0781 27.3318 23.3594C26.7918 22.8229 24.6374 20.8927 22.8478 19.9997L23.7471 19.1038C25.5581 20.1167 27.1235 21.2534 28.2893 22.4144C29.2648 23.3857 29.8027 24.6776 29.8027 26.0511C29.8027 27.4254 29.2648 28.7172 28.2886 29.6899C26.2726 31.6976 22.9918 31.6983 20.9758 29.6892C20.1249 28.8425 19.4921 26.6998 19.1778 23.6544L19.7885 23.0465ZM21.7989 21.0437C23.1178 21.5428 25.3885 23.3795 26.355 24.3411C26.8133 24.7981 27.066 25.4052 27.0667 26.0518C27.0667 26.6977 26.814 27.3056 26.3543 27.7639C25.4051 28.7082 23.8599 28.7089 22.9108 27.7639C22.1776 27.0335 21.3593 23.9119 20.9598 21.88L21.7989 21.0437ZM31.2005 19.5067C29.9356 18.2474 28.3717 16.8884 26.2816 16.0957C26.319 15.9324 26.3439 15.7655 26.3439 15.5938C26.3439 14.9984 26.1113 14.4384 25.6592 13.9884C25.2362 13.5674 24.6838 13.3542 24.1278 13.3417C24.1154 12.7651 23.8876 12.223 23.4487 11.7861C22.8561 11.197 22.0142 11.0177 21.2596 11.2302C20.4565 10.2984 20.0148 9.12767 20.0148 7.88774C20.0148 6.51351 20.5521 5.22167 21.5282 4.24967C22.4829 3.29913 22.2378 2.02321 21.5234 1.30528C20.8131 0.591514 19.5877 0.376898 18.6164 1.34198C17.5599 2.39428 16.7949 3.65844 16.3484 5.03544C12.7179 2.72451 7.91884 3.19044 4.79792 6.29613C3.04292 8.04421 2.07715 10.369 2.07715 12.8419C2.07715 15.3141 3.04292 17.6389 4.79861 19.387C5.89592 20.4794 7.78176 21.2306 10.4015 21.6328L10.3115 21.7228C9.88846 22.1437 9.65584 22.7038 9.65584 23.2992C9.65584 23.896 9.88846 24.4554 10.3398 24.9054C10.7635 25.327 11.3153 25.5395 11.8712 25.5513C11.8844 26.128 12.1121 26.6701 12.5518 27.1076C12.9872 27.541 13.5584 27.7577 14.1302 27.7577C14.7021 27.7577 15.2739 27.541 15.7101 27.1076L15.8077 27.0114C16.212 29.6241 16.9666 31.5044 18.0639 32.5976C19.875 34.4004 22.2531 35.3024 24.6325 35.3017C27.0106 35.3017 29.3901 34.4004 31.2011 32.5976C32.9561 30.8495 33.9233 28.5247 33.9233 26.0525C33.9233 23.5796 32.9561 21.2548 31.2005 19.5067Z" fill="currentColor"/>
</svg>
