<svg width="36" height="36" viewBox="0 0 36 36" fill="none" xmlns="http://www.w3.org/2000/svg">
<path fill-rule="evenodd" clip-rule="evenodd" d="M18.0256 9.61255L10.4178 6.57678L18.0256 3.54101L25.5946 6.57678L18.0256 9.61255ZM29.4231 6.57678C29.4231 6.1524 29.1648 5.77094 28.7709 5.61309L18.4133 1.45924C18.1647 1.36094 17.8899 1.35886 17.6414 1.45855L7.23044 5.6124C6.83582 5.76955 6.5769 6.15171 6.5769 6.57678C6.5769 7.00186 6.83582 7.38401 7.23044 7.54186L17.6414 11.6957C17.7653 11.7449 17.8961 11.7691 18.0263 11.7691C18.1571 11.7691 18.2887 11.7442 18.4133 11.695L28.0384 7.83494V17.4858L26.2835 19.2413C26.0855 19.4393 26.026 19.737 26.1333 19.9959C26.2399 20.2548 26.4926 20.4231 26.773 20.4231H30.6887C30.9684 20.4231 31.221 20.2548 31.3284 19.9959C31.4357 19.737 31.3761 19.4393 31.1781 19.2413L29.423 17.4855V6.58879C29.423 6.58479 29.4231 6.58079 29.4231 6.57678ZM33.923 34.2706H34.6153V32.886H33.923C33.0949 32.886 32.3821 32.5844 31.6274 32.2651L31.6238 32.2636L31.6223 32.263C30.7788 31.9059 29.8231 31.5014 28.6254 31.5014C27.4355 31.5014 26.5142 31.8848 25.6226 32.2558L25.6222 32.256C24.8434 32.58 24.1068 32.886 23.2469 32.886C22.3794 32.886 21.6491 32.5765 20.8751 32.2477C20.009 31.8808 19.1131 31.5014 17.9681 31.5014C16.8248 31.5014 15.9285 31.8798 15.0614 32.2459L15.0604 32.2463L15.0596 32.2466L15.0596 32.2467L15.0595 32.2467C14.281 32.5754 13.5453 32.886 12.6719 32.886C11.7961 32.886 11.0478 32.5793 10.2551 32.2539C9.37375 31.8912 8.46268 31.5173 7.31344 31.5173C6.15521 31.5173 5.21991 31.9133 4.39468 32.2629L4.38889 32.2654C3.63295 32.5843 2.91792 32.886 2.07683 32.886H1.38452V34.2706H2.07683C3.20114 34.2706 4.08175 33.8982 4.93398 33.5375L4.93978 33.535C5.70956 33.2098 6.43849 32.9019 7.31344 32.9019C8.18873 32.9019 8.93677 33.209 9.72898 33.5341L9.72901 33.5342L9.72905 33.5342L9.73029 33.5347C10.6116 33.8968 11.5234 34.2706 12.6719 34.2706C13.8246 34.2706 14.7251 33.8908 15.5958 33.5236L15.599 33.5222C16.373 33.1948 17.1048 32.886 17.9681 32.886C18.8321 32.886 19.5624 33.1955 20.3344 33.5229L20.3351 33.5232C21.2023 33.8908 22.0987 34.2706 23.2469 34.2706C24.3825 34.2706 25.2818 33.8969 26.1505 33.5358L26.1505 33.5358L26.1532 33.5347L26.157 33.5331C26.958 33.2 27.713 32.886 28.6254 32.886C29.5417 32.886 30.2894 33.2023 31.0804 33.537L31.0831 33.5382L31.0839 33.5385C31.9338 33.8984 32.8129 34.2706 33.923 34.2706ZM34.6153 30.8091H33.923C32.8129 30.8091 31.9338 30.4368 31.0839 30.077L31.0831 30.0766L31.0804 30.0754C30.2894 29.7408 29.5417 29.4245 28.6254 29.4245C27.713 29.4245 26.958 29.7385 26.157 30.0716L26.1532 30.0732L26.1505 30.0743C25.2818 30.4353 24.3825 30.8091 23.2469 30.8091C22.0987 30.8091 21.2023 30.4292 20.3351 30.0617L20.3344 30.0614C19.5624 29.7339 18.8321 29.4245 17.9681 29.4245C17.1048 29.4245 16.373 29.7332 15.599 30.0607L15.5958 30.062C14.7252 30.4292 13.8246 30.8091 12.6719 30.8091C11.5234 30.8091 10.6116 30.4352 9.73029 30.0732L9.72905 30.0726C8.93682 29.7474 8.18876 29.4404 7.31344 29.4404C6.43849 29.4404 5.70956 29.7483 4.93978 30.0735L4.93398 30.0759C4.08175 30.4366 3.20114 30.8091 2.07683 30.8091H1.38452V29.4245H2.07683C2.91792 29.4245 3.63295 29.1228 4.38889 28.8038L4.39468 28.8014C5.21991 28.4518 6.15521 28.0558 7.31344 28.0558C8.46268 28.0558 9.37375 28.4296 10.2551 28.7924C11.0478 29.1178 11.7961 29.4245 12.6719 29.4245C13.5453 29.4245 14.281 29.1138 15.0595 28.7851L15.0596 28.7851L15.0596 28.7851L15.0604 28.7848L15.0614 28.7843C15.9285 28.4182 16.8248 28.0398 17.9681 28.0398C19.1131 28.0398 20.009 28.4192 20.8751 28.7862C21.6491 29.115 22.3794 29.4245 23.2469 29.4245C24.1068 29.4245 24.8434 29.1185 25.6222 28.7945L25.6226 28.7943C26.5142 28.4233 27.4355 28.0398 28.6254 28.0398C29.8231 28.0398 30.7788 28.4444 31.6223 28.8014L31.6238 28.8021L31.6274 28.8036C32.3821 29.1229 33.0949 29.4245 33.923 29.4245H34.6153V30.8091ZM33.923 27.3475H34.6153V25.9629H33.923C33.0949 25.9629 32.3821 25.6613 31.6274 25.3421L31.6238 25.3405L31.6223 25.3399C30.7788 24.9828 29.8231 24.5783 28.6254 24.5783C27.4355 24.5783 26.5142 24.9617 25.6226 25.3328L25.6222 25.3329C24.8434 25.6569 24.1068 25.9629 23.2469 25.9629C22.3794 25.9629 21.6491 25.6535 20.8751 25.3246C20.009 24.9577 19.1131 24.5783 17.9681 24.5783C16.8248 24.5783 15.9285 24.9567 15.0614 25.3228L15.0604 25.3232L15.0596 25.3236L15.0596 25.3236L15.0595 25.3236C14.281 25.6523 13.5453 25.9629 12.6719 25.9629C11.7961 25.9629 11.0478 25.6562 10.2551 25.3308C9.37375 24.9681 8.46268 24.5942 7.31344 24.5942C6.15521 24.5942 5.21991 24.9902 4.39468 25.3398L4.38889 25.3423C3.63295 25.6612 2.91792 25.9629 2.07683 25.9629H1.38452V27.3475H2.07683C3.20114 27.3475 4.08175 26.9751 4.93398 26.6144L4.93978 26.6119C5.70956 26.2868 6.43849 25.9788 7.31344 25.9788C8.18876 25.9788 8.93682 26.2859 9.72905 26.6111L9.73029 26.6116C10.6116 26.9737 11.5234 27.3475 12.6719 27.3475C13.8246 27.3475 14.7252 26.9677 15.5958 26.6005L15.599 26.5992C16.373 26.2717 17.1048 25.9629 17.9681 25.9629C18.8321 25.9629 19.5624 26.2724 20.3344 26.5998L20.3351 26.6002C21.2023 26.9677 22.0987 27.3475 23.2469 27.3475C24.3825 27.3475 25.2818 26.9738 26.1505 26.6128L26.1532 26.6116L26.157 26.61C26.958 26.2769 27.713 25.9629 28.6254 25.9629C29.5417 25.9629 30.2894 26.2793 31.0804 26.6139L31.0831 26.6151L31.084 26.6154C31.9339 26.9753 32.8129 27.3475 33.923 27.3475ZM17.9769 21.1154C14.6352 21.1154 13.0089 20.1517 10.5478 18.693C10.2314 18.5061 10.0382 18.1668 10.0382 17.7999V11.7692C10.0382 11.196 10.5035 10.7308 11.0767 10.7308C11.6499 10.7308 12.1152 11.196 12.1152 11.7692V17.2073C14.1277 18.3911 15.414 19.0385 17.9769 19.0385C20.481 19.0385 21.7701 18.4431 23.8844 17.2066V11.7692C23.8844 11.196 24.3496 10.7308 24.9228 10.7308C25.4961 10.7308 25.9613 11.196 25.9613 11.7692V17.7999C25.9613 18.1668 25.7682 18.5061 25.4525 18.693C22.8418 20.2396 21.2072 21.1154 17.9769 21.1154Z" fill="currentColor"/>
</svg>
