<svg width="36" height="36" viewBox="0 0 36 36" fill="none" xmlns="http://www.w3.org/2000/svg">
<path fill-rule="evenodd" clip-rule="evenodd" d="M22.2736 30.807C22.4204 30.4048 22.7936 30.1147 23.2353 30.1147H29.6966V30.807H22.2736ZM19.8561 32.5405H17.334L16.918 31.2999C16.7954 30.8714 16.6037 30.4768 16.3703 30.1147H20.2985C20.2327 30.3009 20.1815 30.4941 20.1531 30.6948L19.8561 32.5405ZM8.28073 29.8959C8.86711 30.0351 9.47357 30.1147 10.0946 30.1147H12.5931C13.3886 30.1147 14.1176 30.5114 14.569 31.1532H8.28073V29.8959ZM4.34357 23.3882L3.75373 20.637L18.0852 22.8178C18.1163 22.8254 18.1489 22.8282 18.1821 22.8323L32.7863 25.0546L31.5077 28.0378H23.2353C23.2235 28.0378 23.2117 28.0412 23.2007 28.0412V28.0378H12.8506V28.0592C12.7641 28.0537 12.6803 28.0378 12.5931 28.0378H10.0946C7.33988 28.0378 4.92096 26.0827 4.34357 23.3882ZM32.5773 30.0309C32.8265 29.9298 33.037 29.7422 33.147 29.4854L35.224 24.6392C35.3507 24.3436 35.3326 24.0065 35.1769 23.7254C35.0204 23.4443 34.7435 23.2518 34.4257 23.2034L19.3563 20.9098V2.42307C19.3563 1.84984 18.891 1.38461 18.3178 1.38461C17.7446 1.38461 17.2793 1.84984 17.2793 2.42307V20.5941L2.57957 18.3572C2.24242 18.3081 1.90111 18.423 1.66711 18.6722C1.43311 18.9201 1.33619 19.2676 1.4075 19.6013L2.31234 23.8237C2.75057 25.866 3.97111 27.594 5.61534 28.7197L1.74396 33.0404L1.7495 34.6389L3.11473 34.6223L6.2038 31.1746V34.6175H8.28073V32.5378H15.1429L15.6026 33.9085C15.7438 34.3322 16.1412 34.6175 16.587 34.6175H20.7409C21.2504 34.6175 21.6852 34.2478 21.7662 33.7438L21.9046 32.8839H29.6966V34.6133H31.7735V32.3252L33.6462 34.6085L34.9879 34.6181V32.9691L32.5773 30.0309ZM11.9181 22.8853L7.82726 22.164L7.58634 23.5271L11.6772 24.2485L11.9181 22.8853ZM15.5487 19.3839C15.9316 19.3839 16.241 19.0745 16.241 18.6916V3.46084C16.241 3.078 15.9316 2.76854 15.5487 2.76854C15.1659 2.76854 14.8564 3.078 14.8564 3.46084V18.6916C14.8564 19.0745 15.1659 19.3839 15.5487 19.3839ZM21.0872 19.3839C21.47 19.3839 21.7795 19.0745 21.7795 18.6916V6.23007C21.7795 5.84723 21.47 5.53777 21.0872 5.53777C20.7043 5.53777 20.3949 5.84723 20.3949 6.23007V18.6916C20.3949 19.0745 20.7043 19.3839 21.0872 19.3839Z" fill="currentColor"/>
</svg>
